<?xml version="1.0" encoding="utf-8"?>
<!-- Generator: Adobe Illustrator 18.0.0, SVG Export Plug-In . SVG Version: 6.00 Build 0)  -->
<!DOCTYPE svg PUBLIC "-//W3C//DTD SVG 1.1//EN" "http://www.w3.org/Graphics/SVG/1.1/DTD/svg11.dtd">
<svg version="1.1" id="Layer_1" xmlns="http://www.w3.org/2000/svg" xmlns:xlink="http://www.w3.org/1999/xlink" x="0px" y="0px"
	 width="32px" height="32px" viewBox="0 0 32 32" enable-background="new 0 0 32 32" xml:space="preserve">
<g>
	<polygon points="3.052,7 3,7 3,10 3.052,10 7.948,10 8,10 8,7 7.948,7 	"/>
	<polygon points="3.052,12 3,12 3,15 3.052,15 7.948,15 8,15 8,12 7.948,12 	"/>
	<polygon points="3.052,17 3,17 3,20 3.052,20 7.948,20 8,20 8,17 7.948,17 	"/>
	<polygon points="3.052,22 3,22 3,25 3.052,25 7.948,25 8,25 8,22 7.948,22 	"/>
	<polygon points="10,12 10,15 14.948,15 15,15 15,12 14.948,12 	"/>
	<polygon points="10,17 10,20 14.948,20 15,20 15,17 14.948,17 	"/>
	<polygon points="10,22 10,25 14.948,25 15,25 15,22 14.948,22 	"/>
	<polygon points="17,17 17,20 21.948,20 22,20 22,17 21.948,17 	"/>
	<polygon points="17,22 17,25 21.948,25 22,25 22,22 21.948,22 	"/>
	<rect x="24" y="12" width="5" height="3"/>
	<rect x="24" y="17" width="5" height="3"/>
	<rect x="24" y="22" width="5" height="3"/>
</g>
</svg>
