<?xml version="1.0" encoding="utf-8"?>
<!-- Generator: Adobe Illustrator 18.0.0, SVG Export Plug-In . SVG Version: 6.00 Build 0)  -->
<!DOCTYPE svg PUBLIC "-//W3C//DTD SVG 1.1//EN" "http://www.w3.org/Graphics/SVG/1.1/DTD/svg11.dtd">
<svg version="1.1" id="Layer_1" xmlns="http://www.w3.org/2000/svg" xmlns:xlink="http://www.w3.org/1999/xlink" x="0px" y="0px"
	 width="32px" height="32px" viewBox="0 0 32 32" enable-background="new 0 0 32 32" xml:space="preserve">
<g>
	<path d="M21,8.172V7c0-2.761-2.239-5-5-5s-5,2.239-5,5v9c0,0.643,0.132,1.253,0.353,1.818L21,8.172z"/>
	<path d="M9.842,19.33C9.305,18.34,9,17.206,9,16H7c0,1.761,0.516,3.395,1.392,4.78L9.842,19.33z"/>
	<path d="M16,23c-1.206,0-2.34-0.305-3.33-0.842l1.512-1.512C14.747,20.868,15.357,21,16,21c2.761,0,5-2.239,5-5v-2.172l6.414-6.414
		L26,6L6,26l1.414,1.414l3.799-3.799c0.845,0.531,1.784,0.926,2.787,1.154V28h-4v2h12v-2h-4v-3.231c4.007-0.911,7-4.487,7-8.769h-2
		C23,19.866,19.866,23,16,23z"/>
</g>
</svg>
