<?xml version="1.0" encoding="utf-8"?>
<!-- Generator: Adobe Illustrator 18.0.0, SVG Export Plug-In . SVG Version: 6.00 Build 0)  -->
<!DOCTYPE svg PUBLIC "-//W3C//DTD SVG 1.1//EN" "http://www.w3.org/Graphics/SVG/1.1/DTD/svg11.dtd">
<svg version="1.1" id="Layer_1" xmlns="http://www.w3.org/2000/svg" xmlns:xlink="http://www.w3.org/1999/xlink" x="0px" y="0px"
	 width="32px" height="32px" viewBox="0 0 32 32" enable-background="new 0 0 32 32" xml:space="preserve">
<g>
	<path d="M25,16h-2c0,3.866-3.134,7-7,7s-7-3.134-7-7H7c0,4.282,2.993,7.859,7,8.769V28h-4v2h12v-2h-4v-3.231
		C22.007,23.859,25,20.282,25,16z"/>
	<path d="M16,21c2.761,0,5-2.239,5-5V7c0-2.761-2.239-5-5-5s-5,2.239-5,5v9C11,18.761,13.239,21,16,21z"/>
</g>
</svg>
