<?xml version="1.0" encoding="utf-8"?>
<!-- Generator: Adobe Illustrator 18.0.0, SVG Export Plug-In . SVG Version: 6.00 Build 0)  -->
<!DOCTYPE svg PUBLIC "-//W3C//DTD SVG 1.1//EN" "http://www.w3.org/Graphics/SVG/1.1/DTD/svg11.dtd">
<svg version="1.1" id="Layer_1" xmlns="http://www.w3.org/2000/svg" xmlns:xlink="http://www.w3.org/1999/xlink" x="0px" y="0px"
	 width="32px" height="32px" viewBox="0 0 32 32" enable-background="new 0 0 32 32" xml:space="preserve">
<g>
	<path d="M22.9,9c-0.7-0.4-0.9-1-1-1.4v-1c0-0.8-0.7-1.5-1.5-1.5s-1.5,0.7-1.5,1.5v12.6c-0.3-0.1-0.7-0.1-1-0.1c-2.2,0-4,1.8-4,4
		s1.8,4,4,4s4-1.8,4-4v-8c0,0,0,0,0,0l0,0c1.7,0,3,2,3,5V21c0,0.3,0,0.5,0,0.7c0,0.3,0.4,0.4,0.5,0.1c0.6-1.5,1.5-4.2,1.5-6.9
		C26.9,11.2,24.9,10.1,22.9,9z"/>
	<polygon points="8.4,5 7.6,7.5 5.1,7.5 7.1,9 6.4,11.4 8.4,9.9 10.5,11.4 9.7,9 11.8,7.5 9.2,7.5 	"/>
	<polygon points="8.4,12.8 7.6,15.2 5.1,15.2 7.1,16.8 6.4,19.2 8.4,17.7 10.5,19.2 9.7,16.8 11.8,15.2 9.2,15.2 	"/>
	<polygon points="9.2,23 8.4,20.6 7.6,23 5.1,23 7.1,24.5 6.4,27 8.4,25.5 10.5,27 9.7,24.5 11.8,23 	"/>
</g>
</svg>
