<?xml version="1.0" encoding="utf-8"?>
<!-- Generator: Adobe Illustrator 18.0.0, SVG Export Plug-In . SVG Version: 6.00 Build 0)  -->
<!DOCTYPE svg PUBLIC "-//W3C//DTD SVG 1.1//EN" "http://www.w3.org/Graphics/SVG/1.1/DTD/svg11.dtd">
<svg version="1.1" id="Layer_1" xmlns="http://www.w3.org/2000/svg" xmlns:xlink="http://www.w3.org/1999/xlink" x="0px" y="0px"
	 width="32px" height="32px" viewBox="0 0 32 32" enable-background="new 0 0 32 32" xml:space="preserve">
<g>
	<path d="M11,8H8c-1.657,0-3,1.343-3,3v2H2v6h3v2c0,1.659,1.342,3.002,3,3h3l4,4h2V4h-2L11,8z"/>
	<path d="M25.899,6.1l-2.121,2.121c4.289,4.289,4.289,11.268,0,15.557l2.121,2.121C31.367,20.432,31.367,11.567,25.899,6.1z"/>
	<path d="M21.657,10.342l-2.121,2.121c1.95,1.95,1.95,5.122,0,7.072l2.121,2.121C24.781,18.532,24.781,13.467,21.657,10.342z"/>
</g>
</svg>
