<?xml version="1.0" encoding="utf-8"?>
<!-- Generator: Adobe Illustrator 18.0.0, SVG Export Plug-In . SVG Version: 6.00 Build 0)  -->
<!DOCTYPE svg PUBLIC "-//W3C//DTD SVG 1.1//EN" "http://www.w3.org/Graphics/SVG/1.1/DTD/svg11.dtd">
<svg version="1.1" id="Layer_1" xmlns="http://www.w3.org/2000/svg" xmlns:xlink="http://www.w3.org/1999/xlink" x="0px" y="0px"
	 width="32px" height="32px" viewBox="0 0 32 32" enable-background="new 0 0 32 32" xml:space="preserve">
<g>
	<path d="M22,2H10C8.9,2,8,2.9,8,4v24c0,1.1,0.9,2,2,2h12c1.1,0,2-0.9,2-2V4C24,2.9,23.1,2,22,2z M16,7c1.105,0,2,0.895,2,2
		c0,1.105-0.895,2-2,2s-2-0.895-2-2C14,7.895,14.895,7,16,7z M16,26c-2.761,0-5-2.239-5-5s2.239-5,5-5s5,2.239,5,5S18.761,26,16,26z
		"/>
	<circle cx="16" cy="21" r="2"/>
</g>
</svg>
