<?xml version="1.0" encoding="utf-8"?>
<!-- Generator: Adobe Illustrator 18.0.0, SVG Export Plug-In . SVG Version: 6.00 Build 0)  -->
<!DOCTYPE svg PUBLIC "-//W3C//DTD SVG 1.1//EN" "http://www.w3.org/Graphics/SVG/1.1/DTD/svg11.dtd">
<svg version="1.1" id="Layer_1" xmlns="http://www.w3.org/2000/svg" xmlns:xlink="http://www.w3.org/1999/xlink" x="0px" y="0px"
	 width="32px" height="32px" viewBox="0 0 32 32" enable-background="new 0 0 32 32" xml:space="preserve">
<g>
	<g>
		<path d="M13,4C6.9,4,2,8.9,2,15s4.9,11,11,11s11-4.9,11-11S19.1,4,13,4z M7,15l-3,0c0-2.5,1-4.8,2.6-6.4l0.8,0.8
			c-0.5,0.6-0.9,1.2-1.2,1.9c-0.2,0.5-0.4,1-0.5,1.6c0-0.1,0.1-0.3,0.1-0.4c0.4-1.1,1.1-2,2-2.7l0.9,0.9C7.7,11.8,7,13.3,7,15z
			 M9,15c0-2.2,1.8-4,4-4s4,1.8,4,4c0,2.2-1.8,4-4,4S9,17.2,9,15z M18.6,20.6c0.5-0.6,0.8-1.2,1.1-1.9c0.2-0.5,0.4-1,0.5-1.6
			c0,0.1-0.1,0.3-0.1,0.4c-0.4,1.1-1.1,1.9-1.9,2.6l-0.9-0.9c1.1-1.1,1.8-2.6,1.8-4.2l3,0c0,2.5-1,4.8-2.6,6.4L18.6,20.6z"/>
		<circle cx="13" cy="15" r="2"/>
	</g>
	<path d="M29,5.3V3h-2v2.3c-0.6,0.3-1,1-1,1.7c0,0.7,0.4,1.4,1,1.7v10c0,1.8-0.7,3.5-1.9,4.8c-0.3-0.1-0.7,0-0.9,0.2l-2.8,2.8
		c-0.4,0.4-0.4,1,0,1.4l0.7,0.7c0.4,0.4,1,0.4,1.4,0l2.8-2.8c0.3-0.3,0.3-0.6,0.2-1c1.6-1.7,2.5-3.9,2.5-6.2v-10c0.6-0.3,1-1,1-1.7
		C30,6.3,29.6,5.6,29,5.3z"/>
</g>
</svg>
