<?xml version="1.0" encoding="utf-8"?>
<!-- Generator: Adobe Illustrator 18.1.1, SVG Export Plug-In . SVG Version: 6.00 Build 0)  -->
<!DOCTYPE svg PUBLIC "-//W3C//DTD SVG 1.1//EN" "http://www.w3.org/Graphics/SVG/1.1/DTD/svg11.dtd">
<svg version="1.1" xmlns="http://www.w3.org/2000/svg" xmlns:xlink="http://www.w3.org/1999/xlink" x="0px" y="0px" width="32px"
	 height="32px" viewBox="0 0 32 32" enable-background="new 0 0 32 32" xml:space="preserve">
<g id="Guides__x26__Labels">
</g>
<g id="Icons_-_V2">
	<g>
		<path d="M30.869,11H29v-0.971C29,8.357,27.874,7,26.202,7H4.013C2.344,7,1,8.357,1,10.029v12.103C1,23.805,2.344,25,4.013,25
			h22.189C27.874,25,29,23.805,29,22.133V21h1.869C31.642,21,32,20.49,32,19.721v-7.297C32,11.654,31.642,11,30.869,11z M26,22H4V10
			h22V22z"/>
		<polygon points="17,17 24,17 13,12 13,15 6,15 17,20 		"/>
	</g>
</g>
</svg>
