<?xml version="1.0" encoding="utf-8"?>
<!-- Generator: Adobe Illustrator 18.1.1, SVG Export Plug-In . SVG Version: 6.00 Build 0)  -->
<!DOCTYPE svg PUBLIC "-//W3C//DTD SVG 1.1//EN" "http://www.w3.org/Graphics/SVG/1.1/DTD/svg11.dtd">
<svg version="1.1" id="Layer_1" xmlns="http://www.w3.org/2000/svg" xmlns:xlink="http://www.w3.org/1999/xlink" x="0px" y="0px"
	 width="32px" height="32px" viewBox="0 0 32 32" enable-background="new 0 0 32 32" xml:space="preserve">
<g>
	<path d="M30,7h-2v10c0,2.206-1.794,4-4,4h-7.764l-3.998,4h4.503h1.847l5.701,5.705c0.63,0.63,1.707,0.184,1.707-0.707V25H26h4
		c1.105,0,2-0.896,2-2V9C32,7.895,31.105,7,30,7z"/>
	<path d="M24,19c1.105,0,2-0.896,2-2V3c0-1.105-0.895-2-2-2H2C0.895,1,0,1.895,0,3v14c0,1.104,0.895,2,2,2h4v6.998
		c0,0.891,1.077,1.337,1.707,0.707l7.7-7.705H24z M20.009,7.522c1.104,0,2,0.896,2,2s-0.896,2-2,2c-1.104,0-2-0.896-2-2
		S18.905,7.522,20.009,7.522z M5.991,11.522c-1.104,0-2-0.896-2-2s0.896-2,2-2c1.104,0,2,0.896,2,2S7.096,11.522,5.991,11.522z
		 M12.996,11.522c-1.104,0-2-0.896-2-2s0.895-2,2-2c1.105,0,2,0.896,2,2S14.1,11.522,12.996,11.522z"/>
</g>
</svg>
