<?xml version="1.0" encoding="utf-8"?>
<!-- Generator: Adobe Illustrator 18.1.1, SVG Export Plug-In . SVG Version: 6.00 Build 0)  -->
<!DOCTYPE svg PUBLIC "-//W3C//DTD SVG 1.1//EN" "http://www.w3.org/Graphics/SVG/1.1/DTD/svg11.dtd">
<svg version="1.1" xmlns="http://www.w3.org/2000/svg" xmlns:xlink="http://www.w3.org/1999/xlink" x="0px" y="0px" width="32px"
	 height="32px" viewBox="0 0 32 32" enable-background="new 0 0 32 32" xml:space="preserve">
<g id="Guides__x26__Labels">
</g>
<g id="Icons_-_V2">
	<g>
		<polygon points="14.06,30 18.044,30 16.067,27.006 		"/>
		<polygon points="18.057,2 14.072,2 16.049,4.994 		"/>
		<polygon points="29.006,16.012 32,18.019 32,14.035 		"/>
		<polygon points="0,17.998 2.994,16.021 0,14.014 		"/>
		<path d="M24.044,7h-16C6.387,7,5,8.369,5,10.027v12C5,23.684,6.387,25,8.044,25h16C25.701,25,27,23.684,27,22.027v-12
			C27,8.369,25.701,7,24.044,7z M24,22H8V10h16V22z"/>
		<rect x="10" y="12" width="12" height="4"/>
	</g>
</g>
</svg>
