<?xml version="1.0" encoding="utf-8"?>
<!-- Generator: Adobe Illustrator 18.1.1, SVG Export Plug-In . SVG Version: 6.00 Build 0)  -->
<!DOCTYPE svg PUBLIC "-//W3C//DTD SVG 1.1//EN" "http://www.w3.org/Graphics/SVG/1.1/DTD/svg11.dtd">
<svg version="1.1" xmlns="http://www.w3.org/2000/svg" xmlns:xlink="http://www.w3.org/1999/xlink" x="0px" y="0px" width="32px"
	 height="32px" viewBox="0 0 32 32" enable-background="new 0 0 32 32" xml:space="preserve">
<g id="Guides__x26__Labels">
</g>
<g id="Icons_-_V2">
	<g>
		<path d="M20.217,4.283c-3.71-3.711-9.725-3.711-13.436,0c-3.709,3.709-3.709,9.724,0.001,13.433
			c3.098,3.098,7.796,3.601,11.425,1.526l8.02,8.021l3.536-3.536l-8.022-8.021C23.817,12.077,23.315,7.381,20.217,4.283z
			 M17.389,7.111c2.148,2.148,2.148,5.629,0,7.776c-2.149,2.149-5.631,2.148-7.778,0c-2.148-2.148-2.148-5.629,0-7.776
			C11.759,4.963,15.241,4.963,17.389,7.111z"/>
		<rect x="10" y="10" width="7" height="2"/>
	</g>
</g>
</svg>
