<?xml version="1.0" encoding="utf-8"?>
<!-- Generator: Adobe Illustrator 18.1.1, SVG Export Plug-In . SVG Version: 6.00 Build 0)  -->
<!DOCTYPE svg PUBLIC "-//W3C//DTD SVG 1.1 Tiny//EN" "http://www.w3.org/Graphics/SVG/1.1/DTD/svg11-tiny.dtd">
<svg version="1.1" baseProfile="tiny" id="Layer_1" xmlns="http://www.w3.org/2000/svg" xmlns:xlink="http://www.w3.org/1999/xlink"
	 x="0px" y="0px" width="32px" height="32px" viewBox="0 0 32 32" xml:space="preserve">
<g>
	<path d="M20,9.387V7c0-1.1-0.9-2-2-2s-2,0.9-2,2v4.4c-0.365-0.448-0.915-0.74-1.538-0.74c-0.433,0-0.832,0.142-1.159,0.377
		L8.996,13.53l0.003,0.005C8.404,13.881,8,14.517,8,15.253v3.289c0,0.843,0.171,1.642,0.465,2.381L20,9.387z"/>
	<path d="M25.788,15.354c-0.04-0.04-0.083-0.075-0.129-0.102l0.002-0.002c-1.545-0.971-3.608-0.787-4.953,0.558L20,16.515V15
		l5.234-5.234l-1.403-1.403L6.597,25.597L8,27l3.001-3.001c1.004,0.641,2.194,1.017,3.473,1.017c1.732,0,3.301-0.684,4.462-1.792
		l0.001,0.009l6.851-6.851C26.072,16.098,26.072,15.638,25.788,15.354z"/>
</g>
</svg>
