<?xml version="1.0" encoding="utf-8"?>
<!-- Generator: Adobe Illustrator 18.1.1, SVG Export Plug-In . SVG Version: 6.00 Build 0)  -->
<!DOCTYPE svg PUBLIC "-//W3C//DTD SVG 1.1 Tiny//EN" "http://www.w3.org/Graphics/SVG/1.1/DTD/svg11-tiny.dtd">
<svg version="1.1" baseProfile="tiny" id="Layer_1" xmlns="http://www.w3.org/2000/svg" xmlns:xlink="http://www.w3.org/1999/xlink"
	 x="0px" y="0px" width="32px" height="32px" viewBox="0 0 32 32" xml:space="preserve">
<g>
	<path d="M15.514,25.004l-2.493-4.307c-0.235-0.327-0.377-0.726-0.377-1.159c0-0.623,0.292-1.173,0.74-1.538h-4.4c-1.1,0-2-0.9-2-2
		c0-1.1,0.9-2,2-2h9.515l-0.708-0.707c-1.345-1.345-1.529-3.408-0.558-4.953l0.002,0.002c0.027-0.046,0.062-0.089,0.102-0.129
		c0.284-0.285,0.745-0.285,1.029-0.001l6.851,6.851l-0.009,0.001C26.316,16.225,27,17.794,27,19.526C27,23.102,24.102,26,20.526,26
		h-3.289c-0.736,0-1.372-0.404-1.718-0.999L15.514,25.004z"/>
	<polygon points="9.991,12.351 6.637,8.995 9.991,5.64 9.991,8 13,8 13,10 9.991,10 	"/>
</g>
</svg>
