<?xml version="1.0" encoding="utf-8"?>
<!-- Generator: Adobe Illustrator 18.1.1, SVG Export Plug-In . SVG Version: 6.00 Build 0)  -->
<!DOCTYPE svg PUBLIC "-//W3C//DTD SVG 1.1//EN" "http://www.w3.org/Graphics/SVG/1.1/DTD/svg11.dtd">
<svg version="1.1" id="Layer_1" xmlns="http://www.w3.org/2000/svg" xmlns:xlink="http://www.w3.org/1999/xlink" x="0px" y="0px"
	 width="32px" height="32px" viewBox="0 0 32 32" enable-background="new 0 0 32 32" xml:space="preserve">
<g>
	<path d="M15,5.555V4.424C13.237,5.197,12,6.955,12,9c0,0.886,0.251,1.708,0.658,2.43l0.856-0.507C13.196,10.35,13,9.701,13,9
		C13,7.523,13.809,6.248,15,5.555z"/>
	<path d="M19,4.424v1.131C20.191,6.248,21,7.523,21,9c0,0.701-0.196,1.351-0.513,1.924l0.856,0.507C21.749,10.708,22,9.886,22,9
		C22,6.955,20.763,5.197,19,4.424z"/>
</g>
<path d="M24.786,18.337c-0.04-0.04-0.083-0.075-0.129-0.102l0.002-0.002c-1.545-0.971-3.608-0.787-4.953,0.558l-0.707,0.708V9
	c0-1.1-0.9-2-2-2C15.899,7,15,7.9,15,9v5.384c-0.365-0.448-0.916-0.74-1.539-0.74c-0.433,0-0.832,0.142-1.159,0.377l-4.307,2.493
	l0.003,0.005C7.403,16.865,7,17.501,7,18.237v3.289C7,25.102,9.897,28,13.473,28c1.732,0,3.301-0.684,4.462-1.792l0.001,0.009
	l6.851-6.851C25.071,19.082,25.071,18.621,24.786,18.337z"/>
</svg>
