<?xml version="1.0" encoding="utf-8"?>
<!-- Generator: Adobe Illustrator 18.1.1, SVG Export Plug-In . SVG Version: 6.00 Build 0)  -->
<!DOCTYPE svg PUBLIC "-//W3C//DTD SVG 1.1//EN" "http://www.w3.org/Graphics/SVG/1.1/DTD/svg11.dtd">
<svg version="1.1" id="Layer_1" xmlns="http://www.w3.org/2000/svg" xmlns:xlink="http://www.w3.org/1999/xlink" x="0px" y="0px"
	 width="32px" height="32px" viewBox="0 0 32 32" enable-background="new 0 0 32 32" xml:space="preserve">
<g>
	<path d="M21.657,18.079l0.002-0.002c-1.545-0.971-3.608-0.787-4.953,0.558L16,19.343V10c0-1.1-0.9-2-2-2c-1.1,0-2,0.9-2,2v4.228
		c-0.365-0.448-0.916-0.74-1.539-0.74c-0.433,0-0.832,0.142-1.159,0.377l-4.307,2.493l0.003,0.005C4.404,16.709,4,17.345,4,18.081
		v3.289c0,3.576,2.93,6.474,6.506,6.474c1.732,0,3.494-0.684,4.494-1.792v0.009l6.819-6.851c0.284-0.284,0.268-0.745-0.017-1.029
		C21.762,18.141,21.703,18.106,21.657,18.079z"/>
	<path d="M26,13v-1.002C26,8.69,23.31,6,20.002,6H19V4.005l-2.994,2.994L19,9.992V8h1.002C22.208,8,24,9.793,24,11.998V13h-1.983
		l2.994,2.994L28.005,13H26z"/>
</g>
</svg>
