<?xml version="1.0" encoding="utf-8"?>
<!-- Generator: Adobe Illustrator 18.1.1, SVG Export Plug-In . SVG Version: 6.00 Build 0)  -->
<!DOCTYPE svg PUBLIC "-//W3C//DTD SVG 1.1 Tiny//EN" "http://www.w3.org/Graphics/SVG/1.1/DTD/svg11-tiny.dtd">
<svg version="1.1" baseProfile="tiny" id="Layer_1" xmlns="http://www.w3.org/2000/svg" xmlns:xlink="http://www.w3.org/1999/xlink"
	 x="0px" y="0px" width="32px" height="32px" viewBox="0 0 32 32" xml:space="preserve">
<g>
	<circle cx="16.993" cy="4.976" r="1.996"/>
	<circle cx="10.999" cy="4.976" r="1.996"/>
	<circle cx="23.001" cy="4.976" r="1.996"/>
	<circle cx="10.999" cy="10.98" r="1.996"/>
	<path d="M23.001,8.985c-1.102,0-1.997,0.894-1.997,1.995c0,1.103,0.895,1.996,1.997,1.996c1.1,0,1.992-0.893,1.992-1.996
		C24.993,9.878,24.101,8.985,23.001,8.985z"/>
	<path d="M24.786,19.337c-0.04-0.04-0.083-0.075-0.129-0.102l0.002-0.002c-1.545-0.971-3.608-0.787-4.953,0.558l-0.707,0.708v-9.515
		c0-1.1-0.9-2-2-2s-1.999,0.9-1.999,2v4.4c-0.365-0.448-0.916-0.74-1.539-0.74c-0.433,0-0.832,0.142-1.159,0.377l-4.307,2.493
		l0.003,0.005c-0.595,0.346-0.999,0.982-0.999,1.718v3.289c0,3.576,2.898,6.474,6.474,6.474c1.732,0,3.301-0.684,4.462-1.792
		l0.001,0.009l6.851-6.851C25.071,20.082,25.071,19.621,24.786,19.337z"/>
</g>
</svg>
