<?xml version="1.0" encoding="utf-8"?>
<!-- Generator: Adobe Illustrator 18.1.1, SVG Export Plug-In . SVG Version: 6.00 Build 0)  -->
<!DOCTYPE svg PUBLIC "-//W3C//DTD SVG 1.1 Tiny//EN" "http://www.w3.org/Graphics/SVG/1.1/DTD/svg11-tiny.dtd">
<svg version="1.1" baseProfile="tiny" id="Layer_1" xmlns="http://www.w3.org/2000/svg" xmlns:xlink="http://www.w3.org/1999/xlink"
	 x="0px" y="0px" width="32px" height="32px" viewBox="0 0 32 32" xml:space="preserve">
<g>
	<path d="M18,6c0-1.1-0.9-2-2-2s-2,0.9-2,2v1h4V6z"/>
	<path d="M25.002,16.52l0.003-0.005l-4.307-2.493c-0.328-0.235-0.726-0.377-1.159-0.377c-0.624,0-1.173,0.292-1.538,0.74v-2.164
		c-0.039-0.035-0.084-0.062-0.121-0.1L16,10.243l-1.879,1.879c-0.038,0.038-0.082,0.064-0.121,0.1v7.278l-0.707-0.707
		c-1.345-1.345-3.409-1.529-4.953-0.558l0.002,0.002c-0.046,0.027-0.089,0.062-0.129,0.102c-0.284,0.284-0.284,0.744,0,1.028
		l6.851,6.851l0.001-0.009C16.225,27.316,17.794,28,19.526,28C23.102,28,26,25.102,26,21.526v-3.289
		C26,17.502,25.596,16.866,25.002,16.52z"/>
	<path d="M12,12c0.552,0,1.052-0.224,1.414-0.586L16,8.828l2.586,2.586C18.948,11.776,19.448,12,20,12c1.105,0,2-0.895,2-2
		c0-1.105-0.895-2-2-2h-8c-1.105,0-2,0.895-2,2C10,11.105,10.895,12,12,12z M20,9c0.551,0,1,0.449,1,1s-0.449,1-1,1
		c-0.267,0-0.518-0.104-0.707-0.293L17.586,9H20z M12,9h2.414l-1.707,1.707C12.518,10.896,12.267,11,12,11c-0.551,0-1-0.449-1-1
		S11.449,9,12,9z"/>
</g>
</svg>
