<?xml version="1.0" encoding="utf-8"?>
<!-- Generator: Adobe Illustrator 18.1.1, SVG Export Plug-In . SVG Version: 6.00 Build 0)  -->
<!DOCTYPE svg PUBLIC "-//W3C//DTD SVG 1.1//EN" "http://www.w3.org/Graphics/SVG/1.1/DTD/svg11.dtd">
<svg version="1.1" id="Layer_1" xmlns="http://www.w3.org/2000/svg" xmlns:xlink="http://www.w3.org/1999/xlink" x="0px" y="0px"
	 width="32px" height="32px" viewBox="0 0 32 32" enable-background="new 0 0 32 32" xml:space="preserve">
<g>
	<path d="M24.464,12.837c-0.812-0.578-1.947-0.398-2.652,0.307l-0.267,0.268c0.778-0.778,0.778-2.051,0-2.828
		c-0.778-0.778-2.051-0.778-2.828,0L11.999,17.3l0-0.999c0-1.902-1.329-3.492-3.108-3.897v0.003
		c-0.052-0.013-0.107-0.019-0.163-0.019C8.326,12.387,8,12.713,8,13.115l0,9.524c0,0.003,0,0.005,0,0.008l0,0.157l0.007-0.006
		c0.038,1.578,0.644,3.145,1.829,4.362c2.518,2.584,6.857,2.419,9.408-0.133l1.461-1.461c0.51-0.51,0.698-1.25,0.515-1.948
		c-0.25-0.954-0.642-2.035-1.112-3.114l4.618-4.618C25.583,15.03,25.495,13.572,24.464,12.837z"/>
</g>
<polygon points="13.828,8.009 13.828,10.54 17.363,7.005 13.828,3.469 13.828,5.999 11,6 11,8.009 "/>
</svg>
