<?xml version="1.0" encoding="utf-8"?>
<!-- Generator: Adobe Illustrator 18.1.1, SVG Export Plug-In . SVG Version: 6.00 Build 0)  -->
<!DOCTYPE svg PUBLIC "-//W3C//DTD SVG 1.1//EN" "http://www.w3.org/Graphics/SVG/1.1/DTD/svg11.dtd">
<svg version="1.1" id="Layer_1" xmlns="http://www.w3.org/2000/svg" xmlns:xlink="http://www.w3.org/1999/xlink" x="0px" y="0px"
	 width="32px" height="32px" viewBox="0 0 32 32" enable-background="new 0 0 32 32" xml:space="preserve">
<path d="M20.658,19.236l0.002-0.002c-1.545-0.971-3.608-0.787-4.953,0.558L15,20.499V11c0-1.1-0.9-2-2-2s-2,0.9-2,2v-0.378
	c0-0.997-0.675-1.927-1.658-2.093C8.093,8.319,7,9.288,7,10.5v6.53c-1.095,0.431-2.136,0.918-2.988,1.416
	c-0.623,0.364-1.013,1.02-1.013,1.741v2.066c0,3.608,2.951,6.793,6.559,6.746c1.698-0.022,3.235-0.702,4.377-1.791l0.001,0.009
	l0.111-0.111c0.002-0.002,0.004-0.004,0.005-0.005l6.734-6.735c0.284-0.284,0.284-0.744,0-1.028
	C20.747,19.298,20.704,19.263,20.658,19.236z"/>
<polygon points="27.21,13.79 29,12 24,12 24,17 25.789,15.211 27.789,17.21 29.21,15.789 "/>
<polygon points="16,9 21,9 21,4 19.211,5.789 17.211,3.79 15.79,5.211 17.79,7.21 "/>
</svg>
