<?xml version="1.0" encoding="utf-8"?>
<!-- Generator: Adobe Illustrator 18.1.1, SVG Export Plug-In . SVG Version: 6.00 Build 0)  -->
<!DOCTYPE svg PUBLIC "-//W3C//DTD SVG 1.1//EN" "http://www.w3.org/Graphics/SVG/1.1/DTD/svg11.dtd">
<svg version="1.1" id="Layer_1" xmlns="http://www.w3.org/2000/svg" xmlns:xlink="http://www.w3.org/1999/xlink" x="0px" y="0px"
	 width="32px" height="32px" viewBox="0 0 32 32" enable-background="new 0 0 32 32" xml:space="preserve">
<g>
	<path d="M24.787,16.338c-0.04-0.04-0.083-0.075-0.129-0.102l0.002-0.002c-1.545-0.971-3.608-0.787-4.953,0.558l-0.707,0.707V14.5
		c0-1.1-0.9-2-2-2C16.495,12.546,15.61,12.655,15,12.79V8.093C15,7.096,14.325,6.165,13.342,6C12.093,5.79,11,6.759,11,7.971v6.059
		c-1.095,0.431-2.136,0.918-2.988,1.416c-0.623,0.364-1.013,1.02-1.013,1.741v2.066c0,3.608,2.951,6.793,6.559,6.747
		c1.698-0.022,3.235-0.702,4.377-1.791l0.001,0.009l0.111-0.111c0.002-0.002,0.004-0.004,0.005-0.005l6.734-6.735
		C25.071,17.083,25.071,16.622,24.787,16.338z"/>
</g>
</svg>
