<?xml version="1.0" encoding="utf-8"?>
<!-- Generator: Adobe Illustrator 18.1.1, SVG Export Plug-In . SVG Version: 6.00 Build 0)  -->
<!DOCTYPE svg PUBLIC "-//W3C//DTD SVG 1.1 Tiny//EN" "http://www.w3.org/Graphics/SVG/1.1/DTD/svg11-tiny.dtd">
<svg version="1.1" baseProfile="tiny" id="Layer_1" xmlns="http://www.w3.org/2000/svg" xmlns:xlink="http://www.w3.org/1999/xlink"
	 x="0px" y="0px" width="32px" height="32px" viewBox="0 0 32 32" xml:space="preserve">
<g>
	<path d="M23.657,20.251l0.002-0.002c-1.545-0.971-3.608-0.787-4.953,0.558l-0.707,0.708V12c0-1.1-0.9-2-2-2c-1.1,0-2,0.9-2,2v4.4
		c-0.365-0.448-0.915-0.74-1.538-0.74c-0.433,0-0.832,0.142-1.159,0.377L6.995,18.53l0.003,0.005
		c-0.595,0.346-0.999,0.982-0.999,1.718v3.289c0,3.576,2.898,6.474,6.474,6.474c1.732,0,3.301-0.684,4.462-1.792l0.001,0.009
		l6.851-6.851c0.284-0.284,0.284-0.745-0.001-1.029C23.746,20.313,23.703,20.278,23.657,20.251z"/>
	<polygon points="23.009,15.376 26.363,12.021 23.009,8.665 23.009,11.016 20,11.016 20,13.026 23.009,13.026 	"/>
	<polygon points="9.354,13.026 12.363,13.026 12.363,11.016 9.354,11.016 9.354,8.665 6,12.021 9.354,15.376 	"/>
	<polygon points="14.99,9 17,9 17,5.991 19.351,5.991 15.995,2.637 12.64,5.991 14.99,5.991 	"/>
</g>
</svg>
