<?xml version="1.0" encoding="utf-8"?>
<!-- Generator: Adobe Illustrator 18.1.1, SVG Export Plug-In . SVG Version: 6.00 Build 0)  -->
<!DOCTYPE svg PUBLIC "-//W3C//DTD SVG 1.1//EN" "http://www.w3.org/Graphics/SVG/1.1/DTD/svg11.dtd">
<svg version="1.1" id="Layer_1" xmlns="http://www.w3.org/2000/svg" xmlns:xlink="http://www.w3.org/1999/xlink" x="0px" y="0px"
	 width="32px" height="32px" viewBox="0 0 32 32" enable-background="new 0 0 32 32" xml:space="preserve">
<g>
	<path d="M21.659,18.236l0.002-0.002c-1.545-0.971-3.608-0.787-4.953,0.558L16,19.498V10c0-1.1-0.899-2-1.999-2s-2,0.9-2,2V9.622
		c0-0.997-0.675-1.927-1.658-2.093C9.094,7.319,8.001,8.288,8.001,9.5v6.53c-1.095,0.431-2.136,0.918-2.988,1.416
		C4.39,17.81,4,18.466,4,19.187v2.066c0,3.608,2.951,6.793,6.559,6.746c1.698-0.022,3.235-0.702,4.377-1.791l0.001,0.009
		l0.111-0.111c0.002-0.002,0.004-0.004,0.005-0.005l6.734-6.735c0.284-0.284,0.284-0.744,0-1.028
		C21.748,18.298,21.705,18.263,21.659,18.236z"/>
	<path d="M26.002,13.003v-1.009c0-3.309-2.691-6-6-6h-1.006V4l-2.994,2.994l2.994,2.994V7.994h1.006c2.206,0,4,1.794,4,4v1.009
		h-1.984l2.994,2.994l2.994-2.994H26.002z"/>
</g>
</svg>
