<?xml version="1.0" encoding="utf-8"?>
<!-- Generator: Adobe Illustrator 18.1.1, SVG Export Plug-In . SVG Version: 6.00 Build 0)  -->
<!DOCTYPE svg PUBLIC "-//W3C//DTD SVG 1.1 Tiny//EN" "http://www.w3.org/Graphics/SVG/1.1/DTD/svg11-tiny.dtd">
<svg version="1.1" baseProfile="tiny" id="Layer_1" xmlns="http://www.w3.org/2000/svg" xmlns:xlink="http://www.w3.org/1999/xlink"
	 x="0px" y="0px" width="32px" height="32px" viewBox="0 0 32 32" xml:space="preserve">
<g>
	<path fill="#231F20" d="M7.74,14.999l0.407,0.407C7.66,15.771,7.34,16.347,7.34,16.999c0,1.1,0.9,2,2,2h3.515l-0.708,0.707
		c-1.345,1.345-1.529,3.408-0.558,4.953l0.002-0.002c0.027,0.046,0.062,0.089,0.102,0.129c0.284,0.285,0.745,0.285,1.029,0.001
		l6.851-6.851l-0.009-0.001c0.275-0.288,0.523-0.601,0.742-0.936H21v-8h-1.445c-1.178-1.23-2.834-2-4.673-2h-3.289
		c-0.736,0-1.372,0.404-1.718,0.999L9.87,7.995l-2.493,4.307C7.142,12.629,7,13.028,7,13.461C7,14.084,7.292,14.634,7.74,14.999z"/>
	<path fill="#231F20" d="M26,8h-4v10h4V8z M24,10.968c-0.552,0-1-0.448-1-1c0-0.552,0.448-1,1-1s1,0.448,1,1
		C25,10.521,24.552,10.968,24,10.968z"/>
</g>
</svg>
