<?xml version="1.0" encoding="utf-8"?>
<!-- Generator: Adobe Illustrator 18.1.1, SVG Export Plug-In . SVG Version: 6.00 Build 0)  -->
<!DOCTYPE svg PUBLIC "-//W3C//DTD SVG 1.1//EN" "http://www.w3.org/Graphics/SVG/1.1/DTD/svg11.dtd">
<svg version="1.1" id="Layer_1" xmlns="http://www.w3.org/2000/svg" xmlns:xlink="http://www.w3.org/1999/xlink" x="0px" y="0px"
	 width="32px" height="32px" viewBox="0 0 32 32" enable-background="new 0 0 32 32" xml:space="preserve">
<g>
	<polygon points="22,4 17,4 17,9 18.789,7.211 20.789,9.21 22.21,7.789 20.21,5.79 	"/>
	<path d="M21.658,19.235l0.002-0.002c-0.58-0.364-1.232-0.566-1.892-0.605c-1.1-0.065-2.221,0.322-3.062,1.163L16,20.498v-9.514
		c0-1.1-0.9-2-2-2c0,0,0,0,0,0s0,0,0,0c-1.1,0-1.999,0.9-1.999,2v4.399c-0.365-0.447-0.915-0.739-1.538-0.739c0,0,0,0,0,0
		c0,0,0,0,0,0c-0.433,0-0.832,0.142-1.159,0.377l-4.307,2.493l0.003,0.005c-0.595,0.346-0.999,0.982-0.999,1.718v3.289
		c0,3.576,2.898,6.474,6.474,6.474c0,0,0,0,0,0s0,0,0,0c1.732,0,3.3-0.684,4.461-1.791l0.001,0.008l0.001-0.001l0,0.001l6.851-6.851
		c0.284-0.284,0.284-0.745-0.001-1.029C21.747,19.297,21.704,19.262,21.658,19.235z"/>
	<polygon points="26.211,11.789 24.211,9.79 22.79,11.211 24.79,13.21 23,15 28,15 28,10 	"/>
</g>
</svg>
