<?xml version="1.0" encoding="utf-8"?>
<!-- Generator: Adobe Illustrator 18.1.1, SVG Export Plug-In . SVG Version: 6.00 Build 0)  -->
<!DOCTYPE svg PUBLIC "-//W3C//DTD SVG 1.1//EN" "http://www.w3.org/Graphics/SVG/1.1/DTD/svg11.dtd">
<svg version="1.1" id="Layer_1" xmlns="http://www.w3.org/2000/svg" xmlns:xlink="http://www.w3.org/1999/xlink" x="0px" y="0px"
	 width="32px" height="32px" viewBox="0 0 32 32" enable-background="new 0 0 32 32" xml:space="preserve">
<g>
	<path d="M20.788,19.338c-0.04-0.04-0.083-0.075-0.129-0.102l0.002-0.002c-1.545-0.971-3.608-0.787-4.953,0.558L15,20.499V11
		c0-1.1-0.899-2-1.999-2s-2,0.9-2,2v-0.378c0-0.997-0.675-1.927-1.658-2.093C8.094,8.319,7.001,9.288,7.001,10.5v6.53
		c-1.095,0.431-2.136,0.918-2.988,1.416C3.39,18.81,3,19.466,3,20.187v2.066c0,3.608,2.951,6.793,6.559,6.746
		c1.698-0.022,3.235-0.702,4.377-1.791l0.001,0.009l0.111-0.111c0.002-0.002,0.004-0.004,0.005-0.005l6.734-6.735
		C21.072,20.083,21.072,19.622,20.788,19.338z"/>
</g>
<polygon points="25.79,14.21 24,16 29,16 29,11 27.211,12.789 25.211,10.79 23.79,12.211 "/>
<polygon points="22,4 17,4 17,9 18.789,7.211 20.789,9.21 22.21,7.789 20.21,5.79 "/>
</svg>
