<?xml version="1.0" encoding="utf-8"?>
<!-- Generator: Adobe Illustrator 18.1.1, SVG Export Plug-In . SVG Version: 6.00 Build 0)  -->
<!DOCTYPE svg PUBLIC "-//W3C//DTD SVG 1.1 Tiny//EN" "http://www.w3.org/Graphics/SVG/1.1/DTD/svg11-tiny.dtd">
<svg version="1.1" baseProfile="tiny" id="Layer_1" xmlns="http://www.w3.org/2000/svg" xmlns:xlink="http://www.w3.org/1999/xlink"
	 x="0px" y="0px" width="32px" height="32px" viewBox="0 0 32 32" xml:space="preserve">
<g>
	<path d="M17.486,25.004l2.493-4.307c0.235-0.327,0.377-0.726,0.377-1.159c0-0.623-0.292-1.173-0.74-1.538h4.4c1.1,0,2-0.9,2-2
		c0-1.1-0.9-2-2-2h-9.515l0.708-0.707c1.345-1.345,1.529-3.408,0.558-4.953l-0.002,0.002c-0.027-0.046-0.062-0.089-0.102-0.129
		c-0.284-0.285-0.745-0.285-1.029-0.001l-6.851,6.851l0.009,0.001C6.684,16.225,6,17.794,6,19.526C6,23.102,8.898,26,12.474,26
		h3.289c0.736,0,1.372-0.404,1.718-0.999L17.486,25.004z"/>
	<polygon points="23.009,12.351 26.363,8.995 23.009,5.64 23.009,8 20,8 20,10 23.009,10 	"/>
</g>
</svg>
