<?xml version="1.0" encoding="utf-8"?>
<!-- Generator: Adobe Illustrator 18.1.1, SVG Export Plug-In . SVG Version: 6.00 Build 0)  -->
<!DOCTYPE svg PUBLIC "-//W3C//DTD SVG 1.1 Tiny//EN" "http://www.w3.org/Graphics/SVG/1.1/DTD/svg11-tiny.dtd">
<svg version="1.1" baseProfile="tiny" id="Layer_1" xmlns="http://www.w3.org/2000/svg" xmlns:xlink="http://www.w3.org/1999/xlink"
	 x="0px" y="0px" width="32px" height="32px" viewBox="0 0 32 32" xml:space="preserve">
<g>
	<path d="M29.65,17.898c-1.089-0.739-2.274-0.212-2.819,0.102l-6.155,5L16,23.001l-1-1h3.674c1.105,0,2.342-0.72,2.342-2
		c0-1.36-1.237-2-2.342-2h-1.377c-1.023,0-2.218,0.091-3.06-0.36l0,0.003c-0.801-0.407-1.723-0.642-2.707-0.642
		c-1.652,0-3.131,0.659-4.145,1.698L2,24l6,6l2-3h10.127c1.008,0,1.981-0.37,2.734-1.039l6.857-6.692
		C30.138,18.897,30.114,18.213,29.65,17.898z"/>
	<path d="M22,17c2.209,0,4-1.791,4-4c0-2.209-1.791-4-4-4s-4,1.791-4,4C18,15.209,19.791,17,22,17z M20.647,13.863
		c0.347,0.201,0.657,0.301,0.931,0.301c0.178,0,0.323-0.043,0.433-0.128c0.112-0.085,0.169-0.197,0.169-0.333
		c0-0.146-0.061-0.259-0.183-0.34c-0.122-0.081-0.293-0.121-0.515-0.121c-0.242,0-0.496,0.051-0.762,0.152l0.337-2.531h2.16v1.041
		H21.98l-0.093,0.433c0.081-0.006,0.146-0.008,0.197-0.008c0.357,0,0.657,0.128,0.903,0.382c0.244,0.251,0.366,0.565,0.366,0.943
		c0,0.443-0.158,0.813-0.472,1.108c-0.312,0.296-0.704,0.444-1.178,0.444c-0.405,0-0.802-0.11-1.192-0.329L20.647,13.863z"/>
	<path d="M16,8c1.657,0,3-1.343,3-3s-1.343-3-3-3s-3,1.343-3,3S14.343,8,16,8z M15.249,3.319h1.283v3.393h-0.916v-2.58h-0.367V3.319
		z"/>
</g>
</svg>
