<?xml version="1.0" encoding="utf-8"?>
<!-- Generator: Adobe Illustrator 18.1.1, SVG Export Plug-In . SVG Version: 6.00 Build 0)  -->
<!DOCTYPE svg PUBLIC "-//W3C//DTD SVG 1.1//EN" "http://www.w3.org/Graphics/SVG/1.1/DTD/svg11.dtd">
<svg version="1.1" xmlns="http://www.w3.org/2000/svg" xmlns:xlink="http://www.w3.org/1999/xlink" x="0px" y="0px" width="32px"
	 height="32px" viewBox="0 0 32 32" enable-background="new 0 0 32 32" xml:space="preserve">
<g id="Layer_1">
</g>
<g id="Guides__x26__Labels">
</g>
<g id="Forms">
</g>
<g id="Icons">
	<g>
		<rect x="24" y="5" width="5" height="17"/>
		<rect x="16" y="13" width="5" height="9"/>
		<rect x="8" y="16" width="5" height="6"/>
		<polygon points="6,6 2,6 2,8 4,8 4,10 2,10 2,12 4,12 4,14 2,14 2,16 4,16 4,18 2,18 2,20 4,20 4,22 2,22 2,24 4,24 4,26 7,26 
			7,28 9,28 9,26 11,26 11,28 13,28 13,26 15,26 15,28 17,28 17,26 19,26 19,28 21,28 21,26 23,26 23,28 25,28 25,26 27,26 27,28 
			29,28 29,24 6,24 		"/>
	</g>
</g>
</svg>
