<?xml version="1.0" encoding="utf-8"?>
<!-- Generator: Adobe Illustrator 18.1.1, SVG Export Plug-In . SVG Version: 6.00 Build 0)  -->
<!DOCTYPE svg PUBLIC "-//W3C//DTD SVG 1.1//EN" "http://www.w3.org/Graphics/SVG/1.1/DTD/svg11.dtd">
<svg version="1.1" xmlns="http://www.w3.org/2000/svg" xmlns:xlink="http://www.w3.org/1999/xlink" x="0px" y="0px" width="32px"
	 height="32px" viewBox="0 0 32 32" enable-background="new 0 0 32 32" xml:space="preserve">
<g id="Layer_1">
</g>
<g id="Guides__x26__Labels">
</g>
<g id="Forms">
</g>
<g id="Icons">
	<g>
		<polygon points="6,5 2,5 2,7 4,7 4,9 2,9 2,11 4,11 4,13 2,13 2,15 4,15 4,17 2,17 2,19 4,19 4,21 2,21 2,23 4,23 4,25 7,25 7,27 
			9,27 9,25 11,25 11,27 13,27 13,25 15,25 15,27 17,27 17,25 19,25 19,27 21,27 21,25 23,25 23,27 25,27 25,25 27,25 27,27 29,27 
			29,23 6,23 		"/>
		<polygon points="17.354,12.551 19.815,15.012 21.204,16.4 27.771,9.441 29,11.064 29,7 25.15,7 26.774,8.339 21.229,13.74 
			18.769,11.208 18.769,11.208 17.354,9.759 8.875,18.218 10.291,19.622 		"/>
	</g>
</g>
</svg>
