<?xml version="1.0" encoding="utf-8"?>
<!-- Generator: Adobe Illustrator 18.1.1, SVG Export Plug-In . SVG Version: 6.00 Build 0)  -->
<!DOCTYPE svg PUBLIC "-//W3C//DTD SVG 1.1//EN" "http://www.w3.org/Graphics/SVG/1.1/DTD/svg11.dtd">
<svg version="1.1" xmlns="http://www.w3.org/2000/svg" xmlns:xlink="http://www.w3.org/1999/xlink" x="0px" y="0px" width="32px"
	 height="32px" viewBox="0 0 32 32" enable-background="new 0 0 32 32" xml:space="preserve">
<g id="Layer_1">
</g>
<g id="Guides__x26__Labels">
</g>
<g id="Forms">
</g>
<g id="Icons">
	<g>
		<g>
			<path d="M8.049,6.381c0,0.248,0.093,0.444,0.279,0.589c0.103,0.08,0.262,0.153,0.478,0.221V5.638
				C8.549,5.644,8.359,5.712,8.235,5.844C8.111,5.975,8.049,6.154,8.049,6.381z"/>
			<path d="M9.235,8.532v1.697c0.187-0.073,0.374-0.144,0.566-0.211c0.132-0.141,0.213-0.337,0.213-0.619
				c0-0.253-0.086-0.454-0.258-0.602C9.653,8.711,9.48,8.623,9.235,8.532z"/>
			<path d="M9,3C6.239,3,4,5.239,4,8c0,1.628,0.79,3.06,1.995,3.973c0.515-0.375,1.07-0.719,1.659-1.03
				c-0.046-0.023-0.109-0.04-0.149-0.066C7,10.538,6.752,9.959,6.761,9.143h1.195C7.997,9.514,8.055,9.763,8.128,9.89
				c0.115,0.197,0.341,0.326,0.677,0.385V8.386L8.447,8.279c-0.563-0.165-0.961-0.395-1.193-0.69
				C7.023,7.294,6.907,6.939,6.907,6.523c0-0.274,0.045-0.524,0.135-0.748c0.09-0.224,0.216-0.417,0.378-0.58
				C7.63,4.986,7.863,4.841,8.12,4.761c0.156-0.05,0.385-0.087,0.686-0.11V4.062h0.429V4.66c0.478,0.038,0.854,0.157,1.127,0.354
				c0.496,0.316,0.753,0.827,0.771,1.535H9.969C9.946,6.287,9.902,6.095,9.838,5.974c-0.111-0.21-0.312-0.325-0.603-0.345v1.686
				c0.699,0.242,1.169,0.456,1.41,0.642c0.396,0.31,0.594,0.746,0.594,1.31c0,0.122-0.028,0.224-0.045,0.334
				c0.857-0.22,1.748-0.389,2.671-0.487C13.948,8.754,14,8.384,14,8C14,5.239,11.761,3,9,3z"/>
		</g>
		<g>
			<path d="M29.184,15.994H27.1c-0.484-0.783-1.141-1.507-1.951-2.144L28,11h-3c-1.795,0-3.314,1.182-3.82,2.81l-0.006,0.007
				C21.062,13.568,21,13.291,21,13c0-0.428,0.137-0.823,0.366-1.148C19.75,11.312,17.931,11,16,11
				c-5.223,0-9.655,2.229-11.303,5.334C4.273,15.968,4,15.433,4,14.828V14l-0.414,0.414c-0.781,0.781-0.781,2.047,0,2.828
				l0.562,0.562C4.06,18.196,4,18.593,4,19c0,2.366,1.55,4.486,4,5.951V28c0,0.552,0.448,1,1,1h2c0.552,0,1-0.448,1-1v-1.465
				C13.253,26.831,14.595,27,16,27c1.406,0,2.749-0.166,4-0.461V28c0,0.552,0.448,1,1,1h2c0.552,0,1-0.448,1-1v-3.038
				c3.476-1.965,5.004-3.929,5.701-5.167C29.888,19.531,30,19.211,30,18.864v-2.059C30,16.357,29.635,15.994,29.184,15.994z
				 M24,18.021c-0.552,0-1-0.457-1-1.021s0.448-1.021,1-1.021c0.552,0,1,0.457,1,1.021S24.552,18.021,24,18.021z"/>
		</g>
	</g>
</g>
</svg>
