<?xml version="1.0" encoding="utf-8"?>
<!-- Generator: Adobe Illustrator 18.1.1, SVG Export Plug-In . SVG Version: 6.00 Build 0)  -->
<!DOCTYPE svg PUBLIC "-//W3C//DTD SVG 1.1//EN" "http://www.w3.org/Graphics/SVG/1.1/DTD/svg11.dtd">
<svg version="1.1" xmlns="http://www.w3.org/2000/svg" xmlns:xlink="http://www.w3.org/1999/xlink" x="0px" y="0px" width="32px"
	 height="32px" viewBox="0 0 32 32" enable-background="new 0 0 32 32" xml:space="preserve">
<g id="Layer_1">
</g>
<g id="Guides__x26__Labels">
</g>
<g id="Forms">
</g>
<g id="Icons">
	<g>
		<g>
			<path d="M12.564,15.899v2.637c0.351-0.045,0.607-0.126,0.766-0.243c0.28-0.207,0.421-0.564,0.421-1.072
				c0-0.386-0.132-0.692-0.393-0.917C13.202,16.173,12.937,16.039,12.564,15.899z"/>
		</g>
		<g>
			<path d="M10.757,12.622c0,0.378,0.142,0.677,0.425,0.897c0.158,0.121,0.4,0.234,0.728,0.337v-2.367
				c-0.391,0.009-0.681,0.114-0.87,0.314C10.851,12.003,10.757,12.276,10.757,12.622z"/>
		</g>
		<g>
			<path d="M24,4.8L22,2l-2,2.8L18,2l-2,2.8L14,2l-2,2.8L10,2L8,4.8L6,2v28l2-3l2,3l2-3l2,3l2-3l2,3l2-3l2,3l2-3l2,3V2L24,4.8z
				 M14.371,19.486c-0.508,0.315-1.11,0.499-1.807,0.553v1.355H11.91v-1.342c-0.886-0.099-1.547-0.292-1.983-0.58
				c-0.769-0.517-1.146-1.398-1.133-2.643h1.821c0.063,0.566,0.15,0.946,0.263,1.14c0.176,0.301,0.52,0.496,1.032,0.586v-2.879
				l-0.547-0.162c-0.859-0.252-1.464-0.602-1.817-1.052c-0.353-0.45-0.529-0.991-0.529-1.625c0-0.418,0.068-0.798,0.205-1.14
				c0.137-0.342,0.33-0.636,0.576-0.883c0.32-0.319,0.674-0.539,1.066-0.661c0.238-0.076,0.587-0.132,1.045-0.168V9.089h0.654v0.91
				c0.729,0.058,1.302,0.239,1.718,0.539c0.756,0.481,1.148,1.261,1.175,2.34h-1.774c-0.035-0.4-0.102-0.692-0.2-0.876
				c-0.169-0.32-0.475-0.495-0.919-0.526v2.569c1.065,0.369,1.781,0.695,2.148,0.978c0.604,0.472,0.906,1.137,0.906,1.996
				C15.619,18.151,15.203,18.974,14.371,19.486z M22,20h-4v-2h4V20z M22,16h-4v-2h4V16z M22,12h-4v-2h4V12z"/>
		</g>
	</g>
</g>
</svg>
