<?xml version="1.0" encoding="utf-8"?>
<!-- Generator: Adobe Illustrator 18.1.1, SVG Export Plug-In . SVG Version: 6.00 Build 0)  -->
<!DOCTYPE svg PUBLIC "-//W3C//DTD SVG 1.1//EN" "http://www.w3.org/Graphics/SVG/1.1/DTD/svg11.dtd">
<svg version="1.1" xmlns="http://www.w3.org/2000/svg" xmlns:xlink="http://www.w3.org/1999/xlink" x="0px" y="0px" width="32px"
	 height="32px" viewBox="0 0 32 32" enable-background="new 0 0 32 32" xml:space="preserve">
<g id="Layer_1">
</g>
<g id="Guides__x26__Labels">
</g>
<g id="Forms">
</g>
<g id="Icons">
	<g>
		<circle cx="25.459" cy="27.006" r="3"/>
		<circle cx="12.451" cy="27.006" r="3"/>
		<path d="M25.74,18.006H11.986L9.682,10H20l-0.049-2.994H8.75L7,1H1.766c-0.828,0-1.5,0.672-1.5,1.5c0,0.828,0.672,1.5,1.5,1.5
			H4.75l4.346,14.855C9.461,20.1,10.611,21,11.975,21H25.66c1.363,0,2.502-0.922,2.867-2.166l1.256-4.828h-3.004L25.74,18.006z"/>
		<rect x="18" y="12" width="2" height="4"/>
		<rect x="22" y="12" width="2" height="4"/>
		<rect x="14" y="12" width="2" height="4"/>
		<polygon points="26,13.006 30.957,8.537 26,3.984 26,7.006 23,7 23,9.994 26,10 		"/>
	</g>
</g>
</svg>
