<?xml version="1.0" encoding="utf-8"?>
<!-- Generator: Adobe Illustrator 18.1.1, SVG Export Plug-In . SVG Version: 6.00 Build 0)  -->
<!DOCTYPE svg PUBLIC "-//W3C//DTD SVG 1.1//EN" "http://www.w3.org/Graphics/SVG/1.1/DTD/svg11.dtd">
<svg version="1.1" xmlns="http://www.w3.org/2000/svg" xmlns:xlink="http://www.w3.org/1999/xlink" x="0px" y="0px" width="32px"
	 height="32px" viewBox="0 0 32 32" enable-background="new 0 0 32 32" xml:space="preserve">
<g id="Layer_1">
</g>
<g id="Guides__x26__Labels">
</g>
<g id="Forms">
</g>
<g id="Icons">
	<g>
		<circle cx="25.482" cy="27.982" r="3"/>
		<circle cx="12.475" cy="27.982" r="3"/>
		<path d="M27.338,13l-1.574,6H12.01l-2.354-8h8.328V8H8.773L7,2H1.766c-0.828,0-1.5,0.672-1.5,1.5c0,0.828,0.672,1.5,1.5,1.5H4.75
			l4.369,14.85C9.484,21.094,10.635,22,11.998,22h13.686c1.363,0,2.502-0.904,2.867-2.148L30.342,13H27.338z"/>
		<rect x="18" y="13" width="2" height="4"/>
		<rect x="22" y="13" width="2" height="4"/>
		<rect x="14" y="13" width="2" height="4"/>
		<path d="M31.814,9.267l-4.399-7.613v0.002c-0.055-0.113-0.127-0.219-0.219-0.311c-0.443-0.445-1.164-0.445-1.607,0
			c-0.082,0.078-0.146,0.17-0.197,0.266l-4.395,7.613v0.002c-0.068,0.102-0.123,0.217-0.156,0.344
			c-0.164,0.607,0.197,1.23,0.803,1.391c0.107,0.029,0.219,0.043,0.328,0.039l8.791-0.002v-0.002
			c0.422,0.031,0.842-0.174,1.068-0.562C32.047,10.058,32.027,9.608,31.814,9.267z M27.395,10.007h-2.004V8.003h2.004V10.007z
			 M27.395,7.003h-2.004V2.997h2.004V7.003z"/>
	</g>
</g>
</svg>
