<?xml version="1.0" encoding="utf-8"?>
<!-- Generator: Adobe Illustrator 18.1.1, SVG Export Plug-In . SVG Version: 6.00 Build 0)  -->
<!DOCTYPE svg PUBLIC "-//W3C//DTD SVG 1.1//EN" "http://www.w3.org/Graphics/SVG/1.1/DTD/svg11.dtd">
<svg version="1.1" xmlns="http://www.w3.org/2000/svg" xmlns:xlink="http://www.w3.org/1999/xlink" x="0px" y="0px" width="32px"
	 height="32px" viewBox="0 0 32 32" enable-background="new 0 0 32 32" xml:space="preserve">
<g id="Layer_1">
</g>
<g id="Guides__x26__Labels">
</g>
<g id="Forms">
</g>
<g id="Icons">
	<g>
		<path d="M6.279,16h18.514l-0.519,2.009h3.1L27.893,16H30v-3h-6.932c-0.01-0.021-0.014-0.043-0.025-0.064l-3.558-7.164
			c-0.367-0.742-1.268-1.045-2.01-0.678c-0.74,0.369-1.043,1.269-0.676,2.01L19.726,13H11.23l2.93-5.896
			c0.367-0.74,0.064-1.641-0.676-2.01c-0.744-0.367-1.643-0.064-2.012,0.678l-3.559,7.164C7.904,12.957,7.9,12.979,7.891,13H1v3
			h2.178l2.311,8.848v-0.002C5.853,26.09,6.992,27,8.355,27H19v-3H8.369L6.279,16z"/>
		<rect x="14" y="18" width="2" height="4"/>
		<rect x="18" y="18" width="2" height="4"/>
		<rect x="10" y="18" width="2" height="4"/>
		<polygon points="25.469,29.008 30.021,24 27,24 27,21 24,21 24,24 21,24 		"/>
	</g>
</g>
</svg>
