<?xml version="1.0" encoding="utf-8"?>
<!-- Generator: Adobe Illustrator 18.1.1, SVG Export Plug-In . SVG Version: 6.00 Build 0)  -->
<!DOCTYPE svg PUBLIC "-//W3C//DTD SVG 1.1 Tiny//EN" "http://www.w3.org/Graphics/SVG/1.1/DTD/svg11-tiny.dtd">
<svg version="1.1" baseProfile="tiny" id="Layer_1" xmlns="http://www.w3.org/2000/svg" xmlns:xlink="http://www.w3.org/1999/xlink"
	 x="0px" y="0px" width="32px" height="32px" viewBox="0 0 32 32" xml:space="preserve">
<g>
	<path d="M29.65,16.897c-1.089-0.739-2.274-0.212-2.819,0.102l-6.155,5L16,22l-1-1h3.674c1.105,0,2.342-0.72,2.342-2
		c0-1.36-1.237-2-2.342-2h-1.377c-1.023,0-2.218,0.091-3.06-0.36l0,0.003C13.436,16.235,12.514,16,11.53,16
		c-1.652,0-3.131,0.659-4.145,1.698L2,22.999l6,6l2-3h10.127c1.008,0,1.981-0.37,2.734-1.039l6.857-6.692
		C30.138,17.896,30.114,17.212,29.65,16.897z"/>
	<path d="M14,13h11c1.105,0,2-0.896,2-2V5c0-1.105-0.895-2-2-2H14c-1.105,0-2,0.895-2,2v6C12,12.104,12.895,13,14,13z M23,10h2v1h-2
		V10z M20,10h2v1h-2V10z M17,10h2v1h-2V10z M14,5h2v2h-2V5z M14,10h2v1h-2V10z"/>
</g>
</svg>
