<?xml version="1.0" encoding="utf-8"?>
<!-- Generator: Adobe Illustrator 18.1.1, SVG Export Plug-In . SVG Version: 6.00 Build 0)  -->
<!DOCTYPE svg PUBLIC "-//W3C//DTD SVG 1.1//EN" "http://www.w3.org/Graphics/SVG/1.1/DTD/svg11.dtd">
<svg version="1.1" xmlns="http://www.w3.org/2000/svg" xmlns:xlink="http://www.w3.org/1999/xlink" x="0px" y="0px" width="32px"
	 height="32px" viewBox="0 0 32 32" enable-background="new 0 0 32 32" xml:space="preserve">
<g id="Layer_1">
</g>
<g id="Guides__x26__Labels">
</g>
<g id="Forms">
</g>
<g id="Icons">
	<g>
		<circle cx="25.475" cy="27.988" r="3"/>
		<circle cx="12.467" cy="27.988" r="3"/>
		<path d="M25.756,19.006H12.002l-2.354-8.028h10.807c-0.637,0.153-1.076-1.853-1.258-2.964H8.766L7,2H1.766
			c-0.828,0-1.5,0.672-1.5,1.5c0,0.828,0.672,1.5,1.5,1.5H4.75l4.361,14.855C9.477,21.1,10.627,22,11.99,22h13.686
			c1.363,0,2.502-0.904,2.867-2.148l1.967-7.537c-0.953,0.777-2.117,1.299-3.391,1.486L25.756,19.006z"/>
		<rect x="18" y="13" width="2" height="4"/>
		<rect x="22" y="13" width="2" height="4"/>
		<rect x="14" y="13" width="2" height="4"/>
		<path d="M26.15,9.791c-1.656,0-2.998-1.344-2.998-3c0-1.656,1.342-2.998,2.998-2.998c0.631,0,1.203,0.211,1.684,0.547l-1.098,1.6
			L32,5.938l-1.889-4.914l-1.143,1.664c-0.801-0.559-1.766-0.896-2.818-0.896c-2.762,0-5,2.238-5,5c0,2.762,2.238,5,5,5
			c2.084,0,3.867-1.275,4.617-3.088L28.92,7.939C28.469,9.025,27.4,9.791,26.15,9.791z"/>
	</g>
</g>
</svg>
