<?xml version="1.0" encoding="utf-8"?>
<!-- Generator: Adobe Illustrator 18.1.1, SVG Export Plug-In . SVG Version: 6.00 Build 0)  -->
<!DOCTYPE svg PUBLIC "-//W3C//DTD SVG 1.1//EN" "http://www.w3.org/Graphics/SVG/1.1/DTD/svg11.dtd">
<svg version="1.1" xmlns="http://www.w3.org/2000/svg" xmlns:xlink="http://www.w3.org/1999/xlink" x="0px" y="0px" width="32px"
	 height="32px" viewBox="0 0 32 32" enable-background="new 0 0 32 32" xml:space="preserve">
<g id="Layer_1">
</g>
<g id="Guides__x26__Labels">
</g>
<g id="Forms">
</g>
<g id="Icons">
	<g>
		<path d="M6.32,17h18.514l-1.542,5.902h3.102L27.935,17H30v-3h-6.891c-0.01-0.021-0.014-0.043-0.024-0.064L19.526,6.77
			c-0.368-0.742-1.268-1.045-2.011-0.676c-0.74,0.367-1.043,1.268-0.676,2.01L19.769,14h-8.496l2.929-5.896
			c0.367-0.742,0.064-1.643-0.676-2.01c-0.743-0.369-1.642-0.066-2.011,0.676l-3.559,7.166C7.945,13.957,7.941,13.979,7.932,14
			H1.041v3H3.22l2.31,8.846v-0.002C5.895,27.09,7.033,28,8.396,28H20v-3H8.41L6.32,17z"/>
		<rect x="14" y="19" width="2" height="4"/>
		<rect x="18" y="19" width="2" height="4"/>
		<rect x="10" y="19" width="2" height="4"/>
		<rect x="22" y="25" width="9" height="3"/>
	</g>
</g>
</svg>
