<?xml version="1.0" encoding="utf-8"?>
<!-- Generator: Adobe Illustrator 18.1.1, SVG Export Plug-In . SVG Version: 6.00 Build 0)  -->
<!DOCTYPE svg PUBLIC "-//W3C//DTD SVG 1.1//EN" "http://www.w3.org/Graphics/SVG/1.1/DTD/svg11.dtd">
<svg version="1.1" xmlns="http://www.w3.org/2000/svg" xmlns:xlink="http://www.w3.org/1999/xlink" x="0px" y="0px" width="32px"
	 height="32px" viewBox="0 0 32 32" enable-background="new 0 0 32 32" xml:space="preserve">
<g id="Layer_1">
</g>
<g id="Guides__x26__Labels">
</g>
<g id="Forms">
</g>
<g id="Icons">
	<g>
		<circle cx="25.606" cy="27.984" r="3"/>
		<circle cx="12.598" cy="27.984" r="3"/>
		<path d="M26.414,16.99l-0.527,2.014H12.133L9.779,11h10.213V8.012H8.897L7.123,2.013H1.889c-0.828,0-1.5,0.672-1.5,1.5
			c0,0.828,0.672,1.5,1.5,1.5h2.984l4.369,14.839C9.607,21.096,10.758,22,12.121,22h13.685c1.363,0,2.502-0.906,2.867-2.152
			l0.746-2.857H26.414z"/>
		<polygon points="29,8 29,5 26,5 26,8 23,8 23,11 26,11 26,14 29,14 29,11 32,11 32,8 		"/>
		<rect x="18" y="13" width="2" height="4"/>
		<rect x="22" y="13" width="2" height="4"/>
		<rect x="14" y="13" width="2" height="4"/>
	</g>
</g>
</svg>
