<?xml version="1.0" encoding="utf-8"?>
<!-- Generator: Adobe Illustrator 18.1.1, SVG Export Plug-In . SVG Version: 6.00 Build 0)  -->
<!DOCTYPE svg PUBLIC "-//W3C//DTD SVG 1.1//EN" "http://www.w3.org/Graphics/SVG/1.1/DTD/svg11.dtd">
<svg version="1.1" xmlns="http://www.w3.org/2000/svg" xmlns:xlink="http://www.w3.org/1999/xlink" x="0px" y="0px" width="32px"
	 height="32px" viewBox="0 0 32 32" enable-background="new 0 0 32 32" xml:space="preserve">
<g id="Layer_1">
</g>
<g id="Guides__x26__Labels">
</g>
<g id="Forms">
</g>
<g id="Icons">
	<g>
		<circle cx="24.865" cy="29" r="3"/>
		<circle cx="11.857" cy="29" r="3"/>
		<path d="M25.146,20H11.393l-2.354-8H21V9H8.156L6.377,2.984H1.143c-0.828,0-1.5,0.672-1.5,1.5s0.672,1.5,1.5,1.5h2.984
			L8.502,20.85C8.867,22.094,10.018,23,11.381,23h13.686c1.363,0,2.502-0.904,2.867-2.148L29.201,16h-3.004L25.146,20z"/>
		<rect x="17" y="14" width="2" height="4"/>
		<rect x="21" y="14" width="2" height="4"/>
		<rect x="13" y="14" width="2" height="4"/>
		<polygon points="32.357,8.994 29.336,8.994 29.336,6 26.336,6 26.336,8.994 23.336,8.994 27.805,14 		"/>
	</g>
</g>
</svg>
