<?xml version="1.0" encoding="utf-8"?>
<!-- Generator: Adobe Illustrator 18.1.1, SVG Export Plug-In . SVG Version: 6.00 Build 0)  -->
<!DOCTYPE svg PUBLIC "-//W3C//DTD SVG 1.1//EN" "http://www.w3.org/Graphics/SVG/1.1/DTD/svg11.dtd">
<svg version="1.1" xmlns="http://www.w3.org/2000/svg" xmlns:xlink="http://www.w3.org/1999/xlink" x="0px" y="0px" width="32px"
	 height="32px" viewBox="0 0 32 32" enable-background="new 0 0 32 32" xml:space="preserve">
<g id="Layer_1">
</g>
<g id="Guides__x26__Labels">
</g>
<g id="Forms">
</g>
<g id="Icons">
	<g>
		<path d="M17.883,23H8.411l-2.09-8h18.514l-0.517,1.98c0.164-0.012,0.328-0.025,0.494-0.025c0.879,0,1.717,0.168,2.492,0.465
			L27.934,15H30v-3h-6.89c-0.01-0.021-0.014-0.043-0.025-0.064l-3.559-7.164c-0.367-0.742-1.267-1.045-2.01-0.678
			c-0.74,0.369-1.043,1.269-0.676,2.01L19.768,12h-8.496l2.93-5.896c0.367-0.74,0.064-1.641-0.676-2.01
			c-0.744-0.367-1.642-0.064-2.012,0.678l-3.559,7.164C7.946,11.957,7.942,11.979,7.932,12H1.041v3h2.178l2.311,8.848v-0.002
			C5.895,25.09,7.034,26,8.397,26h9.721c-0.197-0.646-0.307-1.334-0.307-2.045C17.811,23.631,17.842,23.312,17.883,23z"/>
		<rect x="14.52" y="16.904" width="2" height="4"/>
		<path d="M20.52,18.432v-1.527h-2V20.9C18.993,19.932,19.678,19.088,20.52,18.432z"/>
		<rect x="10.52" y="16.904" width="2" height="4"/>
		<path d="M24.832,26.953c-1.656,0-2.998-1.342-2.998-2.998c0-1.656,1.342-3,2.998-3c0.631,0,1.203,0.213,1.684,0.549l-1.098,1.598
			l5.263-0.002l-1.888-4.914l-1.143,1.666c-0.801-0.561-1.766-0.897-2.818-0.897c-2.762,0-5,2.238-5,5s2.238,5,5,5
			c2.084,0,3.867-1.275,4.617-3.088l-1.848-0.766C27.151,26.188,26.082,26.953,24.832,26.953z"/>
	</g>
</g>
</svg>
