<?xml version="1.0" encoding="utf-8"?>
<!-- Generator: Adobe Illustrator 18.1.1, SVG Export Plug-In . SVG Version: 6.00 Build 0)  -->
<!DOCTYPE svg PUBLIC "-//W3C//DTD SVG 1.1//EN" "http://www.w3.org/Graphics/SVG/1.1/DTD/svg11.dtd">
<svg version="1.1" xmlns="http://www.w3.org/2000/svg" xmlns:xlink="http://www.w3.org/1999/xlink" x="0px" y="0px" width="32px"
	 height="32px" viewBox="0 0 32 32" enable-background="new 0 0 32 32" xml:space="preserve">
<g id="Layer_1">
</g>
<g id="Guides__x26__Labels">
</g>
<g id="Forms">
</g>
<g id="Icons">
	<g>
		<path d="M23.068,13c-0.01-0.021-0.014-0.043-0.025-0.064l-3.559-7.164c-0.367-0.742-1.268-1.045-2.01-0.678
			c-0.74,0.369-1.043,1.27-0.676,2.01L19.727,13H11.23l2.93-5.897c0.367-0.74,0.065-1.641-0.676-2.01
			c-0.744-0.367-1.643-0.064-2.012,0.678l-3.559,7.164C7.904,12.957,7.9,12.979,7.891,13H1v3h2.178l2.31,8.848v-0.002
			C5.854,26.09,6.992,27,8.355,27H18v-3H8.369l-2.09-8h18.514l-0.77,2.998h3.1L27.893,16h2.113v-3H23.068z"/>
		<rect x="14.479" y="17.998" width="2" height="4"/>
		<rect x="18.479" y="17.998" width="2" height="4"/>
		<rect x="10.479" y="17.998" width="2" height="4"/>
		<polygon points="26,27 29,27 29,24 26,24 26,21 20.993,25.469 26,30.021 		"/>
	</g>
</g>
</svg>
