<?xml version="1.0" encoding="utf-8"?>
<!-- Generator: Adobe Illustrator 18.1.1, SVG Export Plug-In . SVG Version: 6.00 Build 0)  -->
<!DOCTYPE svg PUBLIC "-//W3C//DTD SVG 1.1//EN" "http://www.w3.org/Graphics/SVG/1.1/DTD/svg11.dtd">
<svg version="1.1" xmlns="http://www.w3.org/2000/svg" xmlns:xlink="http://www.w3.org/1999/xlink" x="0px" y="0px" width="32px"
	 height="32px" viewBox="0 0 32 32" enable-background="new 0 0 32 32" xml:space="preserve">
<g id="Layer_1">
</g>
<g id="Guides__x26__Labels">
</g>
<g id="Forms">
</g>
<g id="Icons">
	<g>
		<path d="M26,2H6C4.895,2,4,2.895,4,4v12c0,1.105,0.895,2,2,2h7l2-2H6V9h20v7h-4l2-2v-4L11.6,22.4c-0.5-0.3-1-0.4-1.6-0.4
			c-2.2,0-4,1.8-4,4s1.8,4,4,4s4-1.8,4-4c0-0.6-0.1-1.1-0.4-1.6L16,22l2.4,2.4c-0.3,0.5-0.4,1-0.4,1.6c0,2.2,1.8,4,4,4s4-1.8,4-4
			s-1.8-4-4-4c-0.6,0-1.1,0.1-1.6,0.4L18,20l2-2h6c1.105,0,2-0.895,2-2V4C28,2.895,27.105,2,26,2z M10,28c-1.1,0-2-0.9-2-2
			c0-1.1,0.9-2,2-2s2,0.9,2,2C12,27.1,11.1,28,10,28z M22,24c1.1,0,2,0.9,2,2c0,1.1-0.9,2-2,2s-2-0.9-2-2C20,24.9,20.9,24,22,24z
			 M26,6H6V4h20V6z"/>
		<rect x="8" y="12" width="2" height="2"/>
		<rect x="12" y="12" width="5" height="2"/>
	</g>
</g>
</svg>
