<?xml version="1.0" encoding="utf-8"?>
<!-- Generator: Adobe Illustrator 18.1.1, SVG Export Plug-In . SVG Version: 6.00 Build 0)  -->
<!DOCTYPE svg PUBLIC "-//W3C//DTD SVG 1.1 Tiny//EN" "http://www.w3.org/Graphics/SVG/1.1/DTD/svg11-tiny.dtd">
<svg version="1.1" baseProfile="tiny" id="Layer_1" xmlns="http://www.w3.org/2000/svg" xmlns:xlink="http://www.w3.org/1999/xlink"
	 x="0px" y="0px" width="32px" height="32px" viewBox="0 0 32 32" xml:space="preserve">
<g>
	<path d="M29.65,17.897c-1.089-0.739-2.274-0.212-2.819,0.102l-6.155,5L16,23l-1-1h3.674c1.105,0,2.342-0.72,2.342-2
		c0-1.36-1.237-2-2.342-2h-1.377c-1.023,0-2.218,0.091-3.06-0.36l0,0.003C13.436,17.235,12.514,17,11.53,17
		c-1.652,0-3.131,0.659-4.145,1.698L2,23.999l6,6l2-3h10.127c1.008,0,1.981-0.37,2.734-1.039l6.857-6.692
		C30.138,18.896,30.114,18.212,29.65,17.897z"/>
	<path d="M28,3H8v12h20V3z M26,13H10V5h16V13z"/>
	<path d="M18,10.88c0.938,0,1.762,0.439,2.242,1.102c0.465-0.635,0.749-1.466,0.749-2.379C20.991,7.613,19.652,6,18,6
		s-2.991,1.613-2.991,3.603c0,0.913,0.284,1.744,0.749,2.379C16.238,11.319,17.062,10.88,18,10.88z M18,7.495
		c0.826,0,1.495,0.669,1.495,1.495c0,0.826-0.67,1.495-1.495,1.495s-1.495-0.67-1.495-1.495C16.505,8.165,17.174,7.495,18,7.495z"/>
	<circle cx="23.5" cy="9" r="1.5"/>
	<circle cx="12.5" cy="9" r="1.5"/>
</g>
</svg>
