<?xml version="1.0" encoding="utf-8"?>
<!-- Generator: Adobe Illustrator 18.1.1, SVG Export Plug-In . SVG Version: 6.00 Build 0)  -->
<!DOCTYPE svg PUBLIC "-//W3C//DTD SVG 1.1//EN" "http://www.w3.org/Graphics/SVG/1.1/DTD/svg11.dtd">
<svg version="1.1" xmlns="http://www.w3.org/2000/svg" xmlns:xlink="http://www.w3.org/1999/xlink" x="0px" y="0px" width="32px"
	 height="32px" viewBox="0 0 32 32" enable-background="new 0 0 32 32" xml:space="preserve">
<g id="Layer_1">
</g>
<g id="Guides__x26__Labels">
</g>
<g id="Forms">
</g>
<g id="Icons">
	<g>
		<circle cx="25.479" cy="27.984" r="3"/>
		<circle cx="12.471" cy="27.984" r="3"/>
		<path d="M8.77,8.012L7,2H1.766c-0.828,0-1.5,0.672-1.5,1.5S0.937,5,1.766,5H4.75l4.365,14.851C9.48,21.096,10.631,22,11.994,22
			H25.68c1.363,0,2.502-0.906,2.867-2.152l3.09-11.836H8.77z M25.76,19.004H12.006L9.652,11h18.199L25.76,19.004z"/>
		<rect x="18" y="13" width="2" height="4"/>
		<rect x="22" y="13" width="2" height="4"/>
		<rect x="14" y="13" width="2" height="4"/>
	</g>
</g>
</svg>
