<?xml version="1.0" encoding="utf-8"?>
<!-- Generator: Adobe Illustrator 18.1.1, SVG Export Plug-In . SVG Version: 6.00 Build 0)  -->
<!DOCTYPE svg PUBLIC "-//W3C//DTD SVG 1.1//EN" "http://www.w3.org/Graphics/SVG/1.1/DTD/svg11.dtd">
<svg version="1.1" id="Icons" xmlns="http://www.w3.org/2000/svg" xmlns:xlink="http://www.w3.org/1999/xlink" x="0px" y="0px"
	 width="32px" height="32px" viewBox="0 0 32 32" enable-background="new 0 0 32 32" xml:space="preserve">
<g>
	<path d="M16,5c-1.105,0-2,0.895-2,2v14h-1V10.271c0-0.701-0.569-1.27-1.27-1.27h-0.001L7.159,9.007
		c-0.717,0.001-1.379,0.385-1.734,1.008l-2.898,5.071C2.182,15.691,2,16.375,2,17.071v4.668c0,0.701,0.569,1.27,1.27,1.27
		c0.502,0,0.938-0.306,1.158-0.757c0.647-1.327,2-2.243,3.576-2.243c1.858,0,3.405,1.274,3.853,2.991h7.295
		c0.448-1.717,1.995-2.991,3.853-2.991c1.858,0,3.405,1.274,3.853,2.991H30V5H16z M11,16H4.147L7,11h4V16z"/>
	<path d="M8.004,21C6.345,21,5,22.345,5,24.004s1.345,3.004,3.004,3.004c1.659,0,3.004-1.345,3.004-3.004S9.664,21,8.004,21z
		 M8,25.406c-0.777,0-1.406-0.63-1.406-1.406c0-0.777,0.63-1.406,1.406-1.406c0.777,0,1.406,0.63,1.406,1.406
		C9.406,24.777,8.777,25.406,8,25.406z"/>
	<path d="M23.004,21C21.345,21,20,22.345,20,24.004s1.345,3.004,3.004,3.004c1.659,0,3.004-1.345,3.004-3.004S24.664,21,23.004,21z
		 M23,25.406c-0.777,0-1.406-0.63-1.406-1.406c0-0.777,0.63-1.406,1.406-1.406c0.777,0,1.406,0.63,1.406,1.406
		C24.406,24.777,23.777,25.406,23,25.406z"/>
</g>
</svg>
