<?xml version="1.0" encoding="utf-8"?>
<!-- Generator: Adobe Illustrator 18.1.1, SVG Export Plug-In . SVG Version: 6.00 Build 0)  -->
<!DOCTYPE svg PUBLIC "-//W3C//DTD SVG 1.1//EN" "http://www.w3.org/Graphics/SVG/1.1/DTD/svg11.dtd">
<svg version="1.1" xmlns="http://www.w3.org/2000/svg" xmlns:xlink="http://www.w3.org/1999/xlink" x="0px" y="0px" width="32px"
	 height="32px" viewBox="0 0 32 32" enable-background="new 0 0 32 32" xml:space="preserve">
<g id="Layer_1">
</g>
<g id="Guides__x26__Labels">
</g>
<g id="Forms">
</g>
<g id="Icons">
	<g>
		<path d="M8.864,21.166c1.131,0.471,2.426-0.059,2.899-1.188c0.286-0.688,0.2-1.436-0.165-2.023l2.384-4.453
			c0.271-0.021,0.54-0.09,0.798-0.215c0.072-0.037,0.14-0.076,0.21-0.117l3.858,1.654c0.069,0.381,0.233,0.75,0.501,1.064
			c0.801,0.926,2.197,1.031,3.126,0.23c0.591-0.51,0.846-1.264,0.742-1.982l3.424-3.033c0.201,0.059,0.41,0.09,0.624,0.094
			c1.227,0.01,2.224-0.973,2.234-2.195c0.01-1.223-0.977-2.223-2.197-2.23c-1.222-0.01-2.221,0.975-2.228,2.197
			c-0.002,0.172,0.019,0.338,0.05,0.498l-3.288,2.918c-0.722-0.283-1.566-0.172-2.206,0.348l-3.61-1.547
			c-0.016-0.291-0.086-0.582-0.223-0.861c-0.539-1.096-1.862-1.551-2.96-1.016c-1.099,0.539-1.551,1.863-1.016,2.961
			c0.043,0.092,0.097,0.178,0.152,0.262l-2.35,4.383c-0.829,0.039-1.602,0.539-1.943,1.355C7.206,19.396,7.737,20.693,8.864,21.166z
			"/>
		<polygon points="6,5 2,5 2,7 4,7 4,9 2,9 2,11 4,11 4,13 2,13 2,15 4,15 4,17 2,17 2,19 4,19 4,21 2,21 2,23 4,23 4,25 7,25 7,27 
			9,27 9,25 11,25 11,27 13,27 13,25 15,25 15,27 17,27 17,25 19,25 19,27 21,27 21,25 23,25 23,27 25,27 25,25 27,25 27,27 29,27 
			29,23 6,23 		"/>
	</g>
</g>
</svg>
