<?xml version="1.0" encoding="utf-8"?>
<!-- Generator: Adobe Illustrator 18.1.1, SVG Export Plug-In . SVG Version: 6.00 Build 0)  -->
<!DOCTYPE svg PUBLIC "-//W3C//DTD SVG 1.1//EN" "http://www.w3.org/Graphics/SVG/1.1/DTD/svg11.dtd">
<svg version="1.1" xmlns="http://www.w3.org/2000/svg" xmlns:xlink="http://www.w3.org/1999/xlink" x="0px" y="0px" width="40px"
	 height="40px" viewBox="0 0 40 40" enable-background="new 0 0 40 40" xml:space="preserve">
<g id="Icons_-_V2">
	<g>
		<path d="M19.024,29.012H10V9h2V6.012h-1.99c-1.652,0-3,1.353-3,3.008v20.018c0,1.654,1.348,2.963,3,2.963h9.547
			C19.22,31.06,19.026,30.064,19.024,29.012z"/>
		<path d="M28,19.975h0.013c1.048,0,2.051,0.19,2.987,0.52L30.99,9.006C30.99,7.353,29.648,6,27.998,6H26v3h2V19.975z"/>
		<rect x="13" y="15" width="12" height="2"/>
		<path d="M25,20.519V19H13v2h10.888C24.245,20.814,24.617,20.656,25,20.519z"/>
		<path d="M21.32,23H13v2h6.965C20.327,24.271,20.783,23.601,21.32,23z"/>
		<path d="M32.258,24.75c-2.343-2.344-6.143-2.344-8.485,0c-1.975,1.975-2.264,4.976-0.91,7.276l-4.423,4.421l2.122,2.123
			l4.424-4.424c2.299,1.351,5.299,1.06,7.272-0.912C34.602,30.893,34.602,27.093,32.258,24.75z M28.016,31.992
			c-1.654,0-3.001-1.346-3.001-3c0-1.654,1.347-3,3-3c1.654,0,3,1.346,3,3.001C31.015,30.646,29.669,31.992,28.016,31.992z"/>
		<path d="M13.809,11h10.368C24.632,11,25,10.614,25,10.158V6.031l-2.412-0.856l-0.563-0.884c-0.604-1.072-1.738-1.806-3.059-1.806
			c-1.324,0-2.465,0.739-3.066,1.82l-0.56,0.884L13,6.031v4.127C13,10.614,13.355,11,13.809,11z M18.966,4.32
			c0.932,0,1.688,0.755,1.688,1.688c0,0.931-0.756,1.686-1.688,1.686c-0.932,0-1.688-0.755-1.688-1.686
			C17.278,5.075,18.034,4.32,18.966,4.32z"/>
	</g>
</g>
<g id="Icons">
</g>
</svg>
