<?xml version="1.0" encoding="utf-8"?>
<!-- Generator: Adobe Illustrator 18.1.1, SVG Export Plug-In . SVG Version: 6.00 Build 0)  -->
<!DOCTYPE svg PUBLIC "-//W3C//DTD SVG 1.1//EN" "http://www.w3.org/Graphics/SVG/1.1/DTD/svg11.dtd">
<svg version="1.1" xmlns="http://www.w3.org/2000/svg" xmlns:xlink="http://www.w3.org/1999/xlink" x="0px" y="0px" width="32px"
	 height="32px" viewBox="0 0 32 32" enable-background="new 0 0 32 32" xml:space="preserve">
<g id="Icons_-_V2">
	<g>
		<path d="M17.751,20.251c0,0.105,0.045,0.199,0.115,0.266l3.295,3.297h0.002c0.066,0.072,0.164,0.117,0.27,0.117
			c0.129,0,0.242-0.062,0.309-0.162c0.811-0.941,1.332-2.137,1.426-3.449c0.004-0.023,0.008-0.045,0.008-0.068
			c0-0.205-0.166-0.371-0.371-0.371h-4.68C17.917,19.88,17.751,20.046,17.751,20.251z"/>
		<path d="M16.815,12.835h-0.002c-0.203,0.002-0.369,0.168-0.369,0.371v5.203c0,0.205,0.166,0.371,0.371,0.371h5.201h0.002
			c0.205,0,0.373-0.166,0.373-0.371C22.206,15.415,19.81,13.019,16.815,12.835z"/>
		<path d="M15.14,25.476c1.5,0,2.871-0.555,3.918-1.471v-0.002c0.08-0.066,0.131-0.168,0.131-0.281c0-0.102-0.039-0.193-0.105-0.26
			c0-0.002-0.002-0.002-0.002-0.002l-3.836-3.836v-0.002c-0.066-0.068-0.103-0.158-0.103-0.258H15.14v-5.422
			c0-0.205-0.164-0.369-0.369-0.369h-0.002c-3.117,0.191-5.586,2.779-5.586,5.945C9.183,22.808,11.851,25.476,15.14,25.476z"/>
		<path d="M25.007,5H23v3h2v20H7V8h2V5H7.011C5.358,5,4,6.398,4,8.053V28.07C4,29.725,5.358,31,7.011,31h17.996
			C26.659,31,28,29.725,28,28.07V8.053C28,6.398,26.659,5,25.007,5z"/>
		<path d="M10.809,10h10.368C21.632,10,22,9.613,22,9.158V5l-2.411-0.857L19.024,3.26c-0.604-1.072-1.738-1.807-3.059-1.807
			c-1.324,0-2.465,0.74-3.066,1.82l-0.561,0.885L10,5v4.158C10,9.613,10.354,10,10.809,10z M15.966,3.289
			c0.932,0,1.687,0.754,1.687,1.688c0,0.93-0.756,1.685-1.687,1.685c-0.932,0-1.688-0.756-1.688-1.685
			C14.278,4.043,15.034,3.289,15.966,3.289z"/>
	</g>
</g>
<g id="Icons">
</g>
</svg>
