<?xml version="1.0" encoding="utf-8"?>
<!-- Generator: Adobe Illustrator 18.1.1, SVG Export Plug-In . SVG Version: 6.00 Build 0)  -->
<!DOCTYPE svg PUBLIC "-//W3C//DTD SVG 1.1//EN" "http://www.w3.org/Graphics/SVG/1.1/DTD/svg11.dtd">
<svg version="1.1" xmlns="http://www.w3.org/2000/svg" xmlns:xlink="http://www.w3.org/1999/xlink" x="0px" y="0px" width="32px"
	 height="32px" viewBox="0 0 32 32" enable-background="new 0 0 32 32" xml:space="preserve">
<g id="Icons_-_V2">
	<g>
		<path d="M24.998,4H23v2.994h2V27h-2.018c0.471,1,0.961,1.994,1.393,2.994h0.623c1.652,0,3.002-1.308,3.002-2.962V7.015
			C28,5.361,26.65,4,24.998,4z"/>
		<path d="M7,6.994h2V4H7.001C5.349,4,4,5.361,4,7.015v20.023C4,28.692,5.349,30,7.001,30h2.66l0.697-3H7V6.994z"/>
		<path d="M21,18.956c0-2.761-2.239-5-5-5s-5,2.239-5,5c0,1.567,0.736,2.949,1.864,3.865l-1.7,8.508l2.748-1.467L16,31.987
			l0.548-4.589L18.5,32.21l1.111-2.455l2.856,0.676l-3.084-7.814C20.372,21.703,21,20.407,21,18.956z M16,20.956
			c-1.105,0-2-0.895-2-2c0-1.105,0.895-2,2-2s2,0.895,2,2C18,20.06,17.105,20.956,16,20.956z"/>
		<path d="M22,8.153V3.994l-2.412-0.857l-0.563-0.883c-0.604-1.072-1.738-1.807-3.059-1.807c-1.324,0-2.465,0.74-3.066,1.82
			l-0.56,0.885L10,3.994v4.158c0,0.455,0.354,0.842,0.809,0.842h10.368C21.632,8.994,22,8.608,22,8.153z M15.966,5.656
			c-0.932,0-1.688-0.756-1.688-1.686c0-0.934,0.756-1.688,1.688-1.688c0.932,0,1.688,0.754,1.688,1.688
			C17.653,4.901,16.897,5.656,15.966,5.656z"/>
	</g>
</g>
<g id="Icons">
</g>
</svg>
