<?xml version="1.0" encoding="utf-8"?>
<!-- Generator: Adobe Illustrator 18.1.1, SVG Export Plug-In . SVG Version: 6.00 Build 0)  -->
<!DOCTYPE svg PUBLIC "-//W3C//DTD SVG 1.1//EN" "http://www.w3.org/Graphics/SVG/1.1/DTD/svg11.dtd">
<svg version="1.1" xmlns="http://www.w3.org/2000/svg" xmlns:xlink="http://www.w3.org/1999/xlink" x="0px" y="0px" width="32px"
	 height="32px" viewBox="0 0 32 32" enable-background="new 0 0 32 32" xml:space="preserve">
<g id="Icons_-_V2">
	<g>
		<path d="M22,10.019l2.883-2.875C24.506,5.922,23.424,5,22.078,5H20v3h2V10.019z"/>
		<path d="M13,21.792V26l4.184-0.002L22,21.245V28H4V8h2V5H4.082C2.43,5,1,6.395,1,8.05v20.018C1,29.722,2.43,31,4.082,31h17.996
			C23.73,31,25,29.722,25,28.067v-9.807l2.496-2.462l-4.271-4.219L13,21.792z M14.389,25L14,24.756v-2.031L16.424,25H14.389z"/>
		<polygon points="18.039,14 7,14 7,16 16.06,16 		"/>
		<polygon points="14.045,18 7,18 7,20 12.062,20 		"/>
		<rect x="7" y="22" width="4" height="2"/>
		<path d="M30.943,10.662l-2.51-2.512c-0.229-0.229-0.539-0.357-0.863-0.357s-0.633,0.129-0.861,0.359l-2.045,2.047l4.248,4.219
			l2.031-2.031C31.42,11.91,31.42,11.139,30.943,10.662z"/>
		<path d="M7.809,10h10.367C18.631,10,19,9.613,19,9.158V5.041l-2.412-0.857l-0.565-0.883c-0.603-1.072-1.738-1.807-3.059-1.807
			c-1.324,0-2.465,0.74-3.066,1.82L9.34,4.199L7,5.041v4.117C7,9.613,7.353,10,7.809,10z M12.965,3.33
			c0.932,0,1.688,0.754,1.688,1.688c0,0.93-0.756,1.686-1.688,1.686c-0.932,0-1.688-0.756-1.688-1.686
			C11.277,4.084,12.033,3.33,12.965,3.33z"/>
	</g>
</g>
<g id="Icons">
</g>
</svg>
