<?xml version="1.0" encoding="utf-8"?>
<!-- Generator: Adobe Illustrator 18.1.1, SVG Export Plug-In . SVG Version: 6.00 Build 0)  -->
<!DOCTYPE svg PUBLIC "-//W3C//DTD SVG 1.1//EN" "http://www.w3.org/Graphics/SVG/1.1/DTD/svg11.dtd">
<svg version="1.1" xmlns="http://www.w3.org/2000/svg" xmlns:xlink="http://www.w3.org/1999/xlink" x="0px" y="0px" width="32px"
	 height="32px" viewBox="0 0 32 32" enable-background="new 0 0 32 32" xml:space="preserve">
<g id="Icons_-_V2">
	<g>
		<rect x="10" y="14" width="12" height="2"/>
		<rect x="10" y="18" width="12" height="2"/>
		<rect x="10" y="22" width="8" height="2"/>
		<path d="M24.994,5H23v3h2v14.074L19.016,28H7V8h2V5H6.998C5.346,5,4,6.416,4,8.07v20.018C4,29.742,5.346,31,6.998,31h17.996
			C26.646,31,28,29.742,28,28.088V8.07C28,6.416,26.646,5,24.994,5z"/>
		<path d="M10.809,10h10.369C21.633,10,22,9.614,22,9.158V5.051l-2.412-0.856L19.025,3.31c-0.603-1.072-1.738-1.806-3.059-1.806
			c-1.324,0-2.465,0.739-3.066,1.82L12.34,4.209L10,5.051v4.107C10,9.614,10.355,10,10.809,10z M15.967,3.34
			c0.932,0,1.688,0.755,1.688,1.687c0,0.931-0.756,1.686-1.688,1.686c-0.932,0-1.688-0.755-1.688-1.686
			C14.279,4.095,15.035,3.34,15.967,3.34z"/>
	</g>
</g>
<g id="Icons">
</g>
</svg>
