<?xml version="1.0" encoding="utf-8"?>
<!-- Generator: Adobe Illustrator 18.1.1, SVG Export Plug-In . SVG Version: 6.00 Build 0)  -->
<!DOCTYPE svg PUBLIC "-//W3C//DTD SVG 1.1//EN" "http://www.w3.org/Graphics/SVG/1.1/DTD/svg11.dtd">
<svg version="1.1" xmlns="http://www.w3.org/2000/svg" xmlns:xlink="http://www.w3.org/1999/xlink" x="0px" y="0px" width="32px"
	 height="32px" viewBox="0 0 32 32" enable-background="new 0 0 32 32" xml:space="preserve">
<g id="Icons_-_V2">
	<g>
		<path d="M26,6c0-1.105-0.895-2-2-2H8C6.895,4,6,4.895,6,6v20c0,1.105,0.895,2,2,2h4.343L26,14.343V6z M16,19h-6v-2h6V19z M22,15
			H10v-2h12V15z M22,11H10V9h12V11z"/>
		<path d="M28.72,18.745l-1.44-1.44c-0.391-0.391-1.024-0.391-1.414,0l-1.414,1.414l2.854,2.854l1.414-1.414
			C29.11,19.769,29.11,19.136,28.72,18.745z"/>
		<rect x="19.14" y="20.177" transform="matrix(-0.7071 -0.7071 0.7071 -0.7071 18.5096 57.3868)" width="4" height="9.367"/>
		<polygon points="15,31 17.828,31 15,28.172 		"/>
	</g>
</g>
<g id="Icons">
</g>
</svg>
