<?xml version="1.0" encoding="utf-8"?>
<!-- Generator: Adobe Illustrator 18.1.1, SVG Export Plug-In . SVG Version: 6.00 Build 0)  -->
<!DOCTYPE svg PUBLIC "-//W3C//DTD SVG 1.1 Tiny//EN" "http://www.w3.org/Graphics/SVG/1.1/DTD/svg11-tiny.dtd">
<svg version="1.1" baseProfile="tiny" id="Layer_1" xmlns="http://www.w3.org/2000/svg" xmlns:xlink="http://www.w3.org/1999/xlink"
	 x="0px" y="0px" width="32px" height="32px" viewBox="0 0 32 32" xml:space="preserve">
<g id="Icons">
</g>
<path d="M24,4.007H8C6.895,4.007,6,4.895,6,6v20c0,1.105,0.895,2,2,2h16c1.105,0,2-0.895,2-2V6C26,4.895,25.105,4.007,24,4.007z
	 M16,7.954c1.671,0,3.026,1.355,3.026,3.026c0,1.671-1.355,3.026-3.026,3.026c-1.671,0-3.026-1.355-3.026-3.026
	C12.974,9.309,14.329,7.954,16,7.954z M12,25h-2v-2h2V25z M22,25h-8v-2h8V25z M22,20.007H10l0-3.526
	c0.647-0.598,1.667-1.121,2.985-1.451c0.843,0.638,1.88,1.03,3.015,1.03c1.135,0,2.172-0.393,3.015-1.03
	c1.318,0.33,2.339,0.853,2.986,1.451L22,20.007z"/>
</svg>
