<?xml version="1.0" encoding="utf-8"?>
<!-- Generator: Adobe Illustrator 18.1.1, SVG Export Plug-In . SVG Version: 6.00 Build 0)  -->
<!DOCTYPE svg PUBLIC "-//W3C//DTD SVG 1.1//EN" "http://www.w3.org/Graphics/SVG/1.1/DTD/svg11.dtd">
<svg version="1.1" xmlns="http://www.w3.org/2000/svg" xmlns:xlink="http://www.w3.org/1999/xlink" x="0px" y="0px" width="32px"
	 height="32px" viewBox="0 0 32 32" enable-background="new 0 0 32 32" xml:space="preserve">
<g id="Icons_-_V2">
	<path d="M24,4H8C6.895,4,6,4.895,6,6v20c0,1.105,0.895,2,2,2h16c1.105,0,2-0.895,2-2V6C26,4.895,25.105,4,24,4z M20.95,16.121
		L16,21.071l-4.95-4.95c-1.172-1.172-1.172-3.071,0-4.243c1.171-1.172,3.071-1.172,4.243,0L16,12.586l0.707-0.707
		c1.172-1.172,3.071-1.172,4.243,0C22.121,13.05,22.121,14.95,20.95,16.121z"/>
</g>
<g id="Icons">
</g>
</svg>
