<?xml version="1.0" encoding="utf-8"?>
<!-- Generator: Adobe Illustrator 18.1.1, SVG Export Plug-In . SVG Version: 6.00 Build 0)  -->
<!DOCTYPE svg PUBLIC "-//W3C//DTD SVG 1.1//EN" "http://www.w3.org/Graphics/SVG/1.1/DTD/svg11.dtd">
<svg version="1.1" xmlns="http://www.w3.org/2000/svg" xmlns:xlink="http://www.w3.org/1999/xlink" x="0px" y="0px" width="32px"
	 height="32px" viewBox="0 0 32 32" enable-background="new 0 0 32 32" xml:space="preserve">
<g id="Icons_-_V2">
	<g>
		<path d="M24,4H8C6.895,4,6,4.895,6,6v20c0,1.105,0.895,2,2,2h16c1.105,0,2-0.895,2-2V6C26,4.895,25.105,4,24,4z M23,17
			l-2.197,0.314c-0.112,0.409-0.273,0.793-0.479,1.153l1.332,1.776l-1.414,1.414l-1.776-1.332c-0.36,0.206-0.744,0.367-1.153,0.479
			L17,23h-2l-0.314-2.197c-0.409-0.112-0.793-0.273-1.153-0.479l-1.776,1.332l-1.414-1.414l1.332-1.776
			c-0.206-0.36-0.367-0.744-0.479-1.153L9,17v-2l2.197-0.314c0.112-0.409,0.273-0.793,0.479-1.153l-1.332-1.776l1.414-1.414
			l1.776,1.332c0.36-0.206,0.744-0.367,1.153-0.479L15,9h2l0.314,2.197c0.409,0.112,0.793,0.273,1.153,0.479l1.776-1.332
			l1.414,1.414l-1.332,1.776c0.206,0.36,0.367,0.744,0.479,1.153L23,15V17z"/>
		<circle cx="16" cy="16" r="2"/>
	</g>
</g>
<g id="Icons">
</g>
</svg>
