<?xml version="1.0" encoding="utf-8"?>
<!-- Generator: Adobe Illustrator 18.1.1, SVG Export Plug-In . SVG Version: 6.00 Build 0)  -->
<!DOCTYPE svg PUBLIC "-//W3C//DTD SVG 1.1//EN" "http://www.w3.org/Graphics/SVG/1.1/DTD/svg11.dtd">
<svg version="1.1" xmlns="http://www.w3.org/2000/svg" xmlns:xlink="http://www.w3.org/1999/xlink" x="0px" y="0px" width="32px"
	 height="32px" viewBox="0 0 32 32" enable-background="new 0 0 32 32" xml:space="preserve">
<g id="Icons_-_V2">
	<g>
		<path d="M28,8H2v20h28V10.106C30,8.943,29.104,8,28,8z M18,20.277C18.295,20.106,18.634,20,19,20c1.104,0,2,0.895,2,2
			s-0.896,2-2,2c-1.101,0-1.994-0.89-1.999-1.991L13,19.723C12.704,19.895,12.366,20,12,20c-1.101,0-1.994-0.89-1.999-1.991
			L9.984,18l0.017-0.009C10.006,16.89,10.899,16,12,16c0.366,0,0.704,0.105,1,0.277l4.001-2.286C17.006,12.89,17.899,12,19,12
			c1.104,0,2,0.895,2,2s-0.896,2-2,2c-0.366,0-0.705-0.106-1-0.277L14.016,18L18,20.277z"/>
		<path d="M16.016,2.934C15.434,2.361,14.646,2,13.766,2H4C2.896,2,2,2.895,2,4v2h17.1L16.016,2.934z"/>
	</g>
</g>
<g id="Icons">
</g>
</svg>
