<?xml version="1.0" encoding="utf-8"?>
<!-- Generator: Adobe Illustrator 18.1.1, SVG Export Plug-In . SVG Version: 6.00 Build 0)  -->
<!DOCTYPE svg PUBLIC "-//W3C//DTD SVG 1.1//EN" "http://www.w3.org/Graphics/SVG/1.1/DTD/svg11.dtd">
<svg version="1.1" xmlns="http://www.w3.org/2000/svg" xmlns:xlink="http://www.w3.org/1999/xlink" x="0px" y="0px" width="32px"
	 height="32px" viewBox="0 0 32 32" enable-background="new 0 0 32 32" xml:space="preserve">
<g id="Icons_-_V2">
	<g>
		<path d="M28,9H2v20h28V11.106C30,9.943,29.104,9,28,9z M20.95,19.05L16,24l-4.95-4.95c-1.172-1.172-1.172-3.071,0-4.243
			c1.171-1.172,3.071-1.172,4.243,0L16,15.515l0.707-0.707c1.172-1.172,3.071-1.172,4.243,0
			C22.121,15.979,22.121,17.879,20.95,19.05z"/>
		<path d="M16.016,3.934C15.434,3.361,14.646,3,13.766,3H4C2.896,3,2,3.895,2,5v2h17.1L16.016,3.934z"/>
	</g>
</g>
<g id="Icons">
</g>
</svg>
