<?xml version="1.0" encoding="utf-8"?>
<!-- Generator: Adobe Illustrator 18.1.1, SVG Export Plug-In . SVG Version: 6.00 Build 0)  -->
<!DOCTYPE svg PUBLIC "-//W3C//DTD SVG 1.1//EN" "http://www.w3.org/Graphics/SVG/1.1/DTD/svg11.dtd">
<svg version="1.1" id="Layer_1" xmlns="http://www.w3.org/2000/svg" xmlns:xlink="http://www.w3.org/1999/xlink" x="0px" y="0px"
	 width="32px" height="32px" viewBox="-495 497 32 32" enable-background="new -495 497 32 32" xml:space="preserve">
<g id="Icons_-_V2">
	<g>
		<rect x="-485" y="509" width="2" height="2"/>
		<rect x="-481" y="509" width="8" height="2"/>
		<rect x="-485" y="513" width="2" height="2"/>
		<rect x="-481" y="513" width="8" height="2"/>
		<rect x="-485" y="517" width="2" height="2"/>
		<rect x="-481" y="517" width="8" height="2"/>
		<path d="M-470.005,501H-473v-2h-2v2h-3v-2h-2v2h-3v-2h-2v2h-2.98c-1.656,0-3.02,1.335-3.02,2.993v18.994
			c0,1.657,1.364,3.013,3.02,3.013h17.975c1.656,0,3.005-1.356,3.005-3.013v-18.994C-467,502.335-468.349,501-470.005,501z
			 M-470,523h-18v-19h3v2h2v-2h3v2h2v-2h3v2h2v-2h3V523z"/>
	</g>
</g>
<g id="Icons">
</g>
</svg>
