<?xml version="1.0" encoding="utf-8"?>
<!-- Generator: Adobe Illustrator 18.1.1, SVG Export Plug-In . SVG Version: 6.00 Build 0)  -->
<!DOCTYPE svg PUBLIC "-//W3C//DTD SVG 1.1 Tiny//EN" "http://www.w3.org/Graphics/SVG/1.1/DTD/svg11-tiny.dtd">
<svg version="1.1" baseProfile="tiny" id="Layer_1" xmlns="http://www.w3.org/2000/svg" xmlns:xlink="http://www.w3.org/1999/xlink"
	 x="0px" y="0px" width="32px" height="32px" viewBox="0 0 32 32" xml:space="preserve">
<g>
	<path d="M20,8H10c-1.657,0-3,1.343-3,3v12c0,1.657,1.343,3,3,3h10c1.657,0,3-1.343,3-3V11C23,9.343,21.657,8,20,8z M12,11.804
		c0.717-0.414,1.635-0.168,2.049,0.549c0.414,0.717,0.168,1.635-0.549,2.049c-0.717,0.414-1.635,0.168-2.049-0.549
		C11.037,13.135,11.283,12.218,12,11.804z M14.049,21.647c-0.414,0.717-1.332,0.963-2.049,0.549
		c-0.718-0.414-0.963-1.332-0.549-2.049c0.414-0.717,1.332-0.963,2.049-0.549C14.218,20.012,14.463,20.93,14.049,21.647z M12,17
		c0,0.829-0.672,1.5-1.5,1.5C9.672,18.5,9,17.829,9,17c0-0.829,0.672-1.5,1.5-1.5C11.328,15.5,12,16.171,12,17z M18,22.196
		c-0.717,0.414-1.635,0.168-2.049-0.549c-0.414-0.717-0.168-1.635,0.549-2.049c0.717-0.414,1.635-0.168,2.049,0.549
		C18.963,20.865,18.717,21.782,18,22.196z M16,18.732c-0.957,0.552-2.18,0.224-2.732-0.732c-0.552-0.957-0.225-2.18,0.732-2.732
		s2.18-0.225,2.732,0.732C17.284,16.957,16.957,18.18,16,18.732z M21,17c0,0.829-0.672,1.5-1.5,1.5c-0.828,0-1.5-0.672-1.5-1.5
		c0-0.829,0.672-1.5,1.5-1.5C20.328,15.5,21,16.171,21,17z M18.549,13.853c-0.414,0.717-1.332,0.963-2.049,0.549
		c-0.718-0.414-0.963-1.332-0.549-2.049c0.414-0.717,1.332-0.963,2.049-0.549C18.718,12.218,18.963,13.135,18.549,13.853z"/>
	<rect x="24" y="12" width="1" height="3"/>
	<rect x="24" y="17" width="1" height="4.984"/>
	<polygon points="19,3 11,3 10,7 20,7 	"/>
	<polygon points="11,31 19,31 20,27 10,27 	"/>
</g>
</svg>
