<?xml version="1.0" encoding="utf-8"?>
<!-- Generator: Adobe Illustrator 18.0.0, SVG Export Plug-In . SVG Version: 6.00 Build 0)  -->
<!DOCTYPE svg PUBLIC "-//W3C//DTD SVG 1.1//EN" "http://www.w3.org/Graphics/SVG/1.1/DTD/svg11.dtd">
<svg version="1.1" id="Layer_1" xmlns="http://www.w3.org/2000/svg" xmlns:xlink="http://www.w3.org/1999/xlink" x="0px" y="0px"
	 width="32px" height="32px" viewBox="0 0 32 32" enable-background="new 0 0 32 32" xml:space="preserve">
<g>
	<path d="M27.121,7.121l-2.243-2.243C24.316,4.316,23.553,4,22.757,4H22v6H8V4H7C5.343,4,4,5.343,4,7v18c0,1.657,1.343,3,3,3h18
		c1.657,0,3-1.343,3-3V9.243C28,8.447,27.684,7.684,27.121,7.121z M24,24H8V13.934h16V24z"/>
	<rect x="17" y="4" width="3" height="4"/>
	<rect x="10" y="16" width="12" height="2"/>
	<rect x="10" y="20" width="12" height="2"/>
</g>
</svg>
