<?xml version="1.0" encoding="utf-8"?>
<!-- Generator: Adobe Illustrator 18.0.0, SVG Export Plug-In . SVG Version: 6.00 Build 0)  -->
<!DOCTYPE svg PUBLIC "-//W3C//DTD SVG 1.1//EN" "http://www.w3.org/Graphics/SVG/1.1/DTD/svg11.dtd">
<svg version="1.1" id="Layer_1" xmlns="http://www.w3.org/2000/svg" xmlns:xlink="http://www.w3.org/1999/xlink" x="0px" y="0px"
	 width="32px" height="32px" viewBox="0 0 32 32" enable-background="new 0 0 32 32" xml:space="preserve">
<g>
	<path d="M5,5h12v4h3V4c0-1.1-0.9-2-2-2H4C2.9,2,2,2.9,2,4v5h3V5z"/>
	<path d="M28,12H4c-1.1,0-2,0.9-2,2v14c0,1.1,0.9,2,2,2h24c1.1,0,2-0.9,2-2V14C30,12.9,29.1,12,28,12z M6,22H4v-2h2V22z M27,27H8V15
		h19V27z"/>
	<polygon points="26,6 24,6 26.484,9 29,6 27,6 27,3 22,3 22,4 26,4 	"/>
</g>
</svg>
