<?xml version="1.0" encoding="utf-8"?>
<!-- Generator: Adobe Illustrator 18.0.0, SVG Export Plug-In . SVG Version: 6.00 Build 0)  -->
<!DOCTYPE svg PUBLIC "-//W3C//DTD SVG 1.1//EN" "http://www.w3.org/Graphics/SVG/1.1/DTD/svg11.dtd">
<svg version="1.1" id="Layer_1" xmlns="http://www.w3.org/2000/svg" xmlns:xlink="http://www.w3.org/1999/xlink" x="0px" y="0px"
	 width="32px" height="32px" viewBox="0 0 32 32" enable-background="new 0 0 32 32" xml:space="preserve">
<g>
	<path d="M27,10V5c0-1.105-0.895-2-2-2H7C5.895,3,5,3.895,5,5v5H2v12h3v6c0,1.105,0.895,2,2,2h18c1.105,0,2-0.895,2-2v-6h3V10H27z
		 M24,27H8V15h16V27z M24,10H8V6h16V10z"/>
	<rect x="11" y="18" width="10" height="2"/>
	<rect x="11" y="22" width="10" height="2"/>
</g>
</svg>
