<?xml version="1.0" encoding="utf-8"?>
<!-- Generator: Adobe Illustrator 18.0.0, SVG Export Plug-In . SVG Version: 6.00 Build 0)  -->
<!DOCTYPE svg PUBLIC "-//W3C//DTD SVG 1.1//EN" "http://www.w3.org/Graphics/SVG/1.1/DTD/svg11.dtd">
<svg version="1.1" id="Layer_1" xmlns="http://www.w3.org/2000/svg" xmlns:xlink="http://www.w3.org/1999/xlink" x="0px" y="0px"
	 width="32px" height="32px" viewBox="0 0 32 32" enable-background="new 0 0 32 32" xml:space="preserve">
<g>
	<path d="M27,10V4c0-1.105-0.895-2-2-2H7C5.895,2,5,2.895,5,4v6H2v12h3v6h3v-8h16v8h3v-6h3V10H27z M24,15H8V5h16V15z"/>
	<rect x="11" y="11" width="10" height="2"/>
	<rect x="11" y="7" width="10" height="2"/>
	<rect x="11" y="22" width="2" height="8"/>
	<rect x="15" y="22" width="2" height="6"/>
	<rect x="19" y="22" width="2" height="8"/>
</g>
</svg>
