<?xml version="1.0" encoding="utf-8"?>
<!-- Generator: Adobe Illustrator 18.0.0, SVG Export Plug-In . SVG Version: 6.00 Build 0)  -->
<!DOCTYPE svg PUBLIC "-//W3C//DTD SVG 1.1//EN" "http://www.w3.org/Graphics/SVG/1.1/DTD/svg11.dtd">
<svg version="1.1" id="Layer_1" xmlns="http://www.w3.org/2000/svg" xmlns:xlink="http://www.w3.org/1999/xlink" x="0px" y="0px"
	 width="32px" height="32px" viewBox="0 0 32 32" enable-background="new 0 0 32 32" xml:space="preserve">
<g>
	<path d="M19,8H5c-1.657,0-3,1.343-3,3v10c0,1.657,1.343,3,3,3h14c1.657,0,3-1.343,3-3V11C22,9.343,20.657,8,19,8z M18.5,13
		c-0.828,0-1.5-0.672-1.5-1.5s0.672-1.5,1.5-1.5s1.5,0.672,1.5,1.5S19.328,13,18.5,13z"/>
	<path d="M28.36,9.367L24,13v6l4.36,3.633c0.651,0.543,1.64,0.08,1.64-0.768v-11.73C30,9.287,29.011,8.824,28.36,9.367z"/>
</g>
</svg>
