<?xml version="1.0" encoding="utf-8"?>
<!-- Generator: Adobe Illustrator 18.0.0, SVG Export Plug-In . SVG Version: 6.00 Build 0)  -->
<!DOCTYPE svg PUBLIC "-//W3C//DTD SVG 1.1//EN" "http://www.w3.org/Graphics/SVG/1.1/DTD/svg11.dtd">
<svg version="1.1" id="Layer_1" xmlns="http://www.w3.org/2000/svg" xmlns:xlink="http://www.w3.org/1999/xlink" x="0px" y="0px"
	 width="32px" height="32px" viewBox="0 0 32 32" enable-background="new 0 0 32 32" xml:space="preserve">
<g>
	<circle cx="16" cy="26" r="1.5"/>
	<path d="M16,6C10.882,6,5.763,7.953,1.858,11.858l2.121,2.121C7.19,10.768,11.459,9,16,9c4.541,0,8.81,1.768,12.021,4.979
		l2.121-2.121C26.237,7.953,21.118,6,16,6z"/>
	<path d="M6.101,16.1l2.121,2.121C10.299,16.144,13.062,15,16,15c2.938,0,5.701,1.144,7.778,3.222l2.121-2.121
		C23.166,13.367,19.583,12,16,12C12.417,12,8.834,13.367,6.101,16.1z"/>
	<path d="M10.342,20.342l2.121,2.121c0.945-0.945,2.2-1.465,3.536-1.465s2.592,0.52,3.536,1.465l2.121-2.121
		c-1.562-1.562-3.61-2.343-5.658-2.343S11.905,18.78,10.342,20.342z"/>
</g>
</svg>
