<?xml version="1.0" encoding="utf-8"?>
<!-- Generator: Adobe Illustrator 18.0.0, SVG Export Plug-In . SVG Version: 6.00 Build 0)  -->
<!DOCTYPE svg PUBLIC "-//W3C//DTD SVG 1.1//EN" "http://www.w3.org/Graphics/SVG/1.1/DTD/svg11.dtd">
<svg version="1.1" id="Layer_1" xmlns="http://www.w3.org/2000/svg" xmlns:xlink="http://www.w3.org/1999/xlink" x="0px" y="0px"
	 width="32px" height="32px" viewBox="0 0 32 32" enable-background="new 0 0 32 32" xml:space="preserve">
<g>
	<circle cx="16" cy="17" r="4"/>
	<path d="M28,8h-7l-2-2h-6l-2,2H4c-1.1,0-2,0.9-2,2v14c0,1.105,0.895,2,2,2h24c1.105,0,2-0.895,2-2V10C30,8.895,29.105,8,28,8z
		 M16,23c-3.313,0-6-2.687-6-6c0-3.313,2.687-6,6-6c3.313,0,6,2.687,6,6C22,20.313,19.313,23,16,23z M27.002,14H24v-3h3.002V14z"/>
</g>
</svg>
