<?xml version="1.0" encoding="utf-8"?>
<!-- Generator: Adobe Illustrator 18.0.0, SVG Export Plug-In . SVG Version: 6.00 Build 0)  -->
<!DOCTYPE svg PUBLIC "-//W3C//DTD SVG 1.1//EN" "http://www.w3.org/Graphics/SVG/1.1/DTD/svg11.dtd">
<svg version="1.1" id="Layer_1" xmlns="http://www.w3.org/2000/svg" xmlns:xlink="http://www.w3.org/1999/xlink" x="0px" y="0px"
	 width="32px" height="32px" viewBox="0 0 32 32" enable-background="new 0 0 32 32" xml:space="preserve">
<g>
	<path d="M28,7h-0.172l1.586-1.586L28,4L4,28l1.414,1.414L9.828,25H28c1.105,0,2-0.895,2-2V9C30,7.895,29.105,7,28,7z M16,22
		c-0.925,0-1.799-0.216-2.581-0.59l1.558-1.558C15.305,19.939,15.644,20,16,20c2.209,0,4-1.791,4-4c0-0.356-0.061-0.695-0.149-1.023
		l1.558-1.558C21.784,14.201,22,15.075,22,16C22,19.313,19.313,22,16,22z M27.002,13H24v-2.172L24.828,10h2.174V13z"/>
	<path d="M4,25h0.172l6.419-6.419C10.216,17.798,10,16.925,10,16c0-3.313,2.687-6,6-6c0.925,0,1.799,0.216,2.581,0.59L22.172,7H21
		l-2-2h-6l-2,2H4C2.9,7,2,7.9,2,9v14C2,24.105,2.895,25,4,25z"/>
	<path d="M16,12c-2.209,0-4,1.791-4,4c0,0.356,0.061,0.694,0.149,1.023l4.874-4.874C16.694,12.061,16.356,12,16,12z"/>
</g>
</svg>
