<?xml version="1.0" encoding="utf-8"?>
<!-- Generator: Adobe Illustrator 18.0.0, SVG Export Plug-In . SVG Version: 6.00 Build 0)  -->
<!DOCTYPE svg PUBLIC "-//W3C//DTD SVG 1.1//EN" "http://www.w3.org/Graphics/SVG/1.1/DTD/svg11.dtd">
<svg version="1.1" id="Layer_1" xmlns="http://www.w3.org/2000/svg" xmlns:xlink="http://www.w3.org/1999/xlink" x="0px" y="0px"
	 width="32px" height="32px" viewBox="0 0 32 32" enable-background="new 0 0 32 32" xml:space="preserve">
<g>
	<path d="M16,8c-4.418,0-8,3.581-8,8c0,4.417,3.582,8,8,8s8-3.583,8-8C24,11.581,20.418,8,16,8z M16,21V11c2.757,0,5,2.243,5,5
		S18.757,21,16,21z"/>
	<rect x="15" y="3" width="2.001" height="2.999"/>
	<rect x="3.001" y="14.999" width="2.999" height="2.001"/>
	<rect x="14.999" y="26.001" width="2.001" height="2.999"/>
	<rect x="26" y="15" width="2.999" height="2.001"/>
	<rect x="6.357" y="6.873" transform="matrix(-0.7071 -0.7071 0.7071 -0.7071 7.8451 18.9968)" width="3" height="2.001"/>
	<rect x="6.856" y="22.638" transform="matrix(0.7074 0.7068 -0.7068 0.7074 19.3592 1.5092)" width="2.001" height="2.999"/>
	<rect x="22.619" y="23.137" transform="matrix(0.7071 0.7071 -0.7071 0.7071 24.1318 -9.9849)" width="3" height="2.001"/>
	<rect x="23.12" y="6.374" transform="matrix(0.7071 0.7071 -0.7071 0.7071 12.6323 -14.7493)" width="2.001" height="3"/>
</g>
</svg>
