<?xml version="1.0" encoding="utf-8"?>
<!-- Generator: Adobe Illustrator 18.0.0, SVG Export Plug-In . SVG Version: 6.00 Build 0)  -->
<!DOCTYPE svg PUBLIC "-//W3C//DTD SVG 1.1//EN" "http://www.w3.org/Graphics/SVG/1.1/DTD/svg11.dtd">
<svg version="1.1" id="Layer_1" xmlns="http://www.w3.org/2000/svg" xmlns:xlink="http://www.w3.org/1999/xlink" x="0px" y="0px"
	 width="32px" height="32px" viewBox="0 0 32 32" enable-background="new 0 0 32 32" xml:space="preserve">
<g>
	<path d="M16,7c-5.407,0-10.041,3.716-12,9c1.959,5.284,6.593,9,12,9s10.041-3.716,12-9C26.041,10.716,21.407,7,16,7z
		 M16.002,21.988c-3.306,0-5.995-2.69-5.995-5.994c0-3.304,2.689-5.995,5.995-5.995c3.305,0,5.994,2.691,5.994,5.995
		C21.996,19.299,19.307,21.988,16.002,21.988z"/>
	<path d="M16,12c-2.209,0-4,1.791-4,4s1.791,4,4,4c2.208,0,3.999-1.791,3.999-4H16V12z"/>
</g>
</svg>
