<?xml version="1.0" encoding="utf-8"?>
<!-- Generator: Adobe Illustrator 18.1.1, SVG Export Plug-In . SVG Version: 6.00 Build 0)  -->
<!DOCTYPE svg PUBLIC "-//W3C//DTD SVG 1.1 Tiny//EN" "http://www.w3.org/Graphics/SVG/1.1/DTD/svg11-tiny.dtd">
<svg version="1.1" baseProfile="tiny" id="Layer_1" xmlns="http://www.w3.org/2000/svg" xmlns:xlink="http://www.w3.org/1999/xlink"
	 x="0px" y="0px" width="32px" height="32px" viewBox="0 0 32 32" xml:space="preserve">
<g>
	<path d="M5,25.5c0,1.105,0.895,2,2,2h18c1.105,0,2-0.895,2-2v-1H5V25.5z"/>
	<path d="M16,6.5c-8.969,0-11,4.444-11,9h22C27,10.944,25,6.5,16,6.5z M9,13.5c-0.552,0-1-0.448-1-1c0-0.552,0.448-1,1-1
		s1,0.448,1,1C10,13.052,9.552,13.5,9,13.5z M12,10.5c-0.552,0-1-0.448-1-1c0-0.552,0.448-1,1-1s1,0.448,1,1
		C13,10.052,12.552,10.5,12,10.5z M16,13.5c-0.552,0-1-0.448-1-1c0-0.552,0.448-1,1-1s1,0.448,1,1C17,13.052,16.552,13.5,16,13.5z
		 M20,10.5c-0.552,0-1-0.448-1-1c0-0.552,0.448-1,1-1s1,0.448,1,1C21,10.052,20.552,10.5,20,10.5z M23,13.5c-0.552,0-1-0.448-1-1
		c0-0.552,0.448-1,1-1s1,0.448,1,1C24,13.052,23.552,13.5,23,13.5z"/>
	<path d="M27,20.5h-2l-3,2l-3-2H5c-0.552,0-1,0.448-1,1v1c0,0.552,0.448,1,1,1h22c0.552,0,1-0.448,1-1v-1
		C28,20.948,27.552,20.5,27,20.5z"/>
	<path d="M25.645,17.646c-0.478,0.477-0.854,0.854-1.649,0.854c-0.794,0-1.171-0.376-1.648-0.854
		c-0.512-0.511-1.147-1.146-2.356-1.146c-1.207,0-1.842,0.636-2.353,1.146c-0.477,0.477-0.854,0.854-1.646,0.854
		s-1.169-0.376-1.646-0.854c-0.511-0.511-1.146-1.146-2.352-1.146c-1.207,0-1.842,0.636-2.353,1.147
		C9.166,18.124,8.79,18.5,7.998,18.5s-1.169-0.376-1.646-0.854C5.842,17.136,5.207,16.5,4,16.5v1c0.792,0,1.169,0.376,1.646,0.854
		C6.156,18.864,6.791,19.5,7.998,19.5c1.206,0,1.841-0.636,2.352-1.146c0.477-0.477,0.854-0.854,1.646-0.854
		s1.168,0.376,1.645,0.853c0.511,0.511,1.146,1.147,2.353,1.147s1.842-0.636,2.353-1.146c0.477-0.477,0.854-0.854,1.646-0.854
		c0.795,0,1.172,0.377,1.649,0.854c0.512,0.511,1.147,1.146,2.355,1.146c1.209,0,1.845-0.636,2.356-1.146
		C26.829,17.876,27.206,17.5,28,17.5v-1C26.792,16.5,26.156,17.135,25.645,17.646z"/>
</g>
</svg>
