<?xml version="1.0" encoding="utf-8"?>
<!-- Generator: Adobe Illustrator 18.1.1, SVG Export Plug-In . SVG Version: 6.00 Build 0)  -->
<!DOCTYPE svg PUBLIC "-//W3C//DTD SVG 1.1//EN" "http://www.w3.org/Graphics/SVG/1.1/DTD/svg11.dtd">
<svg version="1.1" id="Layer_1" xmlns="http://www.w3.org/2000/svg" xmlns:xlink="http://www.w3.org/1999/xlink" x="0px" y="0px"
	 width="32px" height="32px" viewBox="-283 385 32 32" enable-background="new -283 385 32 32" xml:space="preserve">
<g>
	<path d="M-272.223,390.561c-3.021-2.686-4.703-3.811-6.525-4.859c-0.746-0.418-1.711-0.311-2.347,0.326
		c-0.768,0.768-0.769,2.012,0,2.777c0.447,0.447,1.056,0.627,1.638,0.553c0.004,0.006,0.009,0.012,0.015,0.018
		c0.145,0.144,0.259,0.309,0.342,0.488c0.483,1.047,1.269,2.043,2.204,2.981c0.918,0.918,1.942,1.611,2.916,2.172
		c0.353,0.203,0.665,0.438,1.073,0.816c0.316,0.293,0.562,0.576,0.724,0.912c0.191,0.398,0.121,0.871-0.232,1.225l-0.54,0.539
		c-0.26,0.258-0.286,0.652-0.061,0.877l0.39,0.39l4.634-4.634l-0.001-0.001l0.008-0.008
		C-268.908,393.835-270.569,392.036-272.223,390.561z"/>
	<path d="M-272.176,402.152c4.227,3.877,10.254,7.695,16.382,10.396c0.127,0.394,0.22,0.797,0.29,1.203
		c-6.474-2.764-12.914-6.79-17.379-10.892l-1.073,1.073c5.915,5.398,14.022,9.997,21.615,12.615
		c0.096-2.545-0.284-6.041-2.667-8.424l-11.57-11.569L-272.176,402.152z"/>
</g>
</svg>
