<?xml version="1.0" encoding="utf-8"?>
<!-- Generator: Adobe Illustrator 18.0.0, SVG Export Plug-In . SVG Version: 6.00 Build 0)  -->
<!DOCTYPE svg PUBLIC "-//W3C//DTD SVG 1.1//EN" "http://www.w3.org/Graphics/SVG/1.1/DTD/svg11.dtd">
<svg version="1.1" id="Layer_1" xmlns="http://www.w3.org/2000/svg" xmlns:xlink="http://www.w3.org/1999/xlink" x="0px" y="0px"
	 viewBox="0 0 32 32" enable-background="new 0 0 32 32" xml:space="preserve">
<g>
	<polygon points="14.5,13.1 17.5,12.2 17.5,10.7 14.5,11.7 	"/>
	<path d="M16,6.7c-0.2,0-0.4,0.2-0.4,0.4v1.2C15,8.4,14.5,9,14.5,9.7v0.5l2.9-1c-0.2-0.5-0.5-0.8-1-1V7.1C16.4,6.9,16.2,6.7,16,6.7z
		"/>
	<path d="M24.9,21.4c-0.4-3.6-3.5-6.6-7.4-7.2v-0.6L16,14.1c0,0,0,0,0,0c-4.6,0-8.4,3.2-8.9,7.3c-0.9,0.4-1.5,1.3-1.5,2.4
		c0,1.4,1.2,2.6,2.6,2.6c0.5,0,1-0.1,1.3-0.4c0.4-0.2,0.8-0.4,1.3-0.4c0.5,0,0.9,0.1,1.3,0.4c0.4,0.2,0.8,0.4,1.3,0.4
		s0.9-0.1,1.3-0.4c0.4-0.2,0.8-0.4,1.3-0.4s0.9,0.1,1.3,0.4c0.4,0.2,0.8,0.4,1.3,0.4s1-0.1,1.3-0.4c0.4-0.2,0.8-0.4,1.3-0.4
		s0.9,0.1,1.3,0.4c0.4,0.2,0.8,0.4,1.3,0.4c1.4,0,2.6-1.2,2.6-2.6C26.4,22.8,25.8,21.8,24.9,21.4z M10,23.1c-0.4,0-0.7-0.3-0.7-0.7
		c0-0.4,0.3-0.7,0.7-0.7c0.4,0,0.7,0.3,0.7,0.7C10.8,22.7,10.5,23.1,10,23.1z M12.3,19.4c-0.4,0-0.7-0.3-0.7-0.7
		c0-0.4,0.3-0.7,0.7-0.7c0.4,0,0.7,0.3,0.7,0.7C13,19.1,12.7,19.4,12.3,19.4z M13.8,23.1c-0.4,0-0.7-0.3-0.7-0.7
		c0-0.4,0.3-0.7,0.7-0.7c0.4,0,0.7,0.3,0.7,0.7C14.5,22.7,14.2,23.1,13.8,23.1z M16,19.4c-0.4,0-0.7-0.3-0.7-0.7
		c0-0.4,0.3-0.7,0.7-0.7c0.4,0,0.7,0.3,0.7,0.7C16.7,19.1,16.4,19.4,16,19.4z M17.5,23.1c-0.4,0-0.7-0.3-0.7-0.7
		c0-0.4,0.3-0.7,0.7-0.7s0.7,0.3,0.7,0.7C18.2,22.7,17.9,23.1,17.5,23.1z M19.7,19.4c-0.4,0-0.7-0.3-0.7-0.7c0-0.4,0.3-0.7,0.7-0.7
		s0.7,0.3,0.7,0.7C20.5,19.1,20.1,19.4,19.7,19.4z M21.2,23.1c-0.4,0-0.7-0.3-0.7-0.7c0-0.4,0.3-0.7,0.7-0.7c0.4,0,0.7,0.3,0.7,0.7
		C22,22.7,21.6,23.1,21.2,23.1z"/>
	<path d="M14.5,5.7c0.1,0,0.2,0,0.2-0.1c0,0,0,0,0,0c0,0,0,0,0,0c0,0,0-0.1,0.1-0.1c0,0,0,0,0,0c0,0,0-0.1,0-0.1
		C15,4.7,15.4,4.1,16,3.7c0.6,0.3,1,0.9,1.1,1.6c0,0,0,0,0,0c0,0.2,0.2,0.4,0.4,0.4c0.1,0,0.1,0,0.2-0.1c0.1,0,0.1-0.1,0.2-0.2
		c0.3-0.5,0.4-1,0.4-1.6c0-0.8-0.3-1.5-0.8-2.1L16,0l-1.5,1.8c-0.5,0.6-0.8,1.3-0.8,2.1c0,0.5,0.1,1.1,0.4,1.5
		C14.2,5.6,14.3,5.7,14.5,5.7z"/>
	<path d="M21.7,27.3L21.7,27.3c-0.2-0.1-0.3-0.2-0.5-0.2c0,0,0,0,0,0l-0.7,3.4l-0.6-2.8c-0.4,0.1-0.8,0.2-1.2,0.2
		c-0.2,0-0.4,0-0.5,0l-0.6,2.6l-0.7-3c-0.1,0-0.2-0.1-0.3-0.1l0,0l0,0c-0.1-0.1-0.3-0.1-0.4-0.1c-0.2,0-0.3,0-0.4,0.1l0,0l0,0
		c-0.1,0.1-0.2,0.1-0.3,0.1l-0.7,3l-0.6-2.6c-0.2,0-0.4,0-0.5,0c-0.4,0-0.8-0.1-1.2-0.2l-0.6,2.8l-0.7-3.4c0,0,0,0,0,0
		c-0.2,0-0.3,0.1-0.4,0.1l0,0l0,0c-0.4,0.2-0.8,0.4-1.3,0.5l0.9,3.6c0.1,0.3,0.4,0.5,0.7,0.5h10.8c0.3,0,0.6-0.2,0.7-0.5l0.9-3.6
		C22.6,27.7,22.1,27.6,21.7,27.3L21.7,27.3z"/>
</g>
</svg>
