<?xml version="1.0" encoding="utf-8"?>
<!-- Generator: Adobe Illustrator 18.1.1, SVG Export Plug-In . SVG Version: 6.00 Build 0)  -->
<!DOCTYPE svg PUBLIC "-//W3C//DTD SVG 1.1//EN" "http://www.w3.org/Graphics/SVG/1.1/DTD/svg11.dtd">
<svg version="1.1" id="Layer_1" xmlns="http://www.w3.org/2000/svg" xmlns:xlink="http://www.w3.org/1999/xlink" x="0px" y="0px"
	 width="32px" height="32px" viewBox="0 0 32 32" enable-background="new 0 0 32 32" xml:space="preserve">
<g>
	<path d="M11.159,18.972l-1.078-1.246l-6.636,6.635c-0.939,0.939-1.131,2.48-0.277,3.496c0.957,1.138,2.658,1.193,3.687,0.165
		c0.113-0.113,0.213-0.234,0.3-0.363l5.111-7.56C11.808,19.734,11.456,19.326,11.159,18.972z"/>
	<path d="M21.555,13.303c0.021-0.021,6.066-6.234,2.626-9.674l-5.831,5.83l1.268,1.097C20.289,11.12,21.195,11.886,21.555,13.303z"
		/>
	<path d="M28.645,24.487l-7.699-5.865c-0.634-0.518-0.925-1.125-1.017-1.79l-0.235-2.605c-0.102-1.014-0.594-1.494-1.385-2.159
		L8.111,3.245L7.404,3.952l8.229,8.229l-0.749,0.749L6.343,5.013L5.636,5.72l7.918,8.541l-0.749,0.749L4.575,6.781L3.868,7.488
		l8.823,10.198c0.664,0.791,1.145,1.283,2.159,1.385l2.605,0.235c0.665,0.092,1.272,0.383,1.79,1.016l5.865,7.699
		c0.976,0.976,2.559,0.976,3.536,0C29.621,27.046,29.621,25.463,28.645,24.487z"/>
</g>
</svg>
