<?xml version="1.0" encoding="utf-8"?>
<!-- Generator: Adobe Illustrator 18.1.1, SVG Export Plug-In . SVG Version: 6.00 Build 0)  -->
<!DOCTYPE svg PUBLIC "-//W3C//DTD SVG 1.1 Tiny//EN" "http://www.w3.org/Graphics/SVG/1.1/DTD/svg11-tiny.dtd">
<svg version="1.1" baseProfile="tiny" id="Layer_1" xmlns="http://www.w3.org/2000/svg" xmlns:xlink="http://www.w3.org/1999/xlink"
	 x="0px" y="0px" width="32px" height="32px" viewBox="0 0 32 32" xml:space="preserve">
<g>
	<path d="M20,2h-6c-1.105,0-2,0.895-2,2v9c0,1.105,0.895,2,2,2h2v3h2v-3h2c1.105,0,2-0.895,2-2V4C22,2.895,21.105,2,20,2z M14,4h2v7
		h-2V4z M20,11h-2V4h2V11z"/>
	<path d="M15,28c0,1.105,0.895,2,2,2s2-0.895,2-2v-9h-4V28z"/>
	<path d="M4,28c0,1.105,0.895,2,2,2s2-0.895,2-2v-9H4V28z"/>
	<path d="M25,28c0,1.105,0.895,2,2,2s2-0.895,2-2v-9h-4V28z"/>
	<path d="M29,2h-1v9h-2V2h-1l-0.834,10.847c-0.085,1.107,0.748,2.049,1.834,2.136V18h2v-3.017c1.086-0.087,1.919-1.03,1.834-2.136
		L29,2z"/>
	<path d="M6,2C3.791,2,2,4.91,2,8.5c0,3.028,1.276,5.564,3,6.287V18h2v-3.213c1.724-0.723,3-3.259,3-6.287C10,4.91,8.209,2,6,2z"/>
</g>
</svg>
