<?xml version="1.0" encoding="utf-8"?>
<!-- Generator: Adobe Illustrator 19.0.0, SVG Export Plug-In . SVG Version: 6.00 Build 0)  -->
<svg version="1.1" id="Layer_1" xmlns="http://www.w3.org/2000/svg" xmlns:xlink="http://www.w3.org/1999/xlink" x="0px" y="0px"
	 width="32px" height="32px" viewBox="0 0 32 32" style="enable-background:new 0 0 32 32;" xml:space="preserve">
<g id="XMLID_812_">
	<path id="XMLID_813_" d="M12,9.181V8H6v1.181C4.609,10.336,3.518,12.324,3.148,15h11.705C14.482,12.324,13.391,10.336,12,9.181z"/>
	<path id="XMLID_814_" d="M3.043,16C3.022,16.327,3,16.655,3,17c0,3.782,2.105,10.197,3,13h6c0.875-2.863,3-9.218,3-13
		c0-0.345-0.022-0.673-0.043-1H3.043z"/>
	<path id="XMLID_815_" d="M12,5c0-0.552-0.448-1-1-1H7C6.448,4,6,4.448,6,5v2h6V5z"/>
	<path id="XMLID_816_" d="M17,18v12h12V18H17z M23.5,27.621L21.379,25.5l2.12-2.121l0.001,0l2.121,2.121L23.5,27.621z M27,24h-1.464
		l-1.328-1.328c-0.195-0.195-0.451-0.293-0.707-0.293s-0.512,0.098-0.707,0.293L21.464,24H19v-4h8V24z"/>
</g>
</svg>
