<?xml version="1.0" encoding="utf-8"?>
<!-- Generator: Adobe Illustrator 18.1.1, SVG Export Plug-In . SVG Version: 6.00 Build 0)  -->
<!DOCTYPE svg PUBLIC "-//W3C//DTD SVG 1.1//EN" "http://www.w3.org/Graphics/SVG/1.1/DTD/svg11.dtd">
<svg version="1.1" id="Layer_1" xmlns="http://www.w3.org/2000/svg" xmlns:xlink="http://www.w3.org/1999/xlink" x="0px" y="0px"
	 width="32px" height="32px" viewBox="0 0 32 32" enable-background="new 0 0 32 32" xml:space="preserve">
<g>
	<path d="M14.607,30.255c0.244,0.648,0.824,0.972,1.404,0.972c0.581,0,1.162-0.325,1.405-0.975L22,17H10L14.607,30.255z
		 M16.01,28.304L12.889,19h3.122V28.304z"/>
	<path d="M23,12c-0.133,0-0.262,0.014-0.388,0.039c0.505-0.941,0.816-2.001,0.877-3.128c0.198-3.644-2.414-6.946-5.974-7.744
		c-0.719-0.161-1.415-0.198-2.086-0.145c-0.538,0.043-0.962,0.535-0.896,1.07c0.019,0.154,0.03,0.31,0.03,0.469
		c0,2.485-2.015,4.5-4.5,4.5c-0.16,0-0.317-0.011-0.472-0.03C9.058,6.966,8.567,7.387,8.524,7.921C8.508,8.112,8.5,8.305,8.5,8.5
		c0,1.28,0.322,2.485,0.888,3.539C9.262,12.014,9.133,12,9,12c-1.215,0-2.176,1.083-1.973,2.336C7.187,15.319,8.111,16,9.107,16
		h13.786c0.996,0,1.92-0.681,2.08-1.664C25.176,13.083,24.215,12,23,12z"/>
</g>
</svg>
