<?xml version="1.0" encoding="utf-8"?>
<!-- Generator: Adobe Illustrator 18.1.1, SVG Export Plug-In . SVG Version: 6.00 Build 0)  -->
<!DOCTYPE svg PUBLIC "-//W3C//DTD SVG 1.1//EN" "http://www.w3.org/Graphics/SVG/1.1/DTD/svg11.dtd">
<svg version="1.1" id="Layer_1" xmlns="http://www.w3.org/2000/svg" xmlns:xlink="http://www.w3.org/1999/xlink" x="0px" y="0px"
	 width="32px" height="32px" viewBox="0 0 32 32" enable-background="new 0 0 32 32" xml:space="preserve">
<g>
	<path d="M25,8H4c0,1.281,0.509,2.509,1.414,3.414L7,13v15c0,1.105,0.895,2,2,2h12c1.105,0,2-0.895,2-2v-4h2c1.657,0,3-1.343,3-3V11
		C28,9.343,26.657,8,25,8z M21,18H10v7H9V10h12V18z M25,22h-2V10h2V22z"/>
	<path d="M23,5h-6.277C16.894,4.705,17,4.366,17,4c0-1.105-0.895-2-2-2s-2,0.895-2,2c0,0.366,0.106,0.705,0.277,1H7v2h16V5z"/>
</g>
</svg>
