<?xml version="1.0" encoding="utf-8"?>
<!-- Generator: Adobe Illustrator 19.0.0, SVG Export Plug-In . SVG Version: 6.00 Build 0)  -->
<svg version="1.1" id="Layer_1" xmlns="http://www.w3.org/2000/svg" xmlns:xlink="http://www.w3.org/1999/xlink" x="0px" y="0px"
	 width="32px" height="32px" viewBox="0 0 32 32" style="enable-background:new 0 0 32 32;" xml:space="preserve">
<g id="XMLID_714_">
	<g id="XMLID_717_">
		<path id="XMLID_17_" d="M9,11.722C8.405,11.375,8,10.737,8,10c0-1.103,0.897-2,2-2c0.737,0,1.375,0.405,1.722,1h2.137
			C13.413,7.278,11.862,6,10,6c-2.209,0-4,1.791-4,4c0,1.98,1.441,3.612,3.33,3.932C9.123,13.325,9,12.678,9,12V11.722z"/>
	</g>
	<g id="XMLID_722_">
		<path id="XMLID_32_" d="M10,10v2c0,2.6,1.992,4.712,4.529,4.953c0.525,0.93,1.418,1.632,2.471,1.912V25l-3.015,1v1h8v-1l-3-1
			v-6.13c1.066-0.275,1.956-0.979,2.486-1.918C24.008,16.712,26,14.6,26,12v-2H10z M23.225,14h-10.45C12.291,13.471,12,12.769,12,12
			h12C24,12.769,23.709,13.471,23.225,14z"/>
	</g>
</g>
</svg>
