<?xml version="1.0" encoding="utf-8"?>
<!-- Generator: Adobe Illustrator 18.1.1, SVG Export Plug-In . SVG Version: 6.00 Build 0)  -->
<!DOCTYPE svg PUBLIC "-//W3C//DTD SVG 1.1//EN" "http://www.w3.org/Graphics/SVG/1.1/DTD/svg11.dtd">
<svg version="1.1" id="Layer_1" xmlns="http://www.w3.org/2000/svg" xmlns:xlink="http://www.w3.org/1999/xlink" x="0px" y="0px"
	 width="32px" height="32px" viewBox="0 0 32 32" enable-background="new 0 0 32 32" xml:space="preserve">
<g>
	<rect x="13" y="15" width="8" height="2"/>
	<rect x="13" y="11" width="8" height="2"/>
	<rect x="9" y="11" width="2" height="2"/>
	<rect x="9" y="15" width="2" height="2"/>
	<path d="M27,4H2c0,1.281,0.509,2.509,1.414,3.414L5,9v17c0,1.105,0.895,2,2,2h16c1.105,0,2-0.895,2-2v-4h2c1.657,0,3-1.343,3-3V7
		C30,5.343,28.657,4,27,4z M23,19H9v4H7V6h16V19z M27,20h-2V6h2V20z"/>
</g>
</svg>
