<?xml version="1.0" encoding="utf-8"?>
<!-- Generator: Adobe Illustrator 18.1.1, SVG Export Plug-In . SVG Version: 6.00 Build 0)  -->
<!DOCTYPE svg PUBLIC "-//W3C//DTD SVG 1.1//EN" "http://www.w3.org/Graphics/SVG/1.1/DTD/svg11.dtd">
<svg version="1.1" id="Layer_1" xmlns="http://www.w3.org/2000/svg" xmlns:xlink="http://www.w3.org/1999/xlink" x="0px" y="0px"
	 width="32.231px" height="32.231px" viewBox="-283 384.769 32.231 32.231" enable-background="new -283 384.769 32.231 32.231"
	 xml:space="preserve">
<g>
	<path d="M-276.965,385.224c-0.647-0.279-1.442-0.214-1.999,0.344c-0.672,0.672-0.708,1.727-0.081,2.356
		c0.366,0.365,0.877,0.5,1.371,0.419c0.006,0.006,0.008,0.009,0.014,0.015c0.117,0.12,0.21,0.255,0.276,0.405
		c0.38,0.873,1.016,1.694,1.781,2.462c0.752,0.751,1.678,1.23,2.487,1.677c0.292,0.162,0.55,0.353,0.884,0.66
		c0.262,0.24,0.462,0.474,0.588,0.753c0.152,0.332,0.124,0.782-0.187,1.092l-0.294,0.295c-0.229,0.229-0.263,0.563-0.08,0.748
		l1.081,1.079l3.536-3.536c-0.743-1.074-2.704-3.556-3.988-4.84C-273.414,387.317-275.268,385.956-276.965,385.224z"/>
	<path d="M-266.883,408.842c1.616,1.617,2.992,2.881,4.43,4.056l-0.707,0.707c-1.438-1.175-2.813-2.439-4.43-4.056
		c-2.861-2.86-4.944-5.399-6.5-7.642l-1.363,1.363c1.616,2.458,3.105,4.255,6.561,7.711c2.938,2.938,4.223,3.854,6.873,5.725
		l7.156-7.156c0.781-0.781,0.781-2.047,0-2.828l-12.021-12.021l-6.5,6.5C-271.826,403.443-269.744,405.983-266.883,408.842z
		 M-258.398,407.429c0.391-0.391,1.024-0.391,1.414,0c0.391,0.391,0.391,1.024,0,1.414c-0.391,0.391-1.024,0.391-1.414,0
		C-258.789,408.453-258.789,407.82-258.398,407.429z"/>
</g>
</svg>
