<?xml version="1.0" encoding="utf-8"?>
<!-- Generator: Adobe Illustrator 18.1.1, SVG Export Plug-In . SVG Version: 6.00 Build 0)  -->
<!DOCTYPE svg PUBLIC "-//W3C//DTD SVG 1.1//EN" "http://www.w3.org/Graphics/SVG/1.1/DTD/svg11.dtd">
<svg version="1.1" id="Layer_1" xmlns="http://www.w3.org/2000/svg" xmlns:xlink="http://www.w3.org/1999/xlink" x="0px" y="0px"
	 width="32px" height="32px" viewBox="0 0 32 32" enable-background="new 0 0 32 32" xml:space="preserve">
<g>
	<path d="M16.75,5.568c-5.8,0-10.5,4.702-10.5,10.501c0,5.797,4.7,10.499,10.5,10.499c5.798,0,10.5-4.702,10.5-10.499
		C27.25,10.27,22.548,5.568,16.75,5.568z M16.75,23.568v-1c3.589,0,6.499-2.91,6.499-6.499h1
		C24.249,20.211,20.892,23.568,16.75,23.568z"/>
	<path d="M30.671,17.883c0-0.304,0.206-0.564,0.484-0.644C31.649,17.046,32,16.569,32,16.007l-0.009-4.797
		c0,0-0.21-5.743-2.312-5.743c-0.54,0-0.98,0.44-0.98,0.981l-0.001,18.463c0,0.912,0.738,1.652,1.652,1.652
		c0.91,0,1.651-0.74,1.651-1.652c0-0.104-0.01-0.208-0.03-0.31L30.671,17.883z"/>
	<path d="M4.633,5.432H3.972v7.263H3.313L2.982,5.432H2.323l-0.331,7.263H1.332V5.432H0.671l-0.643,7.594
		c-0.058,0.681-0.064,1.135,0.362,1.656l1.105,1.327c0.269,0.352,0.417,0.771,0.362,1.31l-0.857,7.592
		c0,0.912,0.738,1.652,1.651,1.652c0.912,0,1.652-0.74,1.652-1.652l-0.856-7.592c-0.054-0.54,0.094-0.958,0.36-1.31l1.106-1.327
		c0.427-0.521,0.422-0.975,0.362-1.656L4.633,5.432z"/>
</g>
</svg>
