<?xml version="1.0" encoding="utf-8"?>
<!-- Generator: Adobe Illustrator 18.1.1, SVG Export Plug-In . SVG Version: 6.00 Build 0)  -->
<!DOCTYPE svg PUBLIC "-//W3C//DTD SVG 1.1 Tiny//EN" "http://www.w3.org/Graphics/SVG/1.1/DTD/svg11-tiny.dtd">
<svg version="1.1" baseProfile="tiny" id="Layer_1" xmlns="http://www.w3.org/2000/svg" xmlns:xlink="http://www.w3.org/1999/xlink"
	 x="0px" y="0px" width="32px" height="32px" viewBox="0 0 32 32" xml:space="preserve">
<g>
	<polygon points="26.708,6.5 17.708,6.5 17.708,5.5 18.708,5.5 18.708,3.5 14.708,3.5 14.708,5.5 15.708,5.5 15.708,6.5 6.708,6.5 
		6.708,8.5 26.708,8.5 	"/>
	<path d="M27.708,9.5h-22c-1.657,0-3,1.343-3,3s1.343,3,3,3h1v3c0,2.209,1.791,4,4,4h12c2.209,0,4-1.791,4-4v-3h1
		c1.657,0,3-1.343,3-3S29.365,9.5,27.708,9.5z M6.708,13.5h-1c-0.551,0-1-0.449-1-1s0.449-1,1-1h1V13.5z M27.708,13.5h-1v-2h1
		c0.551,0,1,0.449,1,1S28.26,13.5,27.708,13.5z"/>
	<path d="M4.708,27.5c0,0.828,0.672,1.5,1.5,1.5h9.5v-3h-9.5C5.38,26,4.708,26.672,4.708,27.5z"/>
	<path d="M23.708,24.5c-2.174,0-4.005,0.837-4.694,2h-2.306v2h2.306c0.689,1.163,2.52,2,4.694,2c2.761,0,5-1.343,5-3
		S26.47,24.5,23.708,24.5z"/>
</g>
</svg>
