<?xml version="1.0" encoding="utf-8"?>
<!-- Generator: Adobe Illustrator 18.1.1, SVG Export Plug-In . SVG Version: 6.00 Build 0)  -->
<!DOCTYPE svg PUBLIC "-//W3C//DTD SVG 1.1//EN" "http://www.w3.org/Graphics/SVG/1.1/DTD/svg11.dtd">
<svg version="1.1" id="Layer_1" xmlns="http://www.w3.org/2000/svg" xmlns:xlink="http://www.w3.org/1999/xlink" x="0px" y="0px"
	 width="32.012px" height="32.012px" viewBox="0 -0.012 32.012 32.012" enable-background="new 0 -0.012 32.012 32.012"
	 xml:space="preserve">
<g>
	<path d="M27.774,18.829c0-0.459,0.312-0.854,0.733-0.975c0.747-0.293,1.277-1.016,1.277-1.867l-0.014-7.313
		c0,0-0.111-8.7-4.984-8.7l-0.002,30.223c0,0.307,0.11,0.616,0.335,0.826c2.144,2.007,4.665,0.524,4.665-1.549
		c0-0.16-0.015-0.316-0.044-0.469L27.774,18.829z"/>
	<path d="M20.785-0.026h-1v11.638h-1.06l-0.44-11.638h-1l-0.44,11.638h-1.06V-0.026h-1l-0.973,13.45
		c-0.09,1.029-0.098,1.717,0.547,2.506l1.676,2.008c0.405,0.535,0.629,1.17,0.547,1.984l-1.297,9.592c0,1.381,1.119,2.5,2.5,2.5
		c1.381,0,2.5-1.119,2.5-2.5l-1.297-9.592c-0.082-0.815,0.142-1.449,0.547-1.984l1.676-2.008c0.645-0.789,0.637-1.477,0.547-2.506
		L20.785-0.026z"/>
	<polygon points="7.273,31.98 7.272,31.98 7.271,31.98 	"/>
	<path d="M7.272,0.009c-0.931,0-1.771,0.379-2.378,0.99C3.245,2.667,2.227,4.958,2.227,7.484c0,1.5,0.233,2.984,0.99,4.164
		c0.109,0.17,0.509,0.66,1.076,1.227c1.944,1.944,1.734,2.941,1.578,4.643L4.773,29.48c0,1.38,1.118,2.499,2.499,2.5
		c1.38-0.001,2.499-1.119,2.499-2.5L8.673,17.518c-0.156-1.701-0.366-2.699,1.578-4.643c0.567-0.567,0.967-1.058,1.076-1.227
		c0.756-1.179,0.99-2.664,0.99-4.164c0-2.527-1.018-4.818-2.666-6.486C9.043,0.388,8.203,0.009,7.272,0.009z"/>
</g>
</svg>
