<?xml version="1.0" encoding="utf-8"?>
<!-- Generator: Adobe Illustrator 18.1.1, SVG Export Plug-In . SVG Version: 6.00 Build 0)  -->
<!DOCTYPE svg PUBLIC "-//W3C//DTD SVG 1.1//EN" "http://www.w3.org/Graphics/SVG/1.1/DTD/svg11.dtd">
<svg version="1.1" id="Icons" xmlns="http://www.w3.org/2000/svg" xmlns:xlink="http://www.w3.org/1999/xlink" x="0px" y="0px"
	 width="32px" height="32px" viewBox="0 0 32 32" enable-background="new 0 0 32 32" xml:space="preserve">
<g>
	<path d="M13.35,1.336c-0.251-0.598-1.01-0.82-1.518-0.418C10.095,2.29,9,4.281,9,6.5c0,0.304,0.035,0.599,0.075,0.894l5.797-2.436
		L13.35,1.336z"/>
	<path d="M18.216-0.968c-0.551,0.002-0.997,0.448-0.997,0.999c0,0.145,0.036,0.28,0.092,0.404l2.024,4.817L9.646,9.323
		c0.672,1.449,1.831,2.675,3.309,3.507C13.592,13.188,14,13.848,14,14.58v12.232c0,2.086,1.514,3.958,3.59,4.168
		C19.972,31.22,22,29.335,22,27V13.947c0-0.644,0.314-1.246,0.838-1.62C24.765,10.953,26,8.856,26,6.5
		C26,2.571,22.574-0.647,18.216-0.968z M18,28.454c-0.803,0-1.454-0.651-1.454-1.454s0.651-1.454,1.454-1.454
		s1.454,0.651,1.454,1.454S18.803,28.454,18,28.454z M16.766,11.515l-1.205-2.93l4.416-1.82l1.204,2.928L16.766,11.515z"/>
	<polygon points="18.394,8.335 19.013,9.827 19.87,9.462 19.252,7.968 	"/>
	<rect x="16.834" y="9.051" transform="matrix(-0.3818 -0.9242 0.9242 -0.3818 15.5905 29.4436)" width="1.617" height="0.913"/>
</g>
</svg>
