<?xml version="1.0" encoding="utf-8"?>
<!-- Generator: Adobe Illustrator 18.0.0, SVG Export Plug-In . SVG Version: 6.00 Build 0)  -->
<!DOCTYPE svg PUBLIC "-//W3C//DTD SVG 1.1//EN" "http://www.w3.org/Graphics/SVG/1.1/DTD/svg11.dtd">
<svg version="1.1" id="Layer_1" xmlns="http://www.w3.org/2000/svg" xmlns:xlink="http://www.w3.org/1999/xlink" x="0px" y="0px"
	 width="32px" height="32px" viewBox="0 0 32 32" enable-background="new 0 0 32 32" xml:space="preserve">
<g>
	<g>
		<path d="M20.447,5.19C19.691,4.756,18.874,4.417,18,4.219V2h-4v2.219c-4.007,0.91-7,4.486-7,8.77v4.822
			c0,0.306-0.028,0.605-0.072,0.898L20.447,5.19z"/>
		<path d="M25,17.811v-4.822c0-1.149-0.221-2.244-0.614-3.253l4.674-4.674l-2.121-2.121L2.98,26.898l2.121,2.121L8.121,26H28v-3
			C26.208,21.963,25,20.029,25,17.811z"/>
	</g>
	<path d="M16,30c1.657,0,3-1.343,3-3h-6C13,28.657,14.343,30,16,30z"/>
</g>
</svg>
