<?xml version="1.0" encoding="utf-8"?>
<!-- Generator: Adobe Illustrator 18.1.1, SVG Export Plug-In . SVG Version: 6.00 Build 0)  -->
<!DOCTYPE svg PUBLIC "-//W3C//DTD SVG 1.1//EN" "http://www.w3.org/Graphics/SVG/1.1/DTD/svg11.dtd">
<svg version="1.1" xmlns="http://www.w3.org/2000/svg" xmlns:xlink="http://www.w3.org/1999/xlink" x="0px" y="0px" width="32px"
	 height="32px" viewBox="0 0 32 32" enable-background="new 0 0 32 32" xml:space="preserve">
<g id="Guides__x26__Labels">
</g>
<g id="Icons_-_V2">
	<g>
		<rect x="6" y="12" width="3" height="8"/>
		<rect x="11" y="12" width="3" height="8"/>
		<rect x="16" y="12" width="3" height="8"/>
		<rect x="21" y="12" width="3" height="8"/>
		<path d="M30.89,11H29v-0.979C29,8.35,27.89,7,26.218,7H4.01C2.338,7,1,8.35,1,10.021v12.113C1,23.807,2.338,25,4.01,25h22.208
			C27.89,25,29,23.807,29,22.135V21h1.89c0.774,0,1.11-0.51,1.11-1.279v-7.303C32,11.648,31.664,11,30.89,11z M26,22H4V10h22V22z"/>
	</g>
</g>
</svg>
