<?xml version="1.0" encoding="utf-8"?>
<!-- Generator: Adobe Illustrator 18.1.1, SVG Export Plug-In . SVG Version: 6.00 Build 0)  -->
<!DOCTYPE svg PUBLIC "-//W3C//DTD SVG 1.1//EN" "http://www.w3.org/Graphics/SVG/1.1/DTD/svg11.dtd">
<svg version="1.1" xmlns="http://www.w3.org/2000/svg" xmlns:xlink="http://www.w3.org/1999/xlink" x="0px" y="0px" width="32px"
	 height="32px" viewBox="0 0 32 32" enable-background="new 0 0 32 32" xml:space="preserve">
<g id="Guides__x26__Labels">
</g>
<g id="Icons_-_V2">
	<g>
		<path d="M30.855,11H29v-0.968C29,8.36,27.859,7,26.188,7H4c-1.671,0-3,1.36-3,3.032v12.102C1,23.806,2.329,25,4,25h22.188
			C27.859,25,29,23.806,29,22.134V21h1.855C31.628,21,32,20.491,32,19.722v-7.295C32,11.657,31.628,11,30.855,11z M26,22H4V10h22V22
			z"/>
		<path d="M12,18.112C12,19.226,12.999,20,14.114,20H19v-1h3v-1h-3v-4h3v-1h-3v-1h-4.886C12.999,12,12,12.958,12,14.071V15H8v2h4
			V18.112z"/>
	</g>
</g>
</svg>
