<?xml version="1.0" encoding="utf-8"?>
<!-- Generator: Adobe Illustrator 18.1.1, SVG Export Plug-In . SVG Version: 6.00 Build 0)  -->
<!DOCTYPE svg PUBLIC "-//W3C//DTD SVG 1.1//EN" "http://www.w3.org/Graphics/SVG/1.1/DTD/svg11.dtd">
<svg version="1.1" xmlns="http://www.w3.org/2000/svg" xmlns:xlink="http://www.w3.org/1999/xlink" x="0px" y="0px" width="32px"
	 height="32px" viewBox="0 0 32 32" enable-background="new 0 0 32 32" xml:space="preserve">
<g id="Guides__x26__Labels">
</g>
<g id="Icons_-_V2">
	<g>
		<rect x="5" y="12" width="3" height="8"/>
		<path d="M29.89,11H28v-0.979C28,8.35,26.89,7,25.218,7H3.01C1.338,7,0,8.35,0,10.021v12.113C0,23.807,1.338,25,3.01,25h22.208
			C26.89,25,28,23.807,28,22.135V21h1.89c0.774,0,1.11-0.51,1.11-1.279v-7.303C31,11.648,30.664,11,29.89,11z M25,22H3V10h22V22z"/>
	</g>
</g>
</svg>
