<?xml version="1.0" encoding="utf-8"?>
<!-- Generator: Adobe Illustrator 19.0.0, SVG Export Plug-In . SVG Version: 6.00 Build 0)  -->
<svg version="1.1" id="Layer_1" xmlns="http://www.w3.org/2000/svg" xmlns:xlink="http://www.w3.org/1999/xlink" x="0px" y="0px"
	 width="32px" height="32px" viewBox="0 0 32 32" style="enable-background:new 0 0 32 32;" xml:space="preserve">
<g id="XMLID_789_">
	<path id="XMLID_790_" d="M22.252,25.629C22.1,25.249,21.732,25,21.323,25H10.677c-0.409,0-0.777,0.249-0.929,0.629l-1.2,3
		C8.286,29.285,8.77,30,9.477,30h13.046c0.707,0,1.191-0.715,0.928-1.371L22.252,25.629z M16,29c-0.828,0-1.5-0.672-1.5-1.5
		S15.172,26,16,26c0.828,0,1.5,0.672,1.5,1.5S16.828,29,16,29z"/>
	<path id="XMLID_793_" d="M21,4h-3.811c0.103-0.192,0.175-0.403,0.175-0.636C17.364,2.611,16.754,2,16,2
		c-0.753,0-1.364,0.611-1.364,1.364c0,0.233,0.072,0.444,0.175,0.636H11C9.895,4,9,4.895,9,6h14C23,4.895,22.105,4,21,4z"/>
	<path id="XMLID_794_" d="M24.892,7H6C4.895,7,4,7.895,4,9v8c0,0.552,0.448,1,1,1c0.552,0,1-0.448,1-1V9h2.23l1.525,13.283
		C9.895,23.268,10.739,24,11.735,24h8.531c0.995,0,1.839-0.732,1.98-1.717l1.194-10.397l2.338-3.117C26.323,8.04,25.803,7,24.892,7z
		 M18,20h-4v-1h4V20z M18,17h-4v-1h4V17z M21.514,11.12L21.183,14H10.817l-0.574-5h12.861L21.514,11.12z"/>
	<rect id="XMLID_799_" x="14" y="11" width="4" height="1"/>
</g>
</svg>
