<?xml version="1.0" encoding="utf-8"?>
<!-- Generator: Adobe Illustrator 18.1.1, SVG Export Plug-In . SVG Version: 6.00 Build 0)  -->
<!DOCTYPE svg PUBLIC "-//W3C//DTD SVG 1.1//EN" "http://www.w3.org/Graphics/SVG/1.1/DTD/svg11.dtd">
<svg version="1.1" id="Icons" xmlns="http://www.w3.org/2000/svg" xmlns:xlink="http://www.w3.org/1999/xlink" x="0px" y="0px"
	 width="32px" height="32px" viewBox="0 0 32 32" enable-background="new 0 0 32 32" xml:space="preserve">
<g>
	<path d="M2,9.009v18C2,28.114,2.893,29,3.997,29h2.999V7H3.997C2.893,7,2,7.905,2,9.009z"/>
	<rect x="9.002" y="7" width="13.994" height="22"/>
	<path d="M27.993,7H25v22h2.993c1.104,0,2.003-0.886,2.003-1.991v-18C29.996,7.905,29.098,7,27.993,7z"/>
	<path d="M13,4h6v2h2V3.003C21,2.45,20.54,2,19.987,2h-8C11.435,2,11,2.45,11,3.003V6h2V4z"/>
</g>
</svg>
