<?xml version="1.0" encoding="utf-8"?>
<!-- Generator: Adobe Illustrator 18.1.1, SVG Export Plug-In . SVG Version: 6.00 Build 0)  -->
<!DOCTYPE svg PUBLIC "-//W3C//DTD SVG 1.1//EN" "http://www.w3.org/Graphics/SVG/1.1/DTD/svg11.dtd">
<svg version="1.1" id="Icons" xmlns="http://www.w3.org/2000/svg" xmlns:xlink="http://www.w3.org/1999/xlink" x="0px" y="0px"
	 width="32px" height="32px" viewBox="0 0 32 32" enable-background="new 0 0 32 32" xml:space="preserve">
<g>
	<path d="M18.012,24H23v-4.998H11.822c-0.455,0-0.822-0.369-0.822-0.82V8.823C11,8.369,11.367,8,11.822,8h6.184v2H23V8.006h-0.836
		c-4.158-3.926-5.66-4.834-9.572-4.834S5.078,5.826,5.078,9.74v8.848c0,3.912,3.242,5.963,7.088,5.818
		c2.021-0.074,3.264-0.42,5.846-1.393C18.012,23.013,18.012,24,18.012,24z"/>
	<path d="M25.135,25.707c-0.453,0-0.852,0.236-1.08,0.594H22V25h-3v1.301h-2.277c-0.227-0.357-0.625-0.594-1.082-0.594
		c-0.705,0-1.277,0.574-1.277,1.279c0,0.707,0.572,1.279,1.277,1.279c0.457,0,0.855-0.236,1.082-0.595H19v1.329h3v-1.328h2.055
		c0.229,0.357,0.627,0.594,1.08,0.594c0.709,0,1.283-0.572,1.283-1.279C26.418,26.281,25.844,25.707,25.135,25.707z"/>
	<polygon points="22,18 22,15 23,15 23,13 18,13 18,15 19,15 19,18 	"/>
</g>
</svg>
