<?xml version="1.0" encoding="utf-8"?>
<!-- Generator: Adobe Illustrator 18.0.0, SVG Export Plug-In . SVG Version: 6.00 Build 0)  -->
<!DOCTYPE svg PUBLIC "-//W3C//DTD SVG 1.1//EN" "http://www.w3.org/Graphics/SVG/1.1/DTD/svg11.dtd">
<svg version="1.1" id="Layer_1" xmlns="http://www.w3.org/2000/svg" xmlns:xlink="http://www.w3.org/1999/xlink" x="0px" y="0px"
	 width="32px" height="32px" viewBox="0 0 32 32" enable-background="new 0 0 32 32" xml:space="preserve">
<g>
	<path d="M24,4H8C6.9,4,6,4.9,6,6v20c0,1.1,0.9,2,2,2h16c1.105,0,2-0.895,2-2V6C26,4.895,25.105,4,24,4z M15,25H9v-3h6V25z M15,20H9
		v-3h6V20z M23,25h-6v-3h6V25z M23,20h-6v-3h6V20z M23,14H9V7h14V14z"/>
	<rect x="19" y="9" width="2" height="3"/>
	<rect x="15" y="9" width="2" height="3"/>
</g>
</svg>
