<?xml version="1.0" encoding="utf-8"?>
<!-- Generator: Adobe Illustrator 18.1.1, SVG Export Plug-In . SVG Version: 6.00 Build 0)  -->
<!DOCTYPE svg PUBLIC "-//W3C//DTD SVG 1.1 Tiny//EN" "http://www.w3.org/Graphics/SVG/1.1/DTD/svg11-tiny.dtd">
<svg version="1.1" baseProfile="tiny" id="Layer_1" xmlns="http://www.w3.org/2000/svg" xmlns:xlink="http://www.w3.org/1999/xlink"
	 x="0px" y="0px" width="32px" height="32px" viewBox="0 0 32 32" xml:space="preserve">
<g id="Guides__x26__Labels">
</g>
<g>
	<path d="M26.023,4.863L23,4.859v-3h-2v6h-2v-3h-7v-3h-2v6H8v-3H6.005C4.351,4.859,3,6.206,3,7.859v17.996c0,1.652,1.351,3,3.005,3
		l20.019,0.004c1.654,0,2.976-1.348,2.976-3V7.863C28.999,6.21,27.678,4.863,26.023,4.863z M26,26H6V12.859h20V26z"/>
	<rect x="14" y="14.859" width="4" height="4"/>
	<rect x="19" y="14.859" width="4" height="4"/>
	<rect x="14" y="19.859" width="4" height="4"/>
	<rect x="9" y="19.859" width="4" height="4"/>
</g>
</svg>
