<?xml version="1.0" encoding="utf-8"?>
<!-- Generator: Adobe Illustrator 18.0.0, SVG Export Plug-In . SVG Version: 6.00 Build 0)  -->
<!DOCTYPE svg PUBLIC "-//W3C//DTD SVG 1.1//EN" "http://www.w3.org/Graphics/SVG/1.1/DTD/svg11.dtd">
<svg version="1.1" id="Layer_1" xmlns="http://www.w3.org/2000/svg" xmlns:xlink="http://www.w3.org/1999/xlink" x="0px" y="0px"
	 width="32px" height="32px" viewBox="0 0 32 32" enable-background="new 0 0 32 32" xml:space="preserve">
<g>
	<g>
		<polygon points="9.802,22 8.913,26 23.087,26 22.198,22 		"/>
	</g>
	<g>
		<path d="M27,6H5C3.35,6,2,7.35,2,9.001l0.003,14c0,1.657,1.343,2.999,3,2.999h2.886L9,21h14l1.111,5H27c1.657,0,3-1.343,3-3V9
			C30,7.35,28.65,6,27,6z M8,18c-1.105,0-2-0.895-2-2c0-1.105,0.895-2,2-2s2,0.895,2,2C10,17.105,9.105,18,8,18z M19,18h-6v-4h6V18z
			 M24,18c-1.105,0-2-0.895-2-2c0-1.105,0.895-2,2-2s2,0.895,2,2C26,17.105,25.105,18,24,18z"/>
	</g>
</g>
</svg>
