<?xml version="1.0" encoding="utf-8"?>
<!-- Generator: Adobe Illustrator 18.1.1, SVG Export Plug-In . SVG Version: 6.00 Build 0)  -->
<!DOCTYPE svg PUBLIC "-//W3C//DTD SVG 1.1//EN" "http://www.w3.org/Graphics/SVG/1.1/DTD/svg11.dtd">
<svg version="1.1" id="Layer_1" xmlns="http://www.w3.org/2000/svg" xmlns:xlink="http://www.w3.org/1999/xlink" x="0px" y="0px"
	 width="32px" height="32px" viewBox="0 0 32 32" enable-background="new 0 0 32 32" xml:space="preserve">
<g>
	<g id="Guides__x26__Labels_3_">
	</g>
	<g id="Icons_-_V2_3_">
		<path d="M26.003,2h-20C4.347,2,3,3.331,3,4.989V21.01C3,22.669,4.347,24,6.003,24H9h0.003v5.417c0,0.879,0.715,1.594,1.596,1.594
			c0.451,0,0.858-0.186,1.146-0.484h0.002L18.258,24h7.745C27.659,24,29,22.669,29,21.011V4.989C29,3.331,27.659,2,26.003,2z
			 M8.991,14.522c-1.104,0-2-0.896-2-2s0.896-2,2-2s2,0.896,2,2S10.096,14.522,8.991,14.522z M15.996,14.522c-1.104,0-2-0.896-2-2
			s0.895-2,2-2s2,0.896,2,2S17.1,14.522,15.996,14.522z M23.009,14.522c-1.104,0-2-0.896-2-2s0.896-2,2-2s2,0.896,2,2
			S24.113,14.522,23.009,14.522z"/>
	</g>
</g>
</svg>
