<?xml version="1.0" encoding="utf-8"?>
<!-- Generator: Adobe Illustrator 18.1.1, SVG Export Plug-In . SVG Version: 6.00 Build 0)  -->
<!DOCTYPE svg PUBLIC "-//W3C//DTD SVG 1.1//EN" "http://www.w3.org/Graphics/SVG/1.1/DTD/svg11.dtd">
<svg version="1.1" id="Icons" xmlns="http://www.w3.org/2000/svg" xmlns:xlink="http://www.w3.org/1999/xlink" x="0px" y="0px"
	 width="32px" height="32px" viewBox="0 0 32 32" enable-background="new 0 0 32 32" xml:space="preserve">
<g>
	<path d="M21.44,18c-0.693,1.186-1.967,1.991-3.44,1.991c-1.473,0-2.746-0.806-3.441-1.991H7.313l2.664,2.664l-2.959,1.709
		l6.377,1.709l-1.709,2.959l6.377-1.709v3.419l4.668-4.668l1.711,2.959l1.709-6.378l2.961,1.709L27.938,18H21.44z"/>
	<path d="M28,14v-1.003h2.648C29.285,7.266,24.148,2.996,18,2.996c-3.59,0-6.842,1.453-9.197,3.802L5.266,3.26L5.26,3.283
		C2.01,6.54,0,11.035,0,16h14.004c0-0.013-0.004-0.023-0.004-0.036c0-2.209,1.791-4,4-4c2.209,0,4,1.791,4,4
		c0,0.013-0.004,0.023-0.004,0.036H32v-2H28z M5.137,13.997H3.148c0.357-2.652,1.4-5.084,2.953-7.11l1.42,1.42
		C6.307,9.952,5.469,11.89,5.137,13.997z"/>
	<circle cx="18" cy="15.964" r="2"/>
</g>
</svg>
