<?xml version="1.0" encoding="utf-8"?>
<!-- Generator: Adobe Illustrator 18.1.1, SVG Export Plug-In . SVG Version: 6.00 Build 0)  -->
<!DOCTYPE svg PUBLIC "-//W3C//DTD SVG 1.1//EN" "http://www.w3.org/Graphics/SVG/1.1/DTD/svg11.dtd">
<svg version="1.1" xmlns="http://www.w3.org/2000/svg" xmlns:xlink="http://www.w3.org/1999/xlink" x="0px" y="0px" width="32px"
	 height="32px" viewBox="0 0 32 32" enable-background="new 0 0 32 32" xml:space="preserve">
<g id="Icons_-_V2">
	<g>
		<path d="M25.958,9H23V6.992C23,5.338,21.659,4,20.006,4H17l-1.07-1.719c-0.606-1.07-1.682-1.803-3.003-1.803
			c-1.32,0-2.432,0.738-3.032,1.818L8.735,4H6.008C4.356,4,3,5.338,3,6.992v15.019C3,23.666,4.356,25,6.008,25H8v2.971
			C8,29.629,9.335,31,10.991,31h14.967C27.614,31,29,29.629,29,27.971V11.986C29,10.33,27.614,9,25.958,9z M12.981,2.31
			c0.932,0,1.688,0.754,1.688,1.686c0,0.93-0.756,1.682-1.688,1.682c-0.928,0-1.682-0.752-1.682-1.682
			C11.299,3.064,12.053,2.31,12.981,2.31z M26,28H11V12h15V28z"/>
		<rect x="13" y="14" width="11" height="3"/>
		<rect x="13" y="19" width="3" height="3"/>
		<rect x="17" y="19" width="3" height="3"/>
		<rect x="21" y="19" width="3" height="3"/>
		<rect x="13" y="23" width="3" height="3"/>
		<rect x="17" y="23" width="3" height="3"/>
		<rect x="21" y="23" width="3" height="3"/>
	</g>
</g>
<g id="Icons">
</g>
</svg>
