<?xml version="1.0" encoding="utf-8"?>
<!-- Generator: Adobe Illustrator 18.1.1, SVG Export Plug-In . SVG Version: 6.00 Build 0)  -->
<!DOCTYPE svg PUBLIC "-//W3C//DTD SVG 1.1//EN" "http://www.w3.org/Graphics/SVG/1.1/DTD/svg11.dtd">
<svg version="1.1" xmlns="http://www.w3.org/2000/svg" xmlns:xlink="http://www.w3.org/1999/xlink" x="0px" y="0px" width="32px"
	 height="32px" viewBox="0 0 32 32" enable-background="new 0 0 32 32" xml:space="preserve">
<g id="Icons_-_V2">
	<g>
		<polygon points="22.383,16.743 20.246,14.606 13.877,20.976 11.734,18.832 9.617,20.95 13.897,25.229 		"/>
		<path d="M25.006,5H23v3h2v20H7V8h2V5H7.01C5.357,5,4,6.398,4,8.053V28.07C4,29.725,5.357,31,7.01,31h17.996
			C26.658,31,28,29.725,28,28.07V8.053C28,6.398,26.658,5,25.006,5z"/>
		<path d="M10.809,10h10.367C21.631,10,22,9.613,22,9.158V5l-2.412-0.857L19.023,3.26c-0.604-1.072-1.738-1.807-3.059-1.807
			c-1.324,0-2.465,0.74-3.066,1.82L12.34,4.158L10,5v4.158C10,9.613,10.354,10,10.809,10z M15.965,3.289
			c0.932,0,1.687,0.754,1.687,1.688c0,0.93-0.756,1.685-1.687,1.685c-0.932,0-1.688-0.756-1.688-1.685
			C14.277,4.043,15.033,3.289,15.965,3.289z"/>
	</g>
</g>
<g id="Icons">
</g>
</svg>
