<?xml version="1.0" encoding="utf-8"?>
<!-- Generator: Adobe Illustrator 18.1.1, SVG Export Plug-In . SVG Version: 6.00 Build 0)  -->
<!DOCTYPE svg PUBLIC "-//W3C//DTD SVG 1.1//EN" "http://www.w3.org/Graphics/SVG/1.1/DTD/svg11.dtd">
<svg version="1.1" xmlns="http://www.w3.org/2000/svg" xmlns:xlink="http://www.w3.org/1999/xlink" x="0px" y="0px" width="40px"
	 height="40px" viewBox="0 0 40 40" enable-background="new 0 0 40 40" xml:space="preserve">
<g id="Icons_-_V2">
	<g>
		<path d="M25,15h2.967V8c0-1.654-1.34-2.996-2.992-2.996H23V8h2V15z"/>
		<path d="M27.688,28.938l-0.713-4.988c0.002-0.23-0.187-0.42-0.42-0.418c-0.232,0.002-0.418,0.189-0.418,0.422l-0.688,4.99h0.008
			c-0.012,0.068-0.02,0.137-0.017,0.205c0,0.627,0.508,1.133,1.135,1.129c0.621,0,1.129-0.51,1.129-1.135
			c0-0.068-0.01-0.135-0.021-0.205H27.688z"/>
		<path d="M33.793,23.154l0.537-0.543l0.178,0.176c0.148,0.146,0.389,0.147,0.537-0.002l0.664-0.672
			c0.148-0.15,0.146-0.391-0.002-0.538l-0.004-0.003l-1.602-1.586L34.1,19.985c-0.148-0.147-0.387-0.146-0.537,0.005l-0.664,0.671
			c-0.148,0.149-0.146,0.39,0.002,0.536l0.174,0.173l-0.531,0.538c-1.422-1.173-3.189-1.938-5.129-2.111v-0.763h0.25
			c0.209,0,0.381-0.168,0.381-0.379V17.71c0-0.212-0.172-0.381-0.381-0.381H27.66h-2.254h-0.002c-0.209,0-0.379,0.169-0.379,0.381
			v0.945c0,0.211,0.17,0.379,0.379,0.379h0.246v0.769c-1.959,0.187-3.74,0.968-5.162,2.169l-1.131,1.131
			c-1.152,1.367-1.914,3.068-2.137,4.934H7V8h1.948V5.04H7.03c-1.652,0-2.992,1.342-2.992,2.996v20.018
			C4.038,29.708,5.378,31,7.03,31h10.304c0.873,4.295,4.668,7.577,9.221,7.577c5.199,0,9.414-4.213,9.414-9.412
			C35.969,26.88,35.15,24.785,33.793,23.154z M26.555,35.624c-3.568,0-6.459-2.891-6.459-6.459c0-3.566,2.891-6.459,6.459-6.459
			c3.568,0,6.461,2.893,6.461,6.459C33.016,32.733,30.123,35.624,26.555,35.624z"/>
		<rect x="10" y="14" width="12" height="2"/>
		<rect x="10" y="18" width="12" height="2"/>
		<rect x="10" y="22" width="6" height="2"/>
		<path d="M10.845,10l10.332-0.069C21.632,9.931,22,9.544,22,9.088V5l-2.376-0.788l-0.563-0.884
			c-0.604-1.072-1.738-1.806-3.059-1.806c-1.324,0-2.465,0.739-3.066,1.82l-0.56,0.884l-2.34,0.843v4.088
			C10.036,9.613,10.391,10,10.845,10z M16.002,3.357c0.932,0,1.688,0.755,1.688,1.688c0,0.931-0.756,1.686-1.688,1.686
			c-0.932,0-1.688-0.755-1.688-1.686C14.314,4.112,15.07,3.357,16.002,3.357z"/>
	</g>
</g>
<g id="Icons">
</g>
</svg>
