<?xml version="1.0" encoding="utf-8"?>
<!-- Generator: Adobe Illustrator 18.1.1, SVG Export Plug-In . SVG Version: 6.00 Build 0)  -->
<!DOCTYPE svg PUBLIC "-//W3C//DTD SVG 1.1//EN" "http://www.w3.org/Graphics/SVG/1.1/DTD/svg11.dtd">
<svg version="1.1" xmlns="http://www.w3.org/2000/svg" xmlns:xlink="http://www.w3.org/1999/xlink" x="0px" y="0px" width="32px"
	 height="32px" viewBox="0 0 32 32" enable-background="new 0 0 32 32" xml:space="preserve">
<g id="Icons_-_V2">
	<g>
		<rect x="18" y="23" width="4" height="1"/>
		<polygon points="16,23.26 15,24.26 15,25 11,25 11,21 13.849,21 14.849,20 10,20 10,26 16,26 		"/>
		<rect x="18" y="15" width="4" height="1"/>
		<path d="M16,12h-6v6h6V12z M15,17h-4v-4h4V17z"/>
		<polygon points="12.38,21.424 11.321,22.482 13.46,24.623 17.704,20.379 16.636,19.31 13.45,22.496 		"/>
		<path d="M25.007,5H23v3h2v20H7V8h2V5H7.011C5.358,5,4,6.398,4,8.053V28.07C4,29.725,5.358,31,7.011,31h17.996
			C26.659,31,28,29.725,28,28.07V8.053C28,6.398,26.659,5,25.007,5z"/>
		<path d="M10.809,10h10.368C21.632,10,22,9.613,22,9.158V5l-2.411-0.857L19.024,3.26c-0.604-1.072-1.738-1.807-3.059-1.807
			c-1.324,0-2.465,0.74-3.066,1.82l-0.561,0.885L10,5v4.158C10,9.613,10.355,10,10.809,10z M15.966,3.289
			c0.932,0,1.688,0.754,1.688,1.688c0,0.93-0.756,1.685-1.688,1.685c-0.932,0-1.688-0.756-1.688-1.685
			C14.278,4.043,15.034,3.289,15.966,3.289z"/>
	</g>
</g>
<g id="Icons">
</g>
</svg>
