<?xml version="1.0" encoding="utf-8"?>
<!-- Generator: Adobe Illustrator 18.1.1, SVG Export Plug-In . SVG Version: 6.00 Build 0)  -->
<!DOCTYPE svg PUBLIC "-//W3C//DTD SVG 1.1//EN" "http://www.w3.org/Graphics/SVG/1.1/DTD/svg11.dtd">
<svg version="1.1" xmlns="http://www.w3.org/2000/svg" xmlns:xlink="http://www.w3.org/1999/xlink" x="0px" y="0px" width="32px"
	 height="32px" viewBox="0 0 32 32" enable-background="new 0 0 32 32" xml:space="preserve">
<g id="Icons_-_V2">
	<g>
		<polygon points="13.191,24.024 16.025,21.19 18.843,24.007 20.976,21.874 18.158,19.058 20.97,16.245 18.837,14.112 
			16.025,16.925 13.197,14.097 11.065,16.229 13.893,19.058 11.059,21.892 		"/>
		<path d="M25.007,5H23v3h2v20H7V8h2V5H7.011C5.358,5,4,6.398,4,8.053V28.07C4,29.725,5.358,31,7.011,31h17.996
			C26.659,31,28,29.725,28,28.07V8.053C28,6.398,26.659,5,25.007,5z"/>
		<path d="M10.809,10h10.368C21.632,10,22,9.613,22,9.158V5l-2.412-0.857L19.024,3.26c-0.604-1.072-1.738-1.807-3.059-1.807
			c-1.324,0-2.465,0.74-3.066,1.82l-0.56,0.885L10,5v4.158C10,9.613,10.355,10,10.809,10z M15.966,3.289
			c0.932,0,1.688,0.754,1.688,1.688c0,0.93-0.756,1.685-1.688,1.685c-0.932,0-1.688-0.756-1.688-1.685
			C14.278,4.043,15.034,3.289,15.966,3.289z"/>
	</g>
</g>
<g id="Icons">
</g>
</svg>
