<?xml version="1.0" encoding="utf-8"?>
<!-- Generator: Adobe Illustrator 18.1.1, SVG Export Plug-In . SVG Version: 6.00 Build 0)  -->
<!DOCTYPE svg PUBLIC "-//W3C//DTD SVG 1.1//EN" "http://www.w3.org/Graphics/SVG/1.1/DTD/svg11.dtd">
<svg version="1.1" xmlns="http://www.w3.org/2000/svg" xmlns:xlink="http://www.w3.org/1999/xlink" x="0px" y="0px" width="32px"
	 height="32px" viewBox="0 0 32 32" enable-background="new 0 0 32 32" xml:space="preserve">
<g id="Icons_-_V2">
	<g>
		<path d="M13.007,26.064c1.865,0,3.379-1.522,3.379-3.4c0-0.039-0.006-0.08-0.008-0.119c0.438-0.318,0.865-0.656,1.277-1.023
			c1.594-1.419,2.84-3.082,3.744-4.885l0.863,0.44c0.088,0.044,0.197,0.027,0.271-0.045c0.047-0.045,0.07-0.108,0.07-0.168v-4.634
			c0.002-0.061-0.023-0.122-0.068-0.167c-0.086-0.092-0.225-0.099-0.305-0.018l-3.705,2.752c-0.01,0.006-0.016,0.012-0.025,0.019
			c-0.092,0.092-0.094,0.243-0.002,0.338c0.018,0.02,0.039,0.033,0.061,0.047l0.906,0.458c-0.781,1.563-1.863,3.004-3.242,4.235
			c-0.217,0.191-0.439,0.371-0.664,0.549c-0.619-0.721-1.533-1.177-2.553-1.177c-1.865,0-3.377,1.523-3.377,3.398
			C9.63,24.543,11.142,26.064,13.007,26.064z M13.007,21.254c0.775,0,1.406,0.629,1.406,1.41c0,0.783-0.631,1.414-1.406,1.414
			s-1.404-0.631-1.404-1.414C11.602,21.885,12.231,21.254,13.007,21.254z"/>
		<polygon points="14.31,12.687 12.895,14.102 11.481,12.687 10.065,14.102 11.481,15.516 10.065,16.93 11.481,18.344 12.895,16.93 
			14.31,18.344 15.724,16.93 14.31,15.516 15.724,14.102 		"/>
		<path d="M25.007,5H23v3h2v20H7V8h2V5H7.011C5.358,5,4,6.398,4,8.053V28.07C4,29.725,5.358,31,7.011,31h17.996
			C26.659,31,28,29.725,28,28.07V8.053C28,6.398,26.659,5,25.007,5z"/>
		<path d="M10.809,10h10.368C21.632,10,22,9.613,22,9.158V5l-2.412-0.857L19.024,3.26c-0.604-1.072-1.738-1.807-3.059-1.807
			c-1.324,0-2.465,0.74-3.066,1.82l-0.56,0.885L10,5v4.158C10,9.613,10.354,10,10.809,10z M15.966,3.289
			c0.932,0,1.688,0.754,1.688,1.688c0,0.93-0.756,1.685-1.688,1.685c-0.932,0-1.688-0.756-1.688-1.685
			C14.278,4.043,15.034,3.289,15.966,3.289z"/>
	</g>
</g>
<g id="Icons">
</g>
</svg>
