<?xml version="1.0" encoding="utf-8"?>
<!-- Generator: Adobe Illustrator 18.1.1, SVG Export Plug-In . SVG Version: 6.00 Build 0)  -->
<!DOCTYPE svg PUBLIC "-//W3C//DTD SVG 1.1//EN" "http://www.w3.org/Graphics/SVG/1.1/DTD/svg11.dtd">
<svg version="1.1" xmlns="http://www.w3.org/2000/svg" xmlns:xlink="http://www.w3.org/1999/xlink" x="0px" y="0px" width="32px"
	 height="32px" viewBox="0 0 32 32" enable-background="new 0 0 32 32" xml:space="preserve">
<g id="Icons_-_V2">
	<g>
		<path d="M10.576,26.026c1.033,0.172,2.01-0.524,2.186-1.555c0.102-0.629-0.115-1.234-0.533-1.654l0.615-2.184
			c0.219-0.072,0.432-0.182,0.623-0.336c0.053-0.045,0.1-0.092,0.15-0.141l2.287,0.377c0.133,0.303,0.34,0.58,0.625,0.789
			c0.848,0.615,2.031,0.43,2.648-0.418c0.393-0.537,0.457-1.217,0.231-1.795l1.541-2.227c0.182,0.01,0.361-0.004,0.541-0.043
			c1.024-0.23,1.662-1.242,1.432-2.264c-0.23-1.019-1.246-1.66-2.264-1.428c-1.02,0.229-1.66,1.244-1.428,2.264
			c0.031,0.143,0.082,0.277,0.139,0.404l-1.451,2.104c-0.658-0.096-1.34,0.162-1.772,0.721l-2.059-0.336
			c-0.07-0.242-0.186-0.469-0.354-0.674c-0.662-0.807-1.854-0.93-2.664-0.269c-0.809,0.662-0.928,1.855-0.268,2.664
			c0.053,0.068,0.115,0.131,0.178,0.188l-0.6,2.123c-0.682,0.193-1.229,0.764-1.354,1.508C8.852,24.876,9.547,25.852,10.576,26.026z
			"/>
		<path d="M25.007,5H23v3h2v20H7V8h2V5H7.011C5.358,5,4,6.398,4,8.053V28.07C4,29.725,5.358,31,7.011,31h17.996
			C26.659,31,28,29.725,28,28.07V8.053C28,6.398,26.659,5,25.007,5z"/>
		<path d="M10.809,10h10.368C21.632,10,22,9.613,22,9.158V5l-2.411-0.857L19.024,3.26c-0.604-1.072-1.738-1.807-3.059-1.807
			c-1.324,0-2.465,0.74-3.066,1.82l-0.561,0.885L10,5v4.158C10,9.613,10.354,10,10.809,10z M15.966,3.289
			c0.932,0,1.688,0.754,1.688,1.688c0,0.93-0.756,1.685-1.688,1.685c-0.932,0-1.688-0.756-1.688-1.685
			C14.278,4.043,15.034,3.289,15.966,3.289z"/>
	</g>
</g>
<g id="Icons">
</g>
</svg>
