<?xml version="1.0" encoding="utf-8"?>
<!-- Generator: Adobe Illustrator 18.0.0, SVG Export Plug-In . SVG Version: 6.00 Build 0)  -->
<!DOCTYPE svg PUBLIC "-//W3C//DTD SVG 1.1//EN" "http://www.w3.org/Graphics/SVG/1.1/DTD/svg11.dtd">
<svg version="1.1" id="Layer_1" xmlns="http://www.w3.org/2000/svg" xmlns:xlink="http://www.w3.org/1999/xlink" x="0px" y="0px"
	 width="32px" height="32px" viewBox="0 0 32 32" enable-background="new 0 0 32 32" xml:space="preserve">
<path d="M25,11c-0.423,0-0.827,0.068-1.219,0.167C22.951,7.634,19.787,5,16,5c-2.998,0-5.608,1.652-6.978,4.093
	C8.689,9.036,8.349,9,8,9c-3.314,0-6,2.686-6,6s2.686,6,6,6h6v3h-2.533l4.001,4.001L19.469,24H17v-6H8c-1.654,0-3-1.346-3-3
	c0-1.654,1.346-3,3-3c0.15,0,0.318,0.016,0.514,0.05l2.088,0.359l1.037-1.848C12.525,8.981,14.196,8,16,8
	c2.329,0,4.328,1.584,4.86,3.853l0.697,2.969l2.957-0.745C24.718,14.025,24.877,14,25,14c1.103,0,2,0.897,2,2c0,1.103-0.897,2-2,2
	h-0.958H20v3h4.042H25c2.761,0,5-2.239,5-5S27.761,11,25,11z"/>
</svg>
