<?xml version="1.0" encoding="utf-8"?>
<!-- Generator: Adobe Illustrator 18.1.1, SVG Export Plug-In . SVG Version: 6.00 Build 0)  -->
<!DOCTYPE svg PUBLIC "-//W3C//DTD SVG 1.1//EN" "http://www.w3.org/Graphics/SVG/1.1/DTD/svg11.dtd">
<svg version="1.1" xmlns="http://www.w3.org/2000/svg" xmlns:xlink="http://www.w3.org/1999/xlink" x="0px" y="0px" width="32px"
	 height="32px" viewBox="0 0 32 32" enable-background="new 0 0 32 32" xml:space="preserve">
<g id="Old_Versions" display="none">
</g>
<g id="Layer_1">
	<path d="M11.768,11.055c-0.589,0.315-1.14,0.691-1.641,1.124C7.77,8.951,4.154,6.698,0,6.143l0,2.022
		c3.622,0.563,6.746,2.627,8.732,5.529c-0.448,0.614-0.816,1.29-1.099,2.008C6.069,12.866,3.294,10.791,0,10.185l0,2.041
		c2.282,0.52,4.234,1.91,5.494,3.799C2.417,16.283,0,18.857,0,22c0,3.314,2.686,6,6,6h20c3.314,0,6-2.686,6-6c0-3.314-2.686-6-6-6
		c-0.502,0-0.987,0.069-1.454,0.185c-1.181-3.593-4.558-6.19-8.546-6.19c-0.802,0-1.577,0.109-2.317,0.306
		C10.616,5.813,5.689,2.697,0,2.102l0,2.022C4.833,4.693,9.046,7.301,11.768,11.055z M16,11.995c3.866,0,7,3.134,7,7
		c0,0.139-0.013,0.275-0.021,0.413C23.713,18.553,24.788,18,26,18c2.206,0,4,1.794,4,4c0,2.206-1.794,4-4,4H6c-2.206,0-4-1.794-4-4
		c0-2.206,1.794-4,4-4c1.212,0,2.287,0.553,3.021,1.408C9.013,19.27,9,19.134,9,18.995C9,15.129,12.134,11.995,16,11.995z"/>
</g>
<g id="Layer_2">
</g>
<g id="Layer_3">
</g>
</svg>
