<?xml version="1.0" encoding="utf-8"?>
<!-- Generator: Adobe Illustrator 18.1.1, SVG Export Plug-In . SVG Version: 6.00 Build 0)  -->
<!DOCTYPE svg PUBLIC "-//W3C//DTD SVG 1.1//EN" "http://www.w3.org/Graphics/SVG/1.1/DTD/svg11.dtd">
<svg version="1.1" xmlns="http://www.w3.org/2000/svg" xmlns:xlink="http://www.w3.org/1999/xlink" x="0px" y="0px" width="32px"
	 height="32px" viewBox="0 0 32 32" enable-background="new 0 0 32 32" xml:space="preserve">
<g id="Old_Versions" display="none">
</g>
<g id="Layer_1">
	<path d="M26,14c-0.502,0-0.987,0.069-1.454,0.185c-1.181-3.593-4.558-6.19-8.546-6.19s-7.365,2.597-8.546,6.19
		C6.987,14.069,6.502,14,6,14c-3.314,0-6,2.686-6,6c0,3.314,2.686,6,6,6h20c3.314,0,6-2.686,6-6C32,16.686,29.314,14,26,14z M26,24
		H6c-2.206,0-4-1.794-4-4c0-2.206,1.794-4,4-4c1.212,0,2.287,0.553,3.021,1.408C9.013,17.27,9,17.134,9,16.995c0-3.866,3.134-7,7-7
		s7,3.134,7,7c0,0.139-0.013,0.275-0.021,0.413C23.713,16.553,24.788,16,26,16c2.206,0,4,1.794,4,4C30,22.206,28.206,24,26,24z"/>
</g>
<g id="Layer_2">
</g>
<g id="Layer_3">
</g>
</svg>
