<?xml version="1.0" encoding="utf-8"?>
<!-- Generator: Adobe Illustrator 18.1.1, SVG Export Plug-In . SVG Version: 6.00 Build 0)  -->
<!DOCTYPE svg PUBLIC "-//W3C//DTD SVG 1.1//EN" "http://www.w3.org/Graphics/SVG/1.1/DTD/svg11.dtd">
<svg version="1.1" xmlns="http://www.w3.org/2000/svg" xmlns:xlink="http://www.w3.org/1999/xlink" x="0px" y="0px" width="32px"
	 height="32px" viewBox="0 0 32 32" enable-background="new 0 0 32 32" xml:space="preserve">
<g id="Old_Versions" display="none">
</g>
<g id="Layer_1">
	<path d="M26,18c-0.502,0-0.987,0.069-1.454,0.185c-1.181-3.593-4.558-6.19-8.546-6.19s-7.365,2.597-8.546,6.19
		C6.987,18.069,6.502,18,6,18c-3.314,0-6,2.686-6,6c0,3.314,2.686,6,6,6h20c3.314,0,6-2.686,6-6C32,20.686,29.314,18,26,18z M26,28
		H6c-2.206,0-4-1.794-4-4c0-2.206,1.794-4,4-4c1.212,0,2.287,0.553,3.021,1.408C9.013,21.27,9,21.134,9,20.995c0-3.866,3.134-7,7-7
		s7,3.134,7,7c0,0.139-0.013,0.275-0.021,0.413C23.713,20.553,24.788,20,26,20c2.206,0,4,1.794,4,4C30,26.206,28.206,28,26,28z"/>
	<path d="M20.459,10.936C21.247,9.209,22.981,8,25,8c2.757,0,5,2.243,5,5c0,1.337-0.535,2.547-1.393,3.445
		c0.662,0.229,1.288,0.536,1.859,0.921C31.424,16.169,32,14.653,32,13c0-3.866-3.134-7-7-7c-2.914,0-5.41,1.781-6.464,4.313
		C19.198,10.47,19.846,10.664,20.459,10.936z"/>
	<polygon points="7.528,9.702 10,7.906 12.472,9.702 11.528,6.796 14,5 10.944,5 10,2.094 9.056,5 6,5 8.472,6.796 	"/>
	<polygon points="2.764,14.351 4,13.453 5.236,14.351 4.764,12.898 6,12 4.472,12 4,10.547 3.528,12 2,12 3.236,12.898 	"/>
</g>
<g id="Layer_2">
</g>
<g id="Layer_3">
</g>
</svg>
