<?xml version="1.0" encoding="utf-8"?>
<!-- Generator: Adobe Illustrator 18.1.1, SVG Export Plug-In . SVG Version: 6.00 Build 0)  -->
<!DOCTYPE svg PUBLIC "-//W3C//DTD SVG 1.1//EN" "http://www.w3.org/Graphics/SVG/1.1/DTD/svg11.dtd">
<svg version="1.1" id="Icons" xmlns="http://www.w3.org/2000/svg" xmlns:xlink="http://www.w3.org/1999/xlink" x="0px" y="0px"
	 width="32px" height="32px" viewBox="0 0 32 32" enable-background="new 0 0 32 32" xml:space="preserve">
<path d="M28.873,18.859h-2.529v0.605H23.34l-3.59-9.49c0.803-0.787,1.301-1.883,1.301-3.094c0-1.957-1.295-3.606-3.07-4.147V1.275
	c0-0.697-0.565-1.262-1.262-1.262c-0.699,0-1.262,0.564-1.262,1.262v1.459c-1.777,0.541-3.07,2.189-3.07,4.145
	c0,1.213,0.498,2.309,1.301,3.094l-3.59,9.492H7.092v-0.605H4.563c-0.695,0-1.258,0.564-1.258,1.26c0,0.695,0.562,1.26,1.258,1.26
	h2.529v-0.652h2.525l-1.83,4.844c-0.404,1.078-0.111,2.248,0.652,3.018V32l4.248-11.274h3.271v1.578
	c0,0.426,0.346,0.768,0.768,0.768c0.426,0,0.77-0.342,0.77-0.768v-1.578h3.254L25,32v-3.414c0.76-0.768,1.055-1.938,0.65-3.016
	l-1.834-4.844h2.527v0.652h2.529c0.691,0,1.258-0.565,1.258-1.26C30.133,19.424,29.568,18.859,28.873,18.859z M16.719,4.826
	c1.133,0,2.053,0.92,2.053,2.053c0,1.135-0.92,2.055-2.053,2.055c-1.137,0-2.055-0.92-2.055-2.055
	C14.664,5.746,15.582,4.826,16.719,4.826z M17.496,19.465v-1.576c0-0.426-0.344-0.771-0.77-0.771c-0.422,0-0.768,0.346-0.768,0.771
	v1.576h-2.797l3.117-8.275c0.146,0.014,0.291,0.022,0.438,0.022c0.148,0,0.293-0.008,0.438-0.022l3.119,8.275H17.496z"/>
</svg>
