<?xml version="1.0" encoding="utf-8"?>
<!-- Generator: Adobe Illustrator 18.1.1, SVG Export Plug-In . SVG Version: 6.00 Build 0)  -->
<!DOCTYPE svg PUBLIC "-//W3C//DTD SVG 1.1 Tiny//EN" "http://www.w3.org/Graphics/SVG/1.1/DTD/svg11-tiny.dtd">
<svg version="1.1" baseProfile="tiny" id="Layer_1" xmlns="http://www.w3.org/2000/svg" xmlns:xlink="http://www.w3.org/1999/xlink"
	 x="0px" y="0px" width="32px" height="32px" viewBox="0 0 32 32" xml:space="preserve">
<g>
	<path d="M29.002,6H26V4c0-1.1-0.9-2-2-2H4C2.9,2,2,2.9,2,4v24c0,1.105,0.895,2,2,2h20c1.1,0,2-0.9,2-2V12h3.002
		C29.555,12,30,11.549,30,10.996v-4C30,6.443,29.555,6,29.002,6z M14,10c1.671,0,3.026,1.355,3.026,3.026
		c0,1.671-1.355,3.026-3.026,3.026c-1.671,0-3.026-1.355-3.026-3.026C10.974,11.355,12.329,10,14,10z M20,22H8l0-3.526
		c0.647-0.598,1.667-1.121,2.985-1.451c0.843,0.638,1.88,1.03,3.015,1.03c1.135,0,2.172-0.393,3.015-1.03
		c1.318,0.33,2.339,0.853,2.986,1.451L20,22z"/>
	<path d="M29.002,13H27v6h2.002C29.555,19,30,18.545,30,17.992v-4C30,13.439,29.555,13,29.002,13z"/>
	<path d="M29.002,20H27v6h2.002C29.555,26,30,25.541,30,24.988v-4C30,20.436,29.555,20,29.002,20z"/>
</g>
</svg>
