<?xml version="1.0" encoding="utf-8"?>
<!-- Generator: Adobe Illustrator 18.1.1, SVG Export Plug-In . SVG Version: 6.00 Build 0)  -->
<!DOCTYPE svg PUBLIC "-//W3C//DTD SVG 1.1//EN" "http://www.w3.org/Graphics/SVG/1.1/DTD/svg11.dtd">
<svg version="1.1" xmlns="http://www.w3.org/2000/svg" xmlns:xlink="http://www.w3.org/1999/xlink" x="0px" y="0px" width="32px"
	 height="32px" viewBox="0 0 32 32" enable-background="new 0 0 32 32" xml:space="preserve">
<g id="Layer_1">
</g>
<g id="Guides__x26__Labels">
</g>
<g id="Icons">
	<path d="M27,3H11C9.35,3,8,4.35,8,6v3H5c-1.65,0-3,1.35-3,3v14c0,1.657,1.343,3,3,3h16c1.657,0,3-1.343,3-3v-3h3
		c1.657,0,3-1.343,3-3V6C30,4.35,28.65,3,27,3z M19,6h2v2h-2V6z M15,6h2v2h-2V6z M11,6h2v2h-2V6z M21,26H5V16h3v4
		c0,1.657,1.343,3,3,3h10V26z M27,20H11V10h16V20z"/>
</g>
</svg>
