<?xml version="1.0" encoding="utf-8"?>
<!-- Generator: Adobe Illustrator 18.1.1, SVG Export Plug-In . SVG Version: 6.00 Build 0)  -->
<!DOCTYPE svg PUBLIC "-//W3C//DTD SVG 1.1//EN" "http://www.w3.org/Graphics/SVG/1.1/DTD/svg11.dtd">
<svg version="1.1" xmlns="http://www.w3.org/2000/svg" xmlns:xlink="http://www.w3.org/1999/xlink" x="0px" y="0px" width="32px"
	 height="32px" viewBox="0 0 32 32" enable-background="new 0 0 32 32" xml:space="preserve">
<g id="Old_Versions" display="none">
</g>
<g id="Layer_1">
	<g>
		<polygon points="27,14 23.944,14 23,11.094 22.056,14 19,14 21.472,15.796 20.528,18.702 23,16.906 25.472,18.702 24.528,15.796 
					"/>
		<polygon points="11.764,9.351 13,8.453 14.236,9.351 13.764,7.898 15,7 13.472,7 13,5.547 12.528,7 11,7 12.236,7.898 		"/>
		<path d="M9,13c0-0.242,0.012-0.48,0.036-0.716C6.127,13.134,4,15.816,4,19c0,3.866,3.134,7,7,7c3.624,0,6.605-2.755,6.964-6.284
			C17.34,19.898,16.682,20,16,20C12.134,20,9,16.866,9,13z M11,24c-2.757,0-5-2.243-5-5c0-1.302,0.515-2.522,1.373-3.431
			c1.021,3.421,4.025,5.995,7.672,6.381C14.135,23.201,12.658,24,11,24z"/>
	</g>
</g>
<g id="Layer_2">
</g>
<g id="Layer_3">
</g>
</svg>
