<?xml version="1.0" encoding="utf-8"?>
<!-- Generator: Adobe Illustrator 16.0.0, SVG Export Plug-In . SVG Version: 6.00 Build 0)  -->
<!DOCTYPE svg PUBLIC "-//W3C//DTD SVG 1.1//EN" "http://www.w3.org/Graphics/SVG/1.1/DTD/svg11.dtd">
<svg version="1.1" id="Layer_1" xmlns="http://www.w3.org/2000/svg" xmlns:xlink="http://www.w3.org/1999/xlink" x="0px" y="0px"
	 width="32px" height="32px" viewBox="0 0 32 32" enable-background="new 0 0 32 32" xml:space="preserve">
<g>
	<path d="M28.344,5.075c-1.528-1.526-3.882-1.721-5.619-0.584l6.204,6.205C30.066,8.955,29.872,6.603,28.344,5.075z"/>
	<path d="M3.655,5.099c-1.521,1.518-1.719,3.854-0.602,5.59l6.189-6.189C7.508,3.384,5.175,3.579,3.655,5.099z"/>
	<polygon points="16.952,11.494 14.953,11.494 14.953,18.296 18.075,21.419 19.489,20.006 16.952,17.469 	"/>
	<path d="M16.952,5.552V2.497h-1.999v3.059C8.811,6.08,3.987,11.226,3.987,17.503c0,3.021,1.124,5.771,2.966,7.882l-2.667,2.668
		L5.7,29.467l2.683-2.685c2.07,1.699,4.718,2.721,7.604,2.721c2.885,0,5.533-1.021,7.604-2.721l2.689,2.69l1.414-1.414l-2.675-2.675
		c1.843-2.109,2.966-4.861,2.966-7.883C27.987,11.202,23.126,6.044,16.952,5.552z M15.988,26.562c-5.005,0-9.061-4.057-9.061-9.06
		c0-5.004,4.056-9.061,9.061-9.061c5.003,0,9.06,4.057,9.06,9.061C25.048,22.506,20.991,26.562,15.988,26.562z"/>
</g>
</svg>
