<?xml version="1.0" encoding="utf-8"?>
<!-- Generator: Adobe Illustrator 16.0.0, SVG Export Plug-In . SVG Version: 6.00 Build 0)  -->
<!DOCTYPE svg PUBLIC "-//W3C//DTD SVG 1.1//EN" "http://www.w3.org/Graphics/SVG/1.1/DTD/svg11.dtd">
<svg version="1.1" id="Layer_1" xmlns="http://www.w3.org/2000/svg" xmlns:xlink="http://www.w3.org/1999/xlink" x="0px" y="0px"
	 width="32px" height="32px" viewBox="0 0 32 32" enable-background="new 0 0 32 32" xml:space="preserve">
<g>
	<polygon points="16,11 14,11 14,17 18,17 18,15 16,15 	"/>
	<path d="M26,15h-2.059C23.597,11.898,21.675,9.279,19,7.946V3h-8v4.946C8.039,9.42,6,12.469,6,16c0,3.533,2.039,6.58,5,8.055V29h8
		v-4.945c2.676-1.333,4.598-3.952,4.941-7.055H26V15z M15,23c-3.866,0-7-3.133-7-7c0-3.865,3.134-7,7-7c3.865,0,7,3.135,7,7
		C22,19.867,18.865,23,15,23z"/>
</g>
</svg>
