<?xml version="1.0" encoding="utf-8"?>
<!-- Generator: Adobe Illustrator 16.0.0, SVG Export Plug-In . SVG Version: 6.00 Build 0)  -->
<!DOCTYPE svg PUBLIC "-//W3C//DTD SVG 1.1//EN" "http://www.w3.org/Graphics/SVG/1.1/DTD/svg11.dtd">
<svg version="1.1" id="Layer_1" xmlns="http://www.w3.org/2000/svg" xmlns:xlink="http://www.w3.org/1999/xlink" x="0px" y="0px"
	 width="32px" height="32px" viewBox="0 0 32 32" enable-background="new 0 0 32 32" xml:space="preserve">
<g>
	<path d="M16.116,20.541c-0.179,0.271-0.396,0.58-0.656,0.922l-2.281,3.021h5.725v-2.002c-0.355,0-0.705,0.018-1.045,0.057
		c-0.34,0.037-0.678,0.102-1.014,0.189c0.391-0.367,0.721-0.72,0.991-1.054c0.272-0.334,0.494-0.651,0.666-0.957
		c0.338-0.608,0.509-1.233,0.509-1.877c0-0.803-0.248-1.448-0.746-1.947c-0.494-0.506-1.134-0.762-1.912-0.762
		c-0.812,0-1.476,0.256-1.995,0.77c-0.514,0.508-0.773,1.178-0.773,2.008l0.012,0.305h2.179c-0.004-0.068-0.006-0.127-0.008-0.18
		c-0.002-0.049-0.002-0.094-0.002-0.129c0-0.678,0.181-1.018,0.539-1.018c0.162,0,0.289,0.065,0.383,0.198
		c0.097,0.131,0.142,0.31,0.142,0.537c0,0.41-0.099,0.812-0.297,1.201C16.432,20.035,16.292,20.271,16.116,20.541z"/>
	<path d="M26.023,5.5H23v-3h-2v6h-2v-3h-7v-3h-2v6H8v-3H6.005C4.351,5.5,3,6.848,3,8.5v17.996C3,28.148,4.351,29.5,6.005,29.5
		h20.021C27.68,29.5,29,28.148,29,26.496V8.5C29,6.848,27.68,5.5,26.023,5.5z M26,26.5H6v-12h20V26.5z"/>
</g>
</svg>
