<?xml version="1.0" encoding="utf-8"?>
<!-- Generator: Adobe Illustrator 18.0.0, SVG Export Plug-In . SVG Version: 6.00 Build 0)  -->
<!DOCTYPE svg PUBLIC "-//W3C//DTD SVG 1.1//EN" "http://www.w3.org/Graphics/SVG/1.1/DTD/svg11.dtd">
<svg version="1.1" id="Layer_1" xmlns="http://www.w3.org/2000/svg" xmlns:xlink="http://www.w3.org/1999/xlink" x="0px" y="0px"
	 width="32px" height="32px" viewBox="0 0 32 32" enable-background="new 0 0 32 32" xml:space="preserve">
<g>
	<polygon points="21.1,16.2 23.9,13.4 19.6,9.1 16.9,11.9 9,4 4,9 5.4,10.4 8.3,7.6 9.7,9 6.9,11.8 8.3,13.2 9.7,11.8 11.1,13.2 
		9.7,14.6 11.1,16.1 13.9,13.2 14.7,14 7.4,21.4 11.7,25.6 19,18.3 19.8,19.1 17,21.9 18.4,23.3 19.8,21.9 21.2,23.3 19.8,24.7 
		21.2,26.2 24,23.3 25.4,24.7 22.6,27.6 24,29 29,24 	"/>
	<path d="M27.4,9.8c0.4-0.4,0.4-1,0-1.4l-2.8-2.8c-0.4-0.4-1-0.4-1.4,0l-2.1,2.1l4.2,4.2L27.4,9.8z"/>
	<polygon points="6,27 10.3,27 6,22.7 	"/>
</g>
</svg>
