<?xml version="1.0" encoding="utf-8"?>
<!-- Generator: Adobe Illustrator 18.1.1, SVG Export Plug-In . SVG Version: 6.00 Build 0)  -->
<!DOCTYPE svg PUBLIC "-//W3C//DTD SVG 1.1//EN" "http://www.w3.org/Graphics/SVG/1.1/DTD/svg11.dtd">
<svg version="1.1" xmlns="http://www.w3.org/2000/svg" xmlns:xlink="http://www.w3.org/1999/xlink" x="0px" y="0px" width="32px"
	 height="32px" viewBox="0 0 32 32" enable-background="new 0 0 32 32" xml:space="preserve">
<g id="Icons_-_V2">
	<g>
		<path d="M24,1H8C6.895,1,6,1.895,6,3v20c0,1.105,0.895,2,2,2h5v6l3-3l3,3v-6h5c1.105,0,2-0.895,2-2V3C26,1.895,25.105,1,24,1z
			 M16,23c-2.209,0-4-1.791-4-4c0-2.209,1.791-4,4-4s4,1.791,4,4C20,21.209,18.209,23,16,23z M22,13H10v-2h12V13z M22,9H10V7h12V9z"
			/>
		<circle cx="16" cy="19" r="2"/>
	</g>
</g>
<g id="Icons">
</g>
</svg>
