<?xml version="1.0" encoding="utf-8"?>
<!-- Generator: Adobe Illustrator 18.1.1, SVG Export Plug-In . SVG Version: 6.00 Build 0)  -->
<!DOCTYPE svg PUBLIC "-//W3C//DTD SVG 1.1//EN" "http://www.w3.org/Graphics/SVG/1.1/DTD/svg11.dtd">
<svg version="1.1" xmlns="http://www.w3.org/2000/svg" xmlns:xlink="http://www.w3.org/1999/xlink" x="0px" y="0px" width="32px"
	 height="32px" viewBox="0 0 32 32" enable-background="new 0 0 32 32" xml:space="preserve">
<g id="Icons_-_V2">
	<g>
		<path d="M24,4H8C6.895,4,6,4.895,6,6v20c0,1.105,0.895,2,2,2h16c1.105,0,2-0.895,2-2V6C26,4.895,25.105,4,24,4z M17,19
			c-0.74,0-1.425-0.215-2.02-0.566l-3.273,3.273l-1.414-1.414l3.273-3.273C13.215,16.425,13,15.741,13,15c0-2.209,1.791-4,4-4
			s4,1.791,4,4S19.209,19,17,19z"/>
		<circle cx="17" cy="15" r="2"/>
	</g>
</g>
<g id="Icons">
</g>
</svg>
