<?xml version="1.0" encoding="utf-8"?>
<!-- Generator: Adobe Illustrator 18.1.1, SVG Export Plug-In . SVG Version: 6.00 Build 0)  -->
<!DOCTYPE svg PUBLIC "-//W3C//DTD SVG 1.1//EN" "http://www.w3.org/Graphics/SVG/1.1/DTD/svg11.dtd">
<svg version="1.1" xmlns="http://www.w3.org/2000/svg" xmlns:xlink="http://www.w3.org/1999/xlink" x="0px" y="0px" width="32px"
	 height="32px" viewBox="0 0 32 32" enable-background="new 0 0 32 32" xml:space="preserve">
<g id="Icons_-_V2">
	<path d="M24,4H8C6.895,4,6,4.895,6,6v20c0,1.105,0.895,2,2,2h16c1.105,0,2-0.895,2-2V6C26,4.895,25.105,4,24,4z M15,22l-3-4h-2v-4
		h2l3-4V22z M16.004,18.687c0.687-0.689,1.113-1.638,1.113-2.688c0-1.05-0.425-1.999-1.113-2.686l1.15-1.15
		c0.983,0.983,1.591,2.339,1.592,3.836c0,1.497-0.609,2.854-1.592,3.837L16.004,18.687z M19.454,22.137l-1.149-1.149
		c1.277-1.277,2.067-3.041,2.067-4.989s-0.79-3.712-2.066-4.988l1.149-1.148C21.026,11.435,22,13.605,22,15.999
		C22,18.393,21.026,20.564,19.454,22.137z"/>
</g>
<g id="Icons">
</g>
</svg>
