<?xml version="1.0" encoding="utf-8"?>
<!-- Generator: Adobe Illustrator 18.1.1, SVG Export Plug-In . SVG Version: 6.00 Build 0)  -->
<!DOCTYPE svg PUBLIC "-//W3C//DTD SVG 1.1//EN" "http://www.w3.org/Graphics/SVG/1.1/DTD/svg11.dtd">
<svg version="1.1" xmlns="http://www.w3.org/2000/svg" xmlns:xlink="http://www.w3.org/1999/xlink" x="0px" y="0px" width="32px"
	 height="32px" viewBox="0 0 32 32" enable-background="new 0 0 32 32" xml:space="preserve">
<g id="Layer_1">
</g>
<g id="Guides__x26__Labels">
</g>
<g id="Forms">
</g>
<g id="Icons">
	<g>
		<path d="M23.109,13c-0.01-0.021-0.014-0.043-0.024-0.064L19.526,5.77c-0.368-0.742-1.268-1.045-2.011-0.676
			c-0.74,0.367-1.043,1.267-0.676,2.01L19.769,13h-8.496l2.929-5.897c0.367-0.742,0.064-1.642-0.676-2.01
			c-0.743-0.369-1.643-0.066-2.011,0.676l-3.558,7.166C7.945,12.957,7.941,12.979,7.932,13H1.041v3H3.22l2.31,8.846v-0.002
			C5.894,26.09,7.033,27,8.396,27h14.361c1.363,0,2.502-0.91,2.867-2.156v0.002L27.935,16H30v-3H23.109z M22.744,24H8.41l-2.09-8
			h18.514L22.744,24z"/>
		<rect x="14.52" y="17.902" width="2" height="4"/>
		<rect x="18.521" y="17.902" width="2" height="4"/>
		<rect x="10.52" y="17.902" width="2" height="4"/>
	</g>
</g>
</svg>
