<?xml version="1.0" encoding="utf-8"?>
<!-- Generator: Adobe Illustrator 18.1.1, SVG Export Plug-In . SVG Version: 6.00 Build 0)  -->
<!DOCTYPE svg PUBLIC "-//W3C//DTD SVG 1.1//EN" "http://www.w3.org/Graphics/SVG/1.1/DTD/svg11.dtd">
<svg version="1.1" xmlns="http://www.w3.org/2000/svg" xmlns:xlink="http://www.w3.org/1999/xlink" x="0px" y="0px" width="32px"
	 height="32px" viewBox="0 0 32 32" enable-background="new 0 0 32 32" xml:space="preserve">
<g id="Layer_1">
</g>
<g id="Guides__x26__Labels">
</g>
<g id="Forms">
</g>
<g id="Icons">
	<g>
		<rect x="18" y="6" width="2" height="5"/>
		<polygon points="0,13 0,15 2,15 2,26 5,26 5,15 6,15 6,22 8,22 8,15 10,15 10,22 13,22 13,15 15,15 15,22 17,22 17,15 18,15 
			18,22 20,22 20,15 22,15 22,22 26,22 26,15 28,15 28,26 30,26 30,15 32,15 32,13 		"/>
		<rect x="15" y="6" width="2" height="5"/>
		<rect x="28" y="6" width="2" height="5"/>
		<rect x="22" y="6" width="4" height="5"/>
		<rect x="2" y="6" width="3" height="5"/>
		<rect x="6" y="6" width="2" height="5"/>
		<rect x="10" y="6" width="3" height="5"/>
	</g>
</g>
</svg>
