<?xml version="1.0" encoding="utf-8"?>
<!-- Generator: Adobe Illustrator 18.1.1, SVG Export Plug-In . SVG Version: 6.00 Build 0)  -->
<!DOCTYPE svg PUBLIC "-//W3C//DTD SVG 1.1//EN" "http://www.w3.org/Graphics/SVG/1.1/DTD/svg11.dtd">
<svg version="1.1" xmlns="http://www.w3.org/2000/svg" xmlns:xlink="http://www.w3.org/1999/xlink" x="0px" y="0px" width="32px"
	 height="32px" viewBox="0 0 32 32" enable-background="new 0 0 32 32" xml:space="preserve">
<g id="Layer_1">
</g>
<g id="Guides__x26__Labels">
</g>
<g id="Forms">
</g>
<g id="Icons">
	<g>
		<circle cx="25.486" cy="28.004" r="3"/>
		<circle cx="12.479" cy="28.004" r="3"/>
		<path d="M25.77,19.004H12.016L9.662,11H22V8.004H8.777L7,2H1.766c-0.828,0-1.5,0.672-1.5,1.5c0,0.828,0.672,1.5,1.5,1.5H4.75
			l4.373,14.854C9.49,21.098,10.641,22,12.002,22h13.685c1.363,0,2.502-0.9,2.867-2.145l1.791-6.852h-3.002L25.77,19.004z"/>
		<rect x="18" y="13" width="2" height="4"/>
		<rect x="22" y="13" width="2" height="4"/>
		<rect x="14" y="13" width="2" height="4"/>
		<polygon points="27.002,11.01 30.002,11.01 30.002,8.01 33.002,8.01 28.533,3.004 23.98,8.01 27.002,8.01 		"/>
	</g>
</g>
</svg>
