<?xml version="1.0" encoding="utf-8"?>
<!-- Generator: Adobe Illustrator 18.1.1, SVG Export Plug-In . SVG Version: 6.00 Build 0)  -->
<!DOCTYPE svg PUBLIC "-//W3C//DTD SVG 1.1//EN" "http://www.w3.org/Graphics/SVG/1.1/DTD/svg11.dtd">
<svg version="1.1" xmlns="http://www.w3.org/2000/svg" xmlns:xlink="http://www.w3.org/1999/xlink" x="0px" y="0px" width="32px"
	 height="32px" viewBox="0 0 32 32" enable-background="new 0 0 32 32" xml:space="preserve">
<g id="Layer_1">
</g>
<g id="Guides__x26__Labels">
</g>
<g id="Forms">
</g>
<g id="Icons">
	<path d="M25.981,8.655V5.009H6v3.668l-2,4.289v0.213c0,1.426,0.818,2.652,2,3.275V26h2.999v-7H13v7h13v-9.582
		c1.146-0.634,1.978-1.841,1.978-3.239v-0.211L25.981,8.655z M16.948,9.94h3.596v3.238c0,0.99-0.807,1.798-1.798,1.798
		c-0.991,0-1.798-0.808-1.798-1.798V9.94z M9.515,13.179c0,0.99-0.807,1.798-1.799,1.798c-0.927,0-1.691-0.705-1.787-1.607
		l1.596-3.425L7.55,9.94h1.965V13.179z M15.03,13.179c0,0.99-0.808,1.798-1.799,1.798c-0.992,0-1.799-0.808-1.799-1.798V9.94h3.598
		V13.179z M23.017,23.03h-7.018V19h7.018V23.03z M24.261,14.977c-0.992,0-1.799-0.808-1.799-1.798V9.94h1.973l0.029,0.004
		l1.585,3.424C25.954,14.271,25.188,14.977,24.261,14.977z"/>
</g>
</svg>
