<?xml version="1.0" encoding="utf-8"?>
<!-- Generator: Adobe Illustrator 18.1.1, SVG Export Plug-In . SVG Version: 6.00 Build 0)  -->
<!DOCTYPE svg PUBLIC "-//W3C//DTD SVG 1.1//EN" "http://www.w3.org/Graphics/SVG/1.1/DTD/svg11.dtd">
<svg version="1.1" xmlns="http://www.w3.org/2000/svg" xmlns:xlink="http://www.w3.org/1999/xlink" x="0px" y="0px" width="32px"
	 height="32px" viewBox="0 0 32 32" enable-background="new 0 0 32 32" xml:space="preserve">
<g id="Layer_1">
</g>
<g id="Guides__x26__Labels">
</g>
<g id="Forms">
</g>
<g id="Icons">
	<g>
		<path d="M24.691,17.088h-7.018c-0.307,0-0.557,0.25-0.557,0.557c0,0.156,0.066,0.297,0.17,0.398l4.941,4.941h0.004
			c0.102,0.109,0.244,0.178,0.404,0.178c0.193,0,0.363-0.098,0.463-0.246c1.215-1.41,1.996-3.201,2.137-5.172
			c0.008-0.033,0.012-0.066,0.012-0.1C25.248,17.338,25,17.088,24.691,17.088z"/>
		<path d="M15.555,15.914h7.801v-0.002l0.002,0.002c0.307,0,0.555-0.25,0.555-0.559l0,0c-0.275-4.488-3.867-8.08-8.357-8.355l0,0
			C15.248,7.002,15,7.25,15,7.557v7.799C15,15.664,15.248,15.914,15.555,15.914z"/>
		<path d="M19.842,22.529H19.84l-0.002-0.002l-5.75-5.752v-0.002c-0.098-0.1-0.156-0.236-0.156-0.387H13.93V8.26l0,0
			c0-0.307-0.248-0.555-0.555-0.555l0,0C8.701,7.99,5,11.873,5,16.617c0,4.932,3.998,8.932,8.93,8.932
			c2.25,0,4.305-0.832,5.875-2.205v-0.002c0.121-0.102,0.197-0.252,0.197-0.422C20.002,22.77,19.941,22.631,19.842,22.529
			L19.842,22.529z"/>
	</g>
</g>
</svg>
