<?xml version="1.0" encoding="utf-8"?>
<!-- Generator: Adobe Illustrator 18.1.1, SVG Export Plug-In . SVG Version: 6.00 Build 0)  -->
<!DOCTYPE svg PUBLIC "-//W3C//DTD SVG 1.1//EN" "http://www.w3.org/Graphics/SVG/1.1/DTD/svg11.dtd">
<svg version="1.1" xmlns="http://www.w3.org/2000/svg" xmlns:xlink="http://www.w3.org/1999/xlink" x="0px" y="0px" width="32px"
	 height="32px" viewBox="0 0 32 32" enable-background="new 0 0 32 32" xml:space="preserve">
<g id="Layer_1">
</g>
<g id="Guides__x26__Labels">
</g>
<g id="Forms">
</g>
<g id="Icons">
	<g>
		<circle cx="25.467" cy="28" r="3"/>
		<circle cx="12.459" cy="28" r="3"/>
		<path d="M26.529,16l-0.781,3H11.994l-2.354-8h10.256V8H8.758L7,2H1.766c-0.828,0-1.5,0.672-1.5,1.5c0,0.828,0.672,1.5,1.5,1.5
			H4.75l4.353,14.848C9.469,21.092,10.619,22,11.982,22h13.686c1.363,0,2.502-0.917,2.867-2.163l1-3.837H26.529z"/>
		<polygon points="31.959,6.635 29.836,4.514 27.715,6.635 25.594,4.514 23.473,6.635 25.594,8.756 23.473,10.877 25.594,13 
			27.715,10.877 29.836,13 31.959,10.877 29.836,8.756 		"/>
		<rect x="17" y="13" width="2" height="4"/>
		<rect x="21" y="13" width="2" height="4"/>
		<rect x="13" y="13" width="2" height="4"/>
	</g>
</g>
</svg>
