<?xml version="1.0" encoding="utf-8"?>
<!-- Generator: Adobe Illustrator 18.1.1, SVG Export Plug-In . SVG Version: 6.00 Build 0)  -->
<!DOCTYPE svg PUBLIC "-//W3C//DTD SVG 1.1//EN" "http://www.w3.org/Graphics/SVG/1.1/DTD/svg11.dtd">
<svg version="1.1" xmlns="http://www.w3.org/2000/svg" xmlns:xlink="http://www.w3.org/1999/xlink" x="0px" y="0px" width="32px"
	 height="32px" viewBox="0 0 32 32" enable-background="new 0 0 32 32" xml:space="preserve">
<g id="Layer_1">
</g>
<g id="Guides__x26__Labels">
</g>
<g id="Forms">
</g>
<g id="Icons">
	<g>
		<path d="M8.369,24l-2.09-8h18.514l-0.516,1.971h3.102L27.893,16h2.066v-3h-6.891c-0.01-0.021-0.014-0.043-0.025-0.064
			l-3.559-7.164c-0.367-0.742-1.268-1.045-2.01-0.678c-0.74,0.369-1.043,1.27-0.676,2.01L19.727,13h-8.496l2.93-5.897
			c0.367-0.74,0.064-1.641-0.676-2.01c-0.744-0.367-1.643-0.064-2.012,0.678l-3.559,7.164C7.904,12.957,7.9,12.979,7.891,13H1v3
			h2.178l2.311,8.848v-0.002C5.854,26.09,6.992,27,8.356,27h10.322l1.717-3H8.369z"/>
		<rect x="14.479" y="18" width="2" height="4"/>
		<rect x="18.479" y="18" width="2" height="4"/>
		<rect x="10.479" y="18" width="2" height="4"/>
		<path d="M30.829,28.205l-4.396-7.611H26.43c-0.055-0.111-0.125-0.217-0.219-0.31c-0.443-0.443-1.164-0.443-1.607,0
			c-0.08,0.08-0.147,0.17-0.195,0.266l-4.396,7.613v0.002c-0.068,0.102-0.123,0.219-0.156,0.344
			c-0.162,0.607,0.197,1.23,0.803,1.393c0.109,0.029,0.221,0.041,0.328,0.037h8.793v-0.002c0.422,0.029,0.842-0.176,1.068-0.564
			C31.063,28.996,31.044,28.548,30.829,28.205z M26.411,28.947h-2.006v-2.006h2.006V28.947z M26.411,25.941h-2.006v-4.004h2.006
			V25.941z"/>
	</g>
</g>
</svg>
