<?xml version="1.0" encoding="utf-8"?>
<!-- Generator: Adobe Illustrator 18.1.1, SVG Export Plug-In . SVG Version: 6.00 Build 0)  -->
<!DOCTYPE svg PUBLIC "-//W3C//DTD SVG 1.1//EN" "http://www.w3.org/Graphics/SVG/1.1/DTD/svg11.dtd">
<svg version="1.1" xmlns="http://www.w3.org/2000/svg" xmlns:xlink="http://www.w3.org/1999/xlink" x="0px" y="0px" width="32px"
	 height="32px" viewBox="0 0 32 32" enable-background="new 0 0 32 32" xml:space="preserve">
<g id="Layer_1">
</g>
<g id="Guides__x26__Labels">
</g>
<g id="Forms">
</g>
<g id="Icons">
	<g>
		<circle cx="25.502" cy="27" r="3"/>
		<circle cx="12.494" cy="27" r="3"/>
		<path d="M25.783,18.017H12.029L9.676,10h10.318V7.017H8.793L7.01,1.002H1.775c-0.828,0-1.5,0.672-1.5,1.5s0.672,1.5,1.5,1.5H4.76
			l4.379,14.865C9.504,20.111,10.654,21,12.017,21h13.686c1.363,0,2.502-0.91,2.867-2.154l1.256-4.828h-3.004L25.783,18.017z"/>
		<rect x="18" y="12" width="2" height="4"/>
		<rect x="22" y="12" width="2" height="4"/>
		<rect x="14" y="12" width="2" height="4"/>
		<polygon points="28,7 28,4 22.994,8.469 28,13.021 28,10 31,10 31,7 		"/>
	</g>
</g>
</svg>
