<?xml version="1.0" encoding="utf-8"?>
<!-- Generator: Adobe Illustrator 18.1.1, SVG Export Plug-In . SVG Version: 6.00 Build 0)  -->
<!DOCTYPE svg PUBLIC "-//W3C//DTD SVG 1.1//EN" "http://www.w3.org/Graphics/SVG/1.1/DTD/svg11.dtd">
<svg version="1.1" xmlns="http://www.w3.org/2000/svg" xmlns:xlink="http://www.w3.org/1999/xlink" x="0px" y="0px" width="32px"
	 height="32px" viewBox="0 0 32 32" enable-background="new 0 0 32 32" xml:space="preserve">
<g id="Layer_1">
</g>
<g id="Guides__x26__Labels">
</g>
<g id="Forms">
</g>
<g id="Icons">
	<g>
		<path d="M6.32,16h18.514l-0.775,2.969h3.102L27.936,16H30v-3h-6.891c-0.01-0.021-0.014-0.043-0.023-0.064L19.527,5.77
			c-0.369-0.742-1.268-1.045-2.012-0.676c-0.74,0.367-1.043,1.268-0.676,2.01L19.77,13h-8.496l2.928-5.897
			c0.367-0.742,0.064-1.643-0.676-2.01c-0.742-0.369-1.642-0.066-2.01,0.676l-3.559,7.166C7.945,12.957,7.941,12.979,7.932,13H1.041
			v3h2.18l2.309,8.846v-0.002C5.895,26.09,7.033,27,8.396,27H20v-3H8.41L6.32,16z"/>
		<rect x="14" y="18" width="2" height="4"/>
		<rect x="18" y="18" width="2" height="4"/>
		<rect x="10" y="18" width="2" height="4"/>
		<polygon points="28,24 28,21 25,21 25,24 22,24 22,27 25,27 25,30 28,30 28,27 31,27 31,24 		"/>
	</g>
</g>
</svg>
