<?xml version="1.0" encoding="utf-8"?>
<!-- Generator: Adobe Illustrator 20.1.0, SVG Export Plug-In . SVG Version: 6.00 Build 0)  -->
<svg version="1.1" id="Layer_1" xmlns="http://www.w3.org/2000/svg" xmlns:xlink="http://www.w3.org/1999/xlink" x="0px" y="0px"
	 viewBox="0 0 32 32" style="enable-background:new 0 0 32 32;" xml:space="preserve">
<g>
	<polygon points="7.9,6 8,6 8,3 7.9,3 3.1,3 3,3 3,6 3.1,6 	"/>
	<polygon points="7.9,11 8,11 8,8 7.9,8 3.1,8 3,8 3,11 3.1,11 	"/>
	<polygon points="7.9,16 8,16 8,13 7.9,13 3.1,13 3,13 3,16 3.1,16 	"/>
	<polygon points="7.9,21 8,21 8,18 7.9,18 3.1,18 3,18 3,21 3.1,21 	"/>
	<polygon points="10,8 10,11 14.9,11 15,11 15,8 14.9,8 	"/>
	<polygon points="10,13 10,16 14.9,16 15,16 15,13 14.9,13 	"/>
	<polygon points="10,18 10,21 14.9,21 15,21 15,18 14.9,18 	"/>
	<polygon points="22,16 22,13 21.9,13 17,13 17,16 21.9,16 	"/>
	<polygon points="22,21 22,18 21.9,18 17,18 17,21 21.9,21 	"/>
	<rect x="24" y="8" width="5" height="3"/>
	<rect x="24" y="13" width="5" height="3"/>
	<rect x="24" y="18" width="5" height="3"/>
	<rect x="3" y="25" width="12" height="3"/>
	<polygon points="20,23 17,23 17,30 20,30 20,28 29,28 29,25 20,25 	"/>
</g>
</svg>
