<?xml version="1.0" encoding="utf-8"?>
<!-- Generator: Adobe Illustrator 18.0.0, SVG Export Plug-In . SVG Version: 6.00 Build 0)  -->
<!DOCTYPE svg PUBLIC "-//W3C//DTD SVG 1.1//EN" "http://www.w3.org/Graphics/SVG/1.1/DTD/svg11.dtd">
<svg version="1.1" id="Layer_1" xmlns="http://www.w3.org/2000/svg" xmlns:xlink="http://www.w3.org/1999/xlink" x="0px" y="0px"
	 width="32px" height="32px" viewBox="0 0 32 32" enable-background="new 0 0 32 32" xml:space="preserve">
<path d="M26,5H6C4.9,5,4,5.9,4,7v18c0,1.105,0.895,2,2,2h20c1.105,0,2-0.895,2-2V7C28,5.9,27.1,5,26,5z M14,7h4v2h-4V7z M11,25H7v-2
	h4V25z M11,9H7V7h4V9z M18,25h-4v-2h4V25z M14,20v-8l6,4L14,20z M25,25h-4v-2h4V25z M25,9h-4V7h4V9z"/>
</svg>
