<?xml version="1.0" encoding="utf-8"?>
<!-- Generator: Adobe Illustrator 18.1.1, SVG Export Plug-In . SVG Version: 6.00 Build 0)  -->
<!DOCTYPE svg PUBLIC "-//W3C//DTD SVG 1.1//EN" "http://www.w3.org/Graphics/SVG/1.1/DTD/svg11.dtd">
<svg version="1.1" id="Layer_1" xmlns="http://www.w3.org/2000/svg" xmlns:xlink="http://www.w3.org/1999/xlink" x="0px" y="0px"
	 width="32px" height="32px" viewBox="0 0 32 32" enable-background="new 0 0 32 32" xml:space="preserve">
<path d="M12.167,20.23l-1.52,1.796c-0.147,0.207-0.414,0.482-0.559,0.787c-0.521,1.094,0.22,1.878,1.035,2.312
	c1.07,0.569,2.404,0.671,2.926-0.423l0.419-0.735c1.387,0.463,2.846,0.725,4.36,0.725c4.735,0,8.99-2.468,11.966-6.396
	c0.246-0.325,0.247-0.803,0.001-1.128c-2.893-3.818-6.998-6.237-11.573-6.371c-0.003-0.006,0.011-0.013,0.003-0.019
	c-1.775-1.44-7.78-3.65-7.197-1.268c0.225,0.915,0.387,1.858,0.475,2.828c-1.1,0.568-2.14,1.274-3.101,2.109v-0.009
	c-0.56,0.462-1.325,0.466-1.892,0.009c-1.776-1.44-5.004-3.387-4.42-1.005c0.338,1.376,0.552,2.807,0.552,4.315
	c0,1.503-0.213,2.939-0.552,4.315c-0.085,0.335,0.012,0.688,0.242,0.919c0.717,0.715,3.398-1.304,4.179-1.933
	c0.568-0.457,1.328-0.453,1.892,0.009c0.14,0.122,0.268,0.228,0.413,0.343C9.816,21.407,10.552,21.319,12.167,20.23z M20.255,14.863
	c-0.588,2.631-0.181,4.959,1.158,6.969c0.032,0.048,0.042,0.105,0.062,0.159C17.927,20.509,18.513,16.803,20.255,14.863z
	 M25.146,18.144c-0.769,0-1.392-0.623-1.392-1.392c0-0.769,0.623-1.392,1.392-1.392c0.769,0,1.392,0.623,1.392,1.392
	C26.538,17.521,25.915,18.144,25.146,18.144z"/>
</svg>
