<?xml version="1.0" encoding="utf-8"?>
<!-- Generator: Adobe Illustrator 18.1.1, SVG Export Plug-In . SVG Version: 6.00 Build 0)  -->
<!DOCTYPE svg PUBLIC "-//W3C//DTD SVG 1.1//EN" "http://www.w3.org/Graphics/SVG/1.1/DTD/svg11.dtd">
<svg version="1.1" id="Layer_1" xmlns="http://www.w3.org/2000/svg" xmlns:xlink="http://www.w3.org/1999/xlink" x="0px" y="0px"
	 width="32px" height="32px" viewBox="0 0 32 32" enable-background="new 0 0 32 32" xml:space="preserve">
<g>
	<circle cx="19.352" cy="18.322" r="1"/>
	<path d="M30.975,1.025c-1.367-1.367-3.583-1.367-4.95,0c-0.117,0.117-5.21,6.122-5.21,6.122c-5.22-3.363-12.296-2.77-16.855,1.788
		L3.935,8.961c-5.247,5.247-5.247,13.832,0,19.079l0.026,0.026c5.247,5.247,13.832,5.247,19.079,0l0.026-0.026
		c4.437-4.437,5.105-11.254,2.038-16.427c-0.676-1.038-1.476-1.988-2.403-2.804c1.01,0.493,1.945,1.114,2.794,1.832
		c1.548-1.314,5.392-4.578,5.48-4.666C32.342,4.608,32.342,2.392,30.975,1.025z M23.409,18.62c0.177,0.233,0.176,0.577-0.001,0.81
		c-2.138,2.822-5.195,4.595-8.596,4.595c-0.678,0-1.339-0.08-1.985-0.215c-0.224-0.429-0.406-1.011-0.322-1.754l-1.127,1.976
		c-0.375,0.786-1.333,0.713-2.102,0.304c-0.586-0.312-1.118-0.875-0.744-1.661c0.104-0.219,0.256-0.398,0.432-0.542
		c-0.317-0.223-0.627-0.457-0.924-0.715c-0.405-0.332-0.951-0.335-1.359-0.006c-0.561,0.452-2.487,1.903-3.002,1.389
		c-0.165-0.166-0.234-0.42-0.174-0.66c0.243-0.989,0.396-2.02,0.396-3.099c0-1.083-0.153-2.111-0.396-3.099
		c-0.419-1.711,1.9-0.312,3.175,0.722c0.408,0.328,0.957,0.325,1.359-0.007v0.007c0.69-0.599,1.438-1.107,2.228-1.515
		c-0.064-0.697-0.18-1.374-0.341-2.031c-0.419-1.711,3.894-0.123,5.17,0.911c0.005,0.004-0.005,0.01-0.002,0.014
		C18.382,14.14,21.331,15.877,23.409,18.62z M29.561,4.561c-0.586,0.586-1.536,0.586-2.121,0c-0.586-0.586-0.586-1.536,0-2.121
		c0.586-0.586,1.536-0.586,2.121,0C30.146,3.025,30.146,3.975,29.561,4.561z"/>
</g>
</svg>
