<?xml version="1.0" encoding="utf-8"?>
<!-- Generator: Adobe Illustrator 18.1.1, SVG Export Plug-In . SVG Version: 6.00 Build 0)  -->
<!DOCTYPE svg PUBLIC "-//W3C//DTD SVG 1.1//EN" "http://www.w3.org/Graphics/SVG/1.1/DTD/svg11.dtd">
<svg version="1.1" id="Icons" xmlns="http://www.w3.org/2000/svg" xmlns:xlink="http://www.w3.org/1999/xlink" x="0px" y="0px"
	 width="32px" height="32px" viewBox="0 0 32 32" enable-background="new 0 0 32 32" xml:space="preserve">
<g>
	<path d="M30.646,26.885L28,13.584V5c0-2.762-2.238-5-5-5c-2.762,0-5,2.238-5,5v8.584l-1.166,5.86l1.677,8.479
		c1.477,0.125,2.8,0.78,3.778,1.781C22.47,29.886,22.724,30,23,30c0.276,0,0.53-0.114,0.711-0.295
		C24.8,28.59,26.318,27.897,28,27.897c0.484,0,0.953,0.066,1.404,0.176c0.085,0.024,0.175,0.036,0.268,0.036c0.552,0,1-0.447,1-1
		C30.672,27.032,30.663,26.957,30.646,26.885z M23,2c1.656,0,3,1.344,3,3h-6C20,3.344,21.344,2,23,2z M26.617,14.847
		c-0.633,1.026-2.011,1.737-3.617,1.737c-1.606,0-2.984-0.711-3.617-1.737c-0.05-0.077-0.08-0.169-0.08-0.269
		c0-0.277,0.225-0.5,0.5-0.5c0.053,0,0.102,0.008,0.149,0.021c0.905,0.309,1.943,0.484,3.048,0.484s2.142-0.176,3.048-0.484
		c0.047-0.014,0.097-0.021,0.149-0.021c0.275,0,0.5,0.223,0.5,0.5C26.697,14.678,26.667,14.769,26.617,14.847z"/>
	<path d="M14,15.584V7c0-2.762-2.238-5-5-5C6.238,2,4,4.238,4,7v8.584L1.354,28.885c-0.017,0.072-0.025,0.147-0.025,0.225
		c0,0.553,0.448,1,1,1c0.093,0,0.183-0.012,0.268-0.036c0.451-0.109,0.92-0.176,1.404-0.176c1.682,0,3.199,0.692,4.289,1.808
		C8.47,31.886,8.724,32,9,32c0.276,0,0.53-0.114,0.711-0.295C10.8,30.59,12.318,29.897,14,29.897c0.484,0,0.953,0.066,1.404,0.176
		c0.085,0.024,0.175,0.036,0.267,0.036c0.552,0,1-0.447,1-1c0-0.077-0.009-0.152-0.025-0.225L14,15.584z M9,4c1.656,0,3,1.344,3,3H6
		C6,5.344,7.344,4,9,4z M12.617,16.847c-0.633,1.026-2.011,1.737-3.617,1.737c-1.607,0-2.984-0.711-3.617-1.737
		c-0.05-0.077-0.08-0.169-0.08-0.269c0-0.277,0.225-0.5,0.5-0.5c0.053,0,0.102,0.008,0.149,0.021
		C6.857,16.408,7.896,16.584,9,16.584s2.142-0.176,3.048-0.484c0.047-0.014,0.097-0.021,0.149-0.021c0.275,0,0.5,0.223,0.5,0.5
		C12.697,16.678,12.667,16.77,12.617,16.847z"/>
</g>
</svg>
