<?xml version="1.0" encoding="utf-8"?>
<!-- Generator: Adobe Illustrator 18.1.1, SVG Export Plug-In . SVG Version: 6.00 Build 0)  -->
<!DOCTYPE svg PUBLIC "-//W3C//DTD SVG 1.1//EN" "http://www.w3.org/Graphics/SVG/1.1/DTD/svg11.dtd">
<svg version="1.1" xmlns="http://www.w3.org/2000/svg" xmlns:xlink="http://www.w3.org/1999/xlink" x="0px" y="0px" width="32px"
	 height="32px" viewBox="0 0 32 32" enable-background="new 0 0 32 32" xml:space="preserve">
<g id="Old_Versions" display="none">
</g>
<g id="Layer_1">
	<g>
		<path d="M9.007,18h7.287c0.215,0.723,0.544,1.396,0.966,2H4v2h15.408c1.051,0.631,2.277,1,3.592,1c1.315,0,2.541-0.369,3.592-1H30
			v-2h-1.26c0.792-1.134,1.26-2.512,1.26-4c0-3.866-3.134-7-7-7c-3.866,0-7,3.134-7,7H9.007V18z M23,11c2.757,0,5,2.243,5,5
			c0,1.641-0.806,3.088-2.031,4h-5.938c-0.694-0.517-1.255-1.199-1.607-2H23v-2h-5C18,13.243,20.243,11,23,11z"/>
		<rect y="24" width="32" height="2"/>
		<rect x="5" y="28" width="23" height="2"/>
		<polygon points="7.528,9.702 10,7.906 12.472,9.702 11.528,6.796 14,5 10.944,5 10,2.094 9.056,5 6,5 8.472,6.796 		"/>
		<polygon points="2.764,14.351 4,13.453 5.236,14.351 4.764,12.898 6,12 4.472,12 4,10.547 3.528,12 2,12 3.236,12.898 		"/>
	</g>
</g>
<g id="Layer_2">
</g>
<g id="Layer_3">
</g>
</svg>
