<?xml version="1.0" encoding="utf-8"?>
<!-- Generator: Adobe Illustrator 18.1.1, SVG Export Plug-In . SVG Version: 6.00 Build 0)  -->
<!DOCTYPE svg PUBLIC "-//W3C//DTD SVG 1.1//EN" "http://www.w3.org/Graphics/SVG/1.1/DTD/svg11.dtd">
<svg version="1.1" xmlns="http://www.w3.org/2000/svg" xmlns:xlink="http://www.w3.org/1999/xlink" x="0px" y="0px" width="32px"
	 height="32px" viewBox="0 0 32 32" enable-background="new 0 0 32 32" xml:space="preserve">
<g id="Icons_-_V2">
	<g>
		<path d="M28,9H2v20h28V11.106C30,9.943,29.104,9,28,9z M20.243,16.172L17.414,19l2.828,2.828l-1.414,1.414L16,20.414l-2.828,2.828
			l-1.414-1.414L14.586,19l-2.828-2.828l1.414-1.414L16,17.586l2.828-2.828L20.243,16.172z"/>
		<path d="M16.016,3.934C15.434,3.361,14.646,3,13.766,3H4C2.896,3,2,3.895,2,5v2h17.1L16.016,3.934z"/>
	</g>
</g>
<g id="Icons">
</g>
</svg>
