<?xml version="1.0" encoding="utf-8"?>
<!-- Generator: Adobe Illustrator 18.1.1, SVG Export Plug-In . SVG Version: 6.00 Build 0)  -->
<!DOCTYPE svg PUBLIC "-//W3C//DTD SVG 1.1//EN" "http://www.w3.org/Graphics/SVG/1.1/DTD/svg11.dtd">
<svg version="1.1" xmlns="http://www.w3.org/2000/svg" xmlns:xlink="http://www.w3.org/1999/xlink" x="0px" y="0px" width="32px"
	 height="32px" viewBox="0 0 32 32" enable-background="new 0 0 32 32" xml:space="preserve">
<g id="Icons_-_V2">
	<g>
		<path d="M29,9H3v20h28V11.106C31,9.943,30.104,9,29,9z M11,21H9v-4h2V21z M17,25h-2l-3-4v-4l3-4h2V25z M19.004,21.687
			c0.687-0.689,1.113-1.638,1.113-2.688c0-1.05-0.425-1.999-1.113-2.686l1.15-1.15c0.983,0.983,1.591,2.339,1.592,3.836
			c0,1.497-0.609,2.854-1.592,3.837L19.004,21.687z M22.454,25.137l-1.149-1.149c1.277-1.277,2.067-3.041,2.067-4.989
			s-0.79-3.712-2.066-4.988l1.149-1.148C24.026,14.435,25,16.605,25,18.999C25,21.393,24.026,23.564,22.454,25.137z"/>
		<path d="M17.016,3.934C16.434,3.361,15.646,3,14.766,3H5C3.896,3,3,3.895,3,5v2h17.1L17.016,3.934z"/>
	</g>
</g>
<g id="Icons">
</g>
</svg>
