<?xml version="1.0" encoding="utf-8"?>
<!-- Generator: Adobe Illustrator 18.1.1, SVG Export Plug-In . SVG Version: 6.00 Build 0)  -->
<!DOCTYPE svg PUBLIC "-//W3C//DTD SVG 1.1//EN" "http://www.w3.org/Graphics/SVG/1.1/DTD/svg11.dtd">
<svg version="1.1" id="Layer_1" xmlns="http://www.w3.org/2000/svg" xmlns:xlink="http://www.w3.org/1999/xlink" x="0px" y="0px"
	 width="32px" height="32px" viewBox="0 0 32 32" enable-background="new 0 0 32 32" xml:space="preserve">
<path d="M14.008-0.02h-1v11.638h-1.06L11.508-0.02h-1l-0.44,11.638h-1.06V-0.02h-1L7.036,13.43c-0.09,1.029-0.098,1.717,0.547,2.506
	l1.676,2.008c0.405,0.535,0.629,1.17,0.547,1.984L8.508,29.52c0,1.381,1.119,2.5,2.5,2.5c1.381,0,2.5-1.119,2.5-2.5l-1.297-9.592
	c-0.082-0.815,0.142-1.449,0.547-1.984l1.676-2.008c0.645-0.789,0.637-1.477,0.547-2.506L14.008-0.02z"/>
<path d="M24.964,29.011l-1.967-10.176c0-0.459,0.312-0.854,0.733-0.975c0.747-0.293,1.277-1.016,1.277-1.867L24.995,8.68
	c0,0-0.111-8.7-4.984-8.7l-0.002,29.439C20.007,29.447,20,29.472,20,29.5c0,0.028,0.007,0.053,0.008,0.081v0.117l0.012,0
	C20.122,30.984,21.187,32,22.5,32c1.381,0,2.5-1.119,2.5-2.5l-0.002-0.02L24.964,29.011z"/>
</svg>
