<?xml version="1.0" encoding="utf-8"?>
<!-- Generator: Adobe Illustrator 18.1.1, SVG Export Plug-In . SVG Version: 6.00 Build 0)  -->
<!DOCTYPE svg PUBLIC "-//W3C//DTD SVG 1.1//EN" "http://www.w3.org/Graphics/SVG/1.1/DTD/svg11.dtd">
<svg version="1.1" id="Layer_1" xmlns="http://www.w3.org/2000/svg" xmlns:xlink="http://www.w3.org/1999/xlink" x="0px" y="0px"
	 width="32px" height="32px" viewBox="0 0 32 32" enable-background="new 0 0 32 32" xml:space="preserve">
<path d="M25,8h-9V7h7c0-1.105-0.895-2-2-2h-5V3.723C16.595,3.376,17,2.738,17,2c0-1.105-0.895-2-2-2s-2,0.895-2,2
	c0,0.738,0.405,1.376,1,1.723V5H9C7.895,5,7,5.895,7,7h7v1H4c0,1.281,0.509,2.509,1.414,3.414L7,13v17c0,1.105,0.895,2,2,2h12
	c1.105,0,2-0.895,2-2v-4h2c1.657,0,3-1.343,3-3V11C28,9.343,26.657,8,25,8z M21,27H9V10h5v14h-4v2h10v-2h-4V10h5V27z M25,24h-2V10h2
	V24z"/>
</svg>
