<?xml version="1.0" encoding="utf-8"?>
<!-- Generator: Adobe Illustrator 18.1.1, SVG Export Plug-In . SVG Version: 6.00 Build 0)  -->
<!DOCTYPE svg PUBLIC "-//W3C//DTD SVG 1.1//EN" "http://www.w3.org/Graphics/SVG/1.1/DTD/svg11.dtd">
<svg version="1.1" xmlns="http://www.w3.org/2000/svg" xmlns:xlink="http://www.w3.org/1999/xlink" x="0px" y="0px" width="32px"
	 height="32px" viewBox="0 0 32 32" enable-background="new 0 0 32 32" xml:space="preserve">
<g id="Guides__x26__Labels">
</g>
<g id="Icons_-_V2">
	<g>
		<polygon points="17.99,26.994 14.006,26.994 15.983,29.988 		"/>
		<polygon points="14.019,4.994 18.003,4.994 16.026,2 		"/>
		<polygon points="32,16.033 29.006,14.025 29.006,18.01 		"/>
		<polygon points="3.006,14.004 0.012,15.98 3.006,17.988 		"/>
		<path d="M23.984,7h-16C6.327,7,5,8.365,5,10.023v12C5,23.68,6.327,25,7.984,25h16C25.642,25,27,23.68,27,22.023v-12
			C27,8.365,25.642,7,23.984,7z M24,22H8V10h16V22z"/>
		<rect x="10" y="12" width="12" height="4"/>
	</g>
</g>
</svg>
