<?xml version="1.0" encoding="utf-8"?>
<!-- Generator: Adobe Illustrator 18.1.1, SVG Export Plug-In . SVG Version: 6.00 Build 0)  -->
<!DOCTYPE svg PUBLIC "-//W3C//DTD SVG 1.1//EN" "http://www.w3.org/Graphics/SVG/1.1/DTD/svg11.dtd">
<svg version="1.1" id="Icons" xmlns="http://www.w3.org/2000/svg" xmlns:xlink="http://www.w3.org/1999/xlink" x="0px" y="0px"
	 width="32px" height="32px" viewBox="0 0 32 32" enable-background="new 0 0 32 32" xml:space="preserve">
<path d="M25.513,11.986c0-4.963-4.037-9-9-9c-4.962,0-8.999,4.037-8.999,9c0,4.449,3.249,8.144,7.497,8.863L14.99,23L12,23.01v2.986
	l3.011-0.01V29H18v-3.014h3L20.979,23h-3L18,20.853C22.255,20.141,25.513,16.441,25.513,11.986z M16.513,17.986
	c-3.312,0-5.999-2.688-5.999-6s2.686-6,5.999-6c3.315,0,6,2.688,6,6S19.827,17.986,16.513,17.986z"/>
</svg>
