<?xml version="1.0" encoding="utf-8"?>
<!-- Generator: Adobe Illustrator 18.1.1, SVG Export Plug-In . SVG Version: 6.00 Build 0)  -->
<!DOCTYPE svg PUBLIC "-//W3C//DTD SVG 1.1//EN" "http://www.w3.org/Graphics/SVG/1.1/DTD/svg11.dtd">
<svg version="1.1" id="Icons" xmlns="http://www.w3.org/2000/svg" xmlns:xlink="http://www.w3.org/1999/xlink" x="0px" y="0px"
	 width="32px" height="32px" viewBox="0 0 32 32" enable-background="new 0 0 32 32" xml:space="preserve">
<path d="M26,12.114V5h-7.115l2.491,2.493l-2.215,2.215c-3.512-2.493-8.42-2.177-11.564,0.969c-3.51,3.509-3.509,9.219,0,12.728
	c3.509,3.509,9.218,3.509,12.727-0.001c3.145-3.146,3.462-8.054,0.969-11.565l2.218-2.217L26,12.114z M18.202,21.282
	c-2.342,2.343-6.142,2.343-8.484,0.001c-2.344-2.344-2.342-6.143,0-8.485c2.343-2.343,6.143-2.343,8.484,0
	C20.546,15.141,20.546,18.94,18.202,21.282z"/>
</svg>
