<?xml version="1.0" encoding="utf-8"?>
<!-- Generator: Adobe Illustrator 18.1.1, SVG Export Plug-In . SVG Version: 6.00 Build 0)  -->
<!DOCTYPE svg PUBLIC "-//W3C//DTD SVG 1.1//EN" "http://www.w3.org/Graphics/SVG/1.1/DTD/svg11.dtd">
<svg version="1.1" id="Icons" xmlns="http://www.w3.org/2000/svg" xmlns:xlink="http://www.w3.org/1999/xlink" x="0px" y="0px"
	 width="32px" height="32px" viewBox="0 0 32 32" enable-background="new 0 0 32 32" xml:space="preserve">
<g>
	<path d="M16,8.016c-4.971,0-9,4.029-9,8.998l-0.006,0.971c0,0.828,0.672,1.5,1.5,1.5c0.828,0,1.5-0.672,1.5-1.5V14H11v16.033
		c0,1.106,0.896,2,2,2s2-0.894,2-2V21h2v9.033c0,1.106,0.896,2,2,2s2-0.894,2-2V14h1v4c0,0.828,0.672,1.5,1.5,1.5
		c0.828,0,1.5-0.672,1.5-1.5v-0.986C25,12.045,20.971,8.016,16,8.016z"/>
	<circle cx="16" cy="3.5" r="3.5"/>
</g>
</svg>
