<?xml version="1.0" encoding="utf-8"?>
<!-- Generator: Adobe Illustrator 18.1.1, SVG Export Plug-In . SVG Version: 6.00 Build 0)  -->
<!DOCTYPE svg PUBLIC "-//W3C//DTD SVG 1.1 Tiny//EN" "http://www.w3.org/Graphics/SVG/1.1/DTD/svg11-tiny.dtd">
<svg version="1.1" baseProfile="tiny" id="Layer_1" xmlns="http://www.w3.org/2000/svg" xmlns:xlink="http://www.w3.org/1999/xlink"
	 x="0px" y="0px" width="32px" height="32px" viewBox="0 0 32 32" xml:space="preserve">
<g>
	<path d="M24.788,19.357c-0.04-0.04-0.083-0.075-0.129-0.102l0.002-0.002c-1.545-0.971-3.608-0.787-4.953,0.558L19,20.518v-9.515
		c0-1.1-0.9-2-2-2s-2,0.9-2,2v4.4c-0.365-0.448-0.915-0.74-1.538-0.74c-0.433,0-0.832,0.142-1.159,0.377l-4.307,2.493l0.003,0.005
		C7.404,17.884,7,18.52,7,19.256v3.289c0,3.576,2.898,6.474,6.474,6.474c1.732,0,3.301-0.684,4.462-1.792l0.001,0.009l6.851-6.851
		C25.072,20.101,25.072,19.641,24.788,19.357z"/>
	<rect x="16" y="3" width="2" height="4"/>
	<rect x="10.757" y="5.757" transform="matrix(0.7071 0.7071 -0.7071 0.7071 8.5147 -7.0416)" width="4" height="2"/>
	<rect x="20.243" y="4.757" transform="matrix(0.7071 0.7071 -0.7071 0.7071 11 -13.0416)" width="2" height="4"/>
	<rect x="9" y="10" width="4" height="2"/>
	<rect x="21" y="10" width="4" height="2"/>
</g>
</svg>
