<?xml version="1.0" encoding="utf-8"?>
<!-- Generator: Adobe Illustrator 18.1.1, SVG Export Plug-In . SVG Version: 6.00 Build 0)  -->
<!DOCTYPE svg PUBLIC "-//W3C//DTD SVG 1.1//EN" "http://www.w3.org/Graphics/SVG/1.1/DTD/svg11.dtd">
<svg version="1.1" id="Layer_1" xmlns="http://www.w3.org/2000/svg" xmlns:xlink="http://www.w3.org/1999/xlink" x="0px" y="0px"
	 width="32px" height="32px" viewBox="0 0 32 32" enable-background="new 0 0 32 32" xml:space="preserve">
<g>
	<path d="M24.657,16.251l0.002-0.002c-1.545-0.971-3.608-0.787-4.953,0.558l-0.707,0.708V8c0-1.1-0.9-2-2-2C15.899,6,15,6.9,15,8
		v4.4c-0.365-0.448-0.916-0.74-1.539-0.74c-0.433,0-0.832,0.142-1.159,0.377L7.995,14.53l0.003,0.005
		c-0.595,0.346-0.999,0.982-0.999,1.718v3.289c0,3.576,2.898,6.474,6.474,6.474c1.732,0,3.301-0.684,4.462-1.792l0.001,0.009
		l6.851-6.851c0.284-0.284,0.284-0.745-0.001-1.029C24.746,16.313,24.703,16.278,24.657,16.251z"/>
</g>
</svg>
