<?xml version="1.0" encoding="utf-8"?>
<!-- Generator: Adobe Illustrator 18.1.1, SVG Export Plug-In . SVG Version: 6.00 Build 0)  -->
<!DOCTYPE svg PUBLIC "-//W3C//DTD SVG 1.1//EN" "http://www.w3.org/Graphics/SVG/1.1/DTD/svg11.dtd">
<svg version="1.1" id="Layer_1" xmlns="http://www.w3.org/2000/svg" xmlns:xlink="http://www.w3.org/1999/xlink" x="0px" y="0px"
	 width="32px" height="32px" viewBox="0 0 32 32" enable-background="new 0 0 32 32" xml:space="preserve">
<g>
	<path d="M10.11,21.982l1.283-4.808c0.065-0.397,0.247-0.78,0.553-1.086c0.44-0.441,1.036-0.623,1.611-0.564l-3.111-3.111
		c-0.778-0.778-0.778-2.051,0-2.828c0.778-0.778,2.051-0.778,2.828,0l6.728,6.728l-0.001-1.001c0-1.902,1.329-3.491,3.108-3.897
		v0.003c0.052-0.013,0.107-0.019,0.163-0.019C23.674,11.397,24,11.723,24,12.125v9.689l-0.007-0.006
		c-0.037,1.604-0.663,3.198-1.888,4.422c-2.529,2.529-6.627,2.529-9.156,0l-2.326-2.326c-0.52-0.52-0.684-1.256-0.508-1.921
		L10.11,21.982z"/>
	<polygon points="17.991,9.351 14.637,5.995 17.991,2.64 17.991,5 21,5 21,7 17.991,7 	"/>
</g>
</svg>
