<?xml version="1.0" encoding="utf-8"?>
<!-- Generator: Adobe Illustrator 18.1.1, SVG Export Plug-In . SVG Version: 6.00 Build 0)  -->
<!DOCTYPE svg PUBLIC "-//W3C//DTD SVG 1.1//EN" "http://www.w3.org/Graphics/SVG/1.1/DTD/svg11.dtd">
<svg version="1.1" id="Layer_1" xmlns="http://www.w3.org/2000/svg" xmlns:xlink="http://www.w3.org/1999/xlink" x="0px" y="0px"
	 width="32px" height="32px" viewBox="0 0 32 32" enable-background="new 0 0 32 32" xml:space="preserve">
<g>
	<polygon points="27.21,13.79 29,12 24,12 24,17 25.789,15.211 27.789,17.21 29.21,15.789 	"/>
	<polygon points="17.211,3.79 15.79,5.211 17.79,7.21 16,9 21,9 21,4 19.211,5.789 	"/>
	<path d="M20.657,19.235l0.002-0.002c-1.545-0.971-3.608-0.787-4.953,0.558l-0.707,0.708v-9.515c0-1.1-0.9-2-2-2
		c-1.1,0-1.999,0.9-1.999,2v4.4c-0.365-0.448-0.916-0.74-1.539-0.74c-0.433,0-0.832,0.142-1.159,0.377l-4.307,2.493l0.003,0.005
		c-0.595,0.346-0.999,0.982-0.999,1.718v3.289C2.999,26.102,5.897,29,9.473,29c1.732,0,3.301-0.684,4.462-1.792l0.001,0.009
		l6.851-6.851c0.284-0.284,0.284-0.745-0.001-1.029C20.746,19.297,20.703,19.262,20.657,19.235z"/>
</g>
</svg>
