<?xml version="1.0" encoding="utf-8"?>
<!-- Generator: Adobe Illustrator 18.1.1, SVG Export Plug-In . SVG Version: 6.00 Build 0)  -->
<!DOCTYPE svg PUBLIC "-//W3C//DTD SVG 1.1//EN" "http://www.w3.org/Graphics/SVG/1.1/DTD/svg11.dtd">
<svg version="1.1" id="Layer_1" xmlns="http://www.w3.org/2000/svg" xmlns:xlink="http://www.w3.org/1999/xlink" x="0px" y="0px"
	 width="32px" height="32px" viewBox="0 0 32 32" enable-background="new 0 0 32 32" xml:space="preserve">
<polygon points="6.991,10 10,10 10,8 6.991,8 6.991,5.649 3.637,9.005 6.991,12.36 "/>
<polygon points="25.01,8 22.001,8 22.001,10 25.01,10 25.01,12.36 28.364,9.005 25.01,5.649 "/>
<g>
	<path d="M25.788,17.338c-0.04-0.04-0.083-0.075-0.129-0.102l0.002-0.002c-1.545-0.971-3.608-0.787-4.953,0.558L20,18.499V9
		c0-1.1-0.899-2-1.999-2s-2,0.9-2,2V8.622c0-0.997-0.675-1.927-1.658-2.093c-1.249-0.21-2.342,0.759-2.342,1.971v6.53
		c-1.095,0.431-2.136,0.918-2.988,1.416C8.39,16.81,8,17.466,8,18.187v2.066c0,3.608,2.951,6.793,6.559,6.746
		c1.698-0.022,3.235-0.702,4.377-1.791l0.001,0.009l0.111-0.111c0.002-0.002,0.004-0.004,0.005-0.005l6.734-6.735
		C26.072,18.083,26.072,17.622,25.788,17.338z"/>
</g>
</svg>
