<?xml version="1.0" encoding="utf-8"?>
<!-- Generator: Adobe Illustrator 18.1.1, SVG Export Plug-In . SVG Version: 6.00 Build 0)  -->
<!DOCTYPE svg PUBLIC "-//W3C//DTD SVG 1.1//EN" "http://www.w3.org/Graphics/SVG/1.1/DTD/svg11.dtd">
<svg version="1.1" id="Layer_1" xmlns="http://www.w3.org/2000/svg" xmlns:xlink="http://www.w3.org/1999/xlink" x="0px" y="0px"
	 width="32px" height="32px" viewBox="0 0 32 32" enable-background="new 0 0 32 32" xml:space="preserve">
<g>
	<polygon points="18.991,9.351 15.637,5.995 18.991,2.64 18.991,5 22,5 22,7 18.991,7 	"/>
	<path d="M8.536,11.837c0.812-0.578,1.947-0.398,2.652,0.307l0.267,0.268c-0.778-0.778-0.778-2.051,0-2.828
		c0.778-0.778,2.051-0.778,2.828,0l6.716,6.716l0-0.999c0-1.902,1.329-3.492,3.108-3.897v0.003c0.052-0.013,0.107-0.019,0.163-0.019
		c0.402,0,0.728,0.325,0.727,0.727l0,9.524c0,0.003,0,0.005,0,0.008l0,0.157l-0.007-0.006c-0.038,1.578-0.644,3.145-1.829,4.362
		c-2.518,2.584-6.857,2.419-9.408-0.133l-1.461-1.461c-0.51-0.51-0.698-1.25-0.515-1.948c0.25-0.954,0.642-2.035,1.112-3.114
		l-4.618-4.618C7.417,14.03,7.505,12.572,8.536,11.837z"/>
</g>
</svg>
