<?xml version="1.0" encoding="utf-8"?>
<!-- Generator: Adobe Illustrator 18.1.1, SVG Export Plug-In . SVG Version: 6.00 Build 0)  -->
<!DOCTYPE svg PUBLIC "-//W3C//DTD SVG 1.1//EN" "http://www.w3.org/Graphics/SVG/1.1/DTD/svg11.dtd">
<svg version="1.1" id="Layer_1" xmlns="http://www.w3.org/2000/svg" xmlns:xlink="http://www.w3.org/1999/xlink" x="0px" y="0px"
	 width="32px" height="32px" viewBox="0 0 32 32" enable-background="new 0 0 32 32" xml:space="preserve">
<path d="M24.788,16.354c-0.04-0.04-0.083-0.075-0.129-0.102l0.002-0.002c-1.545-0.971-3.608-0.787-4.953,0.558L19,17.515V8
	c0-1.1-0.9-2-2-2s-1.968,0.9-1.968,2v4.99c-1.611,0.173-2.947,0.461-4.032,0.83V9.516c0-1.1-0.9-2-2-2s-2,0.9-2,2v10.026
	c0,3.576,2.898,6.474,6.474,6.474c1.732,0,3.301-0.684,4.462-1.792l0.001,0.009l0.111-0.111c0.002-0.002,0.004-0.004,0.005-0.005
	l6.734-6.735C25.072,17.098,25.072,16.638,24.788,16.354z"/>
</svg>
