<?xml version="1.0" encoding="utf-8"?>
<!-- Generator: Adobe Illustrator 18.1.1, SVG Export Plug-In . SVG Version: 6.00 Build 0)  -->
<!DOCTYPE svg PUBLIC "-//W3C//DTD SVG 1.1 Tiny//EN" "http://www.w3.org/Graphics/SVG/1.1/DTD/svg11-tiny.dtd">
<svg version="1.1" baseProfile="tiny" id="Layer_1" xmlns="http://www.w3.org/2000/svg" xmlns:xlink="http://www.w3.org/1999/xlink"
	 x="0px" y="0px" width="32px" height="32px" viewBox="0 0 32 32" xml:space="preserve">
<g>
	<path d="M25.26,17l-0.407-0.407C25.34,16.228,25.66,15.652,25.66,15c0-1.1-0.9-2-2-2h-3.515l0.708-0.707
		c1.345-1.345,1.529-3.408,0.558-4.953l-0.002,0.002c-0.027-0.046-0.062-0.089-0.102-0.129c-0.284-0.285-0.745-0.285-1.029-0.001
		l-6.851,6.851l0.009,0.001c-0.275,0.288-0.523,0.601-0.742,0.936H12v8h1.445c1.178,1.23,2.834,2,4.673,2h3.289
		c0.736,0,1.372-0.404,1.718-0.999l0.005,0.003l2.493-4.307C25.858,19.37,26,18.971,26,18.538C26,17.915,25.708,17.365,25.26,17z"/>
	<path d="M7,24h4V14H7V24z M9,21.031c0.552,0,1,0.448,1,1c0,0.552-0.448,1-1,1s-1-0.448-1-1C8,21.479,8.448,21.031,9,21.031z"/>
</g>
</svg>
