<?xml version="1.0" encoding="utf-8"?>
<!-- Generator: Adobe Illustrator 18.1.1, SVG Export Plug-In . SVG Version: 6.00 Build 0)  -->
<!DOCTYPE svg PUBLIC "-//W3C//DTD SVG 1.1//EN" "http://www.w3.org/Graphics/SVG/1.1/DTD/svg11.dtd">
<svg version="1.1" id="Icons" xmlns="http://www.w3.org/2000/svg" xmlns:xlink="http://www.w3.org/1999/xlink" x="0px" y="0px"
	 width="32px" height="32px" viewBox="0 0 32 32" enable-background="new 0 0 32 32" xml:space="preserve">
<path d="M16,2C8.268,2,2,8.269,2,16c0,7.731,6.268,14,14,14c7.731,0,14-6.269,14-14C30,8.269,23.731,2,16,2z M26.898,11H21.29
	c-0.753-2.589-2.079-4.933-3.819-6.901C21.673,4.614,25.196,7.298,26.898,11z M28,16c0,1.038-0.146,2.039-0.393,3h-5.872
	C21.9,18.023,22,17.024,22,16s-0.1-2.023-0.265-3h5.872C27.854,13.961,28,14.962,28,16z M16,26.537
	c-1.408-1.598-2.508-3.47-3.192-5.537h6.383C18.508,23.066,17.407,24.938,16,26.537z M12.302,19C12.116,18.027,12,17.028,12,16
	s0.116-2.027,0.302-3h7.396C19.884,13.973,20,14.972,20,16s-0.116,2.027-0.302,3H12.302z M4,16c0-1.038,0.146-2.039,0.393-3h5.872
	C10.1,13.977,10,14.976,10,16s0.1,2.023,0.265,3H4.393C4.146,18.039,4,17.038,4,16z M16,5.463c1.408,1.598,2.508,3.47,3.192,5.537
	h-6.383C13.492,8.934,14.592,7.062,16,5.463z M14.529,4.099C12.789,6.067,11.464,8.411,10.71,11H5.102
	C6.803,7.298,10.327,4.614,14.529,4.099z M5.102,21h5.609c0.753,2.589,2.078,4.933,3.819,6.901C10.327,27.386,6.803,24.702,5.102,21
	z M17.47,27.901c1.741-1.968,3.066-4.312,3.819-6.901h5.609C25.196,24.702,21.673,27.386,17.47,27.901z"/>
</svg>
