<?xml version="1.0" encoding="utf-8"?>
<!-- Generator: Adobe Illustrator 16.0.0, SVG Export Plug-In . SVG Version: 6.00 Build 0)  -->
<!DOCTYPE svg PUBLIC "-//W3C//DTD SVG 1.1//EN" "http://www.w3.org/Graphics/SVG/1.1/DTD/svg11.dtd">
<svg version="1.1" id="Layer_1" xmlns="http://www.w3.org/2000/svg" xmlns:xlink="http://www.w3.org/1999/xlink" x="0px" y="0px"
	 width="32px" height="32px" viewBox="0 0 32 32" enable-background="new 0 0 32 32" xml:space="preserve">
<g>
	<path d="M15.175,10.637c0.086-0.264,0.139-0.533,0.17-0.805V8.335c0-0.361,0.293-0.654,0.656-0.654
		c0.363,0,0.654,0.293,0.654,0.654v1.371c0.026,0.314,0.077,0.627,0.182,0.93c1.41,0.625,3.119,0.404,4.334-0.699
		c1.214-1.111,1.591-2.787,1.099-4.252c-1.15-0.51-2.492-0.447-3.605,0.186c0.004-0.062,0.006-0.121,0.006-0.182
		c0-1.84-1.107-3.424-2.689-4.119c-1.583,0.695-2.688,2.279-2.688,4.119c0,0.051,0.004,0.102,0.006,0.148
		c-1.105-0.604-2.424-0.654-3.553-0.152C9.25,7.15,9.627,8.827,10.843,9.938C12.054,11.041,13.765,11.262,15.175,10.637z"/>
	<path d="M15.999,12.75c-1.49,0-2.697,1.207-2.697,2.697c0,1.488,1.207,2.695,2.697,2.695c1.486,0,2.695-1.207,2.695-2.695
		C18.694,13.957,17.485,12.75,15.999,12.75z"/>
	<circle cx="9.354" cy="15.454" r="2.697"/>
	<path d="M15.073,21.566c0-1.486-1.207-2.699-2.697-2.699c-1.488,0-2.695,1.213-2.695,2.699c0,1.49,1.207,2.697,2.695,2.697
		C13.866,24.264,15.073,23.057,15.073,21.566z"/>
	<path d="M16.015,25.033c-1.486,0-2.698,1.207-2.698,2.697c0,1.488,1.211,2.699,2.698,2.699c1.487,0,2.698-1.211,2.698-2.699
		C18.713,26.24,17.502,25.033,16.015,25.033z"/>
	<path d="M19.622,18.867c-1.487,0-2.696,1.213-2.696,2.699c0,1.49,1.209,2.697,2.696,2.697c1.494,0,2.699-1.207,2.699-2.697
		C22.321,20.08,21.116,18.867,19.622,18.867z"/>
	<circle cx="22.646" cy="15.451" r="2.697"/>
</g>
</svg>
