<?xml version="1.0" encoding="utf-8"?>
<!-- Generator: Adobe Illustrator 18.1.1, SVG Export Plug-In . SVG Version: 6.00 Build 0)  -->
<!DOCTYPE svg PUBLIC "-//W3C//DTD SVG 1.1//EN" "http://www.w3.org/Graphics/SVG/1.1/DTD/svg11.dtd">
<svg version="1.1" id="Icons" xmlns="http://www.w3.org/2000/svg" xmlns:xlink="http://www.w3.org/1999/xlink" x="0px" y="0px"
	 width="32px" height="32px" viewBox="0 0 32 32" enable-background="new 0 0 32 32" xml:space="preserve">
<g>
	<path d="M22.861,11.345L22.86,11.34c-1.557,0.737-2.143,1.247-2.584,0.806c-0.79-0.79-1.504-0.303-2.445,0.188
		c-0.482,0.251-0.698-0.318-1.265-0.318c-0.43,0-0.785,0.282-0.916,0.667l-0.669-0.657c-1.501-1.515-2.397,0.426-4.412-0.47
		l0.004,0.015c-4.011-1.65-6.725,0.241-7.62,2.354l-0.006-0.007L1.59,16.906l0.019,0.007c-0.429,1.134,0.535,1.64,1.553,0.935
		c0.526,0.95,1.378,1.716,2.424,2.154c-0.432,0.432-1,0.843-1,1.414c0,0.551,0.447,0.998,0.998,0.998h5.753
		c1.082,0,0.27-1.975-1.378-1.993c0.936-1.972-0.305-4.511-2.677-4.854c2.297-0.333,4.251,1.567,3.929,3.906
		c0.479-0.236,0.903-0.48,1.41-0.761l0.988,1.708l0.02,0.003c1.261,2.16,3.296,1.991,4.645,1.991c1.104,0,0.256-2.027-1.439-1.992
		l-1.303-2.791c5.022-1.145,7.328,1.35,7.354-0.17c0.003-0.193-0.093-0.375-0.254-0.481c-0.682-0.448-1.921-1.324-1.368-1.92
		c2.392-2.577,2.312-0.465,2.312-3.27C23.576,11.437,23.21,11.175,22.861,11.345z M19.531,14.021c-0.276,0-0.499-0.224-0.499-0.499
		c0-0.276,0.223-0.499,0.499-0.499c0.276,0,0.499,0.223,0.499,0.499C20.03,13.797,19.806,14.021,19.531,14.021z"/>
	<path d="M29.343,14.61c-0.139,0.112-0.326,0.111-0.463-0.002v0.002c-0.235-0.204-0.49-0.377-0.759-0.516
		c0.022-0.237,0.061-0.468,0.116-0.692c0.143-0.583-1.327-0.042-1.761,0.31c-0.002,0.001,0.002,0.003,0.001,0.005
		c-1.12,0.033-2.124,0.625-2.832,1.559c-0.06,0.079-0.06,0.197,0,0.276c0.728,0.961,1.77,1.565,2.928,1.565
		c0.37,0,0.727-0.064,1.067-0.177l0.103,0.18c0.128,0.268,0.454,0.243,0.716,0.104c0.199-0.106,0.381-0.298,0.253-0.566
		c-0.036-0.075-0.101-0.142-0.137-0.193l-0.372-0.439c0.395,0.266,0.575,0.288,0.575,0.288c0.035-0.028,0.067-0.054,0.101-0.084
		c0.138-0.113,0.324-0.114,0.463-0.002c0.191,0.154,0.847,0.648,1.023,0.473c0.056-0.057,0.08-0.143,0.059-0.225
		c-0.083-0.337-0.135-0.688-0.135-1.056c0-0.369,0.052-0.719,0.135-1.056C30.567,13.781,29.777,14.258,29.343,14.61z M25.027,15.515
		c-0.188,0-0.341-0.153-0.341-0.341s0.152-0.341,0.341-0.341s0.341,0.153,0.341,0.341S25.215,15.515,25.027,15.515z M25.926,16.457
		c0.005-0.013,0.007-0.027,0.015-0.039c0.328-0.492,0.427-1.062,0.283-1.705C26.65,15.187,26.794,16.094,25.926,16.457z"/>
</g>
</svg>
