<?xml version="1.0" encoding="utf-8"?>
<!-- Generator: Adobe Illustrator 18.1.1, SVG Export Plug-In . SVG Version: 6.00 Build 0)  -->
<!DOCTYPE svg PUBLIC "-//W3C//DTD SVG 1.1 Tiny//EN" "http://www.w3.org/Graphics/SVG/1.1/DTD/svg11-tiny.dtd">
<svg version="1.1" baseProfile="tiny" xmlns="http://www.w3.org/2000/svg" xmlns:xlink="http://www.w3.org/1999/xlink" x="0px"
	 y="0px" width="32px" height="32px" viewBox="0 0 32 32" xml:space="preserve">
<g id="Guides__x26__Forms">
</g>
<g id="Icons">
	<g>
		<path d="M18.01,2v8H23v3.022C22.163,12.389,21.131,12,20.001,12c-2.761,0-5,2.239-5,5c0,2.761,2.239,5,5,5c2.761,0,5-2.239,5-5
			c0-1.381-0.56-2.631-1.465-3.536L27,10h3V2H18.01z M20.443,7.438c-0.794,0-1.438-0.644-1.438-1.438
			c0-0.794,0.644-1.438,1.438-1.438S21.88,5.206,21.88,6C21.88,6.794,21.236,7.438,20.443,7.438z M24.005,7.438
			c-0.794,0-1.438-0.644-1.438-1.438c0-0.794,0.644-1.438,1.438-1.438S25.443,5.206,25.443,6
			C25.443,6.794,24.799,7.438,24.005,7.438z M27.568,7.438c-0.794,0-1.438-0.644-1.438-1.438c0-0.794,0.644-1.438,1.438-1.438
			S29.005,5.206,29.005,6C29.005,6.794,28.361,7.438,27.568,7.438z"/>
		<path d="M13.602,19.809C13.088,19.932,12.553,20,12.001,20c-1.141,0-2.215-0.28-3.167-0.766C5.825,19.687,3.353,20.749,2,22l0,3
			h6.135l0.507-0.469c1.395-1.289,3.567-2.313,6.106-2.92C14.279,21.077,13.894,20.468,13.602,19.809z"/>
		<path d="M12.001,18c0.365,0,0.719-0.044,1.063-0.119c-0.037-0.289-0.063-0.582-0.063-0.881c0-2.6,1.428-4.868,3.537-6.075
			C15.749,9.202,14.02,8,12.001,8c-2.761,0-5,2.239-5,5C7.001,15.761,9.24,18,12.001,18z"/>
		<path d="M20.001,24c-1.141,0-2.215-0.28-3.167-0.766C13.825,23.687,11.353,24.749,10,26l0,3H30v-3
			c-1.352-1.25-3.824-2.312-6.832-2.765C22.216,23.72,21.141,24,20.001,24z"/>
	</g>
</g>
</svg>
