<?xml version="1.0" encoding="utf-8"?>
<!-- Generator: Adobe Illustrator 18.1.1, SVG Export Plug-In . SVG Version: 6.00 Build 0)  -->
<!DOCTYPE svg PUBLIC "-//W3C//DTD SVG 1.1 Tiny//EN" "http://www.w3.org/Graphics/SVG/1.1/DTD/svg11-tiny.dtd">
<svg version="1.1" baseProfile="tiny" xmlns="http://www.w3.org/2000/svg" xmlns:xlink="http://www.w3.org/1999/xlink" x="0px"
	 y="0px" width="32px" height="32px" viewBox="0 0 32 32" xml:space="preserve">
<g id="Guides__x26__Forms">
</g>
<g id="Icons">
	<g>
		<g>
			<path d="M14.749,22.612c-0.47-0.535-0.855-1.144-1.147-1.803C13.088,20.932,12.553,21,12.002,21c-1.141,0-2.215-0.28-3.167-0.766
				C5.825,20.687,3.353,21.749,2,23l0,3h6.135l0.507-0.469C10.037,24.242,12.21,23.219,14.749,22.612z"/>
		</g>
		<path d="M12.002,19c0.365,0,0.719-0.044,1.063-0.119c-0.037-0.289-0.063-0.582-0.063-0.881c0-2.6,1.428-4.868,3.537-6.075
			C15.749,10.202,14.02,9,12.002,9c-2.761,0-5,2.239-5,5C7.002,16.761,9.24,19,12.002,19z"/>
		<path d="M23.168,24.234C22.216,24.72,21.142,25,20.002,25c-1.141,0-2.215-0.28-3.167-0.766C13.825,24.687,11.353,25.749,10,27l0,3
			H30v-3C28.648,25.75,26.176,24.688,23.168,24.234z"/>
		<circle cx="20.002" cy="18" r="5"/>
	</g>
</g>
</svg>
