<?xml version="1.0" encoding="utf-8"?>
<!-- Generator: Adobe Illustrator 18.1.1, SVG Export Plug-In . SVG Version: 6.00 Build 0)  -->
<!DOCTYPE svg PUBLIC "-//W3C//DTD SVG 1.1 Tiny//EN" "http://www.w3.org/Graphics/SVG/1.1/DTD/svg11-tiny.dtd">
<svg version="1.1" baseProfile="tiny" xmlns="http://www.w3.org/2000/svg" xmlns:xlink="http://www.w3.org/1999/xlink" x="0px"
	 y="0px" width="32px" height="32px" viewBox="0 0 32 32" xml:space="preserve">
<g id="Guides__x26__Forms">
</g>
<g id="Icons">
	<g>
		<path d="M21.723,27C21.548,26.7,21.3,26.452,21,26.277V24h-2v2.277C18.7,26.452,18.452,26.7,18.277,27H10v2h8.277
			c0.346,0.595,0.984,1,1.723,1s1.376-0.405,1.723-1H30v-2H21.723z"/>
		<path d="M13.602,13.809C13.088,13.932,12.553,14,12.001,14c-1.141,0-2.215-0.28-3.167-0.766C5.825,13.687,3.353,14.749,2,16l0,3
			h6.135l0.507-0.469c1.395-1.289,3.567-2.313,6.106-2.92C14.279,15.077,13.894,14.468,13.602,13.809z"/>
		<path d="M12.001,12c0.365,0,0.719-0.044,1.063-0.119c-0.037-0.289-0.063-0.582-0.063-0.881c0-2.6,1.428-4.868,3.537-6.075
			C15.749,3.202,14.02,2,12.001,2c-2.761,0-5,2.239-5,5C7.001,9.761,9.24,12,12.001,12z"/>
		<path d="M20.001,18c-1.141,0-2.215-0.28-3.167-0.766C13.825,17.687,11.353,18.749,10,20l0,3H30v-3
			c-1.352-1.25-3.824-2.312-6.832-2.765C22.216,17.72,21.141,18,20.001,18z"/>
		<circle cx="20.001" cy="11" r="5"/>
	</g>
</g>
</svg>
