<?xml version="1.0" encoding="utf-8"?>
<!-- Generator: Adobe Illustrator 19.0.0, SVG Export Plug-In . SVG Version: 6.00 Build 0)  -->
<svg version="1.1" id="Layer_1" xmlns="http://www.w3.org/2000/svg" xmlns:xlink="http://www.w3.org/1999/xlink" x="0px" y="0px"
	 width="32px" height="32px" viewBox="0 0 32 32" enable-background="new 0 0 32 32" xml:space="preserve">
<g id="XMLID_129_">
	<path id="XMLID_151_" d="M22.889,20.165c-0.625-0.749-0.935-1.687-0.536-2.567c0.418-0.92,0.624-1.656,0.694-2.066
		c0.172-1.003-0.771-1.545-1.523-1.312c-0.603,0.187-0.832,0.858-1.886,0.858c-0.045,0-0.088,0.018-0.119,0.05
		s-0.048,0.075-0.047,0.12c0.009,0.333,0.028,0.992,0.028,1.001c0,0.689-0.561,1.25-1.25,1.25h-1.5c-0.689,0-1.25-0.561-1.25-1.25
		v-0.007l0-0.007l0.113-3.967c0.001-0.049-0.019-0.096-0.056-0.129s-0.086-0.047-0.134-0.04c-2.229,0.334-3.296,1.301-3.423,3.274
		c-0.036,0.561,0.293,1.303,0.711,2.223c0.399,0.879,0.088,1.818-0.536,2.567c-0.95,1.14-1.693,2.461-1.693,3.888
		c0,4.236,3.441,5.918,7.05,5.918c3.609,0,7.05-1.682,7.05-5.918C24.581,22.343,23.839,21.304,22.889,20.165z M19,23.5h-3v-1h3V23.5
		z M19,20.5c0,0.276-0.224,0.5-0.5,0.5h-2c-0.276,0-0.5-0.224-0.5-0.5v-1c0-0.276,0.224-0.5,0.5-0.5h2c0.276,0,0.5,0.224,0.5,0.5
		V20.5z M20,27c-0.414,0-0.75-0.336-0.75-0.75S19.586,25.5,20,25.5s0.75,0.336,0.75,0.75S20.414,27,20,27z M21.5,24.5
		c-0.414,0-0.75-0.336-0.75-0.75S21.086,23,21.5,23s0.75,0.336,0.75,0.75S21.914,24.5,21.5,24.5z"/>
	<path id="XMLID_158_" d="M16.75,7h1.5C18.664,7,19,6.664,19,6.25v-3.5C19,2.336,18.664,2,18.25,2h-1.5C16.336,2,16,2.336,16,2.75
		v3.5C16,6.664,16.336,7,16.75,7z"/>
	<path id="XMLID_159_" d="M18.022,7.5h-1.045c-0.405,0-0.737,0.322-0.75,0.727L16,16.25c0,0.414,0.336,0.75,0.75,0.75h1.5
		c0.414,0,0.75-0.336,0.75-0.75l-0.228-8.023C18.76,7.822,18.428,7.5,18.022,7.5z"/>
	<rect id="XMLID_163_" x="14.75" y="2.25" width="0.75" height="1"/>
	<rect id="XMLID_164_" x="14.75" y="4" width="0.75" height="1"/>
	<rect id="XMLID_167_" x="14.75" y="5.75" width="0.75" height="1"/>
	<rect id="XMLID_168_" x="19.5" y="2.25" width="0.75" height="1"/>
	<rect id="XMLID_169_" x="19.5" y="4" width="0.75" height="1"/>
	<rect id="XMLID_170_" x="19.5" y="5.75" width="0.75" height="1"/>
</g>
</svg>
