<?xml version="1.0" encoding="utf-8"?>
<!-- Generator: Adobe Illustrator 18.0.0, SVG Export Plug-In . SVG Version: 6.00 Build 0)  -->
<!DOCTYPE svg PUBLIC "-//W3C//DTD SVG 1.1//EN" "http://www.w3.org/Graphics/SVG/1.1/DTD/svg11.dtd">
<svg version="1.1" id="Layer_1" xmlns="http://www.w3.org/2000/svg" xmlns:xlink="http://www.w3.org/1999/xlink" x="0px" y="0px"
	 viewBox="0 0 32 32" enable-background="new 0 0 32 32" xml:space="preserve">
<g>
	<path d="M2,26.5C2,27.3,2.7,28,3.5,28h25c0.8,0,1.5-0.7,1.5-1.5V23H2V26.5z"/>
	<path d="M30.5,17H28l-3,3l-3-3H1.5C0.7,17,0,17.7,0,18.5v1C0,20.3,0.7,21,1.5,21h29c0.8,0,1.5-0.7,1.5-1.5v-1
		C32,17.7,31.3,17,30.5,17z"/>
	<path d="M16,4C8.3,4,2,8.9,2,15h28C30,8.9,23.7,4,16,4z M7,13c-0.8,0-1.5-0.4-1.5-1c0-0.6,0.7-1,1.5-1c0.8,0,1.5,0.4,1.5,1
		C8.5,12.5,7.8,13,7,13z M11.5,9C10.6,9,10,8.5,10,8c0-0.6,0.7-1,1.5-1C12.3,7,13,7.4,13,8C13,8.5,12.3,9,11.5,9z M16,13
		c-0.8,0-1.5-0.4-1.5-1c0-0.6,0.7-1,1.5-1c0.8,0,1.5,0.4,1.5,1C17.5,12.5,16.8,13,16,13z M19.5,9C18.7,9,18,8.5,18,8
		c0-0.6,0.7-1,1.5-1C20.3,7,21,7.4,21,8C21,8.5,20.3,9,19.5,9z M25,13c-0.8,0-1.5-0.4-1.5-1c0-0.6,0.7-1,1.5-1c0.8,0,1.5,0.4,1.5,1
		C26.5,12.5,25.8,13,25,13z"/>
</g>
</svg>
