<?xml version="1.0" encoding="utf-8"?>
<!-- Generator: Adobe Illustrator 18.1.1, SVG Export Plug-In . SVG Version: 6.00 Build 0)  -->
<!DOCTYPE svg PUBLIC "-//W3C//DTD SVG 1.1//EN" "http://www.w3.org/Graphics/SVG/1.1/DTD/svg11.dtd">
<svg version="1.1" id="Icons" xmlns="http://www.w3.org/2000/svg" xmlns:xlink="http://www.w3.org/1999/xlink" x="0px" y="0px"
	 width="32px" height="32px" viewBox="0 0 32 32" enable-background="new 0 0 32 32" xml:space="preserve">
<g>
	<path d="M25.926,6.395c0-0.002,0-0.002,0-0.002C24.688,2.777,19.734,0,17.18,0c-2.139,0-2.705,0-2.705,0
		c-0.699,0-0.982,0.146-1.893,0.426c-0.92,0.281-1.477,0.383-2.16,0.383H9.975V0.727C9.965,0.365,9.623,0,9.26,0H6.664
		C6.299,0,6,0.299,6,0.666v3.668C6,4.703,6.299,5,6.664,5h2.644c0.369,0,0.666-0.297,0.666-0.666V4.213h0.447
		C11.07,4.213,14,4.359,14,7v6h4V7c0-1.76,1.019-3,3-3c2,0,3.521,1.244,4.396,2.67c0.074,0.146,0.254,0.203,0.402,0.129
		C25.945,6.721,26.002,6.541,25.926,6.395z M9.008,2h-2V1h2V2z"/>
	<path d="M19.305,22.801c0.231-0.793,0.359-1.684,0.359-2.625c0-1.688-0.414-3.213-1.074-4.299c0.15-0.201,0.244-0.455,0.244-0.729
		c0-0.535-0.352-0.99-0.834-1.148h-4c-0.484,0.158-0.834,0.613-0.834,1.148c0,0.273,0.092,0.527,0.244,0.729
		c-0.66,1.086-1.074,2.611-1.074,4.299c0,0.941,0.129,1.832,0.357,2.625c0.689,3.086-0.445,5.219-0.67,6.82V30
		c0,1.072,0.82,1.941,1.832,1.941h4.289c1.01,0,1.83-0.869,1.83-1.941v-0.379C19.754,28.019,18.619,25.887,19.305,22.801z
		 M16.414,17.043c-0.332,0.902-0.533,2.065-0.533,3.332c0,0.822,0.084,1.6,0.234,2.291c0.451,2.695-0.293,4.555-0.44,5.953v0.334
		c0,0.016,0.005,0.031,0.005,0.047h-1.808c0.002-0.014,0.002-0.025,0.004-0.039l0.045-0.334c0.147-1.396,0.891-3.26,0.438-5.953
		c-0.148-0.691-0.232-1.471-0.232-2.293c0-1.293,0.21-2.47,0.555-3.381h1.739c-0.003,0.014-0.004,0.029-0.008,0.043H16.414z"/>
</g>
</svg>
