<?xml version="1.0" encoding="utf-8"?>
<!-- Generator: Adobe Illustrator 18.1.1, SVG Export Plug-In . SVG Version: 6.00 Build 0)  -->
<!DOCTYPE svg PUBLIC "-//W3C//DTD SVG 1.1//EN" "http://www.w3.org/Graphics/SVG/1.1/DTD/svg11.dtd">
<svg version="1.1" id="Icons" xmlns="http://www.w3.org/2000/svg" xmlns:xlink="http://www.w3.org/1999/xlink" x="0px" y="0px"
	 width="32px" height="32px" viewBox="0 0 32 32" enable-background="new 0 0 32 32" xml:space="preserve">
<g>
	<path d="M18.629,13.705c-0.311-0.146-0.111-0.094-0.472-0.391c-0.362-0.297-0.238-0.229-0.656-0.451
		c-0.418-0.221-1.396-0.646-2.18-1.014c-0.412-0.192-1.316-0.683-2.111-1.134l-0.949,1.552l1.906,1.049l-1.133,1.764l1.903,1.049
		l-1.132,1.766l1.905,1.049l-1.132,1.767l1.905,1.047l-1.132,1.769l1.905,1.046l-1.135,1.766l1.907,1.049l-1.133,1.766l1.905,1.051
		L17.667,32H23V14l-2.608-0.004C19.844,13.996,19.135,13.942,18.629,13.705z M21.274,29.425c0.503,0.008,0.903,0.416,0.897,0.918
		c-0.004,0.504-0.415,0.904-0.916,0.896c-0.5-0.006-0.9-0.416-0.899-0.916C20.361,29.823,20.773,29.421,21.274,29.425z"/>
	<path d="M22.775,6.094c-0.135-0.252-0.195-0.547-0.164-0.85c0.012-0.107,0.033-0.213,0.064-0.311
		c0.121-0.361,0.195-0.744,0.234-1.139c0.096-0.887-0.006-1.756-0.295-2.541c-0.058-0.15-0.197-0.27-0.369-0.289
		c-0.174-0.018-0.33,0.07-0.418,0.207c-0.157,0.252-0.283,0.527-0.381,0.807c-0.164,0.471-0.625,0.785-1.138,0.732
		c-0.132-0.012-0.256-0.051-0.369-0.105l-1.457-0.79l0.004,0.008c-0.828-0.463-1.761-0.768-2.762-0.875
		c-0.312-0.031-0.624-0.045-0.933-0.037l-1.243,0.02c-0.043,0.002-0.083,0-0.125-0.006c-0.312-0.029-0.575-0.195-0.752-0.424
		c-0.161-0.215-0.413-0.373-0.704-0.404c-0.561-0.057-1.062,0.347-1.122,0.909c-0.016,0.155-0.009,0.311,0.053,0.444
		c0.311,0.674,0.448,1.438,0.366,2.23c-0.02,0.188-0.054,0.371-0.094,0.555c-0.053,0.213-0.092,0.43-0.115,0.654
		c-0.147,1.408,0.475,2.512,1.283,3.387s3.08,1.875,5.102,2.756c0.854,0.373,1.447,0.904,1.748,1.186
		c0.124,0.131,0.298,0.215,0.494,0.215h2.636c0.306,0,0.679-0.307,0.682-0.685V8.099V7C23.001,6.57,22.962,6.445,22.775,6.094z
		 M19.364,8.509c-0.076-0.006-0.151-0.021-0.223-0.039c-2.04-0.516-3.91-1.422-5.539-2.615c-0.292-0.221-0.469-0.588-0.428-0.979
		c0.062-0.596,0.594-1.025,1.188-0.963c0.171,0.018,0.326,0.076,0.46,0.16c1.499,0.85,3.151,1.471,4.923,1.805
		c0.677,0.124,1.156,0.751,1.08,1.449C20.749,8.057,20.096,8.587,19.364,8.509z"/>
</g>
</svg>
