<?xml version="1.0" encoding="utf-8"?>
<!-- Generator: Adobe Illustrator 18.1.1, SVG Export Plug-In . SVG Version: 6.00 Build 0)  -->
<!DOCTYPE svg PUBLIC "-//W3C//DTD SVG 1.1 Tiny//EN" "http://www.w3.org/Graphics/SVG/1.1/DTD/svg11-tiny.dtd">
<svg version="1.1" baseProfile="tiny" xmlns="http://www.w3.org/2000/svg" xmlns:xlink="http://www.w3.org/1999/xlink" x="0px"
	 y="0px" width="32px" height="32px" viewBox="0 0 32 32" xml:space="preserve">
<g id="Layer_1">
</g>
<g id="Icons">
	<path d="M25.721,17.588c-0.04-0.04-0.083-0.075-0.129-0.102l0.002-0.002c-1.545-0.971-3.608-0.787-4.954,0.558l-1.207,1.207V9
		c0-0.688-0.562-1.25-1.25-1.25s-1.25,0.562-1.25,1.25v6.057l-0.5,0.102V8c0-0.688-0.562-1.25-1.25-1.25s-1.25,0.562-1.25,1.25
		v7.672l-0.5,0.102V9c0-0.688-0.562-1.25-1.25-1.25s-1.25,0.562-1.25,1.25v7.286l-0.5,0.102V10c0-0.688-0.562-1.25-1.25-1.25
		S7.934,9.313,7.934,10v10.5v0.003c0,3.608,2.951,6.793,6.559,6.747c1.698-0.022,3.235-0.702,4.377-1.791l0.001,0.009l6.851-6.851
		C26.006,18.332,26.006,17.872,25.721,17.588z"/>
</g>
</svg>
