<?xml version="1.0" encoding="utf-8"?>
<!-- Generator: Adobe Illustrator 18.1.1, SVG Export Plug-In . SVG Version: 6.00 Build 0)  -->
<!DOCTYPE svg PUBLIC "-//W3C//DTD SVG 1.1 Tiny//EN" "http://www.w3.org/Graphics/SVG/1.1/DTD/svg11-tiny.dtd">
<svg version="1.1" baseProfile="tiny" id="Layer_1" xmlns="http://www.w3.org/2000/svg" xmlns:xlink="http://www.w3.org/1999/xlink"
	 x="0px" y="0px" width="32px" height="32px" viewBox="0 0 32 32" xml:space="preserve">
<g>
	<path d="M19.992,15.5c0.637,0,1.275-0.242,1.758-0.725c0.967-0.967,0.967-2.549,0-3.517L19.992,9.5l-1.758,1.758
		c-0.967,0.967-0.967,2.55,0,3.517C18.717,15.258,19.354,15.5,19.992,15.5z"/>
	<path d="M16,9.226c0.319,0,0.637-0.121,0.879-0.363c0.484-0.484,0.484-1.275,0-1.758L16,6.226l-0.879,0.879
		c-0.483,0.484-0.483,1.275,0,1.758C15.363,9.106,15.681,9.226,16,9.226z"/>
	<path d="M22,6c0.319,0,0.637-0.121,0.879-0.363c0.484-0.484,0.484-1.275,0-1.758L22,3l-0.879,0.879
		c-0.483,0.484-0.483,1.275,0,1.758C21.363,5.879,21.681,6,22,6z"/>
	<path d="M29.642,18.398c-1.089-0.739-2.274-0.212-2.819,0.102l-6.832,5l-4,0.001l-1-1h3.674c1.105,0,2.342-0.72,2.342-2
		c0-1.36-1.237-2-2.342-2h-1.377c-1.023,0-2.218,0.091-3.06-0.36l0,0.003c-0.801-0.407-1.723-0.642-2.707-0.642
		c-1.652,0-3.131,0.659-4.145,1.698L1.992,24.5l6,6l2-3h9.451c1.008,0,1.981-0.37,2.734-1.039l7.533-6.692
		C30.129,19.397,30.106,18.713,29.642,18.398z"/>
</g>
</svg>
