<?xml version="1.0" encoding="utf-8"?>
<!-- Generator: Adobe Illustrator 18.0.0, SVG Export Plug-In . SVG Version: 6.00 Build 0)  -->
<!DOCTYPE svg PUBLIC "-//W3C//DTD SVG 1.1//EN" "http://www.w3.org/Graphics/SVG/1.1/DTD/svg11.dtd">
<svg version="1.1" id="Layer_1" xmlns="http://www.w3.org/2000/svg" xmlns:xlink="http://www.w3.org/1999/xlink" x="0px" y="0px"
	 width="32px" height="32px" viewBox="0 0 32 32" enable-background="new 0 0 32 32" xml:space="preserve">
<g>
	<path d="M9,29L9,29c1.105,0,2-0.895,2-2v-7c0-1.105-0.895-2-2-2h0V29z"/>
	<path d="M23,29L23,29l0-11h0c-1.105,0-2,0.895-2,2v7C21,28.105,21.895,29,23,29z"/>
	<path d="M27,18v-3c0-6.075-4.925-11-11-11S5,8.925,5,15v3c-1.657,0-3,1.343-3,3v5c0,1.657,1.343,3,3,3h3V15c0-4.418,3.582-8,8-8
		s8,3.582,8,8v14h3c1.657,0,3-1.343,3-3v-5C30,19.343,28.657,18,27,18z"/>
</g>
</svg>
