<?xml version="1.0" encoding="utf-8"?>
<!-- Generator: Adobe Illustrator 18.0.0, SVG Export Plug-In . SVG Version: 6.00 Build 0)  -->
<!DOCTYPE svg PUBLIC "-//W3C//DTD SVG 1.1//EN" "http://www.w3.org/Graphics/SVG/1.1/DTD/svg11.dtd">
<svg version="1.1" id="Layer_1" xmlns="http://www.w3.org/2000/svg" xmlns:xlink="http://www.w3.org/1999/xlink" x="0px" y="0px"
	 width="32px" height="32px" viewBox="0 0 32 32" enable-background="new 0 0 32 32" xml:space="preserve">
<g>
	<path d="M9,13v11c1.105,0,2-0.895,2-2v-7C11,13.895,10.105,13,9,13z"/>
	<path d="M23,13c-1.105,0-2,0.895-2,2v7c0,1.105,0.895,2,2,2V13z"/>
	<path d="M27,13c0-6.075-4.925-11-11-11S5,6.925,5,13c-1.657,0-3,1.343-3,3v5c0,1.657,1.343,3,3,3h3V13c0-4.418,3.582-8,8-8
		s8,3.582,8,8v11v0.25c0,1.792-1.458,3.25-3.25,3.25h-1.904C18.671,27.207,18.364,27,18,27h-4c-0.55,0-1,0.45-1,1v1
		c0,0.55,0.45,1,1,1h4c0.364,0,0.671-0.207,0.846-0.5h1.904c2.895,0,5.25-2.355,5.25-5.25V24h1c1.657,0,3-1.343,3-3v-5
		C30,14.343,28.657,13,27,13z"/>
</g>
</svg>
