<?xml version="1.0" encoding="utf-8"?>
<!-- Generator: Adobe Illustrator 18.1.1, SVG Export Plug-In . SVG Version: 6.00 Build 0)  -->
<!DOCTYPE svg PUBLIC "-//W3C//DTD SVG 1.1 Tiny//EN" "http://www.w3.org/Graphics/SVG/1.1/DTD/svg11-tiny.dtd">
<svg version="1.1" baseProfile="tiny" id="Layer_1" xmlns="http://www.w3.org/2000/svg" xmlns:xlink="http://www.w3.org/1999/xlink"
	 x="0px" y="0px" width="32px" height="32px" viewBox="0 0 32 32" xml:space="preserve">
<g>
	<path d="M29.364,2.003l-4.648,1.549c-0.353,0.117-0.458,0.565-0.195,0.828l0.842,0.842l-1.735,1.735
		c0.533,0.31,1.032,0.684,1.48,1.131c0.037,0.037,0.068,0.077,0.104,0.114l1.566-1.566l0.842,0.842
		c0.263,0.263,0.71,0.157,0.828-0.195l1.549-4.648C30.127,2.245,29.755,1.873,29.364,2.003z"/>
	<path d="M15.669,8.796l-0.728,0.728l-0.728-0.728c-2.411-2.411-6.321-2.411-8.732,0c-2.411,2.411-2.411,6.321,0,8.732l3.081,3.081
		l3.9-3.9c0.378-0.378,0.88-0.586,1.414-0.586s1.036,0.208,1.414,0.586c0.78,0.78,0.78,2.049,0,2.828l-3.9,3.9l3.55,3.55l9.46-9.46
		c2.411-2.411,2.411-6.321,0-8.732C21.99,6.384,18.08,6.384,15.669,8.796z"/>
	<path d="M14.584,18.83c0.391-0.391,0.391-1.024,0-1.414c-0.195-0.195-0.451-0.293-0.707-0.293s-0.512,0.098-0.707,0.293
		L8.315,22.27l-1.989-0.005c-0.002,0-0.004,0-0.005,0c-0.53,0-1.039,0.211-1.414,0.586l-2.782,2.782
		c-0.315,0.315-0.093,0.852,0.352,0.854l3.029,0.008l0.008,3.029c0.001,0.301,0.247,0.5,0.504,0.5c0.123,0,0.248-0.046,0.35-0.147
		l2.782-2.782c0.376-0.376,0.587-0.887,0.586-1.419L9.73,23.685L14.584,18.83z"/>
</g>
</svg>
