<?xml version="1.0" encoding="utf-8"?>
<!-- Generator: Adobe Illustrator 18.0.0, SVG Export Plug-In . SVG Version: 6.00 Build 0)  -->
<!DOCTYPE svg PUBLIC "-//W3C//DTD SVG 1.1//EN" "http://www.w3.org/Graphics/SVG/1.1/DTD/svg11.dtd">
<svg version="1.1" id="Layer_1" xmlns="http://www.w3.org/2000/svg" xmlns:xlink="http://www.w3.org/1999/xlink" x="0px" y="0px"
	 viewBox="0 0 32 32" enable-background="new 0 0 32 32" xml:space="preserve">
<g>
	<path d="M19,0h-1v2.2c0.4,0,0.8-0.1,1.2-0.1L19,0z"/>
	<path d="M14,0h-1l-0.2,2.1c0.4,0.1,0.8,0.1,1.2,0.1L14,0L14,0z"/>
	<path d="M29.1,3.1c-0.7-1.6-2.5-2.3-4-1.7c-0.1,0-0.2,0.1-0.3,0.2C22,2.7,19.1,3.3,16,3.3c-3.1,0-6-0.6-8.7-1.7
		C7.2,1.5,7,1.5,6.9,1.5c-1.6-0.7-3.4,0.1-4,1.7C2.3,4.7,3,6.5,4.6,7.2v0l0,0c2.4,1,5,1.7,7.7,2l-0.2,2.3c-0.1,1-0.1,1.7,0.5,2.5
		l1.7,2c0.4,0.5,0.6,1.2,0.5,2l-1.3,11.5c0,1.4,1.1,2.5,2.5,2.5c1.4,0,2.5-1.1,2.5-2.5L17.2,18c-0.1-0.8,0.1-1.4,0.5-2l1.7-2
		c0.6-0.8,0.6-1.5,0.5-2.5l-0.2-2.3c2.7-0.3,5.2-1,7.6-2l0,0c0,0,0,0,0,0C29,6.5,29.7,4.7,29.1,3.1z M18,11h-4V9.4
		c0.7,0,1.3,0.1,2,0.1c0.7,0,1.4,0,2-0.1V11z"/>
</g>
</svg>
