<svg id="Layer_1" data-name="Layer 1" xmlns="http://www.w3.org/2000/svg" viewBox="0 0 32 32"><title>image-heart-favorite</title><path d="M19.32,24H4l6-10.34,6,5.83,4-3.74,2.24,4.63A5,5,0,0,1,24.09,20a4.52,4.52,0,0,1,2.5.8A4.77,4.77,0,0,1,28,20.19V6a2,2,0,0,0-2-2H2A2,2,0,0,0,0,6V26a2,2,0,0,0,2,2H20a5.21,5.21,0,0,1-.84-2.77A6.11,6.11,0,0,1,19.32,24ZM18,7.32a3,3,0,1,1-3,3A3,3,0,0,1,18,7.32Z"/><path d="M29.1,22a2.73,2.73,0,0,0-2.5,2,2.73,2.73,0,0,0-2.5-2,2.91,2.91,0,0,0-2.9,3.21A3.41,3.41,0,0,0,22.81,28c.58.52,3.16,2.11,3.78,3.76.62-1.65,3.2-3.24,3.78-3.76A3.41,3.41,0,0,0,32,25.23,2.91,2.91,0,0,0,29.1,22Z"/></svg>