<?xml version="1.0" encoding="utf-8"?>
<!-- Generator: Adobe Illustrator 20.1.0, SVG Export Plug-In . SVG Version: 6.00 Build 0)  -->
<svg version="1.1" id="Layer_1" xmlns="http://www.w3.org/2000/svg" xmlns:xlink="http://www.w3.org/1999/xlink" x="0px" y="0px"
	 viewBox="0 0 32 32" style="enable-background:new 0 0 32 32;" xml:space="preserve">
<path d="M27,4H5C3.3,4,2,5.4,2,7v18c0,1.7,1.3,3,3,3h22c1.7,0,3-1.3,3-3V7C30,5.4,28.7,4,27,4z M21,9c1.7,0,3,1.3,3,3s-1.3,3-3,3
	s-3-1.3-3-3S19.3,9,21,9z M6.9,23l6.6-11l5,8.3L21,16l4,7H6.9z"/>
</svg>
