<?xml version="1.0" encoding="utf-8"?>
<!-- Generator: Adobe Illustrator 18.1.1, SVG Export Plug-In . SVG Version: 6.00 Build 0)  -->
<!DOCTYPE svg PUBLIC "-//W3C//DTD SVG 1.1//EN" "http://www.w3.org/Graphics/SVG/1.1/DTD/svg11.dtd">
<svg version="1.1" id="Layer_1" xmlns="http://www.w3.org/2000/svg" xmlns:xlink="http://www.w3.org/1999/xlink" x="0px" y="0px"
	 width="32px" height="32px" viewBox="0 0 32 32" enable-background="new 0 0 32 32" xml:space="preserve">
<path d="M26,6H6C4.895,6,4,6.895,4,8v16c0,1.105,0.895,2,2,2h20c1.105,0,2-0.895,2-2V8C28,6.895,27.105,6,26,6z M20,9
	c3.307,0,3.304,5,0,5C16.698,14,16.691,9,20,9z M7,24l6-8l4.105,5.474L20,18l5,6C18.622,24,13.324,24,7,24z"/>
</svg>
