<?xml version="1.0" encoding="utf-8"?>
<!-- Generator: Adobe Illustrator 18.1.1, SVG Export Plug-In . SVG Version: 6.00 Build 0)  -->
<!DOCTYPE svg PUBLIC "-//W3C//DTD SVG 1.1//EN" "http://www.w3.org/Graphics/SVG/1.1/DTD/svg11.dtd">
<svg version="1.1" id="Layer_1" xmlns="http://www.w3.org/2000/svg" xmlns:xlink="http://www.w3.org/1999/xlink" x="0px" y="0px"
	 width="32px" height="32px" viewBox="0 0 32 32" enable-background="new 0 0 32 32" xml:space="preserve">
<g>
	<path d="M25.951,7.516l1.191-1.191c0.195-0.195,0.195-0.512,0-0.707l-0.707-0.707c-0.195-0.195-0.512-0.195-0.707,0l-1.191,1.191
		c-0.813-0.387-1.756-0.387-2.569,0l-0.837-0.837c-0.781-0.781-2.047-0.781-2.828,0L14.06,9.507c-0.781,0.781-0.781,2.047,0,2.828
		l5.657-5.657l0.707,0.707l-5.657,5.657l4.243,4.243l6.364-6.364C26.296,9.999,26.481,8.63,25.951,7.516z"/>
	<path d="M7.266,21.098l3.689,3.689c2.025-1.522,4.14-3.591,6.64-6.088l-4.242-4.242C10.857,16.958,8.788,19.072,7.266,21.098z"/>
	<path d="M6.003,25.343l-1.151,1.151c-0.186,0.186-0.186,0.488,0,0.674c0.204,0.204,0.536,0.204,0.74,0L6.71,26.05
		c0.794,0.347,2.046,0.07,3.424-0.67l-3.461-3.461C5.933,23.297,5.656,24.548,6.003,25.343z"/>
</g>
</svg>
