<?xml version="1.0" encoding="utf-8"?>
<!-- Generator: Adobe Illustrator 18.1.1, SVG Export Plug-In . SVG Version: 6.00 Build 0)  -->
<!DOCTYPE svg PUBLIC "-//W3C//DTD SVG 1.1//EN" "http://www.w3.org/Graphics/SVG/1.1/DTD/svg11.dtd">
<svg version="1.1" id="Layer_1" xmlns="http://www.w3.org/2000/svg" xmlns:xlink="http://www.w3.org/1999/xlink" x="0px" y="0px"
	 width="32px" height="32px" viewBox="0 0 32 32" enable-background="new 0 0 32 32" xml:space="preserve">
<g>
	<path d="M26.811,14.807c-0.08-0.547-0.588-0.925-1.135-0.845l-1.978,0.291c-0.546,0.08-0.924,0.588-0.844,1.134l1.189,8.139
		c0.08,0.546,0.588,0.925,1.134,0.845l1.979-0.289c0.547-0.08,0.925-0.588,0.845-1.134L26.811,14.807z"/>
	<path d="M23.15,12.093c0.001,0.001,0.001,0.003,0.002,0.005c0.097,0.19,0.165,0.398,0.197,0.616c0,0,0.031,0.213,0.08,0.544
		l2.095-0.308l-1.456-9.967c-0.073-0.498-0.487-0.875-0.989-0.902l-0.864-0.027c-0.074-0.002-0.146,0.028-0.195,0.084
		c-0.049,0.056-0.071,0.13-0.06,0.204c0.054,0.351,0.236,0.674,0.515,0.904c0.237,0.195,0.382,0.496,0.365,0.826
		c-0.023,0.435-0.32,0.79-0.715,0.907c-0.203,0.06-0.347,0.242-0.358,0.453l-0.009,0.171c-0.011,0.212,0.112,0.407,0.308,0.488
		c0.381,0.157,0.639,0.542,0.616,0.977c-0.016,0.309-0.171,0.578-0.401,0.749L22.28,7.816l-0.19,0.111l0.002,0.001
		c0.557,0.372,0.869,0.991,0.834,1.653c-0.033,0.631-0.381,1.183-0.927,1.504l0.106,0.061l-0.003-0.002
		c0.453,0.181,0.82,0.523,1.04,0.952L23.15,12.093z"/>
	<path d="M22.429,9.412c-0.026-0.502-0.321-0.922-0.736-1.141l-0.865-0.508l-0.002-0.001c-0.23-0.172-0.385-0.44-0.401-0.749
		c-0.023-0.435,0.236-0.819,0.616-0.977c0.196-0.081,0.319-0.277,0.308-0.488l-0.009-0.171c-0.011-0.211-0.154-0.393-0.358-0.453
		c-0.395-0.117-0.692-0.472-0.715-0.907c-0.017-0.33,0.128-0.631,0.365-0.826c0.28-0.23,0.461-0.553,0.515-0.904
		c0.011-0.073-0.011-0.148-0.06-0.204C21.04,2.029,20.968,1.998,20.894,2L20.03,2.027c-0.503,0.026-0.917,0.404-0.989,0.902
		l-1.463,10.018l2.095,0.308c0.053-0.362,0.088-0.595,0.088-0.595c0.032-0.218,0.099-0.426,0.197-0.616
		c0.001-0.002,0.002-0.003,0.002-0.004l0.008,0.004c0.22-0.427,0.586-0.769,1.038-0.95l0.813-0.466l0-0.004
		C22.206,10.363,22.455,9.914,22.429,9.412z M21.082,9.983c-0.276,0.014-0.511-0.197-0.526-0.473
		c-0.014-0.276,0.197-0.511,0.473-0.526c0.276-0.014,0.511,0.197,0.526,0.473C21.57,9.733,21.358,9.969,21.082,9.983z"/>
	<path d="M15.286,26.984c-0.173,1.015-1.054,1.756-2.094,1.756c-1.172,0-2.125-0.953-2.125-2.125V15.97c0-2.206-1.794-4-4-4H4v2
		h3.068c1.103,0,2,0.897,2,2v10.645c0,2.274,1.851,4.125,4.125,4.125c2.017,0,3.728-1.441,4.066-3.427l0.326-2.007l-1.979-0.289
		L15.286,26.984z"/>
	<path d="M19.454,14.279l-1.978-0.291c-0.547-0.081-1.055,0.298-1.135,0.845l-1.182,8.09c-0.08,0.547,0.299,1.054,0.845,1.134
		l1.979,0.289c0.546,0.08,1.054-0.299,1.134-0.845l1.182-8.088C20.378,14.866,20,14.359,19.454,14.279z"/>
</g>
</svg>
