<?xml version="1.0" encoding="utf-8"?>
<!-- Generator: Adobe Illustrator 18.0.0, SVG Export Plug-In . SVG Version: 6.00 Build 0)  -->
<!DOCTYPE svg PUBLIC "-//W3C//DTD SVG 1.1//EN" "http://www.w3.org/Graphics/SVG/1.1/DTD/svg11.dtd">
<svg version="1.1" id="Layer_1" xmlns="http://www.w3.org/2000/svg" xmlns:xlink="http://www.w3.org/1999/xlink" x="0px" y="0px"
	 width="32px" height="32px" viewBox="0 0 32 32" enable-background="new 0 0 32 32" xml:space="preserve">
<path d="M29.759,24.66L28,21.959V7c0-1.105-0.895-2-2-2H6C4.895,5,4,5.895,4,7v14.959L2.241,24.66
	c-0.454,0.706-0.248,1.647,0.458,2.1c0.234,0.15,0.493,0.222,0.753,0.233L3.453,27h0.09c0.006,0,0.013,0,0.019,0h24.877
	c0.006,0,0.012,0,0.019,0h0.074v-0.005c0.265-0.009,0.531-0.081,0.77-0.234C30.007,26.307,30.212,25.366,29.759,24.66z M18.5,25.5
	h-5c-0.828,0-1.5-0.672-1.5-1.5h8C20,24.828,19.328,25.5,18.5,25.5z M25,20.031H7V8h18V20.031z"/>
</svg>
