<?xml version="1.0" encoding="utf-8"?>
<!-- Generator: Adobe Illustrator 18.1.1, SVG Export Plug-In . SVG Version: 6.00 Build 0)  -->
<!DOCTYPE svg PUBLIC "-//W3C//DTD SVG 1.1//EN" "http://www.w3.org/Graphics/SVG/1.1/DTD/svg11.dtd">
<svg version="1.1" id="Icons" xmlns="http://www.w3.org/2000/svg" xmlns:xlink="http://www.w3.org/1999/xlink" x="0px" y="0px"
	 width="32px" height="32px" viewBox="0 0 32 32" enable-background="new 0 0 32 32" xml:space="preserve">
<g>
	<ellipse cx="16.373" cy="29.861" rx="10.155" ry="2"/>
	<circle cx="16.375" cy="2.944" r="2.944"/>
	<path d="M6.85,17.086c-0.115,0.266-0.196,0.551-0.196,0.859c0,0.943,0.595,1.742,1.427,2.057L8.076,20.01l3.674,1.59l-1.496,0.713
		l-0.01,0.006c-0.543,0.312-0.914,0.893-0.914,1.564c0,1.004,0.814,1.816,1.816,1.816c0.221,0,0.434-0.047,0.631-0.121l4.596-1.977
		h0.004l4.596,1.977c0.197,0.074,0.41,0.121,0.631,0.121c1.002,0,1.816-0.812,1.816-1.816c0-0.672-0.371-1.252-0.914-1.564
		l-0.01-0.006L21,21.6l3.674-1.59l-0.004-0.008c0.832-0.314,1.427-1.113,1.427-2.057c0-0.309-0.081-0.594-0.196-0.859
		c0.501-0.242,0.85-0.752,0.85-1.346c0-0.439-0.191-0.83-0.492-1.106l-1.019-0.969c-0.843-0.799-1.57-1.721-2.15-2.736l-0.076-0.141
		c-1.296-2.33-3.782-3.906-6.637-3.906s-5.341,1.576-6.637,3.906L9.662,10.93c-0.58,1.016-1.308,1.938-2.15,2.736l-1.02,0.969
		C6.191,14.91,6,15.301,6,15.74C6,16.334,6.349,16.844,6.85,17.086z M20.375,11.873c0.844,1.516,2.004,2.84,3.377,3.883
		c-0.124,0.221,0-0.004,0,0c-0.342,0.023-0.664,0.119-0.946,0.279l-0.001-0.004l-2.43,1.24V11.873z M12.375,11.873v5.398l-2.43-1.24
		l-0.001,0.004c-0.282-0.16-0.604-0.256-0.946-0.279c0-0.004,0.124,0.221,0,0C10.371,14.713,11.531,13.389,12.375,11.873z"/>
</g>
</svg>
