<?xml version="1.0" encoding="utf-8"?>
<!-- Generator: Adobe Illustrator 18.1.1, SVG Export Plug-In . SVG Version: 6.00 Build 0)  -->
<!DOCTYPE svg PUBLIC "-//W3C//DTD SVG 1.1//EN" "http://www.w3.org/Graphics/SVG/1.1/DTD/svg11.dtd">
<svg version="1.1" xmlns="http://www.w3.org/2000/svg" xmlns:xlink="http://www.w3.org/1999/xlink" x="0px" y="0px" width="32px"
	 height="32px" viewBox="0 0 32 32" enable-background="new 0 0 32 32" xml:space="preserve">
<g id="Guides__x26__Labels">
</g>
<g id="Icons_-_V2">
	<g>
		<rect x="12" y="25" width="8" height="2"/>
		<rect x="14" y="28" width="4" height="2"/>
		<path d="M16.021,3.006c-4.971,0-9,4.029-9,9c0,2.484,1.007,4.734,2.636,6.363l1.261,1.279c0.696,0.723,1.124,1.707,1.124,2.791V24
			H20v-1.561c0-1.084,0.428-2.068,1.124-2.791l1.261-1.279c1.629-1.629,2.636-3.879,2.636-6.363
			C25.021,7.035,20.991,3.006,16.021,3.006z M20.248,16.264l-1.284,1.303c-0.928,0.963-1.55,2.15-1.816,3.434h-2.254
			c-0.268-1.285-0.894-2.477-1.84-3.457l-1.276-1.295c-1.133-1.133-1.757-2.639-1.757-4.242c0-3.309,2.691-6,6-6
			c3.309,0,6,2.691,6,6C22.021,13.609,21.396,15.115,20.248,16.264z"/>
	</g>
</g>
</svg>
