<?xml version="1.0" encoding="utf-8"?>
<!-- Generator: Adobe Illustrator 18.1.1, SVG Export Plug-In . SVG Version: 6.00 Build 0)  -->
<!DOCTYPE svg PUBLIC "-//W3C//DTD SVG 1.1//EN" "http://www.w3.org/Graphics/SVG/1.1/DTD/svg11.dtd">
<svg version="1.1" xmlns="http://www.w3.org/2000/svg" xmlns:xlink="http://www.w3.org/1999/xlink" x="0px" y="0px" width="32px"
	 height="32px" viewBox="0 0 32 32" enable-background="new 0 0 32 32" xml:space="preserve">
<g id="Guides__x26__Labels">
</g>
<g id="Icons_-_V2">
	<g>
		<rect x="12" y="25" width="8" height="2"/>
		<rect x="14.001" y="28" width="3.999" height="2"/>
		<path d="M10.22,14.312c-0.236-0.682-0.369-1.391-0.369-2.086c0-3.398,2.76-6.186,6.158-6.223c0.744,0.008,1.455,0.154,2.114,0.404
			l2.254-2.254c-1.298-0.717-2.781-1.139-4.368-1.15c-5.064,0.037-9.158,4.15-9.158,9.223c0,1.536,0.414,3.038,1.093,4.361
			L10.22,14.312z"/>
		<path d="M28.926,4.09l-2.121-2.121L4.09,24.684l2.121,2.121l5.438-5.438c0.212,0.432,0.352,0.894,0.352,1.398V24H20v-1.164
			c0-1.606,1.223-2.768,2.205-3.686c1.748-1.682,2.963-4.262,2.963-6.924c0-1.291-0.268-2.518-0.746-3.633L28.926,4.09z
			 M20.154,16.959c-0.971,0.91-2.682,2.51-3.072,5.054h-2.153c-0.164-1.119-0.596-2.048-1.103-2.823l8.215-8.215
			c0.083,0.405,0.127,0.823,0.127,1.252C22.168,13.951,21.385,15.775,20.154,16.959z"/>
	</g>
</g>
</svg>
