<?xml version="1.0" encoding="utf-8"?>
<!-- Generator: Adobe Illustrator 19.0.0, SVG Export Plug-In . SVG Version: 6.00 Build 0)  -->
<svg version="1.1" id="Layer_1" xmlns="http://www.w3.org/2000/svg" xmlns:xlink="http://www.w3.org/1999/xlink" x="0px" y="0px"
	 width="32px" height="32px" viewBox="0 0 32 32" style="enable-background:new 0 0 32 32;" xml:space="preserve">
<g id="XMLID_806_">
	<path id="XMLID_807_" d="M9,11.03c0-1.103,0.897-2,2-2c0.737,0,1.375,0.405,1.722,1h2.137c-0.446-1.722-1.997-3-3.859-3
		c-2.209,0-4,1.791-4,4c0,1.862,1.278,3.412,3,3.859v-2.137C9.405,12.405,9,11.767,9,11.03z"/>
	<path id="XMLID_808_" d="M19.655,9.436l4.375-4.375L22.97,4l-4.625,4.625l-0.802,2.405H11V29h10V11.03h-1.876L19.655,9.436z
		 M13,21.03V13h3.876l-2.667,8.03H13z M19,21.03h-3.209l2.666-8H19V21.03z"/>
</g>
</svg>
