<?xml version="1.0" encoding="utf-8"?>
<!-- Generator: Adobe Illustrator 18.1.1, SVG Export Plug-In . SVG Version: 6.00 Build 0)  -->
<!DOCTYPE svg PUBLIC "-//W3C//DTD SVG 1.1//EN" "http://www.w3.org/Graphics/SVG/1.1/DTD/svg11.dtd">
<svg version="1.1" xmlns="http://www.w3.org/2000/svg" xmlns:xlink="http://www.w3.org/1999/xlink" x="0px" y="0px" width="32px"
	 height="32px" viewBox="0 0 32 32" enable-background="new 0 0 32 32" xml:space="preserve">
<g id="Icons_-_V2">
	<g>
		<path d="M18.475,2.475c-1.367-1.367-3.583-1.367-4.95,0L9,7h14L18.475,2.475z"/>
		<path d="M29.268,13.268L28,12v4l-4.293,4.293l2.828,2.828l-1.414,1.414L21.586,21H10.414l-3.536,3.536l-1.414-1.414l2.828-2.828
			L4,16v-4l-1.268,1.268C2.263,13.737,2,14.372,2,15.035V27c0,1.105,0.895,2,2,2h24c1.105,0,2-0.895,2-2V15.036
			C30,14.373,29.737,13.737,29.268,13.268z"/>
		<path d="M16.354,10.161L16,10.515l-0.354-0.354c-1.172-1.172-3.071-1.172-4.243,0c-1.172,1.172-1.172,3.071,0,4.243L16,19
			l4.596-4.596c1.172-1.172,1.172-3.071,0-4.243C19.425,8.99,17.525,8.99,16.354,10.161z"/>
	</g>
</g>
<g id="Icons">
</g>
</svg>
