<?xml version="1.0" encoding="utf-8"?>
<!-- Generator: Adobe Illustrator 20.1.0, SVG Export Plug-In . SVG Version: 6.00 Build 0)  -->
<svg version="1.1" id="Layer_1" xmlns="http://www.w3.org/2000/svg" xmlns:xlink="http://www.w3.org/1999/xlink" x="0px" y="0px"
	 viewBox="0 0 32 32" style="enable-background:new 0 0 32 32;" xml:space="preserve">
<style type="text/css">
	.st0{fill:#020202;}
</style>
<g>
	<path class="st0" d="M29.9,20c-0.9-0.6-1.9-0.4-2.8,0.1s-6.2,5-6.2,5l-5.2,0c-0.2,0-0.5-0.3-0.5-0.5c0-0.3,0.2-0.5,0.5-0.5h3.2
		c1.1,0,2.3-0.7,2.3-2c0-1.4-1.2-2-2.3-2c-2.1,0-3.5,0.1-4.4-0.4c-0.8-0.4-1.7-0.6-2.7-0.6c-1.7,0-3.1,0.7-4.1,1.7l-5.4,5.3l6,6l2-2
		h10.1c1,0,2-0.4,2.7-1l6.9-7.7C30.3,21,30.3,20.3,29.9,20z"/>
	<path class="st0" d="M12.2,13.9c0,0.2,0.1,0.3,0.3,0.4c0.1,0.1,2.2,1.2,4.4,1.2c-0.6,0.9-0.9,1.9-0.9,2c0,0.2,0,0.4,0.1,0.5
		c0.1,0.1,0.3,0.2,0.5,0.1c0.1,0,1.5-0.4,2.6-1.4v-5.1c0-0.3,0.2-0.5,0.5-0.5c0.1,0,0.2,0,0.2,0.1c-0.1,0.1-0.2,0.2-0.2,0.4v6.5
		c0,0.2,0.1,0.3,0.2,0.4c0,0,0,0,0,0c0,0,0,0,0,0c0,0,0.1,0,0.1,0c0,0,0.1,0,0.2,0c0,0,0,0,0,0c0,0,0,0,0,0c0.3,0,0.5-0.2,0.5-0.5
		v-1.9c0.1,0.1,0.2,0.2,0.3,0.3c1.1,1.1,2.7,1.6,2.8,1.6c0,0,0.1,0,0.1,0c0.1,0,0.3-0.1,0.4-0.1c0.1-0.1,0.2-0.3,0.1-0.5
		c0-0.1-0.3-1-0.9-2c2.1,0,4.3-1.2,4.4-1.2c0.2-0.1,0.3-0.3,0.3-0.4c0-0.2-0.1-0.3-0.3-0.4c-0.1,0-1.5-0.8-3.2-1.1
		c0.1-0.1,0.3-0.3,0.4-0.4c2.1-2.1,3-5.3,3-5.4c0-0.2,0-0.4-0.1-0.5c-0.1-0.1-0.3-0.2-0.5-0.1c-0.1,0-2.8,0.8-4.9,2.5
		c0-0.2,0-0.4,0-0.5c0-3.6-2-7.1-2.1-7.2c-0.2-0.3-0.7-0.3-0.9,0c-0.1,0.1-2.1,3.7-2.1,7.2c0,0.2,0,0.4,0,0.5
		c-2.1-1.7-4.8-2.5-4.9-2.5c-0.2,0-0.4,0-0.5,0.1c-0.1,0.1-0.2,0.3-0.1,0.5c0,0.1,0.9,3.3,3,5.4c0.1,0.1,0.3,0.3,0.4,0.4
		c-1.7,0.3-3.1,1.1-3.2,1.1C12.3,13.5,12.2,13.7,12.2,13.9z"/>
</g>
</svg>
