<?xml version="1.0" encoding="utf-8"?>
<!-- Generator: Adobe Illustrator 18.0.0, SVG Export Plug-In . SVG Version: 6.00 Build 0)  -->
<!DOCTYPE svg PUBLIC "-//W3C//DTD SVG 1.1//EN" "http://www.w3.org/Graphics/SVG/1.1/DTD/svg11.dtd">
<svg version="1.1" id="Layer_1" xmlns="http://www.w3.org/2000/svg" xmlns:xlink="http://www.w3.org/1999/xlink" x="0px" y="0px"
	 width="32px" height="32px" viewBox="0 0 32 32" enable-background="new 0 0 32 32" xml:space="preserve">
<g>
	<rect x="13" y="5" width="4" height="3"/>
	<polygon points="5,5 5,10 8,10 8,8 10,8 10,5 	"/>
	<polygon points="20,5 20,8 22,8 22,10 25,10 25,5 	"/>
	<rect x="22" y="13" width="3" height="4"/>
	<polygon points="25,22 25,20 22,20 22,22 20,22 20,25 22,25 22,27 25,27 25,25 27,25 27,22 	"/>
	<rect x="13" y="22" width="4" height="3"/>
	<polygon points="8,22 8,20 5,20 5,25 10,25 10,22 	"/>
	<rect x="5" y="13" width="3" height="4"/>
</g>
</svg>
