<?xml version="1.0" encoding="utf-8"?>
<!-- Generator: Adobe Illustrator 18.1.1, SVG Export Plug-In . SVG Version: 6.00 Build 0)  -->
<!DOCTYPE svg PUBLIC "-//W3C//DTD SVG 1.1//EN" "http://www.w3.org/Graphics/SVG/1.1/DTD/svg11.dtd">
<svg version="1.1" id="Icons" xmlns="http://www.w3.org/2000/svg" xmlns:xlink="http://www.w3.org/1999/xlink" x="0px" y="0px"
	 width="32px" height="32px" viewBox="0 0 32 32" enable-background="new 0 0 32 32" xml:space="preserve">
<path d="M27,0v7.123C25.729,5.816,23.952,5,21.984,5h-14c-3.865,0-7,3.134-7,7c0,3.865,3.135,7,7,7c2.591,0,4.848-1.412,6.058-3.504
	c0.214-0.287,0.557-0.471,0.942-0.471c0.372,0,0.703,0.174,0.918,0.446C17.108,17.582,19.38,19,21.984,19
	c1.968,0,3.744-0.815,5.016-2.123V23c0,2.762-2.238,5-5,5c-2.419,0-4.435-1.718-4.899-4h1.387l0,0c1.104-0.002,1.997-0.896,1.997-2
	s-0.894-1.998-1.997-2l0,0h-6.972v0.003c-0.011,0-0.021-0.003-0.031-0.003c-1.104,0-2,0.896-2,2s0.896,2,2,2
	c0.011,0,0.021-0.003,0.031-0.003V24h1.543c0.498,4.5,4.309,8,8.941,8c4.971,0,9-4.029,9-9V0H27z M21.984,17
	c-1.792,0-3.457-0.967-4.346-2.521l-0.073-0.13l-0.093-0.115c-0.604-0.769-1.512-1.209-2.488-1.209c-1,0-1.953,0.478-2.547,1.277
	l-0.069,0.093l-0.058,0.099C11.417,16.039,9.76,17,7.984,17c-2.757,0-5-2.244-5-5c0-2.758,2.243-5,5-5h14c2.757,0,5,2.242,5,5
	C26.984,14.756,24.741,17,21.984,17z"/>
</svg>
