<?xml version="1.0" encoding="utf-8"?>
<!-- Generator: Adobe Illustrator 18.0.0, SVG Export Plug-In . SVG Version: 6.00 Build 0)  -->
<!DOCTYPE svg PUBLIC "-//W3C//DTD SVG 1.1//EN" "http://www.w3.org/Graphics/SVG/1.1/DTD/svg11.dtd">
<svg version="1.1" id="Layer_1" xmlns="http://www.w3.org/2000/svg" xmlns:xlink="http://www.w3.org/1999/xlink" x="0px" y="0px"
	 width="32px" height="32px" viewBox="0 0 32 32" enable-background="new 0 0 32 32" xml:space="preserve">
<g>
	<path d="M3,14v2c0,1.1,0.9,2,2,2h1v-6H5C3.894,12,3,12.894,3,14z"/>
	<path d="M27.001,5v1c-2.214,2.361-4.238,4.065-7.389,4.829C19.248,10.33,18.662,10,18,10H9c-1.1,0-2,0.9-2,2v6c0,1.1,0.9,2,2,2h1v5
		c0,1.105,0.895,2,2,2h2c1.105,0,2-0.895,2-2v-5h2c0.677,0,1.276-0.342,1.638-0.861c3.136,0.772,5.155,2.507,7.363,4.861v1H29V5
		L27.001,5z M18,14H9v-2h9V14z"/>
</g>
</svg>
