<?xml version="1.0" encoding="utf-8"?>
<!-- Generator: Adobe Illustrator 18.1.1, SVG Export Plug-In . SVG Version: 6.00 Build 0)  -->
<!DOCTYPE svg PUBLIC "-//W3C//DTD SVG 1.1//EN" "http://www.w3.org/Graphics/SVG/1.1/DTD/svg11.dtd">
<svg version="1.1" xmlns="http://www.w3.org/2000/svg" xmlns:xlink="http://www.w3.org/1999/xlink" x="0px" y="0px" width="32px"
	 height="32px" viewBox="0 0 32 32" enable-background="new 0 0 32 32" xml:space="preserve">
<g id="Old_Versions" display="none">
</g>
<g id="Layer_1">
	<g>
		<path d="M2,23c0,4.971,4.029,9,9,9s9-4.029,9-9s-4.029-9-9-9S2,18.029,2,23z M4,23c0-3.866,3.134-7,7-7v14C7.134,30,4,26.866,4,23
			z"/>
		<polygon points="30,13 26.944,13 26,10.094 25.056,13 22,13 24.472,14.796 23.528,17.702 26,15.906 28.472,17.702 27.528,14.796 
					"/>
		<polygon points="14.764,10.351 16,9.453 17.236,10.351 16.764,8.898 18,8 16.472,8 16,6.547 15.528,8 14,8 15.236,8.898 		"/>
	</g>
</g>
<g id="Layer_2">
</g>
<g id="Layer_3">
</g>
</svg>
