<?xml version="1.0" encoding="utf-8"?>
<!-- Generator: Adobe Illustrator 18.1.1, SVG Export Plug-In . SVG Version: 6.00 Build 0)  -->
<!DOCTYPE svg PUBLIC "-//W3C//DTD SVG 1.1//EN" "http://www.w3.org/Graphics/SVG/1.1/DTD/svg11.dtd">
<svg version="1.1" xmlns="http://www.w3.org/2000/svg" xmlns:xlink="http://www.w3.org/1999/xlink" x="0px" y="0px" width="32px"
	 height="32px" viewBox="0 0 32 32" enable-background="new 0 0 32 32" xml:space="preserve">
<g id="Old_Versions" display="none">
</g>
<g id="Layer_1">
	<path d="M16,7c-4.971,0-9,4.029-9,9s4.029,9,9,9c4.971,0,9-4.029,9-9S20.971,7,16,7z M9,16c0-3.867,3.133-7,7-7
		c0.336,0,0.664,0.031,0.988,0.078C14.603,10.463,13,13.043,13,16c0,2.955,1.603,5.537,3.986,6.922C16.664,22.967,16.336,23,16,23
		C12.133,23,9,19.865,9,16z"/>
</g>
<g id="Layer_2">
</g>
<g id="Layer_3">
</g>
</svg>
