<?xml version="1.0" encoding="utf-8"?>
<!-- Generator: Adobe Illustrator 18.0.0, SVG Export Plug-In . SVG Version: 6.00 Build 0)  -->
<!DOCTYPE svg PUBLIC "-//W3C//DTD SVG 1.1//EN" "http://www.w3.org/Graphics/SVG/1.1/DTD/svg11.dtd">
<svg version="1.1" id="Layer_1" xmlns="http://www.w3.org/2000/svg" xmlns:xlink="http://www.w3.org/1999/xlink" x="0px" y="0px"
	 width="32px" height="32px" viewBox="0 0 32 32" enable-background="new 0 0 32 32" xml:space="preserve">
<path d="M24,18.25V16c0-1.1-0.9-2-2-2h-0.686C22.932,12.925,24,11.088,24,9c0-3.314-2.686-6-6-6c-2.088,0-3.925,1.068-5,2.686
	C11.925,4.068,10.088,3,8,3C4.686,3,2,5.686,2,9c0,2.088,1.068,3.925,2.686,5H4c-1.1,0-2,0.9-2,2v11c0,1.1,0.9,2,2,2h18
	c1.1,0,2-0.9,2-2v-2.25L30,27V16L24,18.25z M8,11c-1.105,0-2-0.895-2-2c0-1.105,0.895-2,2-2s2,0.895,2,2C10,10.105,9.105,11,8,11z
	 M11.314,14c0.668-0.444,1.242-1.018,1.686-1.686c0.444,0.668,1.018,1.242,1.686,1.686H11.314z M18,11c-1.105,0-2-0.895-2-2
	c0-1.105,0.895-2,2-2c1.105,0,2,0.895,2,2C20,10.105,19.105,11,18,11z"/>
</svg>
