<?xml version="1.0" encoding="utf-8"?>
<!-- Generator: Adobe Illustrator 18.0.0, SVG Export Plug-In . SVG Version: 6.00 Build 0)  -->
<!DOCTYPE svg PUBLIC "-//W3C//DTD SVG 1.1//EN" "http://www.w3.org/Graphics/SVG/1.1/DTD/svg11.dtd">
<svg version="1.1" id="Layer_1" xmlns="http://www.w3.org/2000/svg" xmlns:xlink="http://www.w3.org/1999/xlink" x="0px" y="0px"
	 width="32px" height="32px" viewBox="0 0 32 32" enable-background="new 0 0 32 32" xml:space="preserve">
<g>
	<rect x="5" y="20" width="6" height="2"/>
	<rect x="5" y="24" width="6" height="2"/>
	<rect x="13" y="20" width="6" height="2"/>
	<rect x="13" y="24" width="6" height="2"/>
	<rect x="13" y="28" width="6" height="2"/>
	<rect x="21" y="20" width="6" height="2"/>
	<rect x="21" y="24" width="6" height="2"/>
	<path d="M25,8c-0.4,0-0.8,0.1-1.2,0.2C23,4.6,19.8,2,16,2c-3,0-5.6,1.7-7,4.1C8.7,6,8.3,6,8,6c-3.3,0-6,2.7-6,6s2.7,6,6,6h17
		c2.8,0,5-2.2,5-5S27.8,8,25,8z M18.7,12.1c-0.1,0.1-0.2,0.1-0.2,0c0-0.1,0-0.2,0-0.4v-0.6c0-1.5-0.7-2.5-1.5-2.5v4.8
		c0,1.4-1.1,2.5-2.5,2.5S12,14.9,12,13.5c0-1.4,1.1-2.5,2.5-2.5c0.2,0,0.3,0,0.5,0.1V5c0-0.6,0.4-1,1-1s1,0.4,1,1
		c0,0.2,0.1,0.5,0.5,0.7c1,0.6,2,1.1,2,3C19.5,10.1,19,11.4,18.7,12.1z"/>
</g>
</svg>
