<?xml version="1.0" encoding="utf-8"?>
<!-- Generator: Adobe Illustrator 18.0.0, SVG Export Plug-In . SVG Version: 6.00 Build 0)  -->
<!DOCTYPE svg PUBLIC "-//W3C//DTD SVG 1.1//EN" "http://www.w3.org/Graphics/SVG/1.1/DTD/svg11.dtd">
<svg version="1.1" id="Layer_1" xmlns="http://www.w3.org/2000/svg" xmlns:xlink="http://www.w3.org/1999/xlink" x="0px" y="0px"
	 width="32px" height="32px" viewBox="0 0 32 32" enable-background="new 0 0 32 32" xml:space="preserve">
<g>
	<path d="M9.074,16.667c-0.709-1.135-1.11-2.466-1.071-3.868c0.101-3.647,3.15-6.696,6.797-6.797C14.867,6.001,14.933,6,15,6
		c1.352,0,2.608,0.396,3.678,1.063l2.156-2.156C19.193,3.715,17.185,3,15,3c-0.094,0-0.189,0.001-0.283,0.004
		c-5.218,0.144-9.568,4.494-9.713,9.712c-0.063,2.293,0.66,4.405,1.901,6.12L9.074,16.667z"/>
	<path d="M22,23l0.003,1.927c0,1.077-0.945,2.043-2.06,2.068c-0.901,0-1.76-0.714-1.956-1.626l-0.01-0.046l-0.011-0.046
		c-0.542-2.184-1.981-4.02-3.93-5.085l1.45-1.45c0.565,0.364,1.094,0.785,1.579,1.255l1.216-1.216
		c-0.458-0.501-0.974-0.957-1.481-1.353l5.163-5.163C21.987,12.5,22,12.74,22,12.983V15h3v-2c0-1.132-0.197-2.216-0.544-3.23
		L27.226,7l-2.121-2.121l-19,19L8.226,26l3.542-3.542c0.077,0.026,0.151,0.058,0.229,0.083c1.508,0.58,2.662,1.868,3.057,3.458
		c0.483,2.249,2.54,3.996,4.889,3.996c0.035,0,0.07,0,0.106-0.001c2.707-0.061,4.954-2.344,4.954-5.066L25,23H22z"/>
	<path d="M12.001,12.91c0.028-1.014,0.624-1.93,1.456-2.453l-1.433-1.433c-1.759,1.331-2.663,3.756-1.492,6.185l1.553-1.553
		C12.029,13.414,11.994,13.166,12.001,12.91z"/>
</g>
</svg>
