<?xml version="1.0" encoding="utf-8"?>
<!-- Generator: Adobe Illustrator 18.0.0, SVG Export Plug-In . SVG Version: 6.00 Build 0)  -->
<!DOCTYPE svg PUBLIC "-//W3C//DTD SVG 1.1//EN" "http://www.w3.org/Graphics/SVG/1.1/DTD/svg11.dtd">
<svg version="1.1" id="Layer_1" xmlns="http://www.w3.org/2000/svg" xmlns:xlink="http://www.w3.org/1999/xlink" x="0px" y="0px"
	 width="32px" height="32px" viewBox="0 0 32 32" enable-background="new 0 0 32 32" xml:space="preserve">
<g>
	<path d="M10,5h11.637l2.577-2.577C23.876,2.162,23.458,2,23,2H9C7.9,2,7,2.9,7,4v15.637l3-3V5z"/>
	<path d="M29.561,5.561l-2.121-2.121l-24,24l2.121,2.121l1.451-1.451C7.07,29.158,7.938,30,9,30h14c1.1,0,2-0.9,2-2V10.121
		L29.561,5.561z M17,28h-2v-2h2V28z M22,24H11.121L22,13.121V24z"/>
</g>
</svg>
