<?xml version="1.0" encoding="utf-8"?>
<!-- Generator: Adobe Illustrator 18.1.1, SVG Export Plug-In . SVG Version: 6.00 Build 0)  -->
<!DOCTYPE svg PUBLIC "-//W3C//DTD SVG 1.1//EN" "http://www.w3.org/Graphics/SVG/1.1/DTD/svg11.dtd">
<svg version="1.1" xmlns="http://www.w3.org/2000/svg" xmlns:xlink="http://www.w3.org/1999/xlink" x="0px" y="0px" width="32px"
	 height="32px" viewBox="0 0 32 32" enable-background="new 0 0 32 32" xml:space="preserve">
<g id="Icons_-_V2">
	<g>
		<rect x="10" y="12" width="12" height="2"/>
		<rect x="10" y="16" width="12" height="2"/>
		<rect x="10" y="20" width="8" height="2"/>
		<path d="M25.019,4H22V2h-2v2h-3V2h-2v2h-3V2h-2v2H7.022C5.37,4,4,5.383,4,7.037v19.017C4,27.709,5.37,29,7.022,29h17.996
			C26.671,29,28,27.709,28,26.055V7.037C28,5.383,26.671,4,25.019,4z M25,20.041L19.04,26H7V7h3v2h2V7h3v2h2V7h3v2h2V7h3V20.041z"/>
	</g>
</g>
<g id="Icons">
</g>
</svg>
