<?xml version="1.0" encoding="utf-8"?>
<!-- Generator: Adobe Illustrator 18.1.1, SVG Export Plug-In . SVG Version: 6.00 Build 0)  -->
<!DOCTYPE svg PUBLIC "-//W3C//DTD SVG 1.1//EN" "http://www.w3.org/Graphics/SVG/1.1/DTD/svg11.dtd">
<svg version="1.1" id="Icons" xmlns="http://www.w3.org/2000/svg" xmlns:xlink="http://www.w3.org/1999/xlink" x="0px" y="0px"
	 width="32px" height="32px" viewBox="0 0 32 32" enable-background="new 0 0 32 32" xml:space="preserve">
<path d="M29,8h-2V4.304C27,4.145,26.875,4,26.719,4H2.287C2.129,4,2,4.145,2,4.304v8.422C2,12.884,2.129,13,2.287,13h24.432
	C26.875,13,27,12.884,27,12.726V10h2v5H16.025C14.92,15,14,15.901,14,17.005V19h-1v9h4v-9h-1v-2h13c1.105,0,2-0.89,2-1.995v-5
	C31,8.901,30.105,8,29,8z M25,8.005L4,8.007V6h21V8.005z"/>
</svg>
