<?xml version="1.0" encoding="utf-8"?>
<!-- Generator: Adobe Illustrator 18.1.1, SVG Export Plug-In . SVG Version: 6.00 Build 0)  -->
<!DOCTYPE svg PUBLIC "-//W3C//DTD SVG 1.1//EN" "http://www.w3.org/Graphics/SVG/1.1/DTD/svg11.dtd">
<svg version="1.1" id="Layer_1" xmlns="http://www.w3.org/2000/svg" xmlns:xlink="http://www.w3.org/1999/xlink" x="0px" y="0px"
	 width="32px" height="32px" viewBox="0 0 32 32" enable-background="new 0 0 32 32" xml:space="preserve">
<g>
	<path d="M12,3H9.019C7.367,3,6,4.348,6,6.002V8h3v2H3v2h3v7h3v2H3v2h3v3.021C6,27.676,7.367,29,9.019,29H12V3z"/>
	<path d="M27.016,3H13v26h14.015C28.668,29,30,27.676,30,26.021V6.002C30,4.348,28.668,3,27.016,3z M24,13.587
		c0,0.238-0.141,0.445-0.343,0.547c-0.455,0.246-0.976,0.387-1.531,0.387c-0.374,0-0.732-0.065-1.066-0.182
		c-0.055,0.56-0.085,1.142-0.087,1.742c0.002,0.599,0.032,1.181,0.087,1.742c0.334-0.118,0.693-0.18,1.066-0.18
		c0.554,0,1.076,0.141,1.531,0.385v0.002C23.859,18.132,24,18.335,24,18.575v4.586c0,0.257-0.159,0.476-0.383,0.564
		c-0.446,0.234-0.953,0.367-1.491,0.367c-1.213,0-2.269-0.672-2.822-1.664C18.432,21.08,18.009,18.645,18,16
		c0.009-2.644,0.432-4.919,1.304-6.267c0.552-0.992,1.609-1.664,2.822-1.664c0.538,0,1.045,0.133,1.491,0.367
		C23.841,8.523,24,8.742,24,9V13.587z"/>
</g>
</svg>
