<?xml version="1.0" encoding="utf-8"?>
<!-- Generator: Adobe Illustrator 18.0.0, SVG Export Plug-In . SVG Version: 6.00 Build 0)  -->
<!DOCTYPE svg PUBLIC "-//W3C//DTD SVG 1.1//EN" "http://www.w3.org/Graphics/SVG/1.1/DTD/svg11.dtd">
<svg version="1.1" id="Layer_1" xmlns="http://www.w3.org/2000/svg" xmlns:xlink="http://www.w3.org/1999/xlink" x="0px" y="0px"
	 width="32px" height="32px" viewBox="0 0 32 32" enable-background="new 0 0 32 32" xml:space="preserve">
<g>
	<path d="M27,27V15h-4v-3h5c1.1,0,2,0.9,2,2v14c0,1.1-0.9,2-2,2h-5v-3H27z"/>
	<path d="M18,2H4C2.9,2,2,2.9,2,4v24c0,1.1,0.9,2,2,2h14c1.1,0,2-0.9,2-2V4C20,2.9,19.1,2,18,2z M12,26v2h-2v-2H12z M17,5v19H5V5H17
		z"/>
	<polygon points="26,6 26,8 23,5.516 26,3 26,5 29,5 29,10 28,10 28,6 	"/>
</g>
</svg>
