<?xml version="1.0" encoding="utf-8"?>
<!-- Generator: Adobe Illustrator 18.0.0, SVG Export Plug-In . SVG Version: 6.00 Build 0)  -->
<!DOCTYPE svg PUBLIC "-//W3C//DTD SVG 1.1//EN" "http://www.w3.org/Graphics/SVG/1.1/DTD/svg11.dtd">
<svg version="1.1" id="Layer_1" xmlns="http://www.w3.org/2000/svg" xmlns:xlink="http://www.w3.org/1999/xlink" x="0px" y="0px"
	 width="32px" height="32px" viewBox="0 0 32 32" enable-background="new 0 0 32 32" xml:space="preserve">
<g>
	<rect x="3" y="7" width="2" height="2"/>
	<rect x="7" y="7" width="11" height="2"/>
	<rect x="3" y="11" width="2" height="2"/>
	<rect x="7" y="11" width="11" height="2"/>
	<rect x="3" y="15" width="2" height="2"/>
	<rect x="7" y="15" width="11" height="2"/>
	<path d="M25,8.953c-0.726-0.4-0.943-0.996-1-1.434V6.5C24,5.672,23.328,5,22.5,5S21,5.672,21,6.5v12.641
		C20.679,19.058,20.347,19,20,19c-2.209,0-4,1.791-4,4s1.791,4,4,4s4-1.791,4-4v-8.047c0.009,0,0.016,0.003,0.025,0.003L24,14.906
		c1.657,0,3,2,3,5v1.106c0.011,0.251,0.018,0.491,0.021,0.706c0.003,0.274,0.378,0.35,0.48,0.096C28.093,20.347,29,17.658,29,14.953
		C29,11.203,27.003,10.056,25,8.953z"/>
</g>
</svg>
