<?xml version="1.0" encoding="utf-8"?>
<!-- Generator: Adobe Illustrator 16.2.1, SVG Export Plug-In . SVG Version: 6.00 Build 0)  -->
<!DOCTYPE svg PUBLIC "-//W3C//DTD SVG 1.1//EN" "http://www.w3.org/Graphics/SVG/1.1/DTD/svg11.dtd">
<svg version="1.1" id="Layer_1" xmlns="http://www.w3.org/2000/svg" xmlns:xlink="http://www.w3.org/1999/xlink" x="0px" y="0px"
	 width="32px" height="32px" viewBox="0 0 32 32" enable-background="new 0 0 32 32" xml:space="preserve">
<g>
	<path d="M21.991,5.819c-0.241,0.104-0.502,0.166-0.781,0.128c-0.541-0.072-0.971-0.429-1.172-0.897
		c-0.468,0.211-1.029,0.182-1.479-0.135c-0.446-0.313-0.664-0.828-0.627-1.337c-0.512-0.028-0.996-0.312-1.25-0.801
		c-0.252-0.484-0.208-1.041,0.059-1.475C16.299,1.041,16,0.565,16,0.016C16,0.01,16.003,0.006,16.003,0C16.002,0,16.001,0,16,0
		c-3.313,0-6,2.687-6,6v14c0,0.553,0.447,1,1,1h10c0.553,0,1-0.447,1-1V6C22,5.939,21.992,5.88,21.991,5.819z M14,19h-1V7h1V19z
		 M19,19h-1V7h1V19z"/>
	<path d="M14.006,22.006v7.986c0,1.107,0.899,2.008,2.01,2.008c1.109,0,2.009-0.9,2.009-2.008v-7.986H14.006z"/>
</g>
</svg>
