<?xml version="1.0" encoding="utf-8"?>
<!-- Generator: Adobe Illustrator 18.0.0, SVG Export Plug-In . SVG Version: 6.00 Build 0)  -->
<!DOCTYPE svg PUBLIC "-//W3C//DTD SVG 1.1//EN" "http://www.w3.org/Graphics/SVG/1.1/DTD/svg11.dtd">
<svg version="1.1" id="Layer_1" xmlns="http://www.w3.org/2000/svg" xmlns:xlink="http://www.w3.org/1999/xlink" x="0px" y="0px"
	 width="32px" height="32px" viewBox="0 0 32 32" enable-background="new 0 0 32 32" xml:space="preserve">
<g>
	<path d="M28,11h-2c0-3.314-2.686-6-6-6s-6,2.686-6,6H4c-1.105,0-2,0.895-2,2v8c0,1.105,0.895,2,2,2h24c1.105,0,2-0.895,2-2v-8
		C30,11.895,29.105,11,28,11z M13,20H5v-2h8V20z M13,16H5v-2h8V16z M20,14c-1.657,0-3-1.343-3-3s1.343-3,3-3s3,1.343,3,3
		S21.657,14,20,14z"/>
	<rect x="4" y="24" width="6" height="3"/>
	<rect x="22" y="24" width="6" height="3"/>
</g>
</svg>
