<?xml version="1.0" encoding="utf-8"?>
<!-- Generator: Adobe Illustrator 18.1.1, SVG Export Plug-In . SVG Version: 6.00 Build 0)  -->
<!DOCTYPE svg PUBLIC "-//W3C//DTD SVG 1.1//EN" "http://www.w3.org/Graphics/SVG/1.1/DTD/svg11.dtd">
<svg version="1.1" xmlns="http://www.w3.org/2000/svg" xmlns:xlink="http://www.w3.org/1999/xlink" x="0px" y="0px" width="32px"
	 height="32px" viewBox="0 0 32 32" enable-background="new 0 0 32 32" xml:space="preserve">
<g id="Old_Versions" display="none">
</g>
<g id="Layer_1">
	<g>
		<path d="M26,8.005c-0.502,0-0.987,0.069-1.454,0.185C23.365,4.597,19.988,2,16,2S8.635,4.597,7.454,8.19
			C6.987,8.074,6.502,8.005,6,8.005c-3.314,0-6,2.686-6,6c0,3.314,2.686,6,6,6h2.322c0.251-0.688,0.659-1.317,1.234-2H6
			c-2.206,0-4-1.794-4-4c0-2.206,1.794-4,4-4c1.212,0,2.287,0.553,3.021,1.408C9.013,11.275,9,11.139,9,11c0-3.866,3.134-7,7-7
			s7,3.134,7,7c0,0.139-0.013,0.275-0.021,0.413c0.734-0.854,1.809-1.408,3.021-1.408c2.206,0,4,1.794,4,4c0,2.206-1.794,4-4,4
			h-7.558c0.576,0.684,0.985,1.313,1.236,2H26c3.314,0,6-2.686,6-6C32,10.691,29.314,8.005,26,8.005z"/>
		<path d="M23,22.177c-0.863,0.863-2,1.677-2,2.828c0,2.643,4,2.646,4,0C25,23.853,23.863,23.04,23,22.177z"/>
		<path d="M19,27.177c-0.863,0.863-2,1.677-2,2.828c0,2.643,4,2.646,4,0C21,28.853,19.863,28.04,19,27.177z"/>
		<path d="M14,16.348c-2.842,2.842-4,3.575-4,5.657c0,2.209,1.791,4,4,4s4-1.791,4-4C18,19.925,16.848,19.196,14,16.348z"/>
	</g>
</g>
<g id="Layer_2">
</g>
<g id="Layer_3">
</g>
</svg>
