<?xml version="1.0" encoding="utf-8"?>
<!-- Generator: Adobe Illustrator 18.0.0, SVG Export Plug-In . SVG Version: 6.00 Build 0)  -->
<!DOCTYPE svg PUBLIC "-//W3C//DTD SVG 1.1//EN" "http://www.w3.org/Graphics/SVG/1.1/DTD/svg11.dtd">
<svg version="1.1" id="Layer_1" xmlns="http://www.w3.org/2000/svg" xmlns:xlink="http://www.w3.org/1999/xlink" x="0px" y="0px"
	 width="32px" height="32px" viewBox="0 0 32 32" enable-background="new 0 0 32 32" xml:space="preserve">
<g>
	<path d="M11.1,9.1c1.4-1,3.1-1.6,4.9-1.6c4.7,0,8.5,3.8,8.5,8.5h3c0-6.3-5.2-11.5-11.5-11.5c-2.5,0-4.8,0.8-6.7,2.2l-2-2.9
		l-2.8,8.1h8.6L11.1,9.1z"/>
	<path d="M27.5,20.1h-8.6l2,2.8c-1.4,1-3.1,1.6-4.9,1.6c-4.7,0-8.5-3.8-8.5-8.5h-3c0,6.3,5.2,11.5,11.5,11.5c2.5,0,4.8-0.8,6.7-2.2
		l2,2.9L27.5,20.1z"/>
</g>
</svg>
