<?xml version="1.0" encoding="utf-8"?>
<!-- Generator: Adobe Illustrator 18.1.1, SVG Export Plug-In . SVG Version: 6.00 Build 0)  -->
<!DOCTYPE svg PUBLIC "-//W3C//DTD SVG 1.1//EN" "http://www.w3.org/Graphics/SVG/1.1/DTD/svg11.dtd">
<svg version="1.1" id="Layer_1" xmlns="http://www.w3.org/2000/svg" xmlns:xlink="http://www.w3.org/1999/xlink" x="0px" y="0px"
	 width="32px" height="32px" viewBox="0 0 32 32" enable-background="new 0 0 32 32" xml:space="preserve">
<g>
	<rect x="14" y="1" width="4" height="1"/>
	<rect x="9" y="30" width="6" height="1"/>
	<rect x="17" y="30" width="6" height="1"/>
	<path d="M22,3H10v7.969h12V3z M12.531,5.938c0-0.552,0.448-1,1-1s1,0.448,1,1c0,0.552-0.448,1-1,1S12.531,6.49,12.531,5.938z M18,9
		h-4V8h4V9z M18.531,6.938c-0.552,0-1-0.448-1-1c0-0.552,0.448-1,1-1s1,0.448,1,1C19.531,6.49,19.084,6.938,18.531,6.938z"/>
	<rect x="8" y="5" width="1" height="3"/>
	<rect x="23" y="5" width="1" height="3"/>
	<path d="M30,10v1.66l-1.5,0.75L27,11.66V10h-1v2.278l1.97,0.985c-0.154,2.066-1.865,3.706-3.97,3.706V13h-6v-1h-4v1H8v3.969
		c-2.105,0-3.817-1.64-3.97-3.706L6,12.278V10H5v1.66l-1.5,0.75L2,11.66V10H1v2.278l2.033,1.016C3.204,15.897,5.355,17.969,8,17.969
		v5h3v2.193c-1.147,0.422-1.969,1.514-1.969,2.807v1h6v-1c0-1.316-0.853-2.422-2.031-2.826v-2.174h6v2.184
		c-1.163,0.413-2,1.512-2,2.816v1h6v-1c0-1.304-0.837-2.403-2-2.816v-2.184h3v-5c2.645,0,4.796-2.072,4.967-4.674L31,12.278V10H30z
		 M13,19.469h-1c0-2.209,1.791-4,4-4c0.554,0,1.082,0.113,1.562,0.317l-0.795,0.795c-0.246-0.066-0.5-0.112-0.767-0.112
		C14.346,16.469,13,17.815,13,19.469z M19,19.469c0-0.647-0.213-1.24-0.565-1.728l-1.484,1.484C16.971,19.305,17,19.382,17,19.469
		c0,0.552-0.448,1-1,1s-1-0.448-1-1c0-0.552,0.448-1,1-1c0.086,0,0.164,0.029,0.244,0.049l2.903-2.903l0.707,0.707l-0.71,0.71
		C19.672,17.707,20,18.544,20,19.469H19z"/>
</g>
</svg>
