<?xml version="1.0" encoding="utf-8"?>
<!-- Generator: Adobe Illustrator 18.1.1, SVG Export Plug-In . SVG Version: 6.00 Build 0)  -->
<!DOCTYPE svg PUBLIC "-//W3C//DTD SVG 1.1//EN" "http://www.w3.org/Graphics/SVG/1.1/DTD/svg11.dtd">
<svg version="1.1" id="Layer_1" xmlns="http://www.w3.org/2000/svg" xmlns:xlink="http://www.w3.org/1999/xlink" x="0px" y="0px"
	 width="32px" height="32px" viewBox="0 0 32 32" enable-background="new 0 0 32 32" xml:space="preserve">
<g>
	<path d="M16,2c-2.39,1.396-4,3.981-4,6.948V19h8V8.948C20,5.981,18.39,3.396,16,2z M16,11c-0.828,0-1.5-0.672-1.5-1.5
		S15.172,8,16,8s1.5,0.672,1.5,1.5S16.828,11,16,11z"/>
	<polygon points="18,20 14,20 13,22 19,22 	"/>
	<polygon points="8,19 11,19 11,13 8,17 	"/>
	<polygon points="21,13 21,19 24,19 24,17 	"/>
	<path d="M16.969,25c-0.776,0.705-0.964,0.99-0.969,0.997c-0.005-0.007-0.193-0.292-0.969-0.997C13.969,24.035,14,23.003,14,23.003
		c-0.614,0.549-1,1.263-1,1.997c0,0.547,0,1.501,1,2.516C15.055,28.586,15.828,29,16,30c0.401-0.177,1.002-0.608,0.842-1.563
		c-0.186-1.109-0.061-1.388,0.473-1.388c0.153,0,0.584,0.177,0.351,0.776c-0.112,0.287,0.03,0.598,0.178,0.755
		c0.219-1.351,2.844-3.08,0.157-5.577C18,23.003,18.031,24.035,16.969,25z"/>
</g>
</svg>
