<?xml version="1.0" encoding="utf-8"?>
<!-- Generator: Adobe Illustrator 18.1.1, SVG Export Plug-In . SVG Version: 6.00 Build 0)  -->
<!DOCTYPE svg PUBLIC "-//W3C//DTD SVG 1.1//EN" "http://www.w3.org/Graphics/SVG/1.1/DTD/svg11.dtd">
<svg version="1.1" id="Layer_1" xmlns="http://www.w3.org/2000/svg" xmlns:xlink="http://www.w3.org/1999/xlink" x="0px" y="0px"
	 width="32px" height="32px" viewBox="0 0 32 32" enable-background="new 0 0 32 32" xml:space="preserve">
<g>
	<path d="M28.021,19.536L12.464,3.979c-0.39-0.39-1.024-0.39-1.414,0L3.979,11.05c-0.39,0.39-0.39,1.024,0,1.414l15.556,15.556
		c0.39,0.39,1.024,0.39,1.414,0l7.071-7.071C28.411,20.559,28.411,19.926,28.021,19.536z M24.485,21.657L10.343,7.515l1.414-1.414
		l14.142,14.142L24.485,21.657z"/>
	<path d="M5.393,1.151c-1.172-1.172-3.071-1.172-4.243,0s-1.172,3.071,0,4.243C1.777,6.019,2.609,6.3,3.429,6.257l1.258,1.258
		l2.828-2.828L6.257,3.429C6.3,2.609,6.019,1.777,5.393,1.151z"/>
	<path d="M30.849,26.607c-0.626-0.626-1.459-0.906-2.278-0.864l-1.258-1.258l-2.828,2.828l1.258,1.258
		c-0.043,0.819,0.238,1.652,0.864,2.278c1.172,1.172,3.071,1.172,4.243,0C32.021,29.678,32.021,27.778,30.849,26.607z"/>
</g>
</svg>
