<?xml version="1.0" encoding="utf-8"?>
<!-- Generator: Adobe Illustrator 18.1.1, SVG Export Plug-In . SVG Version: 6.00 Build 0)  -->
<!DOCTYPE svg PUBLIC "-//W3C//DTD SVG 1.1//EN" "http://www.w3.org/Graphics/SVG/1.1/DTD/svg11.dtd">
<svg version="1.1" id="Layer_1" xmlns="http://www.w3.org/2000/svg" xmlns:xlink="http://www.w3.org/1999/xlink" x="0px" y="0px"
	 width="32px" height="32px" viewBox="0 0 32 32" enable-background="new 0 0 32 32" xml:space="preserve">
<g>
	<path d="M16.012,7.419c0.642-1.08,1.561-1.975,2.668-2.576C18.072,3.661,17.156,2.665,16.008,2
		c-1.148,0.665-2.065,1.661-2.672,2.843C14.444,5.445,15.366,6.34,16.012,7.419z"/>
	<path d="M15.486,14.978c0.283,0.024,0.522-0.216,0.525-0.5c0.04-3.545,0.386-6.78-3.084-8.717
		c-0.744-0.415-1.586-0.661-2.394-0.735c-0.285-0.026-0.525,0.216-0.525,0.502V9C10.008,12.138,12.417,14.713,15.486,14.978z"/>
	<path d="M16.902,7.86c-0.224,0.364-0.288,0.807-0.166,1.216c0.345,1.158,0.282,2.136,0.273,5.201
		c-0.001,0.341,0.33,0.577,0.658,0.483c2.506-0.72,4.341-3.023,4.341-5.76V5.525c0-0.286-0.24-0.527-0.524-0.501
		C19.633,5.187,17.914,6.211,16.902,7.86z"/>
	<path d="M10.307,15.063c0,0-1.912-0.41-4.093,1.361C4.621,17.718,4.023,17.993,4.008,18c0.012,0.012,0.476,0.479,1.512,2.25
		c1.42,2.424,3.354,2.712,3.354,2.712l0,0c1.438,0.261,2.827-0.284,3.721-1.311c0.624-0.716,0.433-1.8-0.374-2.302
		C10.849,18.496,9.232,18,7.499,18c1.817-0.409,3.63-0.234,5.246,0.399c0.395,0.155,0.783-0.224,0.652-0.628
		C12.957,16.414,11.81,15.336,10.307,15.063z"/>
	<path d="M25.802,16.425c-2.18-1.771-4.093-1.361-4.093-1.361c-1.433,0.26-2.536,1.253-3.017,2.521
		c-0.143,0.377,0.238,0.749,0.622,0.626c1.471-0.471,3.08-0.574,4.693-0.21c-2.067,0-3.967,0.707-5.488,1.883
		c-0.57,0.44-1.075,0.94-1.512,1.483V18c0-0.552-0.448-1-1-1s-1,0.448-1,1v10l2,2v-3c0-2.121,0.952-4.021,2.447-5.305
		c0.9,0.995,2.27,1.524,3.687,1.267l0,0c0,0,1.935-0.288,3.354-2.712c1.037-1.77,1.501-2.238,1.512-2.25
		C27.993,17.993,27.394,17.718,25.802,16.425z"/>
</g>
</svg>
