<?xml version="1.0" encoding="utf-8"?>
<!-- Generator: Adobe Illustrator 18.1.1, SVG Export Plug-In . SVG Version: 6.00 Build 0)  -->
<!DOCTYPE svg PUBLIC "-//W3C//DTD SVG 1.1//EN" "http://www.w3.org/Graphics/SVG/1.1/DTD/svg11.dtd">
<svg version="1.1" id="Layer_1" xmlns="http://www.w3.org/2000/svg" xmlns:xlink="http://www.w3.org/1999/xlink" x="0px" y="0px"
	 width="32px" height="32px" viewBox="0 0 32 32" enable-background="new 0 0 32 32" xml:space="preserve">
<g>
	<path d="M27.414,7.414l-2.829-2.829C24.211,4.211,23.702,4,23.171,4H22v6H8V4H6C4.895,4,4,4.895,4,6v20c0,1.105,0.895,2,2,2h20
		c1.105,0,2-0.895,2-2V8.829C28,8.298,27.789,7.789,27.414,7.414z M24,24H8V13.934h16V24z"/>
	<rect x="17" y="4" width="3" height="4"/>
	<rect x="10" y="16" width="12" height="2"/>
	<rect x="10" y="20" width="12" height="2"/>
</g>
</svg>
