<?xml version="1.0" encoding="utf-8"?>
<!-- Generator: Adobe Illustrator 18.1.1, SVG Export Plug-In . SVG Version: 6.00 Build 0)  -->
<!DOCTYPE svg PUBLIC "-//W3C//DTD SVG 1.1//EN" "http://www.w3.org/Graphics/SVG/1.1/DTD/svg11.dtd">
<svg version="1.1" id="Icons" xmlns="http://www.w3.org/2000/svg" xmlns:xlink="http://www.w3.org/1999/xlink" x="0px" y="0px"
	 width="32px" height="32px" viewBox="0 0 32 32" enable-background="new 0 0 32 32" xml:space="preserve">
<path d="M23.158,10.431L25,7l-0.004,0.003h-7.871l-1.124-3.726l-5.567,5.568l-3.428-1.84v7.874l-3.733,1.115l5.577,5.576
	l-1.852,3.428h7.888l1.123,3.723l5.567-5.567L25,24.993V17.12l3.725-1.123L23.158,10.431z M16.089,19.467
	c-1.933,0-3.499-1.565-3.499-3.497c0-1.933,1.566-3.498,3.499-3.498c1.932,0,3.497,1.565,3.497,3.498
	C19.586,17.901,18.021,19.467,16.089,19.467z"/>
</svg>
