<?xml version="1.0" encoding="utf-8"?>
<!-- Generator: Adobe Illustrator 19.0.0, SVG Export Plug-In . SVG Version: 6.00 Build 0)  -->
<svg version="1.1" id="Layer_1" xmlns="http://www.w3.org/2000/svg" xmlns:xlink="http://www.w3.org/1999/xlink" x="0px" y="0px"
	 width="32px" height="32px" viewBox="0 0 32 32" style="enable-background:new 0 0 32 32;" xml:space="preserve">
<g id="XMLID_820_">
	<path id="XMLID_821_" d="M14.939,15.04c-0.558,0.558-0.558,1.462,0,2.02c0.558,0.558,1.462,0.558,2.02,0
		c0.12-0.12,0.202-0.262,0.271-0.407l1.729-3.612l-3.612,1.729C15.201,14.838,15.06,14.92,14.939,15.04z"/>
	<path id="XMLID_822_" d="M23,16c0-3.519-2.614-6.432-6-6.92V8.721l3.436-3.436c0.552-0.553,0.715-1.376,0.416-2.098
		C20.552,2.466,19.854,2,19.073,2h-6.146c-0.781,0-1.479,0.466-1.778,1.188c-0.299,0.722-0.136,1.545,0.417,2.099L15,8.721V9.08
		C11.614,9.568,9,12.481,9,16c0,3.737,2.947,6.791,6.637,6.982c0.329,0.52,0.764,0.962,1.309,1.255C17.596,24.587,18,25.263,18,26
		c0,1.103-0.897,2-2,2s-2-0.897-2-2c0-0.553-0.447-1-1-1s-1,0.447-1,1c0,2.206,1.794,4,4,4s4-1.794,4-4
		c0-1.363-0.696-2.614-1.828-3.349C20.971,21.734,23,19.101,23,16z M13.107,4h5.785L16,6.893L13.107,4z M16,21c-2.757,0-5-2.243-5-5
		s2.243-5,5-5s5,2.243,5,5S18.757,21,16,21z"/>
</g>
</svg>
