<?xml version="1.0" encoding="utf-8"?>
<!-- Generator: Adobe Illustrator 18.1.1, SVG Export Plug-In . SVG Version: 6.00 Build 0)  -->
<!DOCTYPE svg PUBLIC "-//W3C//DTD SVG 1.1//EN" "http://www.w3.org/Graphics/SVG/1.1/DTD/svg11.dtd">
<svg version="1.1" id="Layer_1" xmlns="http://www.w3.org/2000/svg" xmlns:xlink="http://www.w3.org/1999/xlink" x="0px" y="0px"
	 width="32px" height="32px" viewBox="0 0 32 32" enable-background="new 0 0 32 32" xml:space="preserve">
<g>
	<rect x="10" y="26" width="12" height="2.986"/>
	<path d="M26.163,7H27V5h-9V3h-4v2H5v2h0.837L2,15c0,2.761,2.239,5,5,5s5-2.239,5-5L8.163,7H14v15h-2v3h8v-3h-2V7h5.837L20,15
		c0,2.761,2.239,5,5,5s5-2.239,5-5L26.163,7z M10.892,15H3.108l3.837-8h0.11L10.892,15z M21.108,15l3.837-8h0.11l3.837,8H21.108z"/>
</g>
</svg>
