<?xml version="1.0" encoding="utf-8"?>
<!-- Generator: Adobe Illustrator 19.0.0, SVG Export Plug-In . SVG Version: 6.00 Build 0)  -->
<svg version="1.1" id="Layer_1" xmlns="http://www.w3.org/2000/svg" xmlns:xlink="http://www.w3.org/1999/xlink" x="0px" y="0px"
	 width="32px" height="32px" viewBox="0 0 32 32" style="enable-background:new 0 0 32 32;" xml:space="preserve">
<g id="XMLID_780_">
	<path id="XMLID_781_" d="M11.496,12.215C11.814,11.581,12,10.82,12,10c0-1.18-0.39-2.23-1-2.962V5H7v2.038C6.39,7.77,6,8.82,6,10
		c0,0.82,0.186,1.581,0.504,2.215C5.011,13.079,4,14.683,4,16.532V29c0,0.552,0.448,1,1,1h8c0.552,0,1-0.448,1-1V16.532
		C14,14.683,12.989,13.079,11.496,12.215z M9,25H6v-7h3V25z"/>
	<rect id="XMLID_784_" x="7" y="2" width="4" height="2"/>
	<path id="XMLID_785_" d="M16,18v12h12V18H16z M22.5,27.621L20.379,25.5l2.12-2.121l0.001,0l2.121,2.121L22.5,27.621z M26,24h-1.464
		l-1.328-1.328c-0.195-0.195-0.451-0.293-0.707-0.293s-0.512,0.098-0.707,0.293L20.464,24H18v-4h8V24z"/>
</g>
</svg>
