<?xml version="1.0" encoding="utf-8"?>
<!-- Generator: Adobe Illustrator 18.1.1, SVG Export Plug-In . SVG Version: 6.00 Build 0)  -->
<!DOCTYPE svg PUBLIC "-//W3C//DTD SVG 1.1//EN" "http://www.w3.org/Graphics/SVG/1.1/DTD/svg11.dtd">
<svg version="1.1" xmlns="http://www.w3.org/2000/svg" xmlns:xlink="http://www.w3.org/1999/xlink" x="0px" y="0px" width="32px"
	 height="32px" viewBox="0 0 32 32" enable-background="new 0 0 32 32" xml:space="preserve">
<g id="Guides__x26__Labels">
</g>
<g id="Icons_-_V2">
	<g>
		<path d="M20.217,5.784c-3.711-3.712-9.725-3.711-13.436,0c-3.709,3.709-3.709,9.725,0,13.434c3.098,3.098,7.797,3.6,11.424,1.524
			l8.023,8.023l3.536-3.535l-8.022-8.021C23.817,13.578,23.315,8.881,20.217,5.784z M17.389,8.612c2.148,2.148,2.148,5.629,0,7.777
			c-2.148,2.148-5.631,2.147-7.778,0c-2.148-2.149-2.148-5.629,0-7.777C11.759,6.463,15.241,6.462,17.389,8.612z"/>
	</g>
</g>
</svg>
