<?xml version="1.0" encoding="utf-8"?>
<!-- Generator: Adobe Illustrator 18.1.1, SVG Export Plug-In . SVG Version: 6.00 Build 0)  -->
<!DOCTYPE svg PUBLIC "-//W3C//DTD SVG 1.1//EN" "http://www.w3.org/Graphics/SVG/1.1/DTD/svg11.dtd">
<svg version="1.1" xmlns="http://www.w3.org/2000/svg" xmlns:xlink="http://www.w3.org/1999/xlink" x="0px" y="0px" width="32px"
	 height="32px" viewBox="0 0 32 32" enable-background="new 0 0 32 32" xml:space="preserve">
<g id="Icons_-_V2">
	<g>
		<circle cx="17" cy="17" r="2"/>
		<path d="M28,8H2v20h28V10.106C30,8.943,29.104,8,28,8z M17,21c-0.74,0-1.425-0.215-2.02-0.566l-3.273,3.273l-1.414-1.414
			l3.273-3.273C13.215,18.425,13,17.741,13,17c0-2.209,1.791-4,4-4s4,1.791,4,4S19.209,21,17,21z"/>
		<path d="M16.016,2.934C15.434,2.361,14.646,2,13.766,2H4C2.896,2,2,2.895,2,4v2h17.1L16.016,2.934z"/>
	</g>
</g>
<g id="Icons">
</g>
</svg>
