<?xml version="1.0" encoding="utf-8"?>
<!-- Generator: Adobe Illustrator 19.1.0, SVG Export Plug-In . SVG Version: 6.00 Build 0)  -->
<svg version="1.1" id="Layer_1" xmlns="http://www.w3.org/2000/svg" xmlns:xlink="http://www.w3.org/1999/xlink" x="0px" y="0px"
	 width="32px" height="32px" viewBox="0 0 32 32" style="enable-background:new 0 0 32 32;" xml:space="preserve">
<g>
	<path d="M17,23.277V21h-2v2.277C14.7,23.452,14.452,23.7,14.277,24H6v2h8.277c0.346,0.595,0.984,1,1.723,1s1.376-0.405,1.723-1H26
		v-2h-8.277C17.548,23.7,17.3,23.452,17,23.277z"/>
	<path d="M6,5v6h20V5H6z M24,9h-2V7h2V9z"/>
	<path d="M6,19h20v-6H6V19z M22,15h2v2h-2V15z"/>
</g>
</svg>
