<?xml version="1.0" encoding="utf-8"?>
<!-- Generator: Adobe Illustrator 20.1.0, SVG Export Plug-In . SVG Version: 6.00 Build 0)  -->
<svg version="1.1" id="Layer_1" xmlns="http://www.w3.org/2000/svg" xmlns:xlink="http://www.w3.org/1999/xlink" x="0px" y="0px"
	 viewBox="0 0 32 32" style="enable-background:new 0 0 32 32;" xml:space="preserve">
<path d="M31.6,21.6l-4.2-4.2c-0.4,0.4-0.7,0.7-1.1,1l-3.3-3.9L26,15V7l-6,1h-0.6C19.8,7.4,20,6.7,20,6c0-2.2-1.8-4-4-4s-4,1.8-4,4
	c0,0.7,0.2,1.4,0.6,2H8v6h1.5l-3.7,4.4c-0.4-0.3-0.8-0.7-1.2-1.1l-4.2,4.2c2.8,2.8,6.4,4.9,10.4,5.8l-0.4,2c1.8,0.4,3.6,0.7,5.6,0.7
	s3.8-0.2,5.6-0.7l-0.4-2C25.2,26.4,28.7,24.4,31.6,21.6z M27.2,20.1l1.4,1.4c-1.1,0.9-2.3,1.7-3.5,2.3L24.3,22
	C25.3,21.4,26.3,20.8,27.2,20.1z M22,9.7l2-0.3v3.3l-2-0.3V9.7z M16,4c1.1,0,2,0.9,2,2s-0.9,2-2,2s-2-0.9-2-2S14.9,4,16,4z M10,10
	h10v2H10V10z M6.9,23.8c-1.2-0.6-2.4-1.4-3.5-2.3l1.4-1.4c0.9,0.7,1.9,1.4,2.9,1.9L6.9,23.8z M11.2,25.4c-0.9-0.2-1.7-0.5-2.5-0.8
	l0.8-1.8c0.7,0.3,1.3,0.5,2,0.7L11.2,25.4z M11.9,21.5c-1.6-0.4-3.1-1.1-4.4-1.9l4.7-5.5H15v5.5L12,21L11.9,21.5z M15,26
	c-0.6,0-1.2-0.1-1.9-0.2l0.4-2c0.5,0.1,1,0.1,1.5,0.1V26z M14.6,21.9l1.4-0.7l1.4,0.7C16.9,22,16.5,22,16,22S15.1,22,14.6,21.9z
	 M17,26v-2c0.5,0,1-0.1,1.5-0.1l0.4,2C18.2,25.9,17.6,25.9,17,26z M20,21l-3-1.5V14h2.8l4.7,5.5c-1.4,0.9-2.9,1.5-4.4,1.9L20,21z
	 M20.5,23.4c0.7-0.2,1.4-0.4,2-0.7l0.8,1.8c-0.8,0.3-1.6,0.6-2.5,0.8L20.5,23.4z"/>
</svg>
