<?xml version="1.0" encoding="utf-8"?>
<!-- Generator: Adobe Illustrator 18.1.1, SVG Export Plug-In . SVG Version: 6.00 Build 0)  -->
<!DOCTYPE svg PUBLIC "-//W3C//DTD SVG 1.1//EN" "http://www.w3.org/Graphics/SVG/1.1/DTD/svg11.dtd">
<svg version="1.1" id="Icons" xmlns="http://www.w3.org/2000/svg" xmlns:xlink="http://www.w3.org/1999/xlink" x="0px" y="0px"
	 width="32px" height="32px" viewBox="0 0 32 32" enable-background="new 0 0 32 32" xml:space="preserve">
<path d="M18.525,17.66v-1.545c0-0.318-0.127-0.609-0.332-0.824l-0.025-0.002v-2.807c0.221-0.215,0.357-0.518,0.357-0.856V6.883
	c1.572-0.69,2.672-2.254,2.672-4.082V2.223c0.008,0,0.016,0.004,0.023,0.004c0.184,0,0.332-0.34,0.332-0.756
	c0-0.416-0.146-0.754-0.332-0.754c-0.008,0-0.016,0-0.023,0.002V0.695h-0.01C21.188,0.311,20.875,0,20.492,0
	c-0.344,0-0.627,0.246-0.686,0.57c-0.861-0.137-1.922-0.221-3.068-0.221c-1.152,0-2.217,0.084-3.08,0.223
	C13.6,0.246,13.316,0,12.975,0c-0.385,0-0.697,0.312-0.697,0.695v0.021c-0.178,0.008-0.324,0.342-0.324,0.754
	c0,0.41,0.146,0.746,0.324,0.754v0.576c0,1.84,1.113,3.412,2.703,4.096v4.732c0,0.32,0.125,0.609,0.33,0.824v2.836
	c-0.205,0.217-0.33,0.508-0.33,0.826v1.537c-1.754,0.064-3.203,0.223-3.981,0.432c0,0,0,5.816,0,6.606
	c0.002,1.711,0.443,5.219,5.66,7.31c5.221-2.092,5.662-5.6,5.662-7.312c0-0.787,0-6.604,0-6.604
	C21.574,17.881,20.197,17.729,18.525,17.66z M13.674,2.801V2.414c0.861,0.137,1.92,0.217,3.064,0.217s2.205-0.08,3.064-0.217v0.387
	c0,1.691-1.371,3.065-3.064,3.065C15.045,5.865,13.674,4.492,13.674,2.801z M17.531,21.967c0,0.533-0.146,1.701-0.838,2.533v-8.668
	c0.656,0.01,0.914,0.244,0.914,0.244L17.531,21.967z M17.754,11.119c0,0.268-0.217,0.484-0.484,0.484
	c-0.27,0-0.486-0.217-0.486-0.484v-3.42c0-0.268,0.217-0.486,0.486-0.486c0.267,0.002,0.484,0.219,0.484,0.486V11.119z"/>
</svg>
