<?xml version="1.0" encoding="utf-8"?>
<!-- Generator: Adobe Illustrator 18.0.0, SVG Export Plug-In . SVG Version: 6.00 Build 0)  -->
<!DOCTYPE svg PUBLIC "-//W3C//DTD SVG 1.1//EN" "http://www.w3.org/Graphics/SVG/1.1/DTD/svg11.dtd">
<svg version="1.1" id="Layer_1" xmlns="http://www.w3.org/2000/svg" xmlns:xlink="http://www.w3.org/1999/xlink" x="0px" y="0px"
	 width="32px" height="32px" viewBox="0 0 32 32" enable-background="new 0 0 32 32" xml:space="preserve">
<g>
	<path d="M21.8,11.8c0.9-0.9,2-1.3,3.2-1.3V14l5-5l-5-5v3.5c-2,0-3.9,0.8-5.3,2.2l-2.1,2.1l2.1,2.1L21.8,11.8z"/>
	<path d="M25,21.5c-1.2,0-2.3-0.5-3.2-1.3l-9.3-9.3C10.4,8.8,7.2,7.5,4,7.5H2v3h2c2.4,0,4.9,1,6.4,2.5l3,3l-3,3
		c-1.5,1.5-4,2.5-6.4,2.5H2v3h2c3.2,0,6.4-1.3,8.5-3.4l3-3l4.2,4.2c1.4,1.4,3.3,2.2,5.3,2.2V28l5-5l-5-5V21.5z"/>
</g>
</svg>
