<?xml version="1.0" encoding="utf-8"?>
<!-- Generator: Adobe Illustrator 18.1.1, SVG Export Plug-In . SVG Version: 6.00 Build 0)  -->
<!DOCTYPE svg PUBLIC "-//W3C//DTD SVG 1.1//EN" "http://www.w3.org/Graphics/SVG/1.1/DTD/svg11.dtd">
<svg version="1.1" id="Icons" xmlns="http://www.w3.org/2000/svg" xmlns:xlink="http://www.w3.org/1999/xlink" x="0px" y="0px"
	 width="32px" height="32px" viewBox="0 0 32 32" enable-background="new 0 0 32 32" xml:space="preserve">
<g>
	<path d="M28,18c0-1.105-0.895-2-2-2s-2,0.895-2,2c0,0.225,0.046,0.438,0.114,0.641L16,22.247l-8.114-3.606
		C7.954,18.438,8,18.225,8,18c0-1.105-0.895-2-2-2s-2,0.895-2,2c-1.105,0-2,0.895-2,2c0,1.105,0.895,2,2,2
		c0.75,0,1.397-0.418,1.739-1.03l6.567,2.919L9.739,25.03C9.397,24.418,8.75,24,8,24c-1.105,0-2,0.895-2,2c0,1.105,0.895,2,2,2
		c0,1.105,0.895,2,2,2s2-0.895,2-2c0-0.225-0.046-0.438-0.114-0.641l14.376-6.389C26.603,21.582,27.25,22,28,22c1.105,0,2-0.895,2-2
		C30,18.895,29.105,18,28,18z"/>
	<path d="M24,24c-0.75,0-1.397,0.418-1.739,1.03l-1.336-0.594l-3.694,1.642l2.883,1.281C20.046,27.562,20,27.775,20,28
		c0,1.105,0.895,2,2,2s2-0.895,2-2c1.105,0,2-0.895,2-2C26,24.895,25.105,24,24,24z"/>
	<path d="M8.891,15.593L11,17v2h2v-2h2v2h2v-2h2v2h2v-2l2.109-1.406C23.666,15.223,24,14.598,24,13.93V10c0-4.418-3.582-8-8-8
		c-4.418,0-8,3.582-8,8v3.929C8,14.598,8.334,15.223,8.891,15.593z M20,10c1.105,0,2,0.895,2,2c0,1.104-0.895,2-2,2
		c-1.104,0-2-0.896-2-2C18,10.895,18.896,10,20,10z M16,13c0.552,0,1,0.895,1,2h-2C15,13.895,15.448,13,16,13z M12,10
		c1.105,0,2,0.895,2,2c0,1.104-0.895,2-2,2c-1.104,0-2-0.896-2-2C10,10.895,10.896,10,12,10z"/>
</g>
</svg>
