<?xml version="1.0" encoding="utf-8"?>
<!-- Generator: Adobe Illustrator 18.1.1, SVG Export Plug-In . SVG Version: 6.00 Build 0)  -->
<!DOCTYPE svg PUBLIC "-//W3C//DTD SVG 1.1//EN" "http://www.w3.org/Graphics/SVG/1.1/DTD/svg11.dtd">
<svg version="1.1" id="Icons" xmlns="http://www.w3.org/2000/svg" xmlns:xlink="http://www.w3.org/1999/xlink" x="0px" y="0px"
	 width="32px" height="32px" viewBox="0 0 32 32" enable-background="new 0 0 32 32" xml:space="preserve">
<g>
	<path d="M20,4.312V3h-8v1.314L2,5v8h5.006v16h17.976V13H30V5L20,4.312z M10.5,9c0.037,0,0.073,0.007,0.109,0.011
		C10.655,8.558,11.035,8.2,11.5,8.2c0.495,0,0.9,0.405,0.9,0.9c0,0.207-0.073,0.395-0.192,0.548l0.565,0.565
		c-0.384,0.327-0.721,0.701-0.992,1.129l-0.608-0.608C10.995,10.897,10.76,11,10.5,11c-0.55,0-1-0.45-1-1S9.95,9,10.5,9z
		 M12.5,19.061l-0.266,0.266C12.397,19.505,12.5,19.74,12.5,20c0,0.55-0.45,1-1,1s-1-0.45-1-1c0-0.037,0.007-0.073,0.011-0.109
		C10.058,19.845,9.7,19.465,9.7,19c0-0.495,0.405-0.9,0.9-0.9c0.207,0,0.395,0.073,0.548,0.192l0.7-0.7l0.652,0.442V19.061z
		 M18.499,19H17.5v-1h-1.001v1H15.5v-1h-1.001v1h-1v-1.5C11.768,16.345,12,16.888,12,14c0-2.209,1.791-4,4-4c2.209,0,4,1.791,4,4
		c0,2.827,0.272,2.319-1.501,3.5V19z M21.489,19.891C21.493,19.927,21.5,19.963,21.5,20c0,0.55-0.45,1-1,1s-1-0.45-1-1
		c0-0.26,0.103-0.495,0.266-0.673L19.5,19.061v-1.027l0.652-0.442l0.7,0.7c0.152-0.118,0.341-0.192,0.548-0.192
		c0.495,0,0.9,0.405,0.9,0.9C22.3,19.465,21.942,19.845,21.489,19.891z M21.5,11c-0.26,0-0.495-0.103-0.673-0.266l-0.608,0.608
		c-0.271-0.428-0.608-0.802-0.992-1.129l0.565-0.565C19.673,9.495,19.6,9.307,19.6,9.1c0-0.495,0.405-0.9,0.9-0.9
		c0.465,0,0.845,0.358,0.891,0.811C21.427,9.007,21.463,9,21.5,9c0.55,0,1,0.45,1,1S22.05,11,21.5,11z"/>
	<circle cx="18" cy="15" r="1"/>
	<circle cx="14" cy="15" r="1"/>
	<path d="M16,16c-0.276,0-0.5,0.448-0.5,1h1C16.5,16.448,16.276,16,16,16z"/>
</g>
</svg>
