<?xml version="1.0" encoding="utf-8"?>
<!-- Generator: Adobe Illustrator 18.0.0, SVG Export Plug-In . SVG Version: 6.00 Build 0)  -->
<!DOCTYPE svg PUBLIC "-//W3C//DTD SVG 1.1//EN" "http://www.w3.org/Graphics/SVG/1.1/DTD/svg11.dtd">
<svg version="1.1" id="Layer_1" xmlns="http://www.w3.org/2000/svg" xmlns:xlink="http://www.w3.org/1999/xlink" x="0px" y="0px"
	 width="32px" height="32px" viewBox="0 0 32 32" enable-background="new 0 0 32 32" xml:space="preserve">
<g>
	<rect x="6" y="4" width="3" height="14"/>
	<polygon points="4,24 6,24 6,28 9,28 9,24 11,24 11,21 4,21 	"/>
	<rect x="15.051" y="4" width="2.949" height="6"/>
	<polygon points="13.051,16 15.051,16 15.051,28 18,28 18,16 20,16 20,13 13.051,13 	"/>
	<rect x="24" y="4" width="3" height="12"/>
	<polygon points="22,19 22,22 24,22 24,28 27,28 27,22 29,22 29,19 	"/>
</g>
</svg>
