<?xml version="1.0" encoding="utf-8"?>
<!-- Generator: Adobe Illustrator 18.1.1, SVG Export Plug-In . SVG Version: 6.00 Build 0)  -->
<!DOCTYPE svg PUBLIC "-//W3C//DTD SVG 1.1//EN" "http://www.w3.org/Graphics/SVG/1.1/DTD/svg11.dtd">
<svg version="1.1" xmlns="http://www.w3.org/2000/svg" xmlns:xlink="http://www.w3.org/1999/xlink" x="0px" y="0px" width="32px"
	 height="32px" viewBox="0 0 32 32" enable-background="new 0 0 32 32" xml:space="preserve">
<g id="Old_Versions" display="none">
</g>
<g id="Layer_1">
	<path d="M27.768,21.633l1.5-2.597l-1.732-1l-1.5,2.597L24,19.458V12.54l2.035-1.175l1.5,2.599l1.732-1l-1.5-2.599l2.598-1.5
		l-1-1.732l-2.598,1.5l-1.5-2.597l-1.732,1l1.5,2.597l-2.026,1.17L17,7.338V5h3V3h-3V0h-2v3h-3v2h3v2.318l-6.004,3.479L6.982,9.635
		l1.5-2.599l-1.732-1l-1.5,2.599l-2.598-1.5l-1,1.732l2.598,1.5l-1.5,2.597l1.732,1l1.5-2.597L8,12.532v6.938l-2.017,1.164
		l-1.5-2.599l-1.732,1l1.5,2.599l-2.598,1.5l1,1.732l2.598-1.5l1.5,2.597l1.732-1l-1.5-2.597l2.015-1.164L15,24.682V27h-3v2h3v3h2
		v-3h3v-2h-3v-2.338l6.01-3.466l2.025,1.169l-1.5,2.599l1.732,1l1.5-2.599l2.598,1.5l1-1.732L27.768,21.633z M22,18.303
		l-3.991-2.304L22,13.695V18.303z M21.011,11.956L17,14.272V9.636L21.011,11.956z M15,9.636v4.628l-4.005-2.312L15,9.636z
		 M10,13.687l4.009,2.315L10,18.316V13.687z M10.997,20.049L15,17.738v4.626L10.997,20.049z M17,22.364v-4.639l4.013,2.317
		L17,22.364z"/>
</g>
<g id="Layer_2">
</g>
<g id="Layer_3">
</g>
</svg>
