<?xml version="1.0" encoding="utf-8"?>
<!-- Generator: Adobe Illustrator 18.1.1, SVG Export Plug-In . SVG Version: 6.00 Build 0)  -->
<!DOCTYPE svg PUBLIC "-//W3C//DTD SVG 1.1//EN" "http://www.w3.org/Graphics/SVG/1.1/DTD/svg11.dtd">
<svg version="1.1" xmlns="http://www.w3.org/2000/svg" xmlns:xlink="http://www.w3.org/1999/xlink" x="0px" y="0px" width="32px"
	 height="32px" viewBox="0 0 32 32" enable-background="new 0 0 32 32" xml:space="preserve">
<g id="Old_Versions" display="none">
</g>
<g id="Layer_1">
	<g>
		<path d="M26,8c-0.502,0-0.987,0.069-1.454,0.185c-1.181-3.593-4.558-6.19-8.546-6.19s-7.365,2.597-8.546,6.19
			C6.987,8.069,6.502,8,6,8c-3.314,0-6,2.686-6,6c0,3.314,2.686,6,6,6v-2c-2.206,0-4-1.794-4-4c0-2.206,1.794-4,4-4
			c1.212,0,2.287,0.553,3.021,1.408C9.013,11.27,9,11.134,9,10.995c0-3.866,3.134-7,7-7s7,3.134,7,7
			c0,0.139-0.013,0.275-0.021,0.413C23.713,10.553,24.788,10,26,10c2.206,0,4,1.794,4,4c0,2.206-1.794,4-4,4h-3v2h3
			c3.314,0,6-2.686,6-6C32,10.686,29.314,8,26,8z"/>
		<rect x="25" y="25" width="1" height="2"/>
		<rect x="25" y="30" width="1" height="2"/>
		<rect x="22.335" y="26.75" transform="matrix(-0.866 -0.5 0.5 -0.866 29.9187 62.5166)" width="2" height="1"/>
		<rect x="26.665" y="29.25" transform="matrix(-0.866 -0.5 0.5 -0.866 36.7487 69.3467)" width="2" height="1"/>
		<rect x="22.835" y="28.75" transform="matrix(-0.5 -0.866 0.866 -0.5 9.2382 64.8336)" width="1" height="2"/>
		<rect x="27.165" y="26.25" transform="matrix(-0.5 -0.866 0.866 -0.5 17.8983 64.8336)" width="1" height="2"/>
		<path d="M21.812,20.334l-0.865-0.5l-1.001,1.733L19,21.021v-4.043l0.946-0.546l0.999,1.732l0.866-0.5l-1-1.732l1.734-1.001
			l-0.501-0.863l-1.732,1l-1.001-1.734l-0.866,0.5l1.001,1.734l-0.977,0.564L15,14.118V13h2v-1h-2v-2h-1v2h-2v1h2v1.118
			l-3.469,2.014l-0.978-0.564l1-1.732l-0.866-0.5l-1,1.732l-1.732-1l-0.5,0.866l1.732,1l-1,1.732l0.866,0.5l1-1.732L10,16.98v4.041
			l-0.945,0.546l-1-1.732l-0.866,0.5l1,1.732l-1.733,1.001l0.501,0.865l1.732-1l1,1.732l0.866-0.5l-1-1.732l0.958-0.554l3.488,2.024
			V25h-1.999l-0.001,1h2v2H15v-2h2v-1h-2v-1.096l3.488-2.025l0.959,0.554l-1,1.732l0.865,0.5l1-1.732l1.734,1.001l0.497-0.866
			l-1.732-1L21.812,20.334z M18,20.94l-0.052,0.09l-3.393,1.971h-0.111l-3.392-1.971L11,20.94v-3.878l0.038-0.066L14.479,15h0.041
			l3.442,1.996L18,17.06V20.94z"/>
	</g>
</g>
<g id="Layer_2">
</g>
<g id="Layer_3">
</g>
</svg>
