<?xml version="1.0" encoding="utf-8"?>
<!-- Generator: Adobe Illustrator 18.1.1, SVG Export Plug-In . SVG Version: 6.00 Build 0)  -->
<!DOCTYPE svg PUBLIC "-//W3C//DTD SVG 1.1//EN" "http://www.w3.org/Graphics/SVG/1.1/DTD/svg11.dtd">
<svg version="1.1" xmlns="http://www.w3.org/2000/svg" xmlns:xlink="http://www.w3.org/1999/xlink" x="0px" y="0px" width="32px"
	 height="32px" viewBox="0 0 32 32" enable-background="new 0 0 32 32" xml:space="preserve">
<g id="Old_Versions" display="none">
</g>
<g id="Layer_1">
	<g>
		<rect x="14" y="3" width="2" height="4"/>
		<rect x="5.225" y="7.225" transform="matrix(0.7071 0.7071 -0.7071 0.7071 7.9326 -2.6999)" width="4" height="2"/>
		<rect x="2" y="15" width="4" height="2"/>
		<rect x="6.225" y="21.775" transform="matrix(-0.7071 -0.7071 0.7071 -0.7071 -4.4766 45.6949)" width="2" height="4"/>
		<rect x="14" y="25" width="2" height="4"/>
		<path d="M23,9c-1.488,0-2.866,0.468-4,1.26C17.866,9.468,16.488,9,15,9c-3.866,0-7,3.134-7,7c0,3.866,3.134,7,7,7
			c1.488,0,2.866-0.468,4-1.26c1.134,0.792,2.512,1.26,4,1.26c3.866,0,7-3.134,7-7C30,12.134,26.866,9,23,9z M10,16
			c0-2.757,2.243-5,5-5c0.911,0,1.755,0.263,2.491,0.691C16.56,12.879,16,14.373,16,16s0.56,3.121,1.491,4.309
			C16.755,20.737,15.911,21,15,21C12.243,21,10,18.757,10,16z"/>
	</g>
</g>
<g id="Layer_2">
</g>
<g id="Layer_3">
</g>
</svg>
