<?xml version="1.0" encoding="utf-8"?>
<!-- Generator: Adobe Illustrator 16.0.0, SVG Export Plug-In . SVG Version: 6.00 Build 0)  -->
<!DOCTYPE svg PUBLIC "-//W3C//DTD SVG 1.1//EN" "http://www.w3.org/Graphics/SVG/1.1/DTD/svg11.dtd">
<svg version="1.1" id="Layer_1" xmlns="http://www.w3.org/2000/svg" xmlns:xlink="http://www.w3.org/1999/xlink" x="0px" y="0px"
	 width="32px" height="32px" viewBox="0 0 32 32" enable-background="new 0 0 32 32" xml:space="preserve">
<path d="M21.983,7.958c-0.041-2.197-0.182-4.291-0.396-6.201c-0.082-0.682-0.566-1.236-1.224-1.371
	c-1.315-0.271-2.808-0.385-4.37-0.385c-1.561,0-3.049,0.114-4.365,0.385c-0.658,0.135-1.142,0.689-1.224,1.371
	c-0.218,1.91-0.356,4.004-0.396,6.201c-0.02,1.871,0.019,2.434,0.159,3.862c0.039,0.616,0.259,1.187,0.608,1.649
	c0.749,0.983,1.621,1.962,2.509,3.003c0.912,1.075,1.467,2.471,1.467,3.991l-0.834,9.457c0,1.147,0.93,2.078,2.075,2.078
	c1.151,0,2.08-0.931,2.08-2.078l-0.838-9.457c0-1.521,0.557-2.916,1.471-3.991c0.888-1.041,1.761-2.02,2.507-3.003
	c0.35-0.464,0.571-1.032,0.61-1.649C21.968,9.945,22.026,10.141,21.983,7.958z M16.746,12.03h-1.5V2.031h1.5V12.03z M13.746,11.03
	h-1.5V3.031h1.5V11.03z M19.746,11.03h-1.5V3.031h1.5V11.03z"/>
</svg>
