<?xml version="1.0" encoding="utf-8"?>
<!-- Generator: Adobe Illustrator 18.1.1, SVG Export Plug-In . SVG Version: 6.00 Build 0)  -->
<!DOCTYPE svg PUBLIC "-//W3C//DTD SVG 1.1 Tiny//EN" "http://www.w3.org/Graphics/SVG/1.1/DTD/svg11-tiny.dtd">
<svg version="1.1" baseProfile="tiny" id="Layer_1" xmlns="http://www.w3.org/2000/svg" xmlns:xlink="http://www.w3.org/1999/xlink"
	 x="0px" y="0px" width="32px" height="32px" viewBox="0 0 32 32" xml:space="preserve">
<g>
	<polygon points="26,6 17,6 17,5 18,5 18,3 14,3 14,5 15,5 15,6 6,6 6,8 26,8 	"/>
	<path d="M27,9H5c-1.657,0-3,1.343-3,3s1.343,3,3,3h1v3c0,2.209,1.791,4,4,4h12c2.209,0,4-1.791,4-4v-3h1c1.657,0,3-1.343,3-3
		S28.657,9,27,9z M6,13H5c-0.551,0-1-0.449-1-1s0.449-1,1-1h1V13z M27,13h-1v-2h1c0.551,0,1,0.449,1,1S27.551,13,27,13z"/>
	<path d="M23,24c-2.174,0-4.005,0.837-4.694,2H5c-0.552,0-1,0.448-1,1s0.448,1,1,1h13.306c0.689,1.163,2.52,2,4.694,2
		c2.761,0,5-1.343,5-3S25.761,24,23,24z"/>
</g>
</svg>
