<?xml version="1.0" encoding="utf-8"?>
<!-- Generator: Adobe Illustrator 18.1.1, SVG Export Plug-In . SVG Version: 6.00 Build 0)  -->
<!DOCTYPE svg PUBLIC "-//W3C//DTD SVG 1.1//EN" "http://www.w3.org/Graphics/SVG/1.1/DTD/svg11.dtd">
<svg version="1.1" id="Layer_1" xmlns="http://www.w3.org/2000/svg" xmlns:xlink="http://www.w3.org/1999/xlink" x="0px" y="0px"
	 width="32px" height="32px" viewBox="0 0 32 32" enable-background="new 0 0 32 32" xml:space="preserve">
<g>
	<path d="M23.737,13L18,13c-1.207,0-2.344,0.31-3.338,0.853v-0.006l-5.161,2.8c-0.273,0.148-0.614,0.014-0.713-0.281l-0.332-0.998
		C8.184,14.551,7.42,14,6.56,14H3.5c-0.341,0-0.582,0.334-0.474,0.658L4.473,19H9v1H3c-0.55,0-1,0.45-1,1s0.45,1,1,1h1.14
		l-1.114,3.342C2.918,25.666,3.159,26,3.5,26h3.058c0.861,0,1.625-0.551,1.897-1.367l0.333-0.999
		c0.098-0.295,0.439-0.43,0.713-0.281l5.161,2.8v-0.006C15.656,26.69,16.793,27,18,27h6c4.16,0,7.502-3.677,6.938-7.941
		C30.471,15.536,27.291,13,23.737,13z M15.75,21.5c-0.828,0-1.5-0.672-1.5-1.5s0.672-1.5,1.5-1.5c0.828,0,1.5,0.672,1.5,1.5
		S16.578,21.5,15.75,21.5z M21,21.5c-0.828,0-1.5-0.672-1.5-1.5s0.672-1.5,1.5-1.5s1.5,0.672,1.5,1.5S21.828,21.5,21,21.5z
		 M26.25,21.5c-0.828,0-1.5-0.672-1.5-1.5s0.672-1.5,1.5-1.5s1.5,0.672,1.5,1.5S27.078,21.5,26.25,21.5z"/>
	<path d="M24,10h-2V9c0-0.551,0.448-1,1-1h1v0.002C24,8.553,24.447,9,24.998,9H26V5h-1.003C24.446,5,24,5.446,24,5.996V6h-1
		c-1.654,0-3,1.346-3,3v1h-2v2h6V10z"/>
</g>
</svg>
