<?xml version="1.0" encoding="utf-8"?>
<!-- Generator: Adobe Illustrator 18.1.1, SVG Export Plug-In . SVG Version: 6.00 Build 0)  -->
<!DOCTYPE svg PUBLIC "-//W3C//DTD SVG 1.1//EN" "http://www.w3.org/Graphics/SVG/1.1/DTD/svg11.dtd">
<svg version="1.1" xmlns="http://www.w3.org/2000/svg" xmlns:xlink="http://www.w3.org/1999/xlink" x="0px" y="0px" width="32px"
	 height="32px" viewBox="0 0 32 32" enable-background="new 0 0 32 32" xml:space="preserve">
<g id="Old_Versions" display="none">
</g>
<g id="Layer_1">
	<rect x="2" y="24" width="30" height="2"/>
	<rect x="4" y="20" width="20" height="2"/>
	<rect x="10" y="28" width="18" height="2"/>
	<g>
		<rect x="12" y="4" width="2" height="4"/>
		<rect x="3.22" y="8.22" transform="matrix(0.7071 0.7071 -0.7071 0.7071 8.0487 -0.9908)" width="4" height="2"/>
		<rect y="16" width="4" height="2"/>
		<rect x="22" y="16" width="4" height="2"/>
		<rect x="19.769" y="7.22" transform="matrix(0.7071 0.7071 -0.7071 0.7071 12.603 -11.9857)" width="2" height="4"/>
		<path d="M8.099,17.99c-0.067-0.322-0.104-0.654-0.104-0.995c0-2.757,2.243-5,5-5s5,2.243,5,5c0,0.341-0.037,0.673-0.104,0.995
			h2.03c0.047-0.325,0.074-0.657,0.074-0.995c0-3.866-3.134-7-7-7c-3.866,0-7,3.134-7,7c0,0.338,0.027,0.67,0.074,0.995H8.099z"/>
	</g>
</g>
<g id="Layer_2">
</g>
<g id="Layer_3">
</g>
</svg>
