<?xml version="1.0" encoding="utf-8"?>
<!-- Generator: Adobe Illustrator 18.1.1, SVG Export Plug-In . SVG Version: 6.00 Build 0)  -->
<!DOCTYPE svg PUBLIC "-//W3C//DTD SVG 1.1//EN" "http://www.w3.org/Graphics/SVG/1.1/DTD/svg11.dtd">
<svg version="1.1" xmlns="http://www.w3.org/2000/svg" xmlns:xlink="http://www.w3.org/1999/xlink" x="0px" y="0px" width="32px"
	 height="32px" viewBox="0 0 32 32" enable-background="new 0 0 32 32" xml:space="preserve">
<g id="Old_Versions" display="none">
</g>
<g id="Layer_1">
	<g>
		<rect x="15" y="3" width="2" height="4"/>
		<rect x="6.22" y="7.22" transform="matrix(0.7071 0.7071 -0.7071 0.7071 8.2203 -3.405)" width="4" height="2"/>
		<rect x="3" y="15" width="4" height="2"/>
		<rect x="7.22" y="21.769" transform="matrix(-0.7071 -0.7071 0.7071 -0.7071 -2.7746 46.3897)" width="2" height="4"/>
		<rect x="15" y="25" width="2" height="4"/>
		<rect x="21.77" y="22.769" transform="matrix(-0.7071 -0.7071 0.7071 -0.7071 23.7696 57.3846)" width="4" height="2"/>
		<rect x="25" y="15" width="4" height="2"/>
		<rect x="22.77" y="6.22" transform="matrix(0.7071 0.7071 -0.7071 0.7071 12.7746 -14.3999)" width="2" height="4"/>
		<path d="M15.995,8.995c-3.866,0-7,3.134-7,7c0,3.866,3.134,7,7,7c3.866,0,7-3.134,7-7C22.995,12.129,19.861,8.995,15.995,8.995z
			 M15.995,20.995c-2.757,0-5-2.243-5-5s2.243-5,5-5s5,2.243,5,5S18.752,20.995,15.995,20.995z"/>
	</g>
</g>
<g id="Layer_2">
</g>
<g id="Layer_3">
</g>
</svg>
