<?xml version="1.0" encoding="utf-8"?>
<!-- Generator: Adobe Illustrator 18.1.1, SVG Export Plug-In . SVG Version: 6.00 Build 0)  -->
<!DOCTYPE svg PUBLIC "-//W3C//DTD SVG 1.1//EN" "http://www.w3.org/Graphics/SVG/1.1/DTD/svg11.dtd">
<svg version="1.1" xmlns="http://www.w3.org/2000/svg" xmlns:xlink="http://www.w3.org/1999/xlink" x="0px" y="0px" width="32px"
	 height="32px" viewBox="0 0 32 32" enable-background="new 0 0 32 32" xml:space="preserve">
<g id="Old_Versions" display="none">
</g>
<g id="Layer_1">
	<g>
		<polygon points="15,14 17,14 17,11 19.984,11 15.992,7.008 12,11 15,11 		"/>
		<rect x="7.22" y="13.22" transform="matrix(0.7071 -0.7071 0.7071 0.7071 -8.3546 10.2702)" width="2" height="4"/>
		<rect x="3" y="22" width="4" height="2"/>
		<rect x="25" y="22" width="4" height="2"/>
		<rect x="21.769" y="14.22" transform="matrix(0.7071 -0.7071 0.7071 0.7071 -3.8005 21.2655)" width="4" height="2"/>
		<path d="M15.995,15.995c-3.866,0-6.995,3.134-6.995,7V24h14l-0.005-1.005C22.995,19.129,19.861,15.995,15.995,15.995z M11.094,22
			c0.463-2.282,2.484-4.005,4.901-4.005c2.414,0,4.434,1.72,4.899,4.005H11.094z"/>
	</g>
</g>
<g id="Layer_2">
</g>
<g id="Layer_3">
</g>
</svg>
