<?xml version="1.0" encoding="utf-8"?>
<!-- Generator: Adobe Illustrator 18.1.1, SVG Export Plug-In . SVG Version: 6.00 Build 0)  -->
<!DOCTYPE svg PUBLIC "-//W3C//DTD SVG 1.1//EN" "http://www.w3.org/Graphics/SVG/1.1/DTD/svg11.dtd">
<svg version="1.1" xmlns="http://www.w3.org/2000/svg" xmlns:xlink="http://www.w3.org/1999/xlink" x="0px" y="0px" width="32px"
	 height="32px" viewBox="0 0 32 32" enable-background="new 0 0 32 32" xml:space="preserve">
<g id="Old_Versions" display="none">
</g>
<g id="Layer_1">
	<g>
		<polygon points="20.001,11.007 17.001,11.007 17.001,8.007 15.001,8.007 15.001,11.007 12.017,11.007 16.009,14.999 		"/>
		<rect x="7.237" y="14.219" transform="matrix(0.7071 -0.7071 0.7071 0.7071 -9.0562 10.5746)" width="2" height="4"/>
		<rect x="3.017" y="22.999" width="4" height="2"/>
		<rect x="25.017" y="22.999" width="4" height="2"/>
		<rect x="21.786" y="15.219" transform="matrix(0.7071 -0.7071 0.7071 0.7071 -4.502 21.5699)" width="4" height="2"/>
		<path d="M16.012,16.994c-3.866,0-6.995,3.134-6.995,7v1.005h14l-0.005-1.005C23.012,20.128,19.878,16.994,16.012,16.994z
			 M11.111,22.999c0.463-2.282,2.484-4.005,4.901-4.005c2.414,0,4.434,1.72,4.899,4.005H11.111z"/>
	</g>
</g>
<g id="Layer_2">
</g>
<g id="Layer_3">
</g>
</svg>
