<?xml version="1.0" encoding="utf-8"?>
<!-- Generator: Adobe Illustrator 18.1.1, SVG Export Plug-In . SVG Version: 6.00 Build 0)  -->
<!DOCTYPE svg PUBLIC "-//W3C//DTD SVG 1.1//EN" "http://www.w3.org/Graphics/SVG/1.1/DTD/svg11.dtd">
<svg version="1.1" id="Layer_1" xmlns="http://www.w3.org/2000/svg" xmlns:xlink="http://www.w3.org/1999/xlink" x="0px" y="0px"
	 width="32px" height="32px" viewBox="0 0 32 32" enable-background="new 0 0 32 32" xml:space="preserve">
<path fill="#010101" d="M4,7v18h24V7H4z M11,23H6v-3h5V23z M11,18H6v-3h5V18z M11,13H6v-3h5V13z M19,23h-6v-3h6V23z M19,18h-6v-3h6
	V18z M19,13h-6v-3h6V13z M26,23h-5v-3h5V23z M26,18h-5v-3h5V18z M26,13h-5v-3h5V13z"/>
</svg>
