<?xml version="1.0" encoding="utf-8"?>
<!-- Generator: Adobe Illustrator 18.1.1, SVG Export Plug-In . SVG Version: 6.00 Build 0)  -->
<!DOCTYPE svg PUBLIC "-//W3C//DTD SVG 1.1//EN" "http://www.w3.org/Graphics/SVG/1.1/DTD/svg11.dtd">
<svg version="1.1" id="Layer_1" xmlns="http://www.w3.org/2000/svg" xmlns:xlink="http://www.w3.org/1999/xlink" x="0px" y="0px"
	 width="32px" height="32px" viewBox="0 0 32 32" enable-background="new 0 0 32 32" xml:space="preserve">
<g>
	<rect x="3" y="23" width="20" height="2"/>
	<path d="M25,8H13v3h2v6H9v-6h2V8H3v4.998C3,16.486,5.099,19.506,8,21h10c2.252-1.16,4.006-3.245,4.684-5.749
		C23.338,15.718,24.134,16,25,16c2.209,0,4-1.791,4-4C29,9.791,27.209,8,25,8z M25,14c-1.104,0-2-0.896-2-2c0-1.105,0.896-2,2-2
		s2,0.895,2,2C27,13.104,26.104,14,25,14z"/>
</g>
</svg>
