<?xml version="1.0" encoding="utf-8"?>
<!-- Generator: Adobe Illustrator 18.1.1, SVG Export Plug-In . SVG Version: 6.00 Build 0)  -->
<!DOCTYPE svg PUBLIC "-//W3C//DTD SVG 1.1//EN" "http://www.w3.org/Graphics/SVG/1.1/DTD/svg11.dtd">
<svg version="1.1" xmlns="http://www.w3.org/2000/svg" xmlns:xlink="http://www.w3.org/1999/xlink" x="0px" y="0px" width="32px"
	 height="32px" viewBox="0 0 32 32" enable-background="new 0 0 32 32" xml:space="preserve">
<g id="Old_Versions" display="none">
</g>
<g id="Layer_1">
	<g>
		<path d="M26,8.005c-0.502,0-0.987,0.069-1.454,0.185C23.365,4.597,19.988,2,16,2S8.635,4.597,7.454,8.19
			C6.987,8.074,6.502,8.005,6,8.005c-3.314,0-6,2.686-6,6c0,3.314,2.686,6,6,6h1.987l1.205-2H6c-2.206,0-4-1.794-4-4
			c0-2.206,1.794-4,4-4c1.212,0,2.287,0.553,3.021,1.408C9.013,11.275,9,11.139,9,11c0-3.866,3.134-7,7-7s7,3.134,7,7
			c0,0.139-0.013,0.275-0.021,0.413c0.734-0.854,1.809-1.408,3.021-1.408c2.206,0,4,1.794,4,4c0,2.206-1.794,4-4,4h-3.987l-1.205,2
			H26c3.314,0,6-2.686,6-6C32,10.691,29.314,8.005,26,8.005z"/>
		<polygon points="16,10.047 10,20.005 14,20.005 14,28.005 20,18.005 16,18.005 		"/>
	</g>
</g>
<g id="Layer_2">
</g>
<g id="Layer_3">
</g>
</svg>
