<?xml version="1.0" encoding="utf-8"?>
<!-- Generator: Adobe Illustrator 19.0.0, SVG Export Plug-In . SVG Version: 6.00 Build 0)  -->
<svg version="1.1" id="Layer_1" xmlns="http://www.w3.org/2000/svg" xmlns:xlink="http://www.w3.org/1999/xlink" x="0px" y="0px"
	 width="32px" height="32px" viewBox="0 0 32 32" style="enable-background:new 0 0 32 32;" xml:space="preserve">
<g id="XMLID_800_">
	<path id="XMLID_801_" d="M10.278,11.497c0-0.214-0.022-0.432-0.035-0.648C9.515,10.55,9,9.835,9,9c0-1.103,0.897-2,2-2
		c0.737,0,1.375,0.405,1.722,1h2.137C14.412,6.278,12.862,5,11,5C8.791,5,7,6.791,7,9c0,1.872,1.291,3.43,3.027,3.867
		C10.17,12.399,10.278,11.935,10.278,11.497z"/>
	<path id="XMLID_802_" d="M20.722,11.497c0-0.86,0.096-1.693,0.266-2.497h-2.128l0.535-1.604l5.763-1.921l-0.316-0.949l-6.237,2.079
		L17.806,9l-6.794,0c0.169,0.804,0.266,1.638,0.266,2.497c0,1.215-0.576,2.412-0.931,3.509C10.126,15.631,10,16.3,10,17
		c0,2.972,2.163,5.433,5,5.91V25l-3,1v1h8v-1l-3-1v-2.09c2.837-0.477,5-2.938,5-5.91c0-0.7-0.126-1.369-0.346-1.994
		C21.298,13.909,20.722,12.713,20.722,11.497z M16.14,14h-3.323c0.25-0.762,0.461-1.591,0.461-2.503
		c0-0.165-0.003-0.331-0.009-0.497l3.871,0L16.14,14z M17.194,14l1-3h0.538c-0.006,0.166-0.009,0.332-0.009,0.497
		c0,0.912,0.211,1.741,0.461,2.503H17.194z"/>
</g>
</svg>
