<?xml version="1.0" encoding="utf-8"?>
<!-- Generator: Adobe Illustrator 18.0.0, SVG Export Plug-In . SVG Version: 6.00 Build 0)  -->
<!DOCTYPE svg PUBLIC "-//W3C//DTD SVG 1.1//EN" "http://www.w3.org/Graphics/SVG/1.1/DTD/svg11.dtd">
<svg version="1.1" id="Layer_1" xmlns="http://www.w3.org/2000/svg" xmlns:xlink="http://www.w3.org/1999/xlink" x="0px" y="0px"
	 width="32px" height="32px" viewBox="0 0 32 32" enable-background="new 0 0 32 32" xml:space="preserve">
<g>
	<path d="M24.988,9h-7.28l5.277-5.293c0.391-0.391,0.391-1.024,0-1.414s-1.024-0.391-1.414,0L15.88,7.984l-4.293-4.316
		c-0.391-0.391-1.024-0.391-1.414,0l0,0c-0.391,0.391-0.391,1.024,0,1.414L14,9H6.921C5.315,9,4,10.298,4,11.905v15.09
		c0,1.657,1.343,3,3,3h18c1.65,0,3-1.35,3-3v-15C28,10.339,26.645,9,24.988,9z M13,27.995h-2v-2h2V27.995z M17,27.995h-2v-2h2
		V27.995z M21,27.995h-2v-2h2V27.995z M25,24H7V11.984h18V24z"/>
</g>
</svg>
