<?xml version="1.0" encoding="utf-8"?>
<!-- Generator: Adobe Illustrator 18.1.1, SVG Export Plug-In . SVG Version: 6.00 Build 0)  -->
<!DOCTYPE svg PUBLIC "-//W3C//DTD SVG 1.1//EN" "http://www.w3.org/Graphics/SVG/1.1/DTD/svg11.dtd">
<svg version="1.1" id="Layer_1" xmlns="http://www.w3.org/2000/svg" xmlns:xlink="http://www.w3.org/1999/xlink" x="0px" y="0px"
	 width="32px" height="32px" viewBox="0 0 32 32" enable-background="new 0 0 32 32" xml:space="preserve">
<g>
	<path d="M15,23.53v6.022h2V23.53c-0.332,0.01-0.662,0.022-1,0.022S15.332,23.54,15,23.53z"/>
	<path d="M3.105,27.104l1.789,0.895l2.811-5.622c-0.676-0.214-1.305-0.451-1.88-0.713L3.105,27.104z"/>
	<path d="M24.295,22.377l2.811,5.622l1.789-0.895l-2.72-5.44C25.599,21.926,24.97,22.164,24.295,22.377z"/>
	<path d="M23.957,9.618C23.54,5.595,20.131,2.448,16,2.448s-7.54,3.147-7.957,7.17C4.394,10.701,2,12.506,2,14.552
		c0,3.314,6.268,6,14,6s14-2.686,14-6C30,12.506,27.606,10.701,23.957,9.618z M7.5,16.552c-0.828,0-1.5-0.672-1.5-1.5
		s0.672-1.5,1.5-1.5s1.5,0.672,1.5,1.5S8.328,16.552,7.5,16.552z M13.288,10.112c0.182-0.298,0.814-0.244,1.41,0.121
		c0.596,0.365,0.932,0.902,0.749,1.201c-0.182,0.298-0.814,0.244-1.41-0.121C13.441,10.948,13.106,10.41,13.288,10.112z M16,18.552
		c-0.828,0-1.5-0.672-1.5-1.5s0.672-1.5,1.5-1.5s1.5,0.672,1.5,1.5S16.828,18.552,16,18.552z M17.957,11.312
		c-0.596,0.365-1.228,0.419-1.41,0.121c-0.182-0.298,0.153-0.836,0.749-1.201c0.596-0.365,1.228-0.419,1.41-0.121
		C18.889,10.41,18.554,10.948,17.957,11.312z M22,11.091c-0.738,0.527-1.845,0.947-3.164,1.199c0.363-0.753,0.613-1.601,0.616-2.494
		C19.461,7.015,17.206,6.324,16,6.324h-0.005c-1.206,0-3.461,0.691-3.452,3.473c0.003,0.893,0.252,1.739,0.615,2.492
		c-1.316-0.253-2.421-0.672-3.158-1.198v-0.643c0-3.309,2.691-6,6-6s6,2.691,6,6V11.091z M24.5,16.552c-0.828,0-1.5-0.672-1.5-1.5
		s0.672-1.5,1.5-1.5s1.5,0.672,1.5,1.5S25.328,16.552,24.5,16.552z"/>
</g>
</svg>
