<?xml version="1.0" encoding="utf-8"?>
<!-- Generator: Adobe Illustrator 18.1.1, SVG Export Plug-In . SVG Version: 6.00 Build 0)  -->
<!DOCTYPE svg PUBLIC "-//W3C//DTD SVG 1.1//EN" "http://www.w3.org/Graphics/SVG/1.1/DTD/svg11.dtd">
<svg version="1.1" xmlns="http://www.w3.org/2000/svg" xmlns:xlink="http://www.w3.org/1999/xlink" x="0px" y="0px" width="32px"
	 height="32px" viewBox="0 0 32 32" enable-background="new 0 0 32 32" xml:space="preserve">
<g id="Old_Versions" display="none">
</g>
<g id="Layer_1">
	<g>
		<rect x="20" width="2" height="4"/>
		<rect x="12.636" y="3.636" transform="matrix(0.7071 0.7071 -0.7071 0.7071 7.565 -8.9914)" width="4" height="2"/>
		<rect x="28" y="10" width="4" height="2"/>
		<rect x="26.364" y="2.636" transform="matrix(0.7071 0.7071 -0.7071 0.7071 11.2924 -17.991)" width="2" height="4"/>
		<path d="M18.465,9.412C18.996,8.567,19.93,8,21,8c1.654,0,3,1.346,3,3c0,0.212-0.024,0.419-0.066,0.619
			c0.594,0.369,1.169,0.765,1.712,1.202C25.868,12.255,26,11.644,26,11c0-2.761-2.239-5-5-5c-2.097,0-3.886,1.294-4.629,3.124
			C17.081,9.182,17.782,9.27,18.465,9.412z"/>
		<path d="M15,11.063c-7.944,0-14.428,6.18-14.949,13.991c1.267-1.267,3.016-2.05,4.949-2.05c1.96,0,3.729,0.808,5,2.106
			c1.05-1.072,2.443-1.802,4-2.026V29c0,0.557-0.456,0.998-1.013,0.998c-0.556,0-1.007-0.451-1.007-1.008
			c0-0.555-0.448-1.004-1.002-1.004c-0.556,0-1.004,0.449-1.004,1.004c0,1.666,1.348,3.014,3.013,3.014
			C14.653,32.004,16,30.666,16,29v-5.916c1.557,0.224,2.95,0.953,4,2.026c1.271-1.298,3.04-2.106,5-2.106
			c1.933,0,3.682,0.784,4.949,2.05C29.428,17.242,22.944,11.063,15,11.063z"/>
	</g>
</g>
<g id="Layer_2">
</g>
<g id="Layer_3">
</g>
</svg>
