<?xml version="1.0" encoding="utf-8"?>
<!-- Generator: Adobe Illustrator 18.1.1, SVG Export Plug-In . SVG Version: 6.00 Build 0)  -->
<!DOCTYPE svg PUBLIC "-//W3C//DTD SVG 1.1//EN" "http://www.w3.org/Graphics/SVG/1.1/DTD/svg11.dtd">
<svg version="1.1" xmlns="http://www.w3.org/2000/svg" xmlns:xlink="http://www.w3.org/1999/xlink" x="0px" y="0px" width="32px"
	 height="32px" viewBox="0 0 32 32" enable-background="new 0 0 32 32" xml:space="preserve">
<g id="Old_Versions" display="none">
</g>
<g id="Layer_1">
	<g>
		<path d="M6,7.828C6,6.677,4.863,5.863,4,5C3.137,5.863,2,6.677,2,7.828C2,10.471,6,10.474,6,7.828z"/>
		<path d="M18,2.828C18,1.677,16.863,0.863,16,0c-0.863,0.863-2,1.677-2,2.828C14,5.471,18,5.474,18,2.828z"/>
		<path d="M30,7.828C30,6.677,28.863,5.863,28,5c-0.863,0.863-2,1.677-2,2.828C26,10.471,30,10.474,30,7.828z"/>
		<path d="M17,10.049V9c0-0.552-0.448-1-1-1s-1,0.448-1,1v1.049C7.5,10.545,1.518,16.544,1.048,24.053C2.315,22.785,4.066,22,6,22
			c1.96,0,3.729,0.808,5,2.106c1.05-1.072,2.443-1.802,4-2.026V29c0,0.557-0.456,0.998-1.013,0.998
			c-0.556,0-1.007-0.451-1.007-1.008c0-0.555-0.448-1.004-1.002-1.004c-0.556,0-1.004,0.449-1.004,1.004
			c0,1.666,1.348,3.014,3.013,3.014C15.653,32.004,17,30.666,17,29v-6.92c1.557,0.224,2.95,0.953,4,2.026
			C22.271,22.808,24.04,22,26,22c1.934,0,3.685,0.785,4.952,2.053C30.482,16.544,24.5,10.545,17,10.049z"/>
	</g>
</g>
<g id="Layer_2">
</g>
<g id="Layer_3">
</g>
</svg>
