<?xml version="1.0" encoding="utf-8"?>
<!-- Generator: Adobe Illustrator 18.1.1, SVG Export Plug-In . SVG Version: 6.00 Build 0)  -->
<!DOCTYPE svg PUBLIC "-//W3C//DTD SVG 1.1//EN" "http://www.w3.org/Graphics/SVG/1.1/DTD/svg11.dtd">
<svg version="1.1" id="Layer_1" xmlns="http://www.w3.org/2000/svg" xmlns:xlink="http://www.w3.org/1999/xlink" x="0px" y="0px"
	 width="32px" height="32px" viewBox="0 0 32 32" enable-background="new 0 0 32 32" xml:space="preserve">
<g>
	<path d="M27.262,8.88l-2.121-2.121l-5.02,5.02c-0.546-0.767-0.46-0.603-4.878-5.021c-2.343-2.343-6.142-2.343-8.485,0
		s-2.343,6.142,0,8.485l1.928,1.928c-0.079-1.232,0.122-2.477,0.61-3.633l-0.416-0.417c-1.17-1.17-1.17-3.073,0-4.243
		c1.17-1.17,3.073-1.17,4.243,0c0.611,0.611,4.454,4.309,4.819,5.08l-3.982,3.982c-0.924-1.948,0.284-3.112,1.284-4.112
		l-2.121-2.121l-0.707,0.707c-2.101,2.101-2.302,5.364-0.636,7.707l-5.02,5.02l2.121,2.121c4.749-4.749,8.618-8.618,13.434-13.434
		L27.262,8.88z"/>
	<path d="M24.435,15.95l-2.121,2.121l0.707,0.707c1.17,1.17,1.17,3.073,0,4.243s-3.073,1.17-4.243,0l-0.707-0.707l-2.121,2.121
		l0.707,0.707c2.343,2.343,6.142,2.343,8.485,0c2.343-2.343,2.343-6.142,0-8.485L24.435,15.95z"/>
</g>
</svg>
