<?xml version="1.0" encoding="utf-8"?>
<!-- Generator: Adobe Illustrator 18.1.1, SVG Export Plug-In . SVG Version: 6.00 Build 0)  -->
<!DOCTYPE svg PUBLIC "-//W3C//DTD SVG 1.1 Tiny//EN" "http://www.w3.org/Graphics/SVG/1.1/DTD/svg11-tiny.dtd">
<svg version="1.1" baseProfile="tiny" xmlns="http://www.w3.org/2000/svg" xmlns:xlink="http://www.w3.org/1999/xlink" x="0px"
	 y="0px" width="32px" height="32px" viewBox="0 0 32 32" xml:space="preserve">
<g id="Guides__x26__Forms">
</g>
<g id="Icons">
	<g>
		<path d="M23.167,18.235C22.214,18.72,21.14,19,20,19c-1.141,0-2.215-0.28-3.167-0.766C13.824,18.687,11.353,19.75,10,21l0,5
			h19.998l0.001-5C28.646,19.75,26.174,18.688,23.167,18.235z"/>
		<circle cx="20" cy="12" r="5"/>
		<path d="M2,2v8h4l5,3v-3h3V2H2z M4.432,7.438C3.639,7.438,2.995,6.794,2.995,6c0-0.794,0.644-1.438,1.438-1.438S5.87,5.206,5.87,6
			C5.87,6.794,5.226,7.438,4.432,7.438z M7.995,7.438C7.201,7.438,6.557,6.794,6.557,6c0-0.794,0.644-1.438,1.438-1.438
			S9.432,5.206,9.432,6C9.432,6.794,8.789,7.438,7.995,7.438z M11.557,7.438c-0.794,0-1.438-0.644-1.438-1.438
			c0-0.794,0.644-1.438,1.438-1.438S12.995,5.206,12.995,6C12.995,6.794,12.351,7.438,11.557,7.438z"/>
	</g>
</g>
</svg>
