<?xml version="1.0" encoding="utf-8"?>
<!-- Generator: Adobe Illustrator 18.1.1, SVG Export Plug-In . SVG Version: 6.00 Build 0)  -->
<!DOCTYPE svg PUBLIC "-//W3C//DTD SVG 1.1 Tiny//EN" "http://www.w3.org/Graphics/SVG/1.1/DTD/svg11-tiny.dtd">
<svg version="1.1" baseProfile="tiny" xmlns="http://www.w3.org/2000/svg" xmlns:xlink="http://www.w3.org/1999/xlink" x="0px"
	 y="0px" width="32px" height="32px" viewBox="0 0 32 32" xml:space="preserve">
<g id="Guides__x26__Forms">
</g>
<g id="Icons">
	<g>
		<path d="M17,26.277V24h-2v2.277C14.7,26.452,14.452,26.7,14.277,27H6v2h8.277c0.346,0.595,0.984,1,1.723,1s1.376-0.405,1.723-1H26
			v-2h-8.277C17.548,26.7,17.3,26.452,17,26.277z"/>
		<path d="M25.999,23L26,18c-1.352-1.25-3.824-2.312-6.832-2.765C18.216,15.72,17.142,16,16.002,16c-1.141,0-2.215-0.28-3.167-0.766
			C9.825,15.687,7.353,16.75,6,18l0,5H25.999z"/>
		<circle cx="16.002" cy="9" r="5"/>
	</g>
</g>
</svg>
