<?xml version="1.0" encoding="utf-8"?>
<!-- Generator: Adobe Illustrator 18.1.1, SVG Export Plug-In . SVG Version: 6.00 Build 0)  -->
<!DOCTYPE svg PUBLIC "-//W3C//DTD SVG 1.1//EN" "http://www.w3.org/Graphics/SVG/1.1/DTD/svg11.dtd">
<svg version="1.1" id="Layer_1" xmlns="http://www.w3.org/2000/svg" xmlns:xlink="http://www.w3.org/1999/xlink" x="0px" y="0px"
	 width="32px" height="32px" viewBox="0 0 32 32" enable-background="new 0 0 32 32" xml:space="preserve">
<g>
	<path d="M29.106,23.553l-4.382-2.191C24.391,21.196,24,21.437,24,21.809V23h-5.458c-0.064-0.273-0.11-0.552-0.11-0.845
		c0-0.385,0.057-0.756,0.161-1.107c0.031-0.106-0.004-0.221-0.09-0.29c-0.086-0.07-0.205-0.081-0.303-0.029
		c-0.533,0.154-1.001,0.459-1.377,0.86c-0.002,0.002-0.005,0.007-0.005,0.01c0,0.486,0.077,0.95,0.188,1.401h-1.996
		c0.324-1.549,1.45-2.811,2.951-3.243C21.157,18.974,23.62,16.33,24,13c0,0.552,0.448,1,1,1s1-0.448,1-1
		c0-0.423-0.271-0.782-0.642-0.928c-0.438-0.13-0.816-0.397-1.089-0.75l0.918-0.457c0.128-0.064,0.201-0.201,0.183-0.343
		c-0.018-0.142-0.123-0.256-0.263-0.286l-0.834-0.178c-0.041-0.009-0.073-0.043-0.078-0.085c-0.006-0.042,0.016-0.083,0.053-0.102
		l1.458-0.75c0.129-0.067,0.192-0.216,0.149-0.356c-0.043-0.139-0.18-0.227-0.324-0.209l-1.94,0.245
		c-0.269-1.399-2.653-1.795-3.919-0.918c-0.031,0.021-0.061,0.043-0.091,0.065c-0.099,0.074-0.139,0.203-0.1,0.32
		c0.039,0.117,0.147,0.197,0.271,0.198c0.212,0.003,0.424,0.029,0.63,0.076c-0.728,0.27-1.347,0.823-1.663,1.599
		c-0.052,0.128-0.017,0.275,0.088,0.366c0.105,0.09,0.255,0.104,0.375,0.034c0.203-0.12,0.42-0.214,0.645-0.283
		c-0.354,0.491-0.565,1.09-0.549,1.741c0.003,0.138,0.095,0.259,0.227,0.299c0.132,0.041,0.275-0.007,0.356-0.119
		c0.208-0.288,0.468-0.537,0.767-0.733c0.266,0.252,0.598,0.435,0.971,0.511C21.309,13.13,20.26,14,19,14
		c-2.574,0-3.66-3.278-1.627-4.827c1.56-1.183,2.109-3.322,1.049-5.159L18.434,4c-1.759-3.478-8.071-2.174-10.427,1.267
		C7.652,5.785,7.375,6.332,7.168,6.895C7.132,6.994,7.162,7.106,7.243,7.174S7.44,7.25,7.531,7.196
		c1.018-0.603,2.164-0.945,3.332-1.027c-1.788,0.93-3.203,2.567-3.778,4.664c-0.166,0.605-0.248,1.212-0.26,1.811
		c-0.002,0.106,0.063,0.201,0.162,0.239s0.211,0.008,0.279-0.073c0.811-0.959,1.85-1.691,3.006-2.146
		C9.168,11.97,8.5,13.656,8.5,15.5c0,0.628,0.081,1.237,0.229,1.819c0.026,0.102,0.113,0.177,0.219,0.187
		c0.105,0.01,0.205-0.047,0.25-0.142c0.282-0.598,0.644-1.15,1.063-1.653c0.461,1.548,1.523,2.836,2.921,3.584
		c0.499,0.267,0.708,0.851,0.48,1.369c-0.322,0.734-0.542,1.532-0.623,2.336H9.958l-1.403-1.411C8.18,21.212,7.669,21,7.137,21
		H3.203c-0.445,0-0.668,0.537-0.354,0.853L4.984,24l-2.136,2.147C2.534,26.463,2.758,27,3.203,27h3.935
		c0.532,0,1.043-0.212,1.418-0.59L9.958,25H24v1.191c0,0.372,0.391,0.613,0.724,0.447l4.382-2.191
		C29.474,24.263,29.474,23.737,29.106,23.553z"/>
	<path d="M16,26c-0.552,0-1,0.448-1,1v3h2v-3C17,26.448,16.552,26,16,26z"/>
</g>
</svg>
