<?xml version="1.0" encoding="utf-8"?>
<!-- Generator: Adobe Illustrator 18.1.1, SVG Export Plug-In . SVG Version: 6.00 Build 0)  -->
<!DOCTYPE svg PUBLIC "-//W3C//DTD SVG 1.1//EN" "http://www.w3.org/Graphics/SVG/1.1/DTD/svg11.dtd">
<svg version="1.1" id="Layer_1" xmlns="http://www.w3.org/2000/svg" xmlns:xlink="http://www.w3.org/1999/xlink" x="0px" y="0px"
	 width="32px" height="32px" viewBox="0 0 32 32" enable-background="new 0 0 32 32" xml:space="preserve">
<path d="M26,6H6C4.9,6,4,6.9,4,8v16c0,1.105,0.895,2,2,2h20c1.105,0,2-0.895,2-2V8C28,6.9,27.1,6,26,6z M14,8h4v2h-4V8z M11,24H7v-2
	h4V24z M11,10H7V8h4V10z M18,24h-4v-2h4V24z M14,19v-6l5,3L14,19z M25,24h-4v-2h4V24z M25,10h-4V8h4V10z"/>
</svg>
