<?xml version="1.0" encoding="utf-8"?>
<!-- Generator: Adobe Illustrator 18.1.1, SVG Export Plug-In . SVG Version: 6.00 Build 0)  -->
<!DOCTYPE svg PUBLIC "-//W3C//DTD SVG 1.1//EN" "http://www.w3.org/Graphics/SVG/1.1/DTD/svg11.dtd">
<svg version="1.1" xmlns="http://www.w3.org/2000/svg" xmlns:xlink="http://www.w3.org/1999/xlink" x="0px" y="0px" width="32px"
	 height="32px" viewBox="0 0 32 32" enable-background="new 0 0 32 32" xml:space="preserve">
<g id="Layer_1">
</g>
<g id="Guides__x26__Labels">
</g>
<g id="Icons">
	<g>
		<path d="M26,4H6C4.35,4,3,5.35,3,7v18c0,1.657,1.343,3,3,3h20c1.657,0,3-1.343,3-3V7C29,5.35,27.65,4,26,4z M14,7h2v2h-2V7z M10,7
			h2v2h-2V7z M6,7h2v2H6V7z M26,25H6V11h20V25z"/>
		<path d="M12.207,23.207l2.773-2.773C15.575,20.785,16.26,21,17,21c2.209,0,4-1.791,4-4s-1.791-4-4-4s-4,1.791-4,4
			c0,0.741,0.215,1.425,0.566,2.02l-2.773,2.773L12.207,23.207z M17,15c1.103,0,2,0.897,2,2s-0.897,2-2,2s-2-0.897-2-2
			S15.897,15,17,15z"/>
	</g>
</g>
</svg>
