<?xml version="1.0" encoding="utf-8"?>
<!-- Generator: Adobe Illustrator 18.1.1, SVG Export Plug-In . SVG Version: 6.00 Build 0)  -->
<!DOCTYPE svg PUBLIC "-//W3C//DTD SVG 1.1//EN" "http://www.w3.org/Graphics/SVG/1.1/DTD/svg11.dtd">
<svg version="1.1" xmlns="http://www.w3.org/2000/svg" xmlns:xlink="http://www.w3.org/1999/xlink" x="0px" y="0px" width="32px"
	 height="32px" viewBox="0 0 32 32" enable-background="new 0 0 32 32" xml:space="preserve">
<g id="Layer_1">
</g>
<g id="Guides__x26__Labels">
</g>
<g id="Icons">
	<g>
		<path d="M20.307,21.31h0.002c0.055,0.06,0.137,0.1,0.226,0.1c0.109,0,0.203-0.053,0.26-0.137c0.682-0.793,1.121-1.798,1.199-2.901
			C21.997,18.35,22,18.331,22,18.313C22,18.139,21.861,18,21.688,18h-4.691L20.307,21.31z"/>
		<path d="M20.69,17c0.173,0,0.313-0.141,0.313-0.312c-0.155-2.521-2.171-4.535-4.691-4.69h-0.002C16.141,11.999,16,12.139,16,12.31
			V17h4.688H20.69z"/>
		<path d="M12.276,22.266c2.253,1.24,4.539,0.806,6.033-0.5v-0.002c0.068-0.056,0.11-0.141,0.11-0.237
			c0-0.085-0.033-0.162-0.089-0.218l-0.002-0.002L15,18.006v-4.708c0-0.173-0.126-0.311-0.298-0.311H14.7
			c-3.486,0.213-6.007,3.989-3.972,7.729C11.081,21.367,11.627,21.909,12.276,22.266z"/>
		<path d="M26,4H6C4.35,4,3,5.35,3,7v18c0,1.657,1.343,3,3,3h20c1.657,0,3-1.343,3-3V7C29,5.35,27.65,4,26,4z M14,7h2v2h-2V7z M10,7
			h2v2h-2V7z M6,7h2v2H6V7z M26,25H6V11h20V25z"/>
	</g>
</g>
</svg>
