<?xml version="1.0" encoding="utf-8"?>
<!-- Generator: Adobe Illustrator 18.0.0, SVG Export Plug-In . SVG Version: 6.00 Build 0)  -->
<!DOCTYPE svg PUBLIC "-//W3C//DTD SVG 1.1//EN" "http://www.w3.org/Graphics/SVG/1.1/DTD/svg11.dtd">
<svg version="1.1" id="Layer_1" xmlns="http://www.w3.org/2000/svg" xmlns:xlink="http://www.w3.org/1999/xlink" x="0px" y="0px"
	 width="32px" height="32px" viewBox="0 0 32 32" enable-background="new 0 0 32 32" xml:space="preserve">
<g>
	<path d="M27,15c0-6.075-4.925-11-11-11S5,8.925,5,15c0,4.662,2.905,8.637,7,10.239V27h-2v2h12v-2h-2v-1.761
		C24.095,23.637,27,19.662,27,15z M8,15c0-4.411,3.589-8,8-8s8,3.589,8,8c0,4.411-3.589,8-8,8S8,19.411,8,15z"/>
	<path d="M22,15h-6V9c-3.314,0-6,2.686-6,6s2.686,6,6,6S22,18.314,22,15z"/>
</g>
</svg>
