<?xml version="1.0" encoding="utf-8"?>
<!-- Generator: Adobe Illustrator 18.1.1, SVG Export Plug-In . SVG Version: 6.00 Build 0)  -->
<!DOCTYPE svg PUBLIC "-//W3C//DTD SVG 1.1 Tiny//EN" "http://www.w3.org/Graphics/SVG/1.1/DTD/svg11-tiny.dtd">
<svg version="1.1" baseProfile="tiny" id="Layer_1" xmlns="http://www.w3.org/2000/svg" xmlns:xlink="http://www.w3.org/1999/xlink"
	 x="0px" y="0px" width="32px" height="32px" viewBox="0 0 32 32" xml:space="preserve">
<g>
	<path d="M19.97,10.576V8h2V6H10.992C8.787,6,7,7.787,7,9.992c0,1.914,1.348,3.509,3.146,3.898C9.423,15.093,9,16.495,9,18v11
		c0,1.105,0.895,2,2,2h12c1.105,0,2-0.895,2-2V18C25,14.632,22.916,11.756,19.97,10.576z M10.992,11.984
		C9.894,11.984,9,11.091,9,9.992S9.894,8,10.992,8s1.992,0.894,1.992,1.992S12.091,11.984,10.992,11.984z M21,27h-8v-9h8V27z"/>
	<rect x="14" y="3" width="6" height="2"/>
</g>
</svg>
