<?xml version="1.0" encoding="utf-8"?>
<!-- Generator: Adobe Illustrator 16.0.0, SVG Export Plug-In . SVG Version: 6.00 Build 0)  -->
<!DOCTYPE svg PUBLIC "-//W3C//DTD SVG 1.1//EN" "http://www.w3.org/Graphics/SVG/1.1/DTD/svg11.dtd">
<svg version="1.1" id="Layer_1" xmlns="http://www.w3.org/2000/svg" xmlns:xlink="http://www.w3.org/1999/xlink" x="0px" y="0px"
	 width="32px" height="32px" viewBox="0 0 32 32" enable-background="new 0 0 32 32" xml:space="preserve">
<g>
	<path d="M26.973,20.901h-9.744c-0.299,0.001-0.539,0.242-0.539,0.54c0,0.016,0.742,9.461,0.742,9.461v0.537
		c0,0.299,0.242,0.541,0.539,0.541h8.255c0.301,0,0.541-0.242,0.541-0.541v-0.537l0.742-9.459c0-0.001,0.002-0.001,0.002-0.002
		C27.512,21.143,27.271,20.901,26.973,20.901z M25.438,26.633l-0.936,2.141c-0.128,0.297-0.473,0.432-0.769,0.305l-2.098-0.914
		c-0.295-0.131-0.432-0.475-0.303-0.771l0.934-2.143c0.129-0.295,0.474-0.434,0.771-0.303l2.098,0.914
		C25.43,25.992,25.566,26.336,25.438,26.633z M26.232,24.967h-1.279l-1.931-0.838c-0.619-0.215-1.197,0.188-1.405,0.676
		l-0.071,0.162h-2.443v5.408H18.6l-0.916-8.397h8.88L26.232,24.967z"/>
	<path d="M13.442,11.802l-0.347-0.194c-0.449-0.277-0.757-0.822-0.757-1.446c0-0.057,0.004-0.107,0.009-0.163
		c0.039-0.478,0.037-0.938,0.037-1.507c0-2.126-0.398-4.017-1.019-5.218c-0.046-0.109-0.073-0.232-0.073-0.363
		c0-0.2,0.062-0.384,0.167-0.526c0.03-0.039,0.048-0.087,0.048-0.142h-0.003l-0.002-1.784c0-0.245-0.176-0.445-0.391-0.445H8.413
		c-0.217,0-0.392,0.2-0.392,0.445L8.019,2.243H8.018c0,0.055,0.019,0.103,0.047,0.142C8.17,2.528,8.232,2.711,8.232,2.911
		c0,0.131-0.025,0.254-0.074,0.363C7.539,4.475,7.14,6.366,7.14,8.492c0,0.569-0.001,1.029,0.037,1.507
		c0.005,0.056,0.004,0.125,0.004,0.179c0,0.592-0.313,1.116-0.738,1.381l-0.359,0.244c-0.942,0.512-1.596,1.604-1.596,2.874
		L4.99,31.562c0.001,0.232,0.167,0.424,0.372,0.424h8.802c0.204,0,0.371-0.189,0.372-0.424l0.502-16.885
		C15.038,13.407,14.385,12.314,13.442,11.802z M9.962,24.973H6.843l0.175,6.07l-1.023,0.018L5.578,15.198
		c0-1.112,0.57-2.087,1.433-2.656c-0.302,0.486-0.479,1.061-0.479,1.676l0.101,3.469h3.331v7.286H9.962z M11.376,7.748
		c0,0.101-0.081,0.181-0.182,0.181h-0.002c-0.754,0.014-1.358,0.017-2.285,0.008c-0.094,0-0.172,0.073-0.18,0.166
		C8.725,8.336,8.721,8.57,8.721,8.806c0,0.298,0.004,0.607,0.011,0.9c0,0.175-0.143,0.318-0.319,0.318
		c-0.176,0-0.317-0.144-0.317-0.318c-0.017-0.292-0.024-0.599-0.024-0.9c0-1.876,0.301-3.576,0.786-4.82
		c0.014-0.034,0.045-0.058,0.084-0.058c0.049,0,0.09,0.041,0.09,0.091C8.946,4.652,8.875,5.324,8.823,6.023
		c0.003,0.098,0.078,0.174,0.176,0.178c0.908-0.004,1.339-0.004,2.055,0.001c0.001,0,0.001,0,0.001,0
		c0.089,0,0.162,0.065,0.178,0.15c0.071,0.44,0.121,0.906,0.146,1.389C11.376,7.742,11.376,7.745,11.376,7.748z"/>
</g>
</svg>
