<?xml version="1.0" encoding="utf-8"?>
<!-- Generator: Adobe Illustrator 16.0.0, SVG Export Plug-In . SVG Version: 6.00 Build 0)  -->
<!DOCTYPE svg PUBLIC "-//W3C//DTD SVG 1.1//EN" "http://www.w3.org/Graphics/SVG/1.1/DTD/svg11.dtd">
<svg version="1.1" id="Layer_1" xmlns="http://www.w3.org/2000/svg" xmlns:xlink="http://www.w3.org/1999/xlink" x="0px" y="0px"
	 width="32.051px" height="32.051px" viewBox="0 0 32.051 32.051" enable-background="new 0 0 32.051 32.051" xml:space="preserve">
<g>
	<path d="M13.198,7.685V0.263C13.198,0.118,13.08,0,12.935,0h-3.5C9.289,0,9.171,0.118,9.171,0.263v7.401
		c-1.896,0.765-3.232,2.599-3.232,4.776v19.102c0,0.278,0.226,0.504,0.502,0.504h9.474c0.278,0,0.502-0.226,0.502-0.504V12.441
		h0.002C16.42,10.284,15.08,8.464,13.198,7.685z M12.062,17.135c0,0.02-0.001,0.036-0.002,0.055
		c0.336-0.188,0.739-0.209,1.084-0.056c0.148,0.44,0.034,0.945-0.33,1.278c-0.365,0.331-0.879,0.398-1.303,0.21
		c-0.031-0.091-0.047-0.185-0.055-0.279v-0.412c0-0.108-0.088-0.196-0.197-0.196c-0.108,0-0.196,0.088-0.196,0.196v0.45
		c-0.01,0.081-0.025,0.163-0.052,0.241c-0.425,0.188-0.938,0.121-1.304-0.21c-0.364-0.334-0.478-0.838-0.329-1.278
		c0.339-0.149,0.735-0.136,1.067,0.047c0-0.016-0.002-0.03-0.002-0.046c0-0.554,0.333-1.029,0.81-1.238
		C11.729,16.106,12.062,16.581,12.062,17.135z M12.068,20.068c0,0.447-0.362,0.812-0.811,0.812c-0.446,0-0.811-0.362-0.811-0.812
		c0-0.447,0.364-0.812,0.811-0.812C11.706,19.258,12.068,19.621,12.068,20.068z M7.053,12.515c0-1.832,1.365-3.578,3.157-4.145
		V6.895h1.083v1.854c-0.125,0.068-0.615,0.348-0.713,0.418c-0.954,0.642-2.059,1.604-2.059,3.358v2.455H7.052L7.053,12.515
		L7.053,12.515z M8.523,30.148H7.055v-4.994h1.469V30.148z M8.451,20.07c0-0.447,0.363-0.812,0.811-0.812
		c0.448,0,0.811,0.363,0.811,0.812c0,0.447-0.362,0.812-0.811,0.812C8.813,20.882,8.451,20.52,8.451,20.07z M9.358,21.909
		c0-0.447,0.363-0.812,0.811-0.812c0.448,0,0.812,0.364,0.812,0.812s-0.363,0.812-0.812,0.812
		C9.721,22.721,9.358,22.357,9.358,21.909z M11.264,24.574c-0.447,0-0.812-0.363-0.812-0.812s0.364-0.811,0.812-0.811
		c0.446,0,0.812,0.361,0.812,0.811S11.709,24.574,11.264,24.574z M12.348,22.721c-0.447,0-0.811-0.363-0.811-0.812
		c0-0.447,0.363-0.812,0.811-0.812c0.449,0,0.812,0.364,0.812,0.812C13.161,22.357,12.796,22.721,12.348,22.721z M13.258,20.882
		c-0.449,0-0.812-0.364-0.812-0.812s0.362-0.812,0.812-0.812c0.447,0,0.811,0.363,0.811,0.812
		C14.068,20.52,13.705,20.882,13.258,20.882z"/>
	<path d="M25.312,31.536c0,0-2.818-0.238-2.818-2.312v-3.326c0-0.89,0.606-1.666,1.315-2.095c1.366-0.69,2.302-2.108,2.302-3.745
		c0-0.164-0.008-0.326-0.027-0.486c-0.146-2.108-0.527-4.038-1.043-5.567l-6.271,0.004c-0.534,1.583-0.912,3.599-1.05,5.8h0.004
		c-0.006,0.081-0.009,0.166-0.009,0.25c0,1.635,0.935,3.051,2.299,3.743c0.711,0.429,1.319,1.207,1.319,2.097v3.323
		c0,2.074-2.819,2.312-2.819,2.312c-0.142,0-0.257,0.114-0.257,0.257s0.115,0.257,0.257,0.257l6.799,0.003
		c0.142,0,0.257-0.115,0.257-0.256C25.57,31.65,25.455,31.536,25.312,31.536z M20.037,18.131c-0.266,1.007-0.513,2.509,0.104,4.721
		c0,0-0.557-0.438-0.635-0.494c-0.646-0.627-1.045-1.5-1.045-2.472c0-0.067,0.002-0.138,0.006-0.206h-0.002
		c0.113-1.812,0.425-3.468,0.863-4.771l5.157-0.003c-0.001,0.001-0.001,0.003-0.001,0.003h0.001c0.31,0.921,0.556,2.018,0.714,3.222
		H20.037L20.037,18.131z"/>
</g>
</svg>
