<?xml version="1.0" encoding="utf-8"?>
<!-- Generator: Adobe Illustrator 18.1.1, SVG Export Plug-In . SVG Version: 6.00 Build 0)  -->
<!DOCTYPE svg PUBLIC "-//W3C//DTD SVG 1.1//EN" "http://www.w3.org/Graphics/SVG/1.1/DTD/svg11.dtd">
<svg version="1.1" id="Layer_1" xmlns="http://www.w3.org/2000/svg" xmlns:xlink="http://www.w3.org/1999/xlink" x="0px" y="0px"
	 width="32px" height="32px" viewBox="0 0 32 32" enable-background="new 0 0 32 32" xml:space="preserve">
<path d="M18,8c-3.505,0-6.898,1.374-9.342,2.969c-0.601,0.393-1.145,0.798-1.618,1.2c0.244-0.644,0.643-1.255,1.154-1.839
	c0.09-0.103,0.117-0.256,0.045-0.372C7.883,9.377,7.26,9,6.558,9H3.5C3.159,9,2.918,9.334,3.026,9.658L4.58,14H3
	c-0.552,0-1,0.448-1,1c0,0.552,0.448,1,1,1h1.577l-1.551,4.342C2.918,20.666,3.159,21,3.5,21h2.826c0.999,0,1.886-0.639,2.202-1.587
	c0.066-0.197,0.292-0.28,0.469-0.17c1.343,0.835,2.941,1.588,4.676,2.096c0.108,0.032,0.192,0.117,0.219,0.226l0.358,1.433
	C14.397,23.587,14.926,24,15.532,24h4.951c0.609,0,1.14-0.416,1.284-1.008l0.316-1.289c0.028-0.115,0.119-0.204,0.234-0.232
	C26.594,20.423,30,17.924,30,15C30,11.134,24.05,8,18,8z M16.5,23h-1v-1h1V23z M18.5,23h-1v-1h1V23z M20.5,23h-1v-1h1V23z
	 M24.62,17.906C22.089,18.799,19.068,19.015,18,19c-1.15-0.016-4.086-0.166-6.428-1.105c-0.095-0.038-0.147-0.142-0.12-0.241
	s0.124-0.162,0.226-0.146c2.527,0.387,5.164,0.476,6.309,0.493c1.08,0.016,3.824-0.163,6.516-0.565
	c0.124-0.019,0.242,0.06,0.273,0.182C24.806,17.74,24.739,17.865,24.62,17.906z M26.968,13.878
	c-2.649-0.647-5.809-0.854-8.992-0.854c-3.077,0-6.756,0.429-9.615,1.143c-0.113,0.028-0.23-0.024-0.284-0.128
	c-0.054-0.103-0.031-0.23,0.057-0.307c1.881-1.647,5.759-3.84,9.866-3.84c4.206,0,7.866,1.685,9.31,3.485
	C27.5,13.615,27.263,13.95,26.968,13.878z"/>
</svg>
