<?xml version="1.0" encoding="utf-8"?>
<!-- Generator: Adobe Illustrator 18.1.1, SVG Export Plug-In . SVG Version: 6.00 Build 0)  -->
<!DOCTYPE svg PUBLIC "-//W3C//DTD SVG 1.1//EN" "http://www.w3.org/Graphics/SVG/1.1/DTD/svg11.dtd">
<svg version="1.1" id="Icons" xmlns="http://www.w3.org/2000/svg" xmlns:xlink="http://www.w3.org/1999/xlink" x="0px" y="0px"
	 width="32px" height="32px" viewBox="0 0 32 32" enable-background="new 0 0 32 32" xml:space="preserve">
<path d="M26.801,13.045l0.674,2.217c1.525,0.564,2.619,2.021,2.619,3.744c0,2.211-1.795,4.004-4.006,4.004
	c-2.213,0-4.006-1.793-4.006-4.004c0-1.451,0.777-2.711,1.932-3.414l1.117,3.707c0.162,0.527,0.721,0.824,1.25,0.662
	c0.527-0.162,0.824-0.721,0.662-1.248l-3.24-10.707h3.344c0.273,0,0.496,0.223,0.496,0.496C27.642,8.777,27.42,9,27.146,9h-1.58
	l0.609,2h0.971c1.379,0,2.496-1.119,2.496-2.498s-1.117-2.496-2.496-2.496h-4.723c-0.553,0-0.99,0.434-0.99,0.986
	c0,0.111,0.02,0.219,0.053,0.32L22,9h-9.182L12.51,8.006h0.695c1.104,0,2-0.897,2-2H8.131l1.072,2h1.209l0.73,2.391l-5.84,7.774
	v0.004c-0.16,0.193-0.256,0.443-0.256,0.713c0,0.619,0.504,1.121,1.123,1.121l3.863-0.002c-0.445,1.725-2,3.004-3.863,3.004
	c-2.213,0-4.006-1.793-4.006-4.004C2.164,16.793,3.957,15,6.17,15c0.082,0,0.16,0.016,0.242,0.021l1.348-1.793
	C7.254,13.086,6.723,13,6.17,13c-3.318,0-6.006,2.688-6.006,6.006c0,3.316,2.688,6.004,6.006,6.004c2.975,0,5.437-2.164,5.916-5.004
	h3.353h0.002c0.416,0,0.783-0.215,0.994-0.539l6.285-8.109l0.695,2.275c-1.975,0.982-3.334,3.016-3.334,5.373
	c0,3.316,2.688,6.004,6.006,6.004c3.317,0,6.006-2.688,6.006-6.004C32.094,15.93,29.779,13.399,26.801,13.045z M7.781,18.006
	L9.1,16.305c0.195,0.215,0.375,0.447,0.521,0.701h2.205c-0.311-0.883-0.824-1.67-1.48-2.309l1.514-1.955l1.608,5.264H7.781z
	 M15.49,17.625L13.438,11h7.037L15.49,17.625z"/>
</svg>
