<?xml version="1.0" encoding="utf-8"?>
<!-- Generator: Adobe Illustrator 18.1.1, SVG Export Plug-In . SVG Version: 6.00 Build 0)  -->
<!DOCTYPE svg PUBLIC "-//W3C//DTD SVG 1.1//EN" "http://www.w3.org/Graphics/SVG/1.1/DTD/svg11.dtd">
<svg version="1.1" id="Icons" xmlns="http://www.w3.org/2000/svg" xmlns:xlink="http://www.w3.org/1999/xlink" x="0px" y="0px"
	 width="32px" height="32px" viewBox="0 0 32 32" enable-background="new 0 0 32 32" xml:space="preserve">
<g>
	<circle cx="3" cy="8" r="3"/>
	<path d="M10.999,5c-1.656,0-3,1.344-3,3c0,1.656,1.344,3,3,3c1.658,0,3-1.344,3-3C13.999,6.344,12.657,5,10.999,5z M10.999,10
		c-1.102,0-2-0.896-2-2c0-1.104,0.898-2,2-2c1.103,0,2,0.896,2,2C12.999,9.103,12.102,10,10.999,10z"/>
	<path d="M3,13c-1.658,0-3,1.344-3,3c0,1.656,1.342,3,3,3c1.657,0,2.999-1.344,2.999-3C5.999,14.344,4.657,13,3,13z M3,18
		c-1.103,0-2-0.896-2-2c0-1.104,0.896-2,2-2c1.102,0,1.999,0.896,1.999,2C4.999,17.103,4.102,18,3,18z"/>
	<path d="M10.999,13c-1.656,0-3,1.344-3,3c0,1.656,1.344,3,3,3c1.658,0,3-1.344,3-3C13.999,14.344,12.657,13,10.999,13z M10.999,18
		c-1.102,0-2-0.896-2-2c0-1.104,0.898-2,2-2c1.103,0,2,0.896,2,2C12.999,17.103,12.102,18,10.999,18z"/>
	<path d="M3,21c-1.658,0-3,1.344-3,3c0,1.656,1.342,3,3,3c1.657,0,2.999-1.344,2.999-3C5.999,22.344,4.657,21,3,21z M3,26
		c-1.103,0-2-0.896-2-2c0-1.104,0.896-2,2-2c1.102,0,1.999,0.896,1.999,2C4.999,25.103,4.102,26,3,26z"/>
	<path d="M10.999,21c-1.656,0-3,1.344-3,3c0,1.656,1.344,3,3,3c1.658,0,3-1.344,3-3C13.999,22.344,12.657,21,10.999,21z M10.999,26
		c-1.102,0-2-0.896-2-2c0-1.104,0.898-2,2-2c1.103,0,2,0.896,2,2C12.999,25.103,12.102,26,10.999,26z"/>
	<circle cx="20.999" cy="8" r="3"/>
	<path d="M28.999,11c1.658,0,3-1.344,3-3c0-1.656-1.342-3-3-3c-1.656,0-3,1.344-3,3C25.999,9.656,27.343,11,28.999,11z M28.999,6
		c1.103,0,2,0.896,2,2c0,1.104-0.897,2-2,2c-1.102,0-2-0.896-2-2C26.999,6.896,27.897,6,28.999,6z"/>
	<path d="M20.999,13c-1.656,0-3,1.344-3,3c0,1.656,1.344,3,3,3c1.658,0,3-1.344,3-3C23.999,14.344,22.657,13,20.999,13z M20.999,18
		c-1.102,0-2-0.896-2-2c0-1.104,0.898-2,2-2c1.103,0,2,0.896,2,2C22.999,17.103,22.102,18,20.999,18z"/>
	<circle cx="28.999" cy="16" r="3"/>
	<circle cx="20.999" cy="24" r="3"/>
	<circle cx="28.999" cy="24" r="3"/>
</g>
</svg>
