<?xml version="1.0" encoding="utf-8"?>
<!-- Generator: Adobe Illustrator 18.1.1, SVG Export Plug-In . SVG Version: 6.00 Build 0)  -->
<!DOCTYPE svg PUBLIC "-//W3C//DTD SVG 1.1//EN" "http://www.w3.org/Graphics/SVG/1.1/DTD/svg11.dtd">
<svg version="1.1" id="Layer_1" xmlns="http://www.w3.org/2000/svg" xmlns:xlink="http://www.w3.org/1999/xlink" x="0px" y="0px"
	 width="32px" height="32px" viewBox="0 0 32 32" enable-background="new 0 0 32 32" xml:space="preserve">
<path d="M28,7H4C2.9,7,2,7.9,2,9v14c0,1.105,0.895,2,2,2h24c1.105,0,2-0.895,2-2V9C30,7.9,29.1,7,28,7z M9,18c-1.657,0-3-1.343-3-3
	s1.343-3,3-3s3,1.343,3,3S10.657,18,9,18z M22,21h-6v-2h6V21z M26,17H16v-2h10V17z M26,13H16v-2h10V13z"/>
</svg>
