<?xml version="1.0" encoding="utf-8"?>
<!-- Generator: Adobe Illustrator 18.1.1, SVG Export Plug-In . SVG Version: 6.00 Build 0)  -->
<!DOCTYPE svg PUBLIC "-//W3C//DTD SVG 1.1//EN" "http://www.w3.org/Graphics/SVG/1.1/DTD/svg11.dtd">
<svg version="1.1" id="Icons" xmlns="http://www.w3.org/2000/svg" xmlns:xlink="http://www.w3.org/1999/xlink" x="0px" y="0px"
	 width="32px" height="32px" viewBox="0 0 32 32" enable-background="new 0 0 32 32" xml:space="preserve">
<path d="M17,24c-0.373,0-0.736,0.034-1.096,0.084l-7.069-7.07C8.92,16.688,8.98,16.353,8.98,16c0-0.352-0.059-0.686-0.144-1.01
	l6.738-6.736l2.127,2.127c-0.703,2.662-0.019,5.614,2.067,7.701L31.074,6.777c-2.093-2.092-5.056-2.775-7.724-2.062l-3.586-3.587
	L19.76,1.134c-1.564-1.515-4.056-1.505-5.602,0.04c-1.045,1.046-1.373,2.523-1.018,3.856l-7.123,7.123
	C5.685,12.064,5.342,12,4.98,12c-2.209,0-4,1.791-4,4s1.791,4,4,4c0.359,0,0.701-0.062,1.033-0.151l5.943,5.943
	c-0.754,0.613-1.389,1.362-1.879,2.208H7v4h20v-4h-3.079C22.537,25.611,19.959,24,17,24z M17.002,1.168l2.823,2.822l-1.414,1.414
	l-2.822-2.822L17.002,1.168z M4.98,17c-0.553,0-1-0.447-1-1s0.447-1,1-1c0.553,0,1,0.447,1,1S5.533,17,4.98,17z"/>
</svg>
