<?xml version="1.0" encoding="utf-8"?>
<!-- Generator: Adobe Illustrator 18.1.1, SVG Export Plug-In . SVG Version: 6.00 Build 0)  -->
<!DOCTYPE svg PUBLIC "-//W3C//DTD SVG 1.1//EN" "http://www.w3.org/Graphics/SVG/1.1/DTD/svg11.dtd">
<svg version="1.1" id="Icons" xmlns="http://www.w3.org/2000/svg" xmlns:xlink="http://www.w3.org/1999/xlink" x="0px" y="0px"
	 width="32px" height="32px" viewBox="0 0 32 32" enable-background="new 0 0 32 32" xml:space="preserve">
<path d="M17.242,7c0.328,0.663,0.965,1.151,1.742,1.248L25,9V3l-6.015,0.752C18.207,3.849,17.571,4.337,17.242,5H16V4
	c0-1.517-1.233-2.75-2.75-2.75S10.5,2.483,10.5,4c0,0.712,0.279,1.355,0.724,1.844c-1.699,0.789-3.116,2.08-4.041,3.698
	c-0.299,0.523-0.064,1.194,0.492,1.424c0.465,0.193,0.996,0.006,1.246-0.431C9.97,8.701,11.825,7.387,14,7.074v2.027
	c-2.282,0.463-4,2.48-4,4.899v15c0,1.105,0.895,2,2,2h6c1.105,0,2-0.895,2-2V14c0-2.419-1.718-4.436-4-4.899V7H17.242z M13.25,5.25
	C12.561,5.25,12,4.689,12,4s0.561-1.25,1.25-1.25S14.5,3.311,14.5,4S13.939,5.25,13.25,5.25z M15,28h-3V14h3V28z"/>
</svg>
