<?xml version="1.0" encoding="utf-8"?>
<!-- Generator: Adobe Illustrator 18.1.1, SVG Export Plug-In . SVG Version: 6.00 Build 0)  -->
<!DOCTYPE svg PUBLIC "-//W3C//DTD SVG 1.1//EN" "http://www.w3.org/Graphics/SVG/1.1/DTD/svg11.dtd">
<svg version="1.1" id="Icons" xmlns="http://www.w3.org/2000/svg" xmlns:xlink="http://www.w3.org/1999/xlink" x="0px" y="0px"
	 width="32px" height="32px" viewBox="0 0 32 32" enable-background="new 0 0 32 32" xml:space="preserve">
<g>
	<rect x="11.661" y="25.657" width="8" height="2"/>
	<rect x="13.661" y="28.657" width="4" height="2"/>
	<path d="M21.669,7.197L9.112,10.561c-0.801,0.215-1.275,1.037-1.061,1.837c0.213,0.801,1.037,1.275,1.836,1.061l12.557-3.364
		c0.801-0.215,1.275-1.037,1.061-1.837C23.292,7.457,22.468,6.982,21.669,7.197z"/>
	<path d="M9.888,8.313l12.557-3.364c0.801-0.215,1.275-1.037,1.061-1.837c-0.213-0.801-1.037-1.275-1.836-1.061L9.112,5.416
		C8.311,5.631,7.837,6.453,8.052,7.253C8.265,8.054,9.089,8.528,9.888,8.313z"/>
	<path d="M21.669,12.311L9.112,15.677c-0.801,0.215-1.275,1.037-1.061,1.836c0.068,0.261,0.207,0.482,0.385,0.661l3.225,2.926v3.558
		h8v-3.755l2.141-0.575c0.631-0.168,1.008-0.818,0.844-1.451c-0.168-0.636-0.815-1.015-1.447-0.847l-2.652,0.716
		c-0.551,0.145-0.902,0.66-0.875,1.209v2.703h-4.021l-0.004-2.391c0.012-0.334-0.103-0.667-0.371-0.908l-1.445-1.305l10.615-2.844
		c0.801-0.215,1.275-1.037,1.061-1.838C23.292,12.571,22.468,12.097,21.669,12.311z"/>
</g>
</svg>
