<?xml version="1.0" encoding="utf-8"?>
<!-- Generator: Adobe Illustrator 18.1.1, SVG Export Plug-In . SVG Version: 6.00 Build 0)  -->
<!DOCTYPE svg PUBLIC "-//W3C//DTD SVG 1.1//EN" "http://www.w3.org/Graphics/SVG/1.1/DTD/svg11.dtd">
<svg version="1.1" id="Layer_1" xmlns="http://www.w3.org/2000/svg" xmlns:xlink="http://www.w3.org/1999/xlink" x="0px" y="0px"
	 width="32px" height="32px" viewBox="0 0 32 32" enable-background="new 0 0 32 32" xml:space="preserve">
<path d="M29.537,9.763l-0.001-0.006c-1.973,0.934-2.715,1.579-3.273,1.021c-1.001-1.001-1.905-0.384-3.097,0.238
	c-0.61,0.319-0.885-0.403-1.603-0.403c-0.545,0-0.994,0.357-1.161,0.845l-0.847-0.833c-1.901-1.92-3.037,0.54-5.59-0.595
	l0.005,0.018c-5.081-2.09-8.52,0.305-9.654,2.982l-0.008-0.009l-1.719,3.787l0.024,0.008c-0.543,1.436,0.678,2.078,1.968,1.184
	c0.667,1.203,1.745,2.173,3.07,2.729c-0.547,0.547-1.267,1.068-1.267,1.791c0,0.699,0.566,1.265,1.265,1.265h7.288
	c1.371,0,0.342-2.502-1.746-2.525c1.186-2.499-0.386-5.714-3.391-6.15c2.909-0.422,5.385,1.986,4.977,4.948
	c0.607-0.299,1.144-0.608,1.787-0.964l1.251,2.164l0.026,0.004c1.598,2.736,4.175,2.523,5.885,2.523
	c1.399,0,0.324-2.568-1.823-2.524l-1.65-3.536c6.362-1.451,9.284,1.71,9.317-0.215c0.004-0.245-0.118-0.474-0.322-0.609
	c-0.864-0.567-2.433-1.677-1.733-2.432c3.03-3.265,2.929-0.589,2.929-4.143C30.443,9.88,29.979,9.547,29.537,9.763z M25.318,13.153
	c-0.349,0-0.632-0.283-0.632-0.632c0-0.349,0.283-0.632,0.632-0.632c0.349,0,0.632,0.283,0.632,0.632
	C25.951,12.87,25.667,13.153,25.318,13.153z"/>
</svg>
