<?xml version="1.0" encoding="utf-8"?>
<!-- Generator: Adobe Illustrator 18.1.1, SVG Export Plug-In . SVG Version: 6.00 Build 0)  -->
<!DOCTYPE svg PUBLIC "-//W3C//DTD SVG 1.1//EN" "http://www.w3.org/Graphics/SVG/1.1/DTD/svg11.dtd">
<svg version="1.1" id="Layer_1" xmlns="http://www.w3.org/2000/svg" xmlns:xlink="http://www.w3.org/1999/xlink" x="0px" y="0px"
	 width="32px" height="32px" viewBox="0 0 32 32" enable-background="new 0 0 32 32" xml:space="preserve">
<g>
	<path d="M11,24c-2.757,0-5-2.243-5-5c0-2.682,2.128-4.861,4.782-4.978L10.8,14h3.779l0.008-0.009C15.374,13.945,16,13.299,16,12.5
		V10c0-1.105-0.895-2-2-2H8c-1.105,0-2,0.895-2,2v2.76C4.173,14.227,3,16.475,3,19c0,4.418,3.582,8,8,8
		c1.314,0,2.551-0.323,3.646-0.885c-0.573-0.823-1.007-1.746-1.28-2.738C12.658,23.762,11.86,24,11,24z M11,10c0.552,0,1,0.448,1,1
		c0,0.552-0.448,1-1,1s-1-0.448-1-1C10,10.448,10.448,10,11,10z"/>
	<path d="M10.996,7h2c0.6,0,1.135-0.274,1.502-0.696C14.865,6.726,15.4,7,16,7h2c0.008,0,0.016-0.002,0.024-0.002
		C18.014,7.075,18,7.15,18,7.229c0,1.1,0.9,2,2,2h2c1.1,0,2-0.9,2-2c0-1.1-0.9-2-2-2h-2c-0.008,0-0.016,0.002-0.024,0.002
		C19.986,5.155,20,5.079,20,5c0-1.1-0.9-2-2-2h-2c-0.6,0-1.135,0.274-1.502,0.696C14.13,3.274,13.596,3,12.996,3h-2
		c-1.1,0-2,0.9-2,2C8.996,6.1,9.896,7,10.996,7z M22,6.229c0.551,0,1,0.449,1,1s-0.449,1-1,1h-2c-0.551,0-1-0.449-1-1s0.449-1,1-1
		H22z M16,4h2c0.551,0,1,0.449,1,1s-0.449,1-1,1h-2c-0.551,0-1-0.449-1-1S15.449,4,16,4z M10.996,4h2c0.551,0,1,0.449,1,1
		s-0.449,1-1,1h-2c-0.551,0-1-0.449-1-1S10.444,4,10.996,4z"/>
	<path d="M27.792,15.492C27.407,16.378,26.526,17,25.5,17h-0.531C26.194,17.912,27,19.359,27,21c0,2.757-2.243,5-5,5s-5-2.243-5-5
		c0-2.682,2.128-4.861,4.782-4.978L21.8,16h3.779l0.008-0.009C26.374,15.945,27,15.299,27,14.5V12c0-1.105-0.895-2-2-2h-6
		c-1.105,0-2,0.895-2,2v2.76c-1.827,1.466-3,3.714-3,6.24c0,4.418,3.582,8,8,8s8-3.582,8-8C30,18.863,29.157,16.927,27.792,15.492z
		 M22,12c0.552,0,1,0.448,1,1c0,0.552-0.448,1-1,1s-1-0.448-1-1C21,12.448,21.448,12,22,12z"/>
</g>
</svg>
