<?xml version="1.0" encoding="utf-8"?>
<!-- Generator: Adobe Illustrator 18.1.1, SVG Export Plug-In . SVG Version: 6.00 Build 0)  -->
<!DOCTYPE svg PUBLIC "-//W3C//DTD SVG 1.1//EN" "http://www.w3.org/Graphics/SVG/1.1/DTD/svg11.dtd">
<svg version="1.1" id="Layer_1" xmlns="http://www.w3.org/2000/svg" xmlns:xlink="http://www.w3.org/1999/xlink" x="0px" y="0px"
	 width="32px" height="32px" viewBox="0 0 32 32" enable-background="new 0 0 32 32" xml:space="preserve">
<g>
	<path d="M14,12.202V7H8v5l1.499,2.417C10.766,13.329,12.303,12.547,14,12.202z"/>
	<path d="M18,12.202c1.697,0.346,3.234,1.127,4.501,2.215L24,12V7h-6V12.202z"/>
	<rect x="8" y="1" width="16" height="4"/>
	<path d="M16,14c-4.418,0-8,3.582-8,8s3.582,8,8,8s8-3.582,8-8S20.418,14,16,14z M19.552,26.932L16,24.352l-3.552,2.581l1.357-4.176
		l-3.552-2.581l4.391,0L16,16l1.357,4.176l4.391,0l-3.552,2.581L19.552,26.932z"/>
</g>
</svg>
