<?xml version="1.0" encoding="utf-8"?>
<!-- Generator: Adobe Illustrator 18.1.1, SVG Export Plug-In . SVG Version: 6.00 Build 0)  -->
<!DOCTYPE svg PUBLIC "-//W3C//DTD SVG 1.1//EN" "http://www.w3.org/Graphics/SVG/1.1/DTD/svg11.dtd">
<svg version="1.1" id="Layer_1" xmlns="http://www.w3.org/2000/svg" xmlns:xlink="http://www.w3.org/1999/xlink" x="0px" y="0px"
	 width="32px" height="32px" viewBox="0 0 32 32" enable-background="new 0 0 32 32" xml:space="preserve">
<g>
	<rect x="2" y="20" width="4" height="4"/>
	<rect x="2" y="9" width="4" height="4"/>
	<polygon points="19,6 19,6 17,4 15,6 15,7 15,28 19,28 19,24 21.991,24 21.991,20 19,20 19,13 21.991,13 21.991,9 19,9 	"/>
	<polygon points="30,13 30,9 27,9 27,6 27,6 25,4 23,6 23,7 23,28 27,28 27,24 30,24 30,20 27,20 27,13 	"/>
	<polygon points="11,6 11,6 9,4 7,6 7,7 7,28 11,28 11,24 14,24 14,20 11,20 11,13 14,13 14,9 11,9 	"/>
</g>
</svg>
