<?xml version="1.0" encoding="utf-8"?>
<!-- Generator: Adobe Illustrator 18.1.1, SVG Export Plug-In . SVG Version: 6.00 Build 0)  -->
<!DOCTYPE svg PUBLIC "-//W3C//DTD SVG 1.1//EN" "http://www.w3.org/Graphics/SVG/1.1/DTD/svg11.dtd">
<svg version="1.1" id="Layer_1" xmlns="http://www.w3.org/2000/svg" xmlns:xlink="http://www.w3.org/1999/xlink" x="0px" y="0px"
	 width="32px" height="32px" viewBox="0 0 32 32" enable-background="new 0 0 32 32" xml:space="preserve">
<g>
	<path d="M14.607,8.289c-0.256-0.292-0.41-0.656-0.444-1.042c-0.873-0.265-1.857-0.061-2.548,0.63
		c-0.379,0.379-0.612,0.846-0.704,1.336c0.411,0.281,0.907,0.447,1.442,0.447C13.336,9.659,14.18,9.101,14.607,8.289z"/>
	<path d="M15.276,8.776c-0.168-0.07-0.314-0.168-0.449-0.277c-0.816,0.427-1.377,1.272-1.377,2.257c0,0.535,0.166,1.031,0.447,1.442
		c0.489-0.092,0.957-0.325,1.336-0.704c0.702-0.702,0.9-1.707,0.614-2.591C15.655,8.889,15.463,8.853,15.276,8.776z"/>
	<path d="M17.147,8.479c-0.278,0.234-0.617,0.378-0.977,0.417c-0.289,0.885-0.092,1.894,0.612,2.597
		c0.379,0.379,0.846,0.612,1.336,0.704c0.281-0.411,0.447-0.907,0.447-1.442C18.565,9.754,17.985,8.898,17.147,8.479z"/>
	<path d="M21.103,9.212c-0.092-0.489-0.325-0.957-0.704-1.336c-0.708-0.708-1.726-0.903-2.615-0.606
		c-0.017,0.173-0.051,0.347-0.122,0.516c-0.07,0.169-0.169,0.316-0.279,0.451c0.419,0.839,1.276,1.421,2.278,1.421
		C20.197,9.659,20.693,9.493,21.103,9.212z"/>
	<path d="M17.392,5.948c0.227,0.283,0.364,0.624,0.396,0.986c0.889,0.296,1.904,0.101,2.612-0.607
		c0.379-0.379,0.612-0.846,0.704-1.336c-0.411-0.281-0.907-0.447-1.442-0.447C18.666,4.544,17.814,5.117,17.392,5.948z"/>
	<path d="M16.674,5.4c0.187,0.078,0.348,0.188,0.493,0.314c0.827-0.423,1.398-1.274,1.398-2.267c0-0.535-0.166-1.031-0.447-1.442
		c-0.489,0.092-0.957,0.325-1.336,0.704c-0.696,0.696-0.897,1.691-0.622,2.57C16.333,5.297,16.506,5.331,16.674,5.4z"/>
	<path d="M14.161,6.957c0.014-0.19,0.049-0.382,0.126-0.568c0.077-0.186,0.187-0.346,0.312-0.491
		c-0.43-0.804-1.27-1.354-2.246-1.354c-0.535,0-1.031,0.166-1.442,0.447c0.092,0.489,0.325,0.957,0.704,1.336
		C12.305,7.016,13.288,7.221,14.161,6.957z"/>
	<path d="M14.806,5.694c0.297-0.249,0.664-0.397,1.051-0.423c0.272-0.877,0.07-1.868-0.624-2.562
		c-0.379-0.379-0.846-0.612-1.336-0.704c-0.281,0.411-0.447,0.907-0.447,1.442C13.45,4.424,14.001,5.264,14.806,5.694z"/>
	<path d="M11.16,17.576L11.16,17.576c0.976,0.177,1.918-0.193,2.525-0.889c0.423-0.486,0.294-1.221-0.253-1.562
		c-0.932-0.579-2.028-0.916-3.204-0.916c1.233-0.278,2.463-0.159,3.559,0.271c0.268,0.105,0.531-0.152,0.442-0.426
		c-0.299-0.921-1.077-1.652-2.097-1.837c0,0-1.297-0.278-2.777,0.924c-1.08,0.878-1.486,1.064-1.497,1.069
		c0.008,0.008,0.323,0.325,1.026,1.526C9.848,17.381,11.16,17.576,11.16,17.576z"/>
	<g>
		<path d="M16.878,18.994c0.26-0.896,0.771-1.685,1.461-2.278c0.611,0.675,1.54,1.034,2.501,0.86v0c0,0,1.312-0.195,2.276-1.84
			c0.703-1.201,1.018-1.518,1.026-1.526c-0.01-0.005-0.416-0.191-1.497-1.069c-1.479-1.202-2.777-0.924-2.777-0.924
			c-0.972,0.176-1.721,0.85-2.047,1.711c-0.097,0.256,0.162,0.508,0.422,0.424c0.998-0.32,2.09-0.389,3.184-0.143
			c-1.402,0-2.691,0.48-3.723,1.277c-0.387,0.299-0.729,0.638-1.026,1.006v-3.64c0-0.375-0.304-0.678-0.678-0.678
			s-0.678,0.304-0.678,0.678v6.141H16.878z"/>
		<polygon points="8,19.994 8,23.994 10.278,23.994 12,29.994 20,29.994 21.722,23.994 24,23.994 24,19.994 		"/>
	</g>
</g>
</svg>
