<?xml version="1.0" encoding="utf-8"?>
<!-- Generator: Adobe Illustrator 18.1.1, SVG Export Plug-In . SVG Version: 6.00 Build 0)  -->
<!DOCTYPE svg PUBLIC "-//W3C//DTD SVG 1.1//EN" "http://www.w3.org/Graphics/SVG/1.1/DTD/svg11.dtd">
<svg version="1.1" id="Layer_1" xmlns="http://www.w3.org/2000/svg" xmlns:xlink="http://www.w3.org/1999/xlink" x="0px" y="0px"
	 width="32px" height="32px" viewBox="0 0 32 32" enable-background="new 0 0 32 32" xml:space="preserve">
<path d="M31,7V6c0-0.553-0.447-1-1-1c-0.294,0-0.552,0.132-0.735,0.334L29.258,5.32L27.578,7H15.001
	c-1.477,0-2.697,1.068-2.947,2.473L12.05,9.47c-0.049,0.245-0.127,0.479-0.216,0.709C11.109,9.451,10.107,9,9,9H7
	c-0.552,0-1,0.447-1,1c0,0.553,0.448,1,1,1h1.979v1.913C3.771,14.586,0,19.465,0,25.227v0.001C0,26.758,1.241,28,2.772,28h5.24
	C9.117,28,10,27.104,10,26v-6.027c0-1.099,0.903-2.013,2.002-1.989h0.031L12,18c1.104,0,2,0.896,2,2c0,1.656,1.343,3,3,3h2
	c1.656,0,3-1.344,3-3v-2h1c0.553,0,1-0.447,1-1v-5h8V7H31z M19,22h-2c-1.104,0-2-0.896-2-2c0-1.104,0.896-2,2-2h0.032
	c0.114,0.006,0.207,0.087,0.225,0.197c0.003,0.076,0.005,0.152,0.002,0.233c-0.042,0.767,0.09,1.651,0.507,2.272
	c0.012,0.018,0.023,0.034,0.035,0.054c0.1,0.137,0.287,0.177,0.428,0.084c0.129-0.087,0.173-0.25,0.109-0.386
	c-0.309-0.671-0.279-1.434,0.047-2.066l0.139-0.307c0.019-0.033,0.054-0.052,0.077-0.082H19c1.104,0,2,0.896,2,2
	C21,21.104,20.104,22,19,22z M22,12h-7v-1h7V12z M22,10h-7V8.953h7V10z"/>
</svg>
