<?xml version="1.0" encoding="utf-8"?>
<!-- Generator: Adobe Illustrator 18.1.1, SVG Export Plug-In . SVG Version: 6.00 Build 0)  -->
<!DOCTYPE svg PUBLIC "-//W3C//DTD SVG 1.1//EN" "http://www.w3.org/Graphics/SVG/1.1/DTD/svg11.dtd">
<svg version="1.1" id="Layer_1" xmlns="http://www.w3.org/2000/svg" xmlns:xlink="http://www.w3.org/1999/xlink" x="0px" y="0px"
	 width="32px" height="32px" viewBox="0 0 32 32" enable-background="new 0 0 32 32" xml:space="preserve">
<g>
	<rect x="14" y="8" width="4" height="1"/>
	<rect x="14" y="1" width="4" height="1"/>
	<rect x="9" y="30" width="6" height="1"/>
	<rect x="17" y="30" width="6" height="1"/>
	<path d="M30,10v1.691l-1.5,0.75l-1.5-0.75V10h-1v2.309l1.97,0.985C27.817,15.36,26.105,17,24,17v-4h-6v-2h4V7V5V3H10v2v2v4h4v2H8v4
		c-2.105,0-3.817-1.64-3.97-3.706L6,12.309V10H5v1.691l-1.5,0.75L2,11.691V10H1v2.309l2.033,1.016C3.204,15.928,5.355,18,8,18v5h3
		v2.193C9.853,25.615,9.031,26.707,9.031,28v1h6v-1c0-1.316-0.853-2.422-2.031-2.826V23h6v2.184c-1.163,0.413-2,1.512-2,2.816v1h6
		v-1c0-1.304-0.837-2.403-2-2.816V23h3v-5c2.645,0,4.796-2.072,4.967-4.674L31,12.309V10H30z M11,4h10v1H11V4z M11,10V7h10v3H11z
		 M17,11v2h-2v-2H17z M14.031,28h-4c0-1.103,0.897-2,2-2S14.031,26.897,14.031,28z M22,28h-4c0-1.103,0.897-2,2-2S22,26.897,22,28z
		 M23,22H9v-8h14V22z"/>
	<path d="M16,16.5c0.267,0,0.521,0.046,0.767,0.112l0.795-0.795C17.082,15.613,16.554,15.5,16,15.5c-2.209,0-4,1.791-4,4h1
		C13,17.846,14.346,16.5,16,16.5z"/>
	<path d="M16,18.5c-0.552,0-1,0.448-1,1c0,0.552,0.448,1,1,1s1-0.448,1-1c0-0.086-0.029-0.164-0.049-0.244l1.484-1.484
		C18.787,18.26,19,18.853,19,19.5h1c0-0.924-0.328-1.762-0.856-2.437l0.71-0.71l-0.707-0.707l-2.903,2.903
		C16.164,18.529,16.086,18.5,16,18.5z"/>
	<rect x="8" y="5" width="1" height="3"/>
	<rect x="23" y="5" width="1" height="3"/>
</g>
</svg>
