<?xml version="1.0" encoding="utf-8"?>
<!-- Generator: Adobe Illustrator 18.1.1, SVG Export Plug-In . SVG Version: 6.00 Build 0)  -->
<!DOCTYPE svg PUBLIC "-//W3C//DTD SVG 1.1//EN" "http://www.w3.org/Graphics/SVG/1.1/DTD/svg11.dtd">
<svg version="1.1" id="Layer_1" xmlns="http://www.w3.org/2000/svg" xmlns:xlink="http://www.w3.org/1999/xlink" x="0px" y="0px"
	 width="32px" height="32px" viewBox="0 0 32 32" enable-background="new 0 0 32 32" xml:space="preserve">
<g>
	<path d="M18.703,25.003c0,0,0.031,0.884-1.032,1.712c-0.776,0.604-0.964,0.849-0.969,0.855c-0.005-0.006-0.193-0.25-0.969-0.855
		c-1.062-0.827-1.032-1.712-1.032-1.712c-0.614,0.471-1,1.082-1,1.712c0,0.469,0,1.287,1,2.156c1.055,0.917,1.828,1.272,2,2.129
		c0.401-0.152,1.002-0.521,0.842-1.34c-0.186-0.95-0.061-1.19,0.473-1.19c0.153,0,0.584,0.152,0.351,0.665
		c-0.112,0.246,0.03,0.513,0.178,0.647C18.765,28.625,21.39,27.143,18.703,25.003z"/>
	<path d="M28.703,6v1.732l-1,0.667l-1-0.667V6h-1v2.268l1.475,0.984c-0.115,1.62-1.306,2.97-2.796,3.497
		c-0.298-0.731-1.014-1.249-1.851-1.249c-0.7,0-1.315,0.363-1.672,0.908c-0.795-1.17-1.899-1.997-3.156-2.289V9.801
		c1.724-0.667,3-2.938,3-4.801c0-2.209-1.791-4-4-4c-2.209,0-4,1.791-4,4c0,1.863,1.276,4.134,3,4.801v0.319
		c-1.257,0.291-2.361,1.119-3.156,2.289c-0.357-0.546-0.972-0.908-1.672-0.908c-0.837,0-1.553,0.518-1.851,1.249
		c-1.491-0.527-2.681-1.878-2.796-3.497l1.475-0.984V6h-1v1.732l-1,0.667l-1-0.667V6h-1v2.268l1.528,1.019
		c0.134,2.114,1.698,3.864,3.67,4.468c0.127,0.982,0.959,1.746,1.974,1.746c0.169,0,0.33-0.027,0.487-0.067
		c-0.074,0.447-0.113,0.91-0.113,1.385c0,1.759,0.538,3.655,1.413,5.182h2.042v1h-1v1h6v-1h-1v-1h2.042
		c0.875-1.527,1.413-3.423,1.413-5.182c0-0.475-0.039-0.938-0.113-1.385c0.157,0.04,0.318,0.067,0.487,0.067
		c1.016,0,1.848-0.764,1.974-1.746c1.971-0.604,3.536-2.354,3.67-4.468l1.528-1.019V6H28.703z M15.203,18h-1v-4h1V18z M13.703,6V4h6
		v2H13.703z M15.703,7h2v1h-2V7z M17.203,18h-1v-4h1V18z M19.203,18h-1v-4h1V18z"/>
	<circle cx="15.234" cy="5" r="0.583"/>
	<circle cx="18.203" cy="5" r="0.583"/>
</g>
</svg>
