<?xml version="1.0" encoding="utf-8"?>
<!-- Generator: Adobe Illustrator 18.1.1, SVG Export Plug-In . SVG Version: 6.00 Build 0)  -->
<!DOCTYPE svg PUBLIC "-//W3C//DTD SVG 1.1//EN" "http://www.w3.org/Graphics/SVG/1.1/DTD/svg11.dtd">
<svg version="1.1" id="Layer_1" xmlns="http://www.w3.org/2000/svg" xmlns:xlink="http://www.w3.org/1999/xlink" x="0px" y="0px"
	 width="32px" height="32px" viewBox="0 0 32 32" enable-background="new 0 0 32 32" xml:space="preserve">
<g>
	<path d="M17.969,25.003c0,0,0.031,0.884-1.032,1.712c-0.776,0.604-0.964,0.849-0.969,0.855c-0.005-0.006-0.193-0.25-0.969-0.855
		c-1.062-0.827-1.032-1.712-1.032-1.712c-0.614,0.471-1,1.082-1,1.712c0,0.469,0,1.287,1,2.156c1.055,0.917,1.828,1.272,2,2.129
		c0.401-0.152,1.002-0.521,0.842-1.34c-0.186-0.95-0.061-1.19,0.473-1.19c0.153,0,0.584,0.152,0.351,0.665
		c-0.112,0.246,0.03,0.513,0.178,0.647C18.031,28.625,20.656,27.143,17.969,25.003z"/>
	<g>
		<rect x="6" y="6" width="1" height="1.25"/>
		<g>
			<rect x="25" y="6" width="1" height="1"/>
			<path d="M28,6v2h-3v0.518l1.444,0.734c-0.115,1.62-1.306,2.97-2.796,3.497c-0.298-0.731-1.014-1.249-1.851-1.249
				c-0.7,0-1.315,0.363-1.672,0.908c-0.795-1.17-1.899-1.997-3.156-2.289V9.801c1.724-0.667,3-2.938,3-4.801c0-2.209-1.791-4-4-4
				c-2.209,0-4,1.791-4,4c0,1.863,1.276,4.134,3,4.801v0.319c-1.257,0.291-2.361,1.119-3.156,2.289
				c-0.357-0.546-0.972-0.908-1.672-0.908c-0.837,0-1.553,0.518-1.851,1.249c-1.491-0.527-2.681-1.878-2.796-3.497L7,8.518V8H4V6H3
				v2.518l1.497,0.769c0.134,2.114,1.698,3.864,3.67,4.468c0.127,0.982,0.959,1.746,1.974,1.746c0.169,0,0.33-0.027,0.487-0.067
				c-0.074,0.447-0.113,0.91-0.113,1.385c0,1.759,0.538,3.655,1.413,5.182h2.042l-0.5,1h-0.5v1h6v-1h-0.5l-0.5-1h2.042
				c0.875-1.527,1.413-3.423,1.413-5.182c0-0.475-0.039-0.938-0.113-1.385c0.157,0.04,0.318,0.067,0.487,0.067
				c1.016,0,1.848-0.764,1.974-1.746c1.971-0.604,3.536-2.354,3.67-4.468L29,8.518V6H28z M11.077,13.817
				c-0.015,0.039-0.031,0.078-0.045,0.118c-0.163,0.332-0.496,0.565-0.891,0.565c-0.552,0-1-0.448-1-1c0-0.552,0.448-1,1-1
				c0.552,0,1,0.448,1,1C11.141,13.612,11.111,13.716,11.077,13.817z M13.309,3.639C13.805,2.669,14.806,2,15.969,2
				s2.164,0.669,2.66,1.639C18.713,3.804,18.586,4,18.401,4h-4.864C13.352,4,13.224,3.804,13.309,3.639z M17.969,5
				c0,0.276-0.224,0.5-0.5,0.5s-0.5-0.224-0.5-0.5c0-0.276,0.224-0.5,0.5-0.5S17.969,4.724,17.969,5z M14.969,5
				c0,0.276-0.224,0.5-0.5,0.5s-0.5-0.224-0.5-0.5c0-0.276,0.224-0.5,0.5-0.5S14.969,4.724,14.969,5z M13.262,6.44
				C13.183,6.226,13.348,6,13.576,6h4.785c0.228,0,0.393,0.226,0.314,0.44C18.182,7.78,17.105,9,15.969,9
				C14.832,9,13.756,7.78,13.262,6.44z M19.411,21h-6.884c-0.647-1.309-1.012-2.804-1.012-4.182c0-0.876,0.153-1.704,0.42-2.45
				c0.052-0.107,0.093-0.219,0.125-0.336C12.817,12.227,14.285,11,15.969,11s3.152,1.227,3.909,3.032
				c0.032,0.117,0.073,0.229,0.125,0.336c0.267,0.746,0.42,1.574,0.42,2.45C20.423,18.196,20.058,19.691,19.411,21z M21.797,14.5
				c-0.394,0-0.728-0.234-0.891-0.565c-0.015-0.039-0.03-0.078-0.045-0.117c-0.034-0.101-0.064-0.205-0.064-0.317
				c0-0.552,0.448-1,1-1c0.552,0,1,0.448,1,1C22.797,14.052,22.349,14.5,21.797,14.5z"/>
		</g>
	</g>
	<rect x="14.969" y="7" width="2" height="1"/>
	<rect x="13.469" y="14" width="1" height="1"/>
	<rect x="15.469" y="14" width="1" height="1"/>
	<rect x="17.469" y="14" width="1" height="1"/>
	<rect x="13.469" y="16" width="1" height="1"/>
	<rect x="15.469" y="16" width="1" height="1"/>
	<rect x="17.469" y="16" width="1" height="1"/>
	<rect x="13.469" y="18" width="1" height="1"/>
	<rect x="15.469" y="18" width="1" height="1"/>
	<rect x="17.469" y="18" width="1" height="1"/>
</g>
</svg>
