<?xml version="1.0" encoding="utf-8"?>
<!-- Generator: Adobe Illustrator 18.1.1, SVG Export Plug-In . SVG Version: 6.00 Build 0)  -->
<!DOCTYPE svg PUBLIC "-//W3C//DTD SVG 1.1//EN" "http://www.w3.org/Graphics/SVG/1.1/DTD/svg11.dtd">
<svg version="1.1" id="Icons" xmlns="http://www.w3.org/2000/svg" xmlns:xlink="http://www.w3.org/1999/xlink" x="0px" y="0px"
	 width="32px" height="32px" viewBox="0 0 32 32" enable-background="new 0 0 32 32" xml:space="preserve">
<g>
	<g>
		<circle cx="18.329" cy="2.626" r="2.626"/>
		<path d="M26.985,15.948l-4.408-2.167L21.278,9.92c-0.822-1.66-2.33-2.998-4.297-3.588c-0.683-0.205-1.375-0.305-2.056-0.31
			l-3.913,0.006c-0.511,0-0.954,0.291-1.171,0.718L7.368,11.75l0,0c0,0-0.001,0-0.001,0.002c-0.243,0.418-0.102,0.953,0.316,1.195
			c0.393,0.229,0.883,0.115,1.145-0.244l0.004,0.004l2.967-4.078h1.032L12.167,16.4c-0.013,0.132-0.02,0.264-0.02,0.399
			c0,1.285,0.615,2.427,1.567,3.146c3.072,2.379,5.723,4.363,6.133,4.674l4.799,6.875l0,0c0.367,0.515,1.06,0.705,1.646,0.419
			c0.652-0.318,0.92-1.104,0.604-1.755l-3.34-6.748l-5.343-6.713l1.106-3.308l1.43,2.002c0.131,0.191,0.315,0.345,0.552,0.432
			l5.082,1.762l0.002-0.002c0.403,0.111,0.842-0.08,1.024-0.473C27.612,16.674,27.422,16.151,26.985,15.948z"/>
		<path d="M11.508,23.963l-5.848,3.33l-0.001,0.002c-0.001,0-0.001,0-0.001,0H5.655c-0.626,0.362-0.84,1.164-0.48,1.791
			c0.322,0.559,0.992,0.791,1.579,0.58l0.001,0.002l7.218-2.554c0.553-0.213,0.985-0.668,1.168-1.233l0.578-1.732l-3.977-3.012
			L11.508,23.963z"/>
	</g>
</g>
</svg>
