<?xml version="1.0" encoding="utf-8"?>
<!-- Generator: Adobe Illustrator 18.1.1, SVG Export Plug-In . SVG Version: 6.00 Build 0)  -->
<!DOCTYPE svg PUBLIC "-//W3C//DTD SVG 1.1//EN" "http://www.w3.org/Graphics/SVG/1.1/DTD/svg11.dtd">
<svg version="1.1" id="Icons" xmlns="http://www.w3.org/2000/svg" xmlns:xlink="http://www.w3.org/1999/xlink" x="0px" y="0px"
	 width="32px" height="32px" viewBox="0 0 32 32" enable-background="new 0 0 32 32" xml:space="preserve">
<g>
	<circle cx="12.336" cy="31.138" r="0.908"/>
	<path d="M21.738,30.23c-0.5,0-0.906,0.406-0.906,0.908c0,0.501,0.406,0.908,0.906,0.908c0.501,0,0.908-0.406,0.908-0.908
		C22.646,30.636,22.239,30.23,21.738,30.23z"/>
	<path d="M21.432,4.609c1.252,0.17,2.408-0.709,2.578-1.964c0.17-1.254-0.709-2.409-1.963-2.579c-1.255-0.171-2.41,0.709-2.58,1.963
		C19.297,3.285,20.176,4.438,21.432,4.609z"/>
	<path d="M26.452,14.769l-3.871-2.821l-0.902-4.762c-0.009-0.053-0.024-0.104-0.042-0.152c-0.249-0.931-0.911-1.741-1.866-2.147
		C18.854,4.5,17.86,4.564,17.037,4.981l-4.124,1.334c-0.102,0.032-0.195,0.081-0.275,0.14c-0.186,0.105-0.34,0.269-0.43,0.479
		l-2.019,4.746c-0.215,0.509,0.022,1.099,0.53,1.315c0.51,0.216,1.1-0.02,1.314-0.53l1.855-4.357l1.147-0.373l-2.082,5.028h0.001
		c-0.173,0.391-0.268,0.822-0.268,1.275c0,0.21,0.02,0.415,0.059,0.614c-0.983,2.153-2.604,5.704-2.614,5.728v0.001
		c-0.02,0.046-0.036,0.094-0.052,0.141l-4.512,4.578H5.566c0,0,0,0.002-0.001,0.002l-0.006,0.007l0,0
		c-0.556,0.551-0.568,1.447-0.022,2.009c0.546,0.562,1.443,0.578,2.009,0.036l0,0c0.001-0.003,0.006-0.004,0.009-0.007
		c0-0.001,0.001-0.001,0.003-0.003l5.009-4.659c0.13-0.125,0.231-0.268,0.308-0.421c0.01-0.013,0.022-0.024,0.032-0.038l0,0
		l2.705-3.486c0.98,1.29,2.01,2.646,2.451,3.225l0.137,6.313v0.002c0,0.001,0,0.001,0,0.001v0.01l0,0
		c0.002,0.18,0.038,0.35,0.099,0.509h-7.282L9.13,28.259c-0.133-0.027-0.264,0.058-0.291,0.19l-0.109,0.399
		c-0.029,0.134,0.058,0.264,0.19,0.291l1.865,0.568c0.032,0.014,0.171,0.03,0.203,0.023H22.86c0.032,0.007,0.17-0.009,0.202-0.023
		l1.852-0.588c0.134-0.027,0.219-0.158,0.19-0.291l-0.081-0.405c-0.027-0.134-0.157-0.218-0.291-0.19l-1.902,0.369h-1.878
		c0.062-0.158,0.098-0.328,0.099-0.509l0,0c0-0.004,0-0.007,0-0.011c0-0.002,0-0.003,0-0.004l0.15-6.839
		c0-0.079-0.009-0.156-0.019-0.231c-0.001-0.056-0.006-0.112-0.013-0.17c-0.02-0.159-0.063-0.308-0.124-0.447l0,0l-2.268-5.104
		l1.688-3.725l0.2,1.063c0.016,0.085,0.043,0.166,0.079,0.241c0.066,0.19,0.185,0.362,0.36,0.489l4.168,3.035
		c0.448,0.326,1.075,0.228,1.401-0.222C26.999,15.722,26.901,15.095,26.452,14.769z"/>
</g>
</svg>
