<?xml version="1.0" encoding="utf-8"?>
<!-- Generator: Adobe Illustrator 18.1.1, SVG Export Plug-In . SVG Version: 6.00 Build 0)  -->
<!DOCTYPE svg PUBLIC "-//W3C//DTD SVG 1.1//EN" "http://www.w3.org/Graphics/SVG/1.1/DTD/svg11.dtd">
<svg version="1.1" id="Layer_1" xmlns="http://www.w3.org/2000/svg" xmlns:xlink="http://www.w3.org/1999/xlink" x="0px" y="0px"
	 width="32px" height="32px" viewBox="0 0 32 32" enable-background="new 0 0 32 32" xml:space="preserve">
<g>
	<path d="M9.373,22.92L9.373,22.92c2.883,0.523,5.435-2.314,3.348-3.612c-1.373-0.854-2.99-1.349-4.723-1.349
		c1.817-0.409,3.63-0.234,5.246,0.399c0.395,0.155,0.783-0.224,0.652-0.628c-0.9-2.772-4.156-3.806-7.184-1.347
		c-1.592,1.294-2.191,1.569-2.206,1.575C5.556,19.008,6.756,22.53,9.373,22.92z"/>
	<path d="M27.065,28.114c-0.629,0.211-1.316,0.099-1.843-0.3l-0.002,0.002C24.44,27.303,23.511,27,22.507,27
		c-0.629,0-1.225,0.129-1.78,0.341c-0.672-1.064-1.728-1.858-2.975-2.181c0.288-1.129,0.9-2.388,2.202-3.508
		c0.9,0.995,2.27,1.524,3.687,1.267l0,0c2.606-0.388,3.823-3.918,4.867-4.962c-0.015-0.007-0.614-0.282-2.206-1.575
		c-5.226-4.245-8.559,2.449-6.487,1.786c1.471-0.471,3.08-0.574,4.693-0.21c-2.768,0-5.32,1.281-7,3.365
		c0.1,0.095-0.238-3.544-0.059-7.738c1.406,0.001,3.332-1.14,4.377-3.158C23.587,7.274,22.769,4.04,22.507,2
		c-1.377,1.341-7.391-0.23-9.776,3.856c-1.049,1.798-0.749,3.985,0.348,5.59c0.327,0.478,1.209,0.398,1.221-0.18
		c0.058-2.763,1.398-4.848,3.938-5.994c-1.118,1.449-1.852,3.071-2.232,4.748l-0.004,0.001c-0.625,2.768-0.582,5.617-0.854,15.173
		c-1.198,0.341-2.211,1.117-2.861,2.148C11.732,27.129,11.136,27,10.507,27c-1.005,0-1.934,0.303-2.714,0.816l-0.002-0.002
		c-0.527,0.399-1.214,0.511-1.843,0.3C5.242,27.76,4.507,28.293,4.507,29c0,0.552,0.448,1,1,1h22c0.552,0,1-0.448,1-1
		C28.507,28.293,27.771,27.76,27.065,28.114z"/>
</g>
</svg>
