<?xml version="1.0" encoding="utf-8"?>
<!-- Generator: Adobe Illustrator 18.1.1, SVG Export Plug-In . SVG Version: 6.00 Build 0)  -->
<!DOCTYPE svg PUBLIC "-//W3C//DTD SVG 1.1//EN" "http://www.w3.org/Graphics/SVG/1.1/DTD/svg11.dtd">
<svg version="1.1" id="Icons" xmlns="http://www.w3.org/2000/svg" xmlns:xlink="http://www.w3.org/1999/xlink" x="0px" y="0px"
	 width="32px" height="32px" viewBox="0 0 32 32" enable-background="new 0 0 32 32" xml:space="preserve">
<g>
	<path d="M26.204,4.431C25.972,3.576,25.172,3,24.287,3H21v13c-1.1,0-2,0.9-2,2v1H6v10c0,0.552,0.448,1,1,1h14c0.552,0,1-0.448,1-1
		V19h2.287c0.886,0,1.685-0.576,1.918-1.431C26.703,15.737,27,13.466,27,11S26.703,6.263,26.204,4.431z"/>
	<path d="M11.317,12.6L13,9l1.683,3.6h-0.009c0.148,0.314,0.199,0.667,0.157,1.018c0.582-0.511,0.956-1.254,0.956-2.089
		c0-0.291-0.057-0.565-0.139-0.829l-2.17-7.012c-0.145-0.47-0.81-0.47-0.955,0l-2.17,7.012c-0.247,0.789-0.257,1.682,0.801,2.799
		C11.135,13.2,11.18,12.892,11.317,12.6z"/>
	<rect x="9" y="15" width="8" height="3"/>
</g>
</svg>
