<?xml version="1.0" encoding="utf-8"?>
<!-- Generator: Adobe Illustrator 18.0.0, SVG Export Plug-In . SVG Version: 6.00 Build 0)  -->
<!DOCTYPE svg PUBLIC "-//W3C//DTD SVG 1.1//EN" "http://www.w3.org/Graphics/SVG/1.1/DTD/svg11.dtd">
<svg version="1.1" id="Layer_1" xmlns="http://www.w3.org/2000/svg" xmlns:xlink="http://www.w3.org/1999/xlink" x="0px" y="0px"
	 width="32px" height="32px" viewBox="0 0 32 32" enable-background="new 0 0 32 32" xml:space="preserve">
<path d="M4,17"/>
<g>
	<path d="M16,8.5c1.8,0,3.5,0.6,4.9,1.6l-2,2.8h8.6l-2.8-8.1l-2,2.9c-1.9-1.4-4.2-2.2-6.7-2.2C9.7,5.5,4.5,10.7,4.5,17h3
		C7.5,12.3,11.3,8.5,16,8.5z"/>
	<path d="M21.5,23.5l1.9,2.3c1.5-1.3,2.7-3,3.4-4.9l-2.8-1C23.5,21.3,22.6,22.6,21.5,23.5z"/>
	<path d="M16,25.5c-0.5,0-1-0.1-1.5-0.1l-0.5,3c0.6,0.1,1.3,0.2,2,0.2c1.4,0,2.7-0.3,3.9-0.7l-1-2.8C18,25.3,17,25.5,16,25.5z"/>
	<path d="M8,19.9l-2.8,1c0.9,2.5,2.7,4.7,5.1,6l1.5-2.6C10,23.4,8.7,21.8,8,19.9z"/>
</g>
</svg>
