<?xml version="1.0" encoding="utf-8"?>
<!-- Generator: Adobe Illustrator 18.1.1, SVG Export Plug-In . SVG Version: 6.00 Build 0)  -->
<!DOCTYPE svg PUBLIC "-//W3C//DTD SVG 1.1 Tiny//EN" "http://www.w3.org/Graphics/SVG/1.1/DTD/svg11-tiny.dtd">
<svg version="1.1" baseProfile="tiny" id="Layer_1" xmlns="http://www.w3.org/2000/svg" xmlns:xlink="http://www.w3.org/1999/xlink"
	 x="0px" y="0px" width="32px" height="32px" viewBox="0 0 32 32" xml:space="preserve">
<path d="M26,25V13h-3v-3c0-3.866-3.134-7-7-7s-7,3.134-7,7v3H6l0.011,12H15v2.277C14.7,27.452,14.452,27.7,14.277,28H6v2h8.277
	c0.346,0.595,0.984,1,1.723,1s1.376-0.405,1.723-1H26v-2h-8.277C17.548,27.7,17.3,27.452,17,27.277V25H26z M13,10
	c0-1.654,1.346-3,3-3s3,1.346,3,3v3h-6V10z"/>
</svg>
