<?xml version="1.0" encoding="utf-8"?>
<!-- Generator: Adobe Illustrator 18.1.1, SVG Export Plug-In . SVG Version: 6.00 Build 0)  -->
<!DOCTYPE svg PUBLIC "-//W3C//DTD SVG 1.1 Tiny//EN" "http://www.w3.org/Graphics/SVG/1.1/DTD/svg11-tiny.dtd">
<svg version="1.1" baseProfile="tiny" id="Layer_1" xmlns="http://www.w3.org/2000/svg" xmlns:xlink="http://www.w3.org/1999/xlink"
	 x="0px" y="0px" width="32px" height="32px" viewBox="0 0 32 32" xml:space="preserve">
<path d="M23,5.027L23,5.027c-3.866,0-7,3.134-7,7V15H3l0.011,14H23V15h-3v-2.973c0-1.654,1.346-3,3-3s3,1.346,3,3V15h4v-2.973
	C30,8.161,26.866,5.027,23,5.027z M14,22.723V25h-2v-2.277c-0.595-0.346-1-0.984-1-1.723c0-1.105,0.896-2,2-2s2,0.895,2,2
	C15,21.738,14.595,22.376,14,22.723z"/>
</svg>
