<?xml version="1.0" encoding="utf-8"?>
<!-- Generator: Adobe Illustrator 18.1.1, SVG Export Plug-In . SVG Version: 6.00 Build 0)  -->
<!DOCTYPE svg PUBLIC "-//W3C//DTD SVG 1.1//EN" "http://www.w3.org/Graphics/SVG/1.1/DTD/svg11.dtd">
<svg version="1.1" xmlns="http://www.w3.org/2000/svg" xmlns:xlink="http://www.w3.org/1999/xlink" x="0px" y="0px" width="32px"
	 height="32px" viewBox="0 0 32 32" enable-background="new 0 0 32 32" xml:space="preserve">
<g id="Guides__x26__Labels">
</g>
<g id="Icons_-_V2">
	<g>
		<polygon points="17.987,21.816 26.473,30.302 29.301,27.474 20.816,18.988 18.241,19.242 		"/>
		<rect x="6.635" y="5.636" transform="matrix(0.7071 -0.7071 0.7071 0.7071 -3.8702 7.9279)" width="2" height="5.999"/>
		<rect x="4" y="14" width="4" height="2"/>
		<rect x="13" y="21" width="2" height="4"/>
		<rect x="19.999" y="14" width="3.999" height="2"/>
		<rect x="13" y="5" width="2" height="3.999"/>
		<rect x="4.635" y="20.364" transform="matrix(0.707 -0.7072 0.7072 0.707 -12.8713 11.6581)" width="6" height="2"/>
		<rect x="19.363" y="5.636" transform="matrix(-0.7073 -0.7069 0.7069 -0.7073 28.6616 29.1382)" width="2" height="5.999"/>
	</g>
</g>
</svg>
