<?xml version="1.0" encoding="utf-8"?>
<!-- Generator: Adobe Illustrator 18.1.1, SVG Export Plug-In . SVG Version: 6.00 Build 0)  -->
<!DOCTYPE svg PUBLIC "-//W3C//DTD SVG 1.1 Tiny//EN" "http://www.w3.org/Graphics/SVG/1.1/DTD/svg11-tiny.dtd">
<svg version="1.1" baseProfile="tiny" id="Layer_1" xmlns="http://www.w3.org/2000/svg" xmlns:xlink="http://www.w3.org/1999/xlink"
	 x="0px" y="0px" width="32px" height="32px" viewBox="0 0 32 32" xml:space="preserve">
<g>
	<path d="M28,6h-8v4h-8V6H4C2.9,6,2,6.9,2,8v16c0,1.105,0.895,2,2,2h11v1.277C14.7,27.452,14.452,27.7,14.277,28H4v2h10.277
		c0.346,0.595,0.984,1,1.723,1s1.376-0.405,1.723-1H28v-2H17.723C17.548,27.7,17.3,27.452,17,27.277V26h11c1.105,0,2-0.895,2-2V8
		C30,6.9,29.1,6,28,6z M10,13c1.105,0,2,0.895,2,2c0,1.104-0.895,2-2,2c-1.105,0-2-0.895-2-2C8,13.895,8.895,13,10,13z M14,21H6
		l0-2.35c0.431-0.398,1.111-0.747,1.989-0.967c0.561,0.425,1.252,0.687,2.009,0.687c0.757,0,1.447-0.262,2.009-0.686
		c0.878,0.22,1.563,0.569,1.993,0.967L14,21z M25,20h-8v-2h8V20z M25,16h-8v-2h8V16z"/>
	<path d="M18.992,4c0-1.656-1.343-3-3-3S13,2.344,13,4v5h5.992V4z M15.992,5.516c-0.837,0-1.515-0.678-1.515-1.514
		c0-0.836,0.678-1.514,1.515-1.514s1.515,0.678,1.515,1.514C17.507,4.838,16.829,5.516,15.992,5.516z"/>
</g>
</svg>
