<?xml version="1.0" encoding="utf-8"?>
<!-- Generator: Adobe Illustrator 18.0.0, SVG Export Plug-In . SVG Version: 6.00 Build 0)  -->
<!DOCTYPE svg PUBLIC "-//W3C//DTD SVG 1.1//EN" "http://www.w3.org/Graphics/SVG/1.1/DTD/svg11.dtd">
<svg version="1.1" id="Layer_1" xmlns="http://www.w3.org/2000/svg" xmlns:xlink="http://www.w3.org/1999/xlink" x="0px" y="0px"
	 width="32px" height="32px" viewBox="0 0 32 32" enable-background="new 0 0 32 32" xml:space="preserve">
<g>
	<path d="M5.5,16c0-3.6,2.9-6.5,6.5-6.5h10V13l5-5l-5-5v3.5H12c-5.2,0-9.5,4.3-9.5,9.5c0,1.3,0.3,2.6,0.8,3.7l2.4-2.4
		C5.5,16.9,5.5,16.5,5.5,16z"/>
	<path d="M28.7,12.3l-2.4,2.4c0.1,0.4,0.1,0.9,0.1,1.3c0,3.6-2.9,6.5-6.5,6.5H10V19l-5,5l5,5v-3.5h10c5.2,0,9.5-4.3,9.5-9.5
		C29.5,14.7,29.2,13.4,28.7,12.3z"/>
</g>
</svg>
