<?xml version="1.0" encoding="utf-8"?>
<!-- Generator: Adobe Illustrator 18.1.1, SVG Export Plug-In . SVG Version: 6.00 Build 0)  -->
<!DOCTYPE svg PUBLIC "-//W3C//DTD SVG 1.1//EN" "http://www.w3.org/Graphics/SVG/1.1/DTD/svg11.dtd">
<svg version="1.1" id="Layer_1" xmlns="http://www.w3.org/2000/svg" xmlns:xlink="http://www.w3.org/1999/xlink" x="0px" y="0px"
	 width="32px" height="32px" viewBox="0 0 32 32" enable-background="new 0 0 32 32" xml:space="preserve">
<g>
	<path d="M18,9H2v16h4v4h16V13h-4V9z M20,15v12H8V15H20z"/>
	<path d="M27.495,11.012l0.005-0.005c0-1.518-0.619-2.894-1.617-3.89C24.887,6.119,23.511,5.5,21.993,5.5l-0.005,0.005V3L19,6
		l2.988,2.998v-2.5L21.993,6.5c0.002,0,0.005,0.001,0.007,0.001v0.006c1.239,0,2.362,0.504,3.177,1.316
		C25.99,8.638,26.493,9.761,26.493,11h0.006c0,0.002,0.001,0.005,0.001,0.007l0.002,0.005h-2.5L27,14l3-2.988H27.495z"/>
</g>
</svg>
