<?xml version="1.0" encoding="utf-8"?>
<!-- Generator: Adobe Illustrator 18.1.1, SVG Export Plug-In . SVG Version: 6.00 Build 0)  -->
<!DOCTYPE svg PUBLIC "-//W3C//DTD SVG 1.1//EN" "http://www.w3.org/Graphics/SVG/1.1/DTD/svg11.dtd">
<svg version="1.1" xmlns="http://www.w3.org/2000/svg" xmlns:xlink="http://www.w3.org/1999/xlink" x="0px" y="0px" width="32px"
	 height="32px" viewBox="0 0 32 32" enable-background="new 0 0 32 32" xml:space="preserve">
<g id="Guides__x26__Labels">
</g>
<g id="Icons_-_V2">
	<g>
		<rect x="19.57" y="15.486" width="2" height="2"/>
		<rect x="15.57" y="15.486" width="2" height="2"/>
		<rect x="11.57" y="15.486" width="2" height="2"/>
		<rect x="7.57" y="15.486" width="2" height="2"/>
		<rect x="3.57" y="15.486" width="2" height="2"/>
		<path d="M12.57,12.486c3.313,0,6-2.688,6-6c0-3.314-2.687-6-6-6c-3.313,0-6,2.686-6,6C6.57,9.799,9.257,12.486,12.57,12.486z
			 M12.57,2.486c2.209,0,4,1.791,4,4s-1.791,4-4,4c-2.209,0-4-1.791-4-4S10.361,2.486,12.57,2.486z"/>
		<circle cx="12.57" cy="26.486" r="6"/>
		<path d="M27.828,16.481c0-3.033-2.258-5.535-5.258-5.938v2.024c2,0.379,3.258,1.986,3.258,3.914c0,1.111-0.42,2.109-1.151,2.834
			l-1.139-1.16l-0.852,4.649l4.652-0.859l-1.251-1.217C27.182,19.641,27.828,18.145,27.828,16.481z"/>
	</g>
</g>
</svg>
