<?xml version="1.0" encoding="utf-8"?>
<!-- Generator: Adobe Illustrator 18.1.1, SVG Export Plug-In . SVG Version: 6.00 Build 0)  -->
<!DOCTYPE svg PUBLIC "-//W3C//DTD SVG 1.1//EN" "http://www.w3.org/Graphics/SVG/1.1/DTD/svg11.dtd">
<svg version="1.1" id="Layer_1" xmlns="http://www.w3.org/2000/svg" xmlns:xlink="http://www.w3.org/1999/xlink" x="0px" y="0px"
	 width="32px" height="32px" viewBox="0 0 32 32" enable-background="new 0 0 32 32" xml:space="preserve">
<g>
	<path d="M25,6h-2v5H9V6H7C5.9,6,5,6.9,5,8v20c0,1.105,0.895,2,2,2h18c1.105,0,2-0.895,2-2V8C27,6.9,26.1,6,25,6z M21,17h-4v8h-2v-8
		h-4v-2h10V17z"/>
	<path d="M22,5h-2.555C19.203,3.306,17.761,2,16,2s-3.203,1.306-3.445,3H10v5h12V5z M16,6.99c-0.826,0-1.495-0.669-1.495-1.495
		S15.174,4,16,4s1.495,0.669,1.495,1.495S16.826,6.99,16,6.99z"/>
</g>
</svg>
