<svg id="Layer_1" data-name="Layer 1" xmlns="http://www.w3.org/2000/svg" viewBox="0 0 32 32"><title>image-edit-pencil</title><path d="M4,24l6-10.34,6,5.83,4-3.74,2.39,4.94,2.39-2.39L28,15.07V6a2,2,0,0,0-2-2H2A2,2,0,0,0,0,6V26a2,2,0,0,0,2,2H17V26.1l.59-.59L19.08,24ZM18,7.32a3,3,0,1,1-3,3A3,3,0,0,1,18,7.32Z"/><path d="M19,26.93V30h3l7.26-7.26-3.06-3Zm1,2.54L19.52,29V27.49l2,2Z"/><path d="M31.74,19l-1.8-1.81a.89.89,0,0,0-.62-.26.87.87,0,0,0-.62.26l-1.47,1.47,3.06,3,1.46-1.46A.88.88,0,0,0,31.74,19Z"/></svg>