<?xml version="1.0" encoding="utf-8"?>
<!-- Generator: Adobe Illustrator 18.1.1, SVG Export Plug-In . SVG Version: 6.00 Build 0)  -->
<!DOCTYPE svg PUBLIC "-//W3C//DTD SVG 1.1 Tiny//EN" "http://www.w3.org/Graphics/SVG/1.1/DTD/svg11-tiny.dtd">
<svg version="1.1" baseProfile="tiny" xmlns="http://www.w3.org/2000/svg" xmlns:xlink="http://www.w3.org/1999/xlink" x="0px"
	 y="0px" width="32px" height="32px" viewBox="0 0 32 32" xml:space="preserve">
<g id="Guides__x26__Forms">
</g>
<g id="Icons">
	<g>
		<path d="M13.602,20.809C13.088,20.932,12.553,21,12.002,21c-1.141,0-2.215-0.28-3.167-0.766C5.825,20.687,3.353,21.749,2,23l0,3
			h6.135l0.507-0.469c1.395-1.289,3.567-2.313,6.106-2.92C14.279,22.077,13.894,21.468,13.602,20.809z"/>
		<path d="M12.002,19c0.365,0,0.719-0.044,1.063-0.119c-0.037-0.289-0.063-0.582-0.063-0.881c0-2.6,1.428-4.868,3.537-6.075
			C15.749,10.202,14.02,9,12.002,9c-2.761,0-5,2.239-5,5C7.002,16.761,9.24,19,12.002,19z"/>
		<path d="M23.168,24.234C22.216,24.72,21.142,25,20.002,25c-1.141,0-2.215-0.28-3.167-0.766C13.825,24.687,11.353,25.749,10,27l0,3
			H30v-3C28.648,25.75,26.176,24.688,23.168,24.234z"/>
		<circle cx="20.002" cy="18" r="5"/>
		<polygon points="23.879,11.536 26,9.414 28.121,11.536 29.536,10.121 27.414,8 29.536,5.879 28.121,4.464 26,6.586 23.879,4.464 
			22.464,5.879 24.586,8 22.464,10.121 		"/>
	</g>
</g>
</svg>
