<?xml version="1.0" encoding="utf-8"?>
<!-- Generator: Adobe Illustrator 18.1.1, SVG Export Plug-In . SVG Version: 6.00 Build 0)  -->
<!DOCTYPE svg PUBLIC "-//W3C//DTD SVG 1.1 Tiny//EN" "http://www.w3.org/Graphics/SVG/1.1/DTD/svg11-tiny.dtd">
<svg version="1.1" baseProfile="tiny" xmlns="http://www.w3.org/2000/svg" xmlns:xlink="http://www.w3.org/1999/xlink" x="0px"
	 y="0px" width="32px" height="32px" viewBox="0 0 32 32" xml:space="preserve">
<g id="Guides__x26__Forms">
</g>
<g id="Icons">
	<g>
		<g>
			<path d="M1.545,24.455l0-3.653l0.146-0.135c1.492-1.379,4.071-2.429,7.075-2.881l0.144-0.021l0.13,0.066
				c0.931,0.475,1.927,0.716,2.961,0.716c0.495,0,0.998-0.06,1.495-0.179l0.368-0.087l0.153,0.345
				c0.277,0.625,0.638,1.193,1.073,1.688l0.498,0.566l-0.734,0.175c-2.489,0.595-4.585,1.594-5.903,2.812l-0.637,0.589H1.545z"/>
			<path fill="#FFFFFF" d="M8.833,18.234C9.786,18.72,10.86,19,12.001,19c0.551,0,1.086-0.068,1.601-0.191
				c0.292,0.659,0.677,1.268,1.147,1.803c-2.539,0.607-4.712,1.63-6.106,2.92L8.135,24H2l0-3
				C3.352,19.749,5.825,18.687,8.833,18.234 M8.987,17.292l-0.289,0.043c-3.092,0.466-5.759,1.558-7.316,2.997l-0.292,0.27l0,0.398
				l0,3l0,0.909H2h6.135h0.356l0.261-0.242l0.507-0.469c1.261-1.166,3.285-2.126,5.701-2.703l1.468-0.351l-0.996-1.133
				c-0.404-0.46-0.74-0.989-0.999-1.571l-0.306-0.691l-0.735,0.175c-0.462,0.11-0.93,0.166-1.39,0.166
				c-0.961,0-1.887-0.224-2.754-0.666L8.987,17.292L8.987,17.292z"/>
		</g>
		<g>
			<path d="M12.001,17.455c-3.008,0-5.455-2.447-5.455-5.455s2.447-5.455,5.455-5.455c2.119,0,4.062,1.252,4.95,3.19l0.173,0.377
				l-0.361,0.207c-2.04,1.167-3.308,3.344-3.308,5.681c0,0.28,0.024,0.553,0.059,0.824l0.053,0.414l-0.408,0.088
				C12.758,17.413,12.379,17.455,12.001,17.455z"/>
			<path fill="#FFFFFF" d="M12.001,7c2.019,0,3.747,1.202,4.537,2.925C14.428,11.132,13.001,13.4,13.001,16
				c0,0.299,0.026,0.592,0.063,0.881C12.72,16.956,12.366,17,12.001,17c-2.761,0-5-2.239-5-5C7.001,9.239,9.239,7,12.001,7
				 M12.001,6.091c-3.258,0-5.909,2.651-5.909,5.909c0,3.258,2.651,5.909,5.909,5.909c0.407,0,0.829-0.047,1.255-0.139l0.814-0.177
				l-0.105-0.827C13.927,16.471,13.91,16.227,13.91,16c0-2.174,1.18-4.199,3.079-5.286l0.721-0.413l-0.346-0.755
				C16.402,7.447,14.297,6.091,12.001,6.091L12.001,6.091z"/>
		</g>
		<g>
			<path d="M9.545,28.455l0-3.653l0.146-0.135c1.492-1.379,4.071-2.429,7.075-2.881l0.144-0.021l0.13,0.066
				c0.931,0.475,1.927,0.716,2.961,0.716c1.033,0,2.028-0.241,2.96-0.716l0.13-0.066l0.145,0.021
				c3.004,0.453,5.582,1.503,7.073,2.881l0.146,0.135v3.653H9.545z"/>
			<path fill="#FFFFFF" d="M16.833,22.234C17.786,22.72,18.86,23,20.001,23c1.14,0,2.214-0.28,3.167-0.765
				C26.175,22.688,28.648,23.75,30,25v3H10l0-3C11.352,23.749,13.825,22.687,16.833,22.234 M16.987,21.292l-0.289,0.043
				c-3.092,0.466-5.759,1.558-7.316,2.997l-0.292,0.27l0,0.398l0,3l0,0.909H10h20h0.909V28v-3v-0.398l-0.292-0.27
				c-1.556-1.439-4.222-2.531-7.314-2.997l-0.289-0.044l-0.26,0.133c-0.867,0.442-1.793,0.666-2.754,0.666
				c-0.961,0-1.887-0.224-2.754-0.666L16.987,21.292L16.987,21.292z"/>
		</g>
		<g>
			<path d="M20.001,21.455c-3.008,0-5.455-2.447-5.455-5.455s2.447-5.455,5.455-5.455s5.455,2.447,5.455,5.455
				S23.009,21.455,20.001,21.455z"/>
			<path fill="#FFFFFF" d="M20.001,11c2.761,0,5,2.239,5,5c0,2.761-2.239,5-5,5c-2.761,0-5-2.239-5-5
				C15.001,13.239,17.239,11,20.001,11 M20.001,10.091c-3.258,0-5.909,2.651-5.909,5.909c0,3.258,2.651,5.909,5.909,5.909
				S25.91,19.258,25.91,16C25.91,12.742,23.259,10.091,20.001,10.091L20.001,10.091z"/>
		</g>
		<g>
			<path d="M20.482,6.971c-0.617-0.616-0.949-1.436-0.936-2.307c0.013-0.871,0.371-1.68,1.006-2.278
				c0.575-0.542,1.337-0.84,2.146-0.84c0.849,0,1.682,0.331,2.302,0.912c0.621-0.581,1.454-0.912,2.303-0.912
				c0.809,0,1.571,0.298,2.146,0.84c0.635,0.598,0.993,1.407,1.006,2.278c0.013,0.872-0.319,1.691-0.936,2.307l-4.519,4.52
				L20.482,6.971z"/>
			<path fill="#FFFFFF" d="M22.698,2c0.746,0,1.499,0.295,2.061,0.856l0.241,0.241l0.241-0.241C25.804,2.294,26.557,2,27.303,2
				c0.663,0,1.321,0.232,1.834,0.716c1.13,1.064,1.15,2.844,0.061,3.933l-4.198,4.198L20.803,6.65
				c-1.09-1.09-1.07-2.869,0.061-3.933C21.378,2.232,22.035,2,22.698,2 M22.698,1.091L22.698,1.091
				c-0.925,0-1.798,0.342-2.458,0.963c-0.726,0.683-1.134,1.608-1.149,2.603c-0.015,0.995,0.364,1.931,1.068,2.635l4.198,4.198
				l0.643,0.643l0.643-0.643l4.198-4.198c0.704-0.704,1.083-1.64,1.068-2.635c-0.015-0.995-0.423-1.919-1.149-2.603
				c-0.66-0.621-1.533-0.963-2.458-0.963c-0.828,0-1.642,0.278-2.303,0.774C24.341,1.369,23.526,1.091,22.698,1.091L22.698,1.091z"
				/>
		</g>
	</g>
</g>
</svg>
