<?xml version="1.0" encoding="utf-8"?>
<!-- Generator: Adobe Illustrator 18.1.1, SVG Export Plug-In . SVG Version: 6.00 Build 0)  -->
<!DOCTYPE svg PUBLIC "-//W3C//DTD SVG 1.1 Tiny//EN" "http://www.w3.org/Graphics/SVG/1.1/DTD/svg11-tiny.dtd">
<svg version="1.1" baseProfile="tiny" xmlns="http://www.w3.org/2000/svg" xmlns:xlink="http://www.w3.org/1999/xlink" x="0px"
	 y="0px" width="32px" height="32px" viewBox="0 0 32 32" xml:space="preserve">
<g id="Guides__x26__Forms">
</g>
<g id="Icons">
	<polygon display="none" points="26.998,25 26.998,22 24.998,22 24.998,25 21.998,25 21.998,27 24.998,27 24.998,30 26.998,30 
		26.998,27 29.998,27 29.998,25 	"/>
	<path display="none" d="M21.999,22L22,17c-1.352-1.25-3.824-2.312-6.832-2.765C14.216,14.72,13.141,15,12.001,15
		c-1.141,0-2.215-0.28-3.167-0.766C5.825,14.687,3.353,15.749,2,17l0,5H21.999z"/>
	<circle display="none" cx="12.001" cy="8" r="5"/>
	<g>
		<polygon points="7,10 7,7 10,7 10,5 7,5 7,2 5,2 5,5 2,5 2,7 5,7 5,10 		"/>
		<path d="M19.168,18.235C18.216,18.72,17.142,19,16.002,19c-1.141,0-2.215-0.28-3.167-0.766C9.825,18.687,7.353,19.75,6,21l0,5
			h19.999L26,21C24.648,19.75,22.176,18.688,19.168,18.235z"/>
		<circle cx="16.002" cy="12" r="5"/>
	</g>
</g>
</svg>
