<?xml version="1.0" encoding="utf-8"?>
<!-- Generator: Adobe Illustrator 18.1.1, SVG Export Plug-In . SVG Version: 6.00 Build 0)  -->
<!DOCTYPE svg PUBLIC "-//W3C//DTD SVG 1.1 Tiny//EN" "http://www.w3.org/Graphics/SVG/1.1/DTD/svg11-tiny.dtd">
<svg version="1.1" baseProfile="tiny" xmlns="http://www.w3.org/2000/svg" xmlns:xlink="http://www.w3.org/1999/xlink" x="0px"
	 y="0px" width="32px" height="32px" viewBox="0 0 32 32" xml:space="preserve">
<g id="Guides__x26__Forms">
</g>
<g id="Icons">
	<g>
		<polygon points="9.536,8.121 7.414,6 9.536,3.879 8.121,2.464 6,4.586 3.879,2.464 2.464,3.879 4.586,6 2.464,8.121 3.879,9.536 
			6,7.414 8.121,9.536 		"/>
		<path d="M19.168,18.235C18.216,18.72,17.142,19,16.002,19c-1.141,0-2.215-0.28-3.167-0.766C9.825,18.687,7.353,19.75,6,21l0,5
			h19.999L26,21C24.648,19.75,22.176,18.688,19.168,18.235z"/>
		<circle cx="16.002" cy="12" r="5"/>
	</g>
</g>
</svg>
