<?xml version="1.0" encoding="utf-8"?>
<!-- Generator: Adobe Illustrator 18.1.1, SVG Export Plug-In . SVG Version: 6.00 Build 0)  -->
<!DOCTYPE svg PUBLIC "-//W3C//DTD SVG 1.1 Tiny//EN" "http://www.w3.org/Graphics/SVG/1.1/DTD/svg11-tiny.dtd">
<svg version="1.1" baseProfile="tiny" xmlns="http://www.w3.org/2000/svg" xmlns:xlink="http://www.w3.org/1999/xlink" x="0px"
	 y="0px" width="32px" height="32px" viewBox="0 0 32 32" xml:space="preserve">
<g id="Guides__x26__Forms">
</g>
<g id="Icons">
	<g>
		<path d="M11.287,2.729C10.764,2.236,10.095,2,9.421,2C8.661,2,7.896,2.3,7.324,2.871L7.078,3.117L6.833,2.871
			C6.261,2.3,5.495,2,4.736,2C4.062,2,3.393,2.236,2.87,2.729C1.72,3.811,1.7,5.621,2.808,6.73L7.078,11l4.27-4.27
			C12.457,5.621,12.437,3.811,11.287,2.729z"/>
		<path d="M21.169,18.235C20.217,18.72,19.142,19,18.002,19c-1.141,0-2.215-0.28-3.167-0.766C11.826,18.687,9.354,19.75,8.001,21
			l0,5H28v-4.991C26.648,19.759,24.177,18.688,21.169,18.235z"/>
		<circle cx="18.002" cy="12" r="5"/>
	</g>
</g>
</svg>
