<?xml version="1.0" encoding="utf-8"?>
<!-- Generator: Adobe Illustrator 18.1.1, SVG Export Plug-In . SVG Version: 6.00 Build 0)  -->
<!DOCTYPE svg PUBLIC "-//W3C//DTD SVG 1.1 Tiny//EN" "http://www.w3.org/Graphics/SVG/1.1/DTD/svg11-tiny.dtd">
<svg version="1.1" baseProfile="tiny" xmlns="http://www.w3.org/2000/svg" xmlns:xlink="http://www.w3.org/1999/xlink" x="0px"
	 y="0px" width="32px" height="32px" viewBox="0 0 32 32" xml:space="preserve">
<g id="Guides__x26__Forms">
</g>
<g id="Icons">
	<g>
		<path d="M21.169,18.235C20.217,18.72,19.142,19,18.002,19c-1.141,0-2.215-0.28-3.167-0.766C11.826,18.687,9.354,19.75,8.001,21
			l0,5H28v-4.983C26.648,19.767,24.177,18.688,21.169,18.235z"/>
		<circle cx="18.002" cy="12" r="5"/>
		<path d="M10,6H9V5c0-1.654-1.338-3-2.992-3s-3,1.346-3,3v1H2l0.004,5H10V6z M7.008,6H5V5c0-0.551,0.456-1,1.008-1s1,0.449,1,1V6z"
			/>
	</g>
</g>
</svg>
