<?xml version="1.0" encoding="utf-8"?>
<!-- Generator: Adobe Illustrator 18.1.1, SVG Export Plug-In . SVG Version: 6.00 Build 0)  -->
<!DOCTYPE svg PUBLIC "-//W3C//DTD SVG 1.1//EN" "http://www.w3.org/Graphics/SVG/1.1/DTD/svg11.dtd">
<svg version="1.1" xmlns="http://www.w3.org/2000/svg" xmlns:xlink="http://www.w3.org/1999/xlink" x="0px" y="0px" width="32px"
	 height="32px" viewBox="0 0 32 32" enable-background="new 0 0 32 32" xml:space="preserve">
<g id="Layer_1">
</g>
<g id="Guides__x26__Labels">
</g>
<g id="Icons">
	<g>
		<path d="M26,4H6C4.35,4,3,5.35,3,7v18c0,1.657,1.343,3,3,3h20c1.657,0,3-1.343,3-3V7C29,5.35,27.65,4,26,4z M14,7h2v2h-2V7z M10,7
			h2v2h-2V7z M6,7h2v2H6V7z M26,25H6V11h20V25z"/>
		<path d="M12.016,20c0.366,0,0.704-0.105,1-0.277l4.001,2.286C17.022,23.11,17.914,24,19.016,24c1.104,0,2-0.895,2-2s-0.896-2-2-2
			c-0.366,0-0.705,0.106-1,0.277L14.031,18l3.985-2.277c0.295,0.172,0.634,0.277,1,0.277c1.104,0,2-0.895,2-2s-0.896-2-2-2
			c-1.101,0-1.994,0.89-1.999,1.991l-4.001,2.286c-0.295-0.172-0.634-0.277-1-0.277c-1.101,0-1.994,0.89-1.999,1.991L10,18
			l0.017,0.009C10.022,19.11,10.914,20,12.016,20z"/>
	</g>
</g>
</svg>
