<?xml version="1.0" encoding="utf-8"?>
<!-- Generator: Adobe Illustrator 18.1.1, SVG Export Plug-In . SVG Version: 6.00 Build 0)  -->
<!DOCTYPE svg PUBLIC "-//W3C//DTD SVG 1.1//EN" "http://www.w3.org/Graphics/SVG/1.1/DTD/svg11.dtd">
<svg version="1.1" xmlns="http://www.w3.org/2000/svg" xmlns:xlink="http://www.w3.org/1999/xlink" x="0px" y="0px" width="32px"
	 height="32px" viewBox="0 0 32 32" enable-background="new 0 0 32 32" xml:space="preserve">
<g id="Layer_1">
</g>
<g id="Guides__x26__Labels">
</g>
<g id="Icons">
	<g>
		<path d="M26,4H6C4.35,4,3,5.35,3,7v18c0,1.657,1.343,3,3,3h20c1.657,0,3-1.343,3-3V7C29,5.35,27.65,4,26,4z M14,7h2v2h-2V7z M10,7
			h2v2h-2V7z M6,7h2v2H6V7z M26,25H6V11h20V25z"/>
		<polygon points="15,23 15,13 12,16 10,16 10,20 12,20 		"/>
		<path d="M17.154,21.836c0.983-0.983,1.592-2.34,1.592-3.837c-0.001-1.497-0.609-2.853-1.592-3.836l-1.15,1.15
			c0.688,0.687,1.113,1.636,1.113,2.686c0,1.05-0.426,1.999-1.113,2.688L17.154,21.836z"/>
		<path d="M18.305,22.988l1.149,1.149C21.026,22.564,22,20.393,22,17.999c0-2.394-0.974-4.564-2.545-6.136l-1.149,1.148
			c1.276,1.276,2.066,3.04,2.066,4.988S19.582,21.711,18.305,22.988z"/>
	</g>
</g>
</svg>
