<?xml version="1.0" encoding="utf-8"?>
<!-- Generator: Adobe Illustrator 18.1.1, SVG Export Plug-In . SVG Version: 6.00 Build 0)  -->
<!DOCTYPE svg PUBLIC "-//W3C//DTD SVG 1.1//EN" "http://www.w3.org/Graphics/SVG/1.1/DTD/svg11.dtd">
<svg version="1.1" xmlns="http://www.w3.org/2000/svg" xmlns:xlink="http://www.w3.org/1999/xlink" x="0px" y="0px" width="32px"
	 height="32px" viewBox="0 0 32 32" enable-background="new 0 0 32 32" xml:space="preserve">
<g id="Layer_1">
</g>
<g id="Guides__x26__Labels">
</g>
<g id="Icons">
	<g>
		<rect x="9" y="18" width="3" height="4"/>
		<rect x="14.5" y="16" width="3" height="6"/>
		<rect x="20" y="14" width="3" height="8"/>
		<path d="M26,4H6C4.35,4,3,5.35,3,7v18c0,1.657,1.343,3,3,3h20c1.657,0,3-1.343,3-3V7C29,5.35,27.65,4,26,4z M14,7h2v2h-2V7z M10,7
			h2v2h-2V7z M6,7h2v2H6V7z M26,25H6V11h20V25z"/>
	</g>
</g>
</svg>
