<?xml version="1.0" encoding="utf-8"?>
<!-- Generator: Adobe Illustrator 18.1.1, SVG Export Plug-In . SVG Version: 6.00 Build 0)  -->
<!DOCTYPE svg PUBLIC "-//W3C//DTD SVG 1.1//EN" "http://www.w3.org/Graphics/SVG/1.1/DTD/svg11.dtd">
<svg version="1.1" id="Icons" xmlns="http://www.w3.org/2000/svg" xmlns:xlink="http://www.w3.org/1999/xlink" x="0px" y="0px"
	 width="32px" height="32px" viewBox="0 0 32 32" enable-background="new 0 0 32 32" xml:space="preserve">
<g>
	<polygon points="2,30 12,30 12,20.013 2,20.024 	"/>
	<polygon points="2,2 2,4.999 5,5 5,7 2,7 2,9 7,9 7,11 2,11.001 2,13 5,13 5,15 2,15 2,18 12,18 12,2 	"/>
	<path d="M2,4.999"/>
	<polygon points="14,20.013 14,30 16.999,30 17,27 19,27 19,29.999 21,29.999 21,24 23,24 23,30 25,30 25,27 27,27 27,30 30,30 
		30,20.013 	"/>
</g>
</svg>
