<?xml version="1.0" encoding="utf-8"?>
<!-- Generator: Adobe Illustrator 18.1.1, SVG Export Plug-In . SVG Version: 6.00 Build 0)  -->
<!DOCTYPE svg PUBLIC "-//W3C//DTD SVG 1.1//EN" "http://www.w3.org/Graphics/SVG/1.1/DTD/svg11.dtd">
<svg version="1.1" id="Icons" xmlns="http://www.w3.org/2000/svg" xmlns:xlink="http://www.w3.org/1999/xlink" x="0px" y="0px"
	 width="32px" height="32px" viewBox="0 0 32 32" enable-background="new 0 0 32 32" xml:space="preserve">
<g>
	<polygon points="30,10 30,9 28,9 28,13 30,13 30,12 32,12 32,10 	"/>
	<path d="M9,19l1.9,2.3c0.9,1,2.2,1.4,3.5,0.9L10,16L9,19z"/>
	<path d="M26.7,7H11v1H9C8.1,8,7.3,8.6,7.1,9.5L3,25c1.5-0.2,3-1.7,3.4-3.1L9,15h4v1c0,0.5,0.5,1,1,1s1-0.5,1-1v-1h3v1
		c0,0.5,0.5,1,1,1s1-0.5,1-1v-1h3v1c0,0.5,0.5,1,1,1s1-0.5,1-1v-1h2V7.3C27,7.1,26.9,7,26.7,7z M25,11H13V9h12V11z"/>
	<polygon points="5,10 2.8,10 1.4,8.6 0,10 2,12 4.5,12 	"/>
</g>
</svg>
