<?xml version="1.0" encoding="utf-8"?>
<!-- Generator: Adobe Illustrator 18.1.1, SVG Export Plug-In . SVG Version: 6.00 Build 0)  -->
<!DOCTYPE svg PUBLIC "-//W3C//DTD SVG 1.1//EN" "http://www.w3.org/Graphics/SVG/1.1/DTD/svg11.dtd">
<svg version="1.1" id="Icons" xmlns="http://www.w3.org/2000/svg" xmlns:xlink="http://www.w3.org/1999/xlink" x="0px" y="0px"
	 width="32px" height="32px" viewBox="0 0 32 32" enable-background="new 0 0 32 32" xml:space="preserve">
<g>
	<path d="M14,24v6c0,1.1,0.897,2,2,2c1.104,0,2-0.899,2-2v-6H14z"/>
	<g>
		<path d="M16.064,0.014C16.043,0.006,16.023,0,16,0c-0.021,0-0.046,0.006-0.066,0.014C9.814,2.528,9,10.87,9,12.711
			C9,13.51,9,16.312,9,18c0,0.094,0.063,0.17,0.151,0.188c1.251,0.283,3.404,0.625,5.533,0.682v-2.242
			c0-0.837,0.232-3.743,1.316-5.048v8.893h-1.137c-0.088,0-0.163,0.06-0.187,0.141v-0.002L14,23h4l-0.722-2.527v-1.601
			c2.14-0.057,4.307-0.401,5.566-0.684C22.934,18.172,23,18.092,23,18c0-1.688,0-4.49,0-5.289
			C23.002,10.687,22.186,2.523,16.064,0.014z"/>
	</g>
</g>
</svg>
