<?xml version="1.0" encoding="utf-8"?>
<!-- Generator: Adobe Illustrator 18.1.1, SVG Export Plug-In . SVG Version: 6.00 Build 0)  -->
<!DOCTYPE svg PUBLIC "-//W3C//DTD SVG 1.1//EN" "http://www.w3.org/Graphics/SVG/1.1/DTD/svg11.dtd">
<svg version="1.1" id="Layer_1" xmlns="http://www.w3.org/2000/svg" xmlns:xlink="http://www.w3.org/1999/xlink" x="0px" y="0px"
	 width="32px" height="32px" viewBox="0 0 32 32" enable-background="new 0 0 32 32" xml:space="preserve">
<g>
	<path d="M13.009,4c0-0.552-0.448-1-1-1H10C9.448,3,9,3.448,9,4v1h4.009V4z"/>
	<path d="M22.674,2.908c-0.354-0.481-1.049-0.553-1.485-0.145C19.046,4.767,16.175,6,13.009,6h-5c-0.552,0-1,0.448-1,1v6
		c0,0.552,0.448,1,1,1h5c3.166,0,6.037,1.233,8.18,3.238c0.436,0.408,1.131,0.335,1.485-0.145c1.464-1.987,2.335-4.435,2.335-7.092
		C25.009,7.343,24.138,4.894,22.674,2.908z"/>
	<path d="M13,20l-0.015-5H8v0.628c0,0.687,0.292,1.312,0.666,1.888C8.92,17.908,9,18.448,9,19c0,2.022,0,3.338,0,3.431
		c0,2.416,0.597,4.687,1.638,6.693c0.255,0.492,0.851,0.697,1.347,0.45L15,28c0.505-0.252,0.709-0.877,0.43-1.368
		C14.224,24.508,13,23.229,13,20z"/>
</g>
</svg>
