<?xml version="1.0" encoding="utf-8"?>
<!-- Generator: Adobe Illustrator 18.1.1, SVG Export Plug-In . SVG Version: 6.00 Build 0)  -->
<!DOCTYPE svg PUBLIC "-//W3C//DTD SVG 1.1//EN" "http://www.w3.org/Graphics/SVG/1.1/DTD/svg11.dtd">
<svg version="1.1" id="Icons" xmlns="http://www.w3.org/2000/svg" xmlns:xlink="http://www.w3.org/1999/xlink" x="0px" y="0px"
	 width="32px" height="32px" viewBox="0 0 32 32" enable-background="new 0 0 32 32" xml:space="preserve">
<g>
	<polygon points="5.86,24 6.133,27 12.167,27 11.896,24 	"/>
	<path d="M27.153,14.078C27.153,7.959,22.194,3,16.076,3C9.959,3,5,7.959,5,14.078c0,0.172,0.005,0.346,0.014,0.517L5.01,14.612
		L5.68,22h6.035l-0.716-8h-0.005c0-3,2.275-5.084,5.082-5.084C18.884,8.916,21.16,11,21.16,14h-0.006l-0.68,8h6.034l0.635-7.388
		l-0.003-0.01C27.149,14.429,27.153,14.25,27.153,14.078z"/>
	<polygon points="20.044,27 26.079,27 26.337,24 20.303,24 	"/>
</g>
</svg>
