<?xml version="1.0" encoding="utf-8"?>
<!-- Generator: Adobe Illustrator 18.1.1, SVG Export Plug-In . SVG Version: 6.00 Build 0)  -->
<!DOCTYPE svg PUBLIC "-//W3C//DTD SVG 1.1//EN" "http://www.w3.org/Graphics/SVG/1.1/DTD/svg11.dtd">
<svg version="1.1" id="Icons" xmlns="http://www.w3.org/2000/svg" xmlns:xlink="http://www.w3.org/1999/xlink" x="0px" y="0px"
	 width="32px" height="32px" viewBox="0 0 32 32" enable-background="new 0 0 32 32" xml:space="preserve">
<g>
	<path d="M21.363,13.979c-1.285-0.172-2.104-0.914-2.553-2.053c-0.537-1.709,0.102-3.629,0.276-4.141
		c0.2-0.608,0.317-1.277,0.317-1.99C19.404,3.147,17.875,1,15.989,1c-1.886,0-3.414,2.147-3.414,4.795
		c0,0.713,0.118,1.383,0.317,1.99c0.175,0.512,0.815,2.432,0.278,4.141c-0.446,1.133-1.253,1.873-2.523,2.051
		C9.71,14.141,9,14.955,9,15.941V20h14v-4.059C23,14.963,22.291,14.15,21.363,13.979z M15.982,3.012
		c0.657,0,1.191,0.533,1.191,1.191s-0.534,1.191-1.191,1.191s-1.191-0.533-1.191-1.191S15.325,3.012,15.982,3.012z M21,18H11v-2h10
		V18z"/>
	<path d="M9,22.004v5.047C9.032,29.237,10.807,31,13,31v-5.988c0,0,0.781,5.988,5.492,5.988H23v-8.996H9z"/>
</g>
</svg>
