<?xml version="1.0" encoding="utf-8"?>
<!-- Generator: Adobe Illustrator 18.1.1, SVG Export Plug-In . SVG Version: 6.00 Build 0)  -->
<!DOCTYPE svg PUBLIC "-//W3C//DTD SVG 1.1//EN" "http://www.w3.org/Graphics/SVG/1.1/DTD/svg11.dtd">
<svg version="1.1" id="Icons" xmlns="http://www.w3.org/2000/svg" xmlns:xlink="http://www.w3.org/1999/xlink" x="0px" y="0px"
	 width="32px" height="32px" viewBox="0 0 32 32" enable-background="new 0 0 32 32" xml:space="preserve">
<g>
	<polygon points="21.076,16.126 23.858,13.344 19.616,9.101 16.833,11.884 8.95,4 4,8.95 5.414,10.364 8.243,7.536 9.657,8.95 
		6.828,11.778 8.243,13.192 9.657,11.778 11.071,13.192 9.657,14.607 11.071,16.021 13.9,13.192 14.712,14.005 7.39,21.327 
		11.633,25.569 18.955,18.248 19.754,19.047 16.926,21.876 18.34,23.29 19.754,21.876 21.169,23.29 19.754,24.704 21.169,26.118 
		23.997,23.29 25.411,24.704 22.583,27.532 23.997,28.947 28.947,23.997 	"/>
	<path d="M27.394,9.808c0.391-0.391,0.391-1.024,0-1.414l-2.828-2.828c-0.391-0.391-1.024-0.391-1.414,0L21.03,7.687l4.243,4.243
		L27.394,9.808z"/>
	<polygon points="5.967,26.967 10.235,26.967 5.967,22.699 	"/>
</g>
</svg>
