<?xml version="1.0" encoding="utf-8"?>
<!-- Generator: Adobe Illustrator 18.1.1, SVG Export Plug-In . SVG Version: 6.00 Build 0)  -->
<!DOCTYPE svg PUBLIC "-//W3C//DTD SVG 1.1 Tiny//EN" "http://www.w3.org/Graphics/SVG/1.1/DTD/svg11-tiny.dtd">
<svg version="1.1" baseProfile="tiny" id="Layer_1" xmlns="http://www.w3.org/2000/svg" xmlns:xlink="http://www.w3.org/1999/xlink"
	 x="0px" y="0px" width="32px" height="32px" viewBox="0 0 32 32" xml:space="preserve">
<g>
	<path d="M21.503,9v7.071l2.828,2.828c2.11,2.11,4.95,2.121,7.071,0L21.503,9z"/>
	<path d="M16.503,6c-2.209,0-4,1.791-4,4v14c0,2.209,1.791,4,4,4c2.209,0,4-1.791,4-4V10C20.503,7.791,18.712,6,16.503,6z
		 M19.503,18h-2v2h-2v-2h-2v-2h2v-2h2v2h2V18z"/>
	<path d="M5.548,11.933c-0.268-0.268-0.664-0.362-1.023-0.242l-2.556,0.883l-1.37-1.348l0.409,2.047
		c0.161,0.804,0.97,1.302,1.761,1.084l0.492-0.136l-0.782,2.345c-0.175,0.524,0.108,1.09,0.633,1.265
		c0.523,0.174,1.09-0.107,1.265-0.633l1.414-4.243C5.909,12.597,5.815,12.201,5.548,11.933z"/>
	<path d="M7.966,14.504c-0.213-0.07-0.429-0.057-0.626,0.009l-1.183,0.387l-0.778,2.367l0.703-0.234l-0.778,2.367
		c-0.172,0.524,0.113,1.09,0.638,1.262c0.524,0.172,1.09-0.11,1.262-0.638l1.399-4.258C8.776,15.242,8.491,14.676,7.966,14.504z"/>
	<path d="M10.794,17.331c-0.213-0.07-0.429-0.057-0.626,0.009l-1.184,0.387l-0.778,2.367L8.91,19.86l-0.778,2.367
		c-0.172,0.524,0.113,1.09,0.638,1.262c0.524,0.172,1.09-0.11,1.262-0.638l1.399-4.257C11.604,18.069,11.319,17.504,10.794,17.331z"
		/>
</g>
</svg>
