<?xml version="1.0" encoding="utf-8"?>
<!-- Generator: Adobe Illustrator 18.1.1, SVG Export Plug-In . SVG Version: 6.00 Build 0)  -->
<!DOCTYPE svg PUBLIC "-//W3C//DTD SVG 1.1//EN" "http://www.w3.org/Graphics/SVG/1.1/DTD/svg11.dtd">
<svg version="1.1" id="Icons" xmlns="http://www.w3.org/2000/svg" xmlns:xlink="http://www.w3.org/1999/xlink" x="0px" y="0px"
	 width="32px" height="32px" viewBox="0 0 32 32" enable-background="new 0 0 32 32" xml:space="preserve">
<path d="M26.77,3H6.188C6.076,3,5.986,3.09,5.986,3.201c0.064,7.103,3.484,13.033,8.068,14.601v8.772
	c0,1.34,1.086,2.426,2.424,2.426c1.34,0,2.422-1.086,2.422-2.426v-8.772c4.586-1.568,8.008-7.498,8.072-14.601
	C26.973,3.09,26.881,3,26.77,3z M16.357,27.982c-0.334,0-0.672-0.129-0.928-0.387c-0.256-0.254-0.385-0.592-0.385-0.928V15.209
	c0-0.336,0.129-0.674,0.385-0.928c0.256-0.258,0.594-0.387,0.928-0.387V27.982z M25.828,6H7.152C7.064,5.354,7.016,4.678,7,4h18.98
	C25.963,4.678,25.914,5.354,25.828,6z"/>
</svg>
