<?xml version="1.0" encoding="utf-8"?>
<!-- Generator: Adobe Illustrator 18.1.1, SVG Export Plug-In . SVG Version: 6.00 Build 0)  -->
<!DOCTYPE svg PUBLIC "-//W3C//DTD SVG 1.1//EN" "http://www.w3.org/Graphics/SVG/1.1/DTD/svg11.dtd">
<svg version="1.1" id="Layer_1" xmlns="http://www.w3.org/2000/svg" xmlns:xlink="http://www.w3.org/1999/xlink" x="0px" y="0px"
	 width="32px" height="32px" viewBox="0 0 32 32" enable-background="new 0 0 32 32" xml:space="preserve">
<g>
	<path d="M27,22.01h-9.945l-6,6H17v-2.016h1v2.016h2v-2.016h1v2.016h2v-2.016h1v2.016h3c0.552,0,1-0.448,1-1v-4
		C28,22.458,27.552,22.01,27,22.01z"/>
	<path d="M5,10.01h9.913l6-6H15v1.984h-1V4.01h-2v1.984h-1V4.01H9v1.984H8V4.01H5c-0.552,0-1,0.448-1,1v4
		C4,9.562,4.448,10.01,5,10.01z"/>
	<path d="M28.532,6.297l-2.828-2.828c-0.391-0.391-1.024-0.391-1.414,0L3.468,24.289c-0.391,0.391-0.391,1.024,0,1.414l2.828,2.828
		c0.391,0.391,1.024,0.391,1.414,0l6.169-6.169l-1.42-1.42l0.707-0.707l1.42,1.42l1.414-1.414l-1.42-1.42l0.707-0.707l1.42,1.42
		l1.414-1.414l-1.42-1.42l0.707-0.707l1.42,1.42l1.414-1.414l-1.42-1.42l0.707-0.707l1.42,1.42l1.414-1.414l-1.42-1.42l0.707-0.707
		l1.42,1.42l5.459-5.459C28.922,7.32,28.922,6.687,28.532,6.297z M7,25.994c-0.552,0-1-0.448-1-1c0-0.552,0.448-1,1-1s1,0.448,1,1
		C8,25.547,7.552,25.994,7,25.994z M25,8.01c-0.552,0-1-0.448-1-1c0-0.552,0.448-1,1-1s1,0.448,1,1C26,7.562,25.552,8.01,25,8.01z"
		/>
</g>
</svg>
