<?xml version="1.0" encoding="utf-8"?>
<!-- Generator: Adobe Illustrator 18.1.1, SVG Export Plug-In . SVG Version: 6.00 Build 0)  -->
<!DOCTYPE svg PUBLIC "-//W3C//DTD SVG 1.1 Tiny//EN" "http://www.w3.org/Graphics/SVG/1.1/DTD/svg11-tiny.dtd">
<svg version="1.1" baseProfile="tiny" id="Layer_1" xmlns="http://www.w3.org/2000/svg" xmlns:xlink="http://www.w3.org/1999/xlink"
	 x="0px" y="0px" width="32px" height="32px" viewBox="0 0 32 32" xml:space="preserve">
<g>
	<path d="M8,15.828v2.828l7.074,7.074C15.038,25.49,15,25.25,15,25c0-0.643,0.132-1.253,0.354-1.818L8,15.828z"/>
	<path d="M20,5c-2.761,0-5,2.239-5,5v4c0,0.552,0.448,1,1,1h2c0.552,0,1-0.448,1-1v-1.78c0-0.27-0.099-0.538-0.304-0.714
		c-0.54-0.463-0.831-1.204-0.635-2.009c0.176-0.72,0.781-1.301,1.506-1.453C20.861,7.774,22,8.754,22,10
		c0,0.593-0.261,1.122-0.673,1.486C21.117,11.672,21,11.939,21,12.219V14c0,0.552,0.448,1,1,1v6.555C21.41,21.211,20.732,21,20,21
		c-2.209,0-4,1.791-4,4s1.791,4,4,4c2.209,0,4-1.791,4-4V15c0.552,0,1-0.448,1-1v-4C25,7.239,22.761,5,20,5z M20,27
		c-1.103,0-2-0.897-2-2s0.897-2,2-2c1.103,0,2,0.897,2,2S21.103,27,20,27z"/>
</g>
</svg>
