<?xml version="1.0" encoding="utf-8"?>
<!-- Generator: Adobe Illustrator 18.1.1, SVG Export Plug-In . SVG Version: 6.00 Build 0)  -->
<!DOCTYPE svg PUBLIC "-//W3C//DTD SVG 1.1//EN" "http://www.w3.org/Graphics/SVG/1.1/DTD/svg11.dtd">
<svg version="1.1" id="Icons" xmlns="http://www.w3.org/2000/svg" xmlns:xlink="http://www.w3.org/1999/xlink" x="0px" y="0px"
	 width="32px" height="32px" viewBox="0 0 32 32" enable-background="new 0 0 32 32" xml:space="preserve">
<g>
	<polygon points="17,19 15,19 15,24.999 14.022,25.999 15.003,32 17.013,32 18,26.015 17,24.999 	"/>
	<path d="M19.998,2.003c0-1.104-0.871-2-1.975-2h-4.011c-1.105,0-2,0.895-2,2v11.996c0,0.488,0.345,0.877,0.8,0.984h0.19v2.112
		c0,0.5,0.405,0.905,0.905,0.905h4.189c0.5,0,0.906-0.406,0.906-0.906v-2.102h0.193C19.666,14.894,20,14.5,20,14L19.998,2.003z
		 M16,17h-2v-2h2V17z M14,13V2h2l0.002,11H14z"/>
</g>
</svg>
