<?xml version="1.0" encoding="utf-8"?>
<!-- Generator: Adobe Illustrator 18.1.1, SVG Export Plug-In . SVG Version: 6.00 Build 0)  -->
<!DOCTYPE svg PUBLIC "-//W3C//DTD SVG 1.1//EN" "http://www.w3.org/Graphics/SVG/1.1/DTD/svg11.dtd">
<svg version="1.1" id="Icons" xmlns="http://www.w3.org/2000/svg" xmlns:xlink="http://www.w3.org/1999/xlink" x="0px" y="0px"
	 width="32px" height="32px" viewBox="0 0 32 32" enable-background="new 0 0 32 32" xml:space="preserve">
<g>
	<path d="M17.386,5.112H2.479C1.11,5.112,0,6.224,0,7.593v14.926c0,1.369,1.109,2.48,2.479,2.48h17.385V8.678
		C19.864,6.224,18.755,5.112,17.386,5.112z M9.937,20.756c-3.15,0-5.705-2.556-5.705-5.707c0-3.15,2.555-5.705,5.705-5.705
		c3.152,0,5.707,2.555,5.707,5.705C15.644,18.2,13.09,20.756,9.937,20.756z"/>
	<polygon points="22,23 22,25 30,25 30,27 32,27 32,23 	"/>
	<path d="M11.287,14.903c0.55-0.41,0.825-0.938,0.825-1.588c0-0.617-0.208-1.131-0.625-1.537c-0.417-0.41-0.938-0.614-1.562-0.614
		c-0.628,0-1.154,0.204-1.577,0.614c-0.42,0.41-0.63,0.92-0.63,1.533c0,0.674,0.276,1.205,0.83,1.596
		c-0.681,0.341-1.021,0.933-1.021,1.777c0,0.652,0.229,1.191,0.685,1.621c0.452,0.43,1.027,0.645,1.726,0.645
		c0.681,0,1.239-0.213,1.676-0.639c0.437-0.428,0.655-0.975,0.655-1.641c0-0.392-0.09-0.742-0.269-1.056
		C11.827,15.305,11.59,15.066,11.287,14.903z M9.119,12.525c0.222-0.221,0.486-0.332,0.796-0.332s0.574,0.111,0.796,0.332
		c0.222,0.224,0.332,0.486,0.332,0.797c0,0.31-0.11,0.574-0.332,0.795c-0.222,0.224-0.486,0.332-0.796,0.332
		c-0.312,0-0.579-0.108-0.801-0.332C8.896,13.9,8.787,13.63,8.787,13.306C8.787,13.008,8.897,12.748,9.119,12.525z M10.78,17.551
		c-0.244,0.244-0.538,0.365-0.883,0.365c-0.348,0-0.643-0.123-0.887-0.371c-0.24-0.25-0.36-0.549-0.36-0.898
		c0-0.338,0.122-0.629,0.365-0.873c0.247-0.244,0.541-0.367,0.882-0.367c0.345,0,0.639,0.123,0.883,0.367
		c0.243,0.244,0.365,0.539,0.365,0.89C11.145,17.006,11.023,17.303,10.78,17.551z"/>
</g>
</svg>
