<?xml version="1.0" encoding="utf-8"?>
<!-- Generator: Adobe Illustrator 18.1.1, SVG Export Plug-In . SVG Version: 6.00 Build 0)  -->
<!DOCTYPE svg PUBLIC "-//W3C//DTD SVG 1.1//EN" "http://www.w3.org/Graphics/SVG/1.1/DTD/svg11.dtd">
<svg version="1.1" id="Layer_1" xmlns="http://www.w3.org/2000/svg" xmlns:xlink="http://www.w3.org/1999/xlink" x="0px" y="0px"
	 width="32px" height="32px" viewBox="0 0 32 32" enable-background="new 0 0 32 32" xml:space="preserve">
<g>
	<path d="M27.164,17.17c-1.057-0.309-2.061-0.178-2.901,0.239c-0.402,0.199-0.364,0.788,0.061,0.93l2.342,0.784
		c0.898,0.32,1.507,1.255,1.29,2.302c-0.151,0.73-0.737,1.34-1.461,1.515c-1.179,0.284-2.244-0.483-2.455-1.553l1.65,0.574
		c0.523,0.173,1.088-0.11,1.263-0.633c0.175-0.525-0.109-1.092-0.635-1.266L3.09,12.509c-0.086-0.034-0.179-0.056-0.278-0.056
		c-0.414,0-0.75,0.336-0.75,0.75c0,0.321,0.203,0.59,0.487,0.697L11,16.848v6.046c0,0.985,0.666,1.899,1.636,2.073
		c0.779,0.14,1.482-0.179,1.918-0.722l4.115-4.728l3.362,1.17c-0.01,0.104-0.03,0.206-0.03,0.312c0,2.206,1.794,4,3.999,4
		c2.51,0,4.487-2.323,3.894-4.932C29.582,18.696,28.514,17.564,27.164,17.17z M13.005,23.017l0-0.025l0.019-0.022l0-0.001
		l-0.019,0.022l0.023-5.437l3.621,1.26L13.005,23.017z"/>
	<path d="M29.032,8H8.968C8.436,8,8,8.436,8,8.968v0.063C8,9.564,8.436,10,8.968,10h0.249l0.661,3.037
		c0.075,0.345,0.327,0.625,0.662,0.736l9.857,3.27c0.717,0.238,1.507,0.051,2.042-0.484L28.828,10h0.203
		C29.564,10,30,9.564,30,9.032V8.968C30,8.436,29.564,8,29.032,8z"/>
</g>
</svg>
