<?xml version="1.0" encoding="utf-8"?>
<!-- Generator: Adobe Illustrator 18.1.1, SVG Export Plug-In . SVG Version: 6.00 Build 0)  -->
<!DOCTYPE svg PUBLIC "-//W3C//DTD SVG 1.1//EN" "http://www.w3.org/Graphics/SVG/1.1/DTD/svg11.dtd">
<svg version="1.1" id="Layer_1" xmlns="http://www.w3.org/2000/svg" xmlns:xlink="http://www.w3.org/1999/xlink" x="0px" y="0px"
	 width="32px" height="32px" viewBox="0 0 32 32" enable-background="new 0 0 32 32" xml:space="preserve">
<path d="M23.909,21.451c-0.448-2.721-1.725-5.081-3.5-6.865l-0.478-0.538C19.97,13.827,20,13.602,20,13.37
	c0-0.122-0.025-0.237-0.036-0.357c0.977-1.274,1.738-2.71,1.551-4.841C21.309,5.819,20.527,4.229,19,2.37l-2.656,5.975
	c0.797,0.347,1.45,0.95,1.877,1.699c-0.605-0.405-1.328-0.64-2.105-0.663L13,2.37c-0.527,0.642-0.96,1.252-1.316,1.872l1.289,2.783
	l-1.536-1.863c-0.431,0.679-0.857,1.935-0.951,3.01c-0.186,2.131,0.574,3.566,1.551,4.841C12.025,13.133,12,13.248,12,13.37
	c0,0.232,0.03,0.456,0.068,0.678l-0.478,0.538c-1.775,1.784-3.052,4.144-3.5,6.865c-0.418,2.539-0.058,5.015,0.894,7.169
	c0.429,0.971,1.631,1.319,2.494,0.7l0.278-0.199c0.66-0.473,0.848-1.341,0.516-2.082c-0.673-1.501-0.928-3.231-0.636-5.005
	c0.364-2.211,1.729-3.613,3.354-4.809c0.325,0.085,0.659,0.145,1.01,0.145s0.686-0.06,1.01-0.145
	c1.624,1.196,2.989,2.597,3.353,4.809c0.292,1.774,0.036,3.504-0.636,5.005c-0.332,0.741-0.143,1.608,0.516,2.082l0.278,0.199
	c0.863,0.619,2.065,0.271,2.494-0.7C23.968,26.466,24.327,23.99,23.909,21.451z M16,14.87c-0.827,0-1.5-0.673-1.5-1.5
	s0.673-1.5,1.5-1.5s1.5,0.673,1.5,1.5S16.827,14.87,16,14.87z"/>
</svg>
