<?xml version="1.0" encoding="utf-8"?>
<!-- Generator: Adobe Illustrator 18.1.1, SVG Export Plug-In . SVG Version: 6.00 Build 0)  -->
<!DOCTYPE svg PUBLIC "-//W3C//DTD SVG 1.1//EN" "http://www.w3.org/Graphics/SVG/1.1/DTD/svg11.dtd">
<svg version="1.1" id="Icons" xmlns="http://www.w3.org/2000/svg" xmlns:xlink="http://www.w3.org/1999/xlink" x="0px" y="0px"
	 width="32px" height="32px" viewBox="0 0 32 32" enable-background="new 0 0 32 32" xml:space="preserve">
<path d="M23.075,5.736c0.008-2.328-1.238-4.342-3.148-5.604C19.813,0.051,19.679,0,19.526,0C19.161,0,19,0.297,19,0.662V5l-3.493,2
	L12,5V0.664C12,0.297,11.856,0,11.486,0c-0.148,0-0.285,0.051-0.396,0.133C9.178,1.395,7.932,3.408,7.94,5.736
	C7.947,8.401,9.598,10.7,12,11.853V28.5c0,1.925,1.575,3.5,3.5,3.5s3.5-1.575,3.5-3.5V11.861c2.412-1.15,4.068-3.454,4.077-6.124
	H23.075z M15.5,30c-0.828,0-1.5-0.672-1.5-1.5s0.672-1.5,1.5-1.5s1.5,0.672,1.5,1.5S16.328,30,15.5,30z M16,11.191v14
	c-0.15-0.022-0.297-0.05-0.453-0.053c-0.557-0.004-1.078,0.135-1.547,0.364V11c-2.06-0.518-3.674-1.939-4.223-3.738
	c1.205,1.715,3.656,2.943,6.528,3.049c1.269,0.045,2.473-0.133,3.537-0.486C18.821,10.632,17.477,11.13,16,11.191z"/>
</svg>
