<?xml version="1.0" encoding="utf-8"?>
<!-- Generator: Adobe Illustrator 16.0.0, SVG Export Plug-In . SVG Version: 6.00 Build 0)  -->
<!DOCTYPE svg PUBLIC "-//W3C//DTD SVG 1.1//EN" "http://www.w3.org/Graphics/SVG/1.1/DTD/svg11.dtd">
<svg version="1.1" id="Layer_1" xmlns="http://www.w3.org/2000/svg" xmlns:xlink="http://www.w3.org/1999/xlink" x="0px" y="0px"
	 width="35.26px" height="35.26px" viewBox="0 0 35.26 35.26" enable-background="new 0 0 35.26 35.26" xml:space="preserve">
<g>
	<path d="M32.425,19.812l0.526-0.531l0.179,0.177c0.147,0.146,0.389,0.147,0.537-0.002l0.664-0.673
		c0.147-0.149,0.146-0.391-0.003-0.536l-0.004-0.004l-1.603-1.587H32.72c-0.147-0.147-0.387-0.146-0.537,0.005l-0.663,0.672
		c-0.148,0.147-0.148,0.389,0,0.535l0.176,0.174l-0.521,0.522c-1.422-1.174-3.195-1.934-5.14-2.108v-0.75h0.25
		c0.209,0,0.382-0.168,0.382-0.379v-0.945c0-0.213-0.173-0.381-0.382-0.381h-0.004h-2.254h-0.002c-0.209,0-0.379,0.168-0.379,0.381
		v0.945c0,0.211,0.17,0.379,0.379,0.379h0.246v0.752c-4.781,0.457-8.522,4.479-8.522,9.379c0,5.205,4.22,9.424,9.425,9.424
		s9.429-4.219,9.429-9.424C34.604,23.543,33.784,21.444,32.425,19.812z M25.177,32.293c-3.568,0-6.459-2.891-6.459-6.459
		c0-3.565,2.891-6.459,6.459-6.459c3.567,0,6.461,2.894,6.461,6.459C31.638,29.403,28.745,32.293,25.177,32.293z"/>
	<path d="M25.196,20.979l-1.152,4.464c-0.026,0.1-0.041,0.204-0.041,0.312c0,0.658,0.535,1.192,1.193,1.192
		c0.66,0,1.193-0.534,1.193-1.192c0-0.107-0.014-0.213-0.041-0.312L25.196,20.979z"/>
	<path d="M3.656,24V10h20v2h3V5.995C26.656,4.343,25.352,3,23.697,3h-3.041V0h-2v6h-2V3h-7V0h-2v6h-2V3H3.677
		C2.023,3,0.656,4.343,0.656,5.995V23.99c0,1.652,1.367,3.01,3.021,3.01h10.107c-0.039-0.383-0.059-0.771-0.059-1.164
		c0-0.627,0.064-1.236,0.161-1.836H3.656z"/>
</g>
</svg>
