<?xml version="1.0" encoding="utf-8"?>
<!-- Generator: Adobe Illustrator 16.0.0, SVG Export Plug-In . SVG Version: 6.00 Build 0)  -->
<!DOCTYPE svg PUBLIC "-//W3C//DTD SVG 1.1//EN" "http://www.w3.org/Graphics/SVG/1.1/DTD/svg11.dtd">
<svg version="1.1" id="Layer_1" xmlns="http://www.w3.org/2000/svg" xmlns:xlink="http://www.w3.org/1999/xlink" x="0px" y="0px"
	 width="32px" height="32px" viewBox="0 0 32 32" enable-background="new 0 0 32 32" xml:space="preserve">
<g>
	<path d="M15.436,7.002C9.427,7.002,4.557,11.928,4.557,18c0,6.076,4.87,10.998,10.879,10.998c6.008,0,10.88-4.922,10.88-10.998
		C26.315,11.928,21.443,7.002,15.436,7.002z M15.436,26.053c-4.398,0-7.964-3.604-7.964-8.053c0-4.443,3.565-8.051,7.964-8.051
		c4.398,0,7.965,3.606,7.965,8.051C23.4,22.449,19.834,26.053,15.436,26.053z"/>
	<rect x="13.436" y="3.002" width="4" height="2"/>
	<rect x="23.321" y="7.098" transform="matrix(-0.7071 -0.7071 0.7071 -0.7071 37.4999 31.7293)" width="4.001" height="2"/>
	<path d="M15.436,12v6h-6c0,3.313,2.687,6,6,6c3.312,0,6-2.687,6-6C21.436,14.688,18.748,12,15.436,12z"/>
</g>
</svg>
