<?xml version="1.0" encoding="utf-8"?>
<!-- Generator: Adobe Illustrator 16.0.0, SVG Export Plug-In . SVG Version: 6.00 Build 0)  -->
<!DOCTYPE svg PUBLIC "-//W3C//DTD SVG 1.1//EN" "http://www.w3.org/Graphics/SVG/1.1/DTD/svg11.dtd">
<svg version="1.1" id="Layer_1" xmlns="http://www.w3.org/2000/svg" xmlns:xlink="http://www.w3.org/1999/xlink" x="0px" y="0px"
	 width="32px" height="32px" viewBox="0 0 32 32" enable-background="new 0 0 32 32" xml:space="preserve">
<g>
	<path d="M15.437,7.002C9.427,7.002,4.558,11.928,4.558,18c0,6.076,4.869,10.998,10.879,10.998c6.007,0,10.88-4.922,10.88-10.998
		C26.316,11.928,21.443,7.002,15.437,7.002z M15.437,26.053c-4.398,0-7.964-3.604-7.964-8.053c0-4.443,3.564-8.051,7.964-8.051
		S23.4,13.556,23.4,18C23.4,22.449,19.836,26.053,15.437,26.053z"/>
	<rect x="13.437" y="3.002" width="3.999" height="2"/>
	<rect x="23.321" y="7.099" transform="matrix(-0.7072 -0.707 0.707 -0.7072 37.5028 31.7276)" width="4" height="2"/>
	<path d="M15.437,12v12c3.313,0,5.999-2.687,5.999-6C21.436,14.688,18.75,12,15.437,12z"/>
</g>
</svg>
