<?xml version="1.0" encoding="utf-8"?>
<!-- Generator: Adobe Illustrator 16.0.0, SVG Export Plug-In . SVG Version: 6.00 Build 0)  -->
<!DOCTYPE svg PUBLIC "-//W3C//DTD SVG 1.1//EN" "http://www.w3.org/Graphics/SVG/1.1/DTD/svg11.dtd">
<svg version="1.1" id="Layer_1" xmlns="http://www.w3.org/2000/svg" xmlns:xlink="http://www.w3.org/1999/xlink" x="0px" y="0px"
	 width="32px" height="32px" viewBox="0 0 32 32" enable-background="new 0 0 32 32" xml:space="preserve">
<g>
	<path d="M31.388,27.877c-0.508-1.176-2.531-2.225-4.221-2.688c-0.184-0.072-0.314-0.244-0.314-0.451
		c0-0.119,0.047-0.223,0.117-0.306c0.623-0.629,1.246-1.623,1.246-2.883c0-1.67-1.014-3.279-3.102-3.279
		c-2.086,0-3.1,1.609-3.1,3.279c0,1.26,0.623,2.254,1.246,2.883c0.071,0.083,0.112,0.187,0.112,0.306
		c0,0.207-0.131,0.379-0.312,0.451c-1.688,0.463-3.707,1.512-4.221,2.688c-0.092,0.207-0.146,0.438-0.146,0.68
		c0,0.85,0.642,1.547,1.478,1.68h9.888c0.834-0.133,1.477-0.83,1.477-1.68C31.536,28.314,31.479,28.084,31.388,27.877z"/>
	<path d="M3.464,11.763h20v4.784c0.516-0.166,1.061-0.276,1.65-0.276c0.477,0,0.922,0.076,1.35,0.187V7.759
		c0-1.652-1.305-2.995-2.959-2.995h-3.041v-3h-2v6h-2v-3h-7v-3h-2v6h-2v-3H3.485c-1.654,0-3.021,1.343-3.021,2.995v17.997
		c0,1.65,1.366,3.008,3.021,3.008h13.23c-0.004-0.068-0.019-0.137-0.019-0.207c0-0.512,0.105-1.014,0.314-1.479
		c0.215-0.492,0.536-0.926,0.913-1.314H3.464V11.763z"/>
</g>
</svg>
