<?xml version="1.0" encoding="utf-8"?>
<!-- Generator: Adobe Illustrator 16.0.0, SVG Export Plug-In . SVG Version: 6.00 Build 0)  -->
<!DOCTYPE svg PUBLIC "-//W3C//DTD SVG 1.1//EN" "http://www.w3.org/Graphics/SVG/1.1/DTD/svg11.dtd">
<svg version="1.1" id="Layer_1" xmlns="http://www.w3.org/2000/svg" xmlns:xlink="http://www.w3.org/1999/xlink" x="0px" y="0px"
	 width="32px" height="32px" viewBox="0 0 32 32" enable-background="new 0 0 32 32" xml:space="preserve">
<g>
	<path d="M7.815,6.143C13.258,2.434,20.681,3.84,24.39,9.286c1.403,2.062,2.069,4.405,2.062,6.727h0.004l2.942,0.008l-4.977,7.201
		l-4.939-7.228h2.996c0.002-1.541-0.435-3.102-1.371-4.475C18.634,7.889,13.684,6.95,10.05,9.424
		c-3.631,2.475-4.571,7.424-2.098,11.057c1.553,2.277,4.08,3.494,6.646,3.477v3.972c-3.832,0.018-7.605-1.808-9.927-5.214
		C0.966,17.271,2.372,9.85,7.815,6.143z"/>
	<polygon points="13.43,11.078 13.43,16.762 15.935,20.404 17.579,19.273 15.43,16.146 15.43,11.078 	"/>
</g>
</svg>
