<?xml version="1.0" encoding="utf-8"?>
<!-- Generator: Adobe Illustrator 16.0.0, SVG Export Plug-In . SVG Version: 6.00 Build 0)  -->
<!DOCTYPE svg PUBLIC "-//W3C//DTD SVG 1.1//EN" "http://www.w3.org/Graphics/SVG/1.1/DTD/svg11.dtd">
<svg version="1.1" id="Layer_1" xmlns="http://www.w3.org/2000/svg" xmlns:xlink="http://www.w3.org/1999/xlink" x="0px" y="0px"
	 width="32px" height="32px" viewBox="0 0 32 32" enable-background="new 0 0 32 32" xml:space="preserve">
<g>
	<path d="M16,4C9.373,4,4,9.373,4,16s5.373,12,12,12s12-5.373,12-12S22.627,4,16,4z M16,25c-4.971,0-9-4.028-9-9
		c0-4.971,4.029-9,9-9s9,4.029,9,9C25,20.972,20.971,25,16,25z"/>
	<polygon points="16.971,9.992 14.971,9.992 14.971,16.794 18.092,19.918 19.506,18.504 16.971,15.967 	"/>
</g>
</svg>
