<?xml version="1.0" encoding="utf-8"?>
<!-- Generator: Adobe Illustrator 16.0.0, SVG Export Plug-In . SVG Version: 6.00 Build 0)  -->
<!DOCTYPE svg PUBLIC "-//W3C//DTD SVG 1.1//EN" "http://www.w3.org/Graphics/SVG/1.1/DTD/svg11.dtd">
<svg version="1.1" id="Layer_1" xmlns="http://www.w3.org/2000/svg" xmlns:xlink="http://www.w3.org/1999/xlink" x="0px" y="0px"
	 width="32px" height="32px" viewBox="0 0 32 32" enable-background="new 0 0 32 32" xml:space="preserve">
<g>
	<path d="M24.185,6.143C18.742,2.434,11.32,3.84,7.611,9.286c-1.404,2.062-2.07,4.406-2.062,6.727H5.545l-2.942,0.008l4.977,7.201
		l4.939-7.228H9.522c-0.002-1.542,0.436-3.102,1.371-4.475c2.473-3.631,7.424-4.57,11.057-2.096
		c3.631,2.475,4.572,7.424,2.098,11.057c-1.553,2.277-4.08,3.494-6.645,3.477v3.972c3.832,0.019,7.604-1.808,9.926-5.213
		C31.034,17.271,29.628,9.85,24.185,6.143z"/>
	<polygon points="16.44,11.069 16.44,16.762 18.964,20.404 20.599,19.273 18.44,16.146 18.44,11.069 	"/>
</g>
</svg>
