<?xml version="1.0" encoding="utf-8"?>
<!-- Generator: Adobe Illustrator 18.1.1, SVG Export Plug-In . SVG Version: 6.00 Build 0)  -->
<!DOCTYPE svg PUBLIC "-//W3C//DTD SVG 1.1//EN" "http://www.w3.org/Graphics/SVG/1.1/DTD/svg11.dtd">
<svg version="1.1" xmlns="http://www.w3.org/2000/svg" xmlns:xlink="http://www.w3.org/1999/xlink" x="0px" y="0px" width="32px"
	 height="32px" viewBox="0 0 32 32" enable-background="new 0 0 32 32" xml:space="preserve">
<g id="Old_Versions" display="none">
</g>
<g id="Layer_1">
	<g>
		<polygon points="10.944,9 10,6.094 9.056,9 6,9 8.472,10.796 7.528,13.702 10,11.906 12.472,13.702 11.528,10.796 14,9 		"/>
		<polygon points="4.472,16 4,14.547 3.528,16 2,16 3.236,16.898 2.764,18.351 4,17.453 5.236,18.351 4.764,16.898 6,16 		"/>
		<path d="M28,20c-3.866,0-7-3.134-7-7c0-0.242,0.012-0.48,0.036-0.716C18.127,13.134,16,15.816,16,19c0,3.866,3.134,7,7,7
			c3.624,0,6.605-2.755,6.964-6.284C29.34,19.898,28.682,20,28,20z M23,24c-2.757,0-5-2.243-5-5c0-1.302,0.515-2.522,1.373-3.431
			c1.021,3.421,4.025,5.995,7.672,6.381C26.135,23.201,24.658,24,23,24z"/>
	</g>
</g>
<g id="Layer_2">
</g>
<g id="Layer_3">
</g>
</svg>
