<?xml version="1.0" encoding="utf-8"?>
<!-- Generator: Adobe Illustrator 18.1.1, SVG Export Plug-In . SVG Version: 6.00 Build 0)  -->
<!DOCTYPE svg PUBLIC "-//W3C//DTD SVG 1.1//EN" "http://www.w3.org/Graphics/SVG/1.1/DTD/svg11.dtd">
<svg version="1.1" xmlns="http://www.w3.org/2000/svg" xmlns:xlink="http://www.w3.org/1999/xlink" x="0px" y="0px" width="32px"
	 height="32px" viewBox="0 0 32 32" enable-background="new 0 0 32 32" xml:space="preserve">
<g id="Old_Versions" display="none">
</g>
<g id="Layer_1">
	<g>
		<rect x="4" y="20" width="22" height="2"/>
		<rect x="7" y="28" width="19" height="2"/>
		<rect y="24" width="29.986" height="2"/>
		<rect x="7" y="16" width="14" height="2"/>
		<polygon points="7.528,8.702 10,6.906 12.472,8.702 11.528,5.796 14,4 10.944,4 10,1.094 9.056,4 6,4 8.472,5.796 		"/>
		<polygon points="2.764,13.351 4,12.453 5.236,13.351 4.764,11.898 6,11 4.472,11 4,9.547 3.528,11 2,11 3.236,11.898 		"/>
		<path d="M20.025,14C19.391,13.162,19,12.13,19,11c0-1.697,0.864-3.225,2.195-4.131c0.735,3.466,3.47,6.201,6.936,6.936
			C27.225,15.136,25.697,16,24,16c-0.342,0-0.677-0.035-1-0.101v2.022c0.327,0.047,0.66,0.08,1,0.08
			c3.549,0,6.475-2.644,6.931-6.069C30.626,11.972,30.316,12,30,12c-3.866,0-7-3.134-7-7c0-0.316,0.028-0.626,0.069-0.931
			C19.644,4.525,17,7.45,17,11c0,1.075,0.25,2.09,0.683,3H20.025z"/>
	</g>
</g>
<g id="Layer_2">
</g>
<g id="Layer_3">
</g>
</svg>
