<?xml version="1.0" encoding="utf-8"?>
<!-- Generator: Adobe Illustrator 18.1.1, SVG Export Plug-In . SVG Version: 6.00 Build 0)  -->
<!DOCTYPE svg PUBLIC "-//W3C//DTD SVG 1.1//EN" "http://www.w3.org/Graphics/SVG/1.1/DTD/svg11.dtd">
<svg version="1.1" xmlns="http://www.w3.org/2000/svg" xmlns:xlink="http://www.w3.org/1999/xlink" x="0px" y="0px" width="32px"
	 height="32px" viewBox="0 0 32 32" enable-background="new 0 0 32 32" xml:space="preserve">
<g id="Old_Versions" display="none">
</g>
<g id="Layer_1">
	<g>
		<polygon points="32,8.98 28.944,8.98 28,6.074 27.056,8.98 24,8.98 26.472,10.776 25.528,13.683 28,11.887 30.472,13.683 
			29.528,10.776 		"/>
		<polygon points="18.764,6.331 20,5.433 21.236,6.331 20.764,4.878 22,3.98 20.472,3.98 20,2.527 19.528,3.98 18,3.98 
			19.236,4.878 		"/>
		<path d="M23.667,16.331L11.646,4.311l-1.414,1.414l8.285,8.285c-0.172-0.011-0.343-0.026-0.517-0.026
			c-1.847,0-3.543,0.632-4.897,1.683L2.454,5.018L1.04,6.432l10.649,10.649C10.634,18.436,10,20.134,10,21.984
			c0,0.17,0.015,0.337,0.026,0.505L1.747,14.21l-1.414,1.414l11.949,11.949c1.452,1.486,3.476,2.411,5.718,2.411
			c4.418,0,8-3.582,8-8c0-2.205-0.893-4.202-2.336-5.649L23.667,16.331z M18,27.984c-1.651,0-3.147-0.67-4.233-1.752l0.001-0.001
			l-0.028-0.029C12.665,25.118,12,23.627,12,21.984c0-1.295,0.417-2.493,1.117-3.474l4.186,4.186l1.414-1.414l-4.185-4.185
			c0.98-0.698,2.175-1.112,3.467-1.112c3.308,0,6,2.692,6,6S21.308,27.984,18,27.984z"/>
	</g>
</g>
<g id="Layer_2">
</g>
<g id="Layer_3">
</g>
</svg>
