<?xml version="1.0" encoding="utf-8"?>
<!-- Generator: Adobe Illustrator 18.1.1, SVG Export Plug-In . SVG Version: 6.00 Build 0)  -->
<!DOCTYPE svg PUBLIC "-//W3C//DTD SVG 1.1//EN" "http://www.w3.org/Graphics/SVG/1.1/DTD/svg11.dtd">
<svg version="1.1" xmlns="http://www.w3.org/2000/svg" xmlns:xlink="http://www.w3.org/1999/xlink" x="0px" y="0px" width="32px"
	 height="32px" viewBox="0 0 32 32" enable-background="new 0 0 32 32" xml:space="preserve">
<g id="Old_Versions" display="none">
</g>
<g id="Layer_1">
	<path d="M16,7c-4.971,0-9,4.029-9,9s4.029,9,9,9c4.971,0,9-4.029,9-9S20.971,7,16,7z M16,23c-0.336,0-0.664-0.033-0.987-0.078
		C17.396,21.537,19,18.955,19,16c0-2.957-1.604-5.537-3.988-6.922C15.336,9.031,15.664,9,16,9c3.866,0,7,3.133,7,7
		C23,19.865,19.866,23,16,23z"/>
</g>
<g id="Layer_2">
</g>
<g id="Layer_3">
</g>
</svg>
