<?xml version="1.0" encoding="utf-8"?>
<!-- Generator: Adobe Illustrator 18.1.1, SVG Export Plug-In . SVG Version: 6.00 Build 0)  -->
<!DOCTYPE svg PUBLIC "-//W3C//DTD SVG 1.1//EN" "http://www.w3.org/Graphics/SVG/1.1/DTD/svg11.dtd">
<svg version="1.1" xmlns="http://www.w3.org/2000/svg" xmlns:xlink="http://www.w3.org/1999/xlink" x="0px" y="0px" width="32px"
	 height="32px" viewBox="0 0 32 32" enable-background="new 0 0 32 32" xml:space="preserve">
<g id="Old_Versions" display="none">
</g>
<g id="Layer_1">
	<g>
		<path d="M11,12c-4.971,0-9,4.029-9,9s4.029,9,9,9s9-4.029,9-9S15.971,12,11,12z M11,28c-3.865,0-7-3.135-7-7c0-3.867,3.135-7,7-7
			c3.867,0,7,3.133,7,7C18,24.865,14.867,28,11,28z"/>
		<polygon points="30,11 26.944,11 26,8.094 25.056,11 22,11 24.472,12.796 23.528,15.702 26,13.906 28.472,15.702 27.528,12.796 		
			"/>
		<polygon points="14.764,8.351 16,7.453 17.236,8.351 16.764,6.898 18,6 16.472,6 16,4.547 15.528,6 14,6 15.236,6.898 		"/>
	</g>
</g>
<g id="Layer_2">
</g>
<g id="Layer_3">
</g>
</svg>
