<?xml version="1.0" encoding="utf-8"?>
<!-- Generator: Adobe Illustrator 18.1.1, SVG Export Plug-In . SVG Version: 6.00 Build 0)  -->
<!DOCTYPE svg PUBLIC "-//W3C//DTD SVG 1.1//EN" "http://www.w3.org/Graphics/SVG/1.1/DTD/svg11.dtd">
<svg version="1.1" xmlns="http://www.w3.org/2000/svg" xmlns:xlink="http://www.w3.org/1999/xlink" x="0px" y="0px" width="32px"
	 height="32px" viewBox="0 0 32 32" enable-background="new 0 0 32 32" xml:space="preserve">
<g id="Old_Versions" display="none">
</g>
<g id="Layer_1">
	<g>
		<rect x="12" y="2" width="2" height="4"/>
		<rect x="3.225" y="6.22" transform="matrix(0.7071 0.7071 -0.7071 0.7071 6.636 -1.5802)" width="4" height="2"/>
		<rect y="14" width="4" height="2"/>
		<rect x="19.775" y="5.22" transform="matrix(0.7071 0.7071 -0.7071 0.7071 11.1903 -12.5751)" width="2" height="4"/>
		<path d="M26,20c-0.502,0-0.987,0.069-1.454,0.185c-0.755-2.298-2.412-4.185-4.549-5.249C19.965,11.097,16.846,7.995,13,7.995
			c-3.866,0-7,3.134-7,7c0,1.741,0.638,3.329,1.691,4.552c-0.087,0.209-0.167,0.421-0.238,0.638C6.987,20.069,6.502,20,6,20
			c-3.314,0-6,2.686-6,6c0,3.314,2.686,6,6,6h20c3.314,0,6-2.686,6-6C32,22.686,29.314,20,26,20z M13,9.995
			c2.487,0,4.539,1.831,4.92,4.212c-0.619-0.135-1.26-0.212-1.92-0.212c-2.962,0-5.584,1.434-7.223,3.642
			C8.288,16.872,8,15.97,8,14.995C8,12.238,10.243,9.995,13,9.995z M26,30H6c-2.206,0-4-1.794-4-4c0-2.206,1.794-4,4-4
			c1.212,0,2.287,0.553,3.021,1.408C9.013,23.27,9,23.134,9,22.995c0-3.866,3.134-7,7-7s7,3.134,7,7
			c0,0.139-0.013,0.275-0.021,0.413C23.713,22.553,24.788,22,26,22c2.206,0,4,1.794,4,4C30,28.206,28.206,30,26,30z"/>
	</g>
</g>
<g id="Layer_2">
</g>
<g id="Layer_3">
</g>
</svg>
