<?xml version="1.0" encoding="utf-8"?>
<!-- Generator: Adobe Illustrator 18.1.1, SVG Export Plug-In . SVG Version: 6.00 Build 0)  -->
<!DOCTYPE svg PUBLIC "-//W3C//DTD SVG 1.1//EN" "http://www.w3.org/Graphics/SVG/1.1/DTD/svg11.dtd">
<svg version="1.1" xmlns="http://www.w3.org/2000/svg" xmlns:xlink="http://www.w3.org/1999/xlink" x="0px" y="0px" width="32px"
	 height="32px" viewBox="0 0 32 32" enable-background="new 0 0 32 32" xml:space="preserve">
<g id="Old_Versions" display="none">
</g>
<g id="Layer_1">
	<g>
		<rect x="20" y="25" width="1" height="2"/>
		<rect x="20" y="30" width="1" height="2"/>
		<rect x="17.335" y="26.75" transform="matrix(-0.866 -0.5 0.5 -0.866 20.5886 60.0166)" width="2" height="1"/>
		<rect x="21.665" y="29.25" transform="matrix(-0.866 -0.5 0.5 -0.866 27.4186 66.8467)" width="2" height="1"/>
		<rect x="17.835" y="28.75" transform="matrix(-0.5 -0.866 0.866 -0.5 1.7382 60.5035)" width="1" height="2"/>
		<rect x="22.165" y="26.25" transform="matrix(-0.5 -0.866 0.866 -0.5 10.3984 60.5034)" width="1" height="2"/>
		<rect x="28" y="22" width="1" height="2"/>
		<rect x="28" y="27" width="1" height="2"/>
		<rect x="25.335" y="23.75" transform="matrix(-0.866 -0.5 0.5 -0.866 37.0168 58.4185)" width="2" height="1"/>
		<rect x="29.665" y="26.25" transform="matrix(-0.866 -0.5 0.5 -0.866 43.8468 65.2486)" width="2" height="1"/>
		<rect x="25.835" y="25.75" transform="matrix(-0.5 -0.866 0.866 -0.5 16.3362 62.9317)" width="1" height="2"/>
		<rect x="30.165" y="23.25" transform="matrix(-0.5 -0.866 0.866 -0.5 24.9964 62.9317)" width="1" height="2"/>
		<path d="M32,14c0-3.314-2.686-6-6-6c-0.502,0-0.987,0.069-1.454,0.185c-1.181-3.593-4.558-6.19-8.546-6.19
			s-7.365,2.597-8.546,6.19C6.987,8.069,6.502,8,6,8c-3.314,0-6,2.686-6,6c0,3.314,2.686,6,6,6h2.322
			c0.251-0.688,0.659-1.317,1.234-2H6c-2.206,0-4-1.794-4-4c0-2.206,1.794-4,4-4c1.212,0,2.287,0.553,3.021,1.408
			C9.013,11.27,9,11.134,9,10.995c0-3.866,3.134-7,7-7s7,3.134,7,7c0,0.139-0.013,0.275-0.021,0.413C23.713,10.553,24.788,10,26,10
			c2.206,0,4,1.794,4,4c0,2.206-1.794,4-4,4h-7.558c0.576,0.684,0.985,1.313,1.236,2H26C29.314,20,32,17.314,32,14z"/>
		<path d="M14,16.343c-2.842,2.842-4,3.575-4,5.657c0,2.209,1.791,4,4,4s4-1.791,4-4C18,19.92,16.848,19.191,14,16.343z"/>
	</g>
</g>
<g id="Layer_2">
</g>
<g id="Layer_3">
</g>
</svg>
