<?xml version="1.0" encoding="utf-8"?>
<!-- Generator: Adobe Illustrator 18.1.1, SVG Export Plug-In . SVG Version: 6.00 Build 0)  -->
<!DOCTYPE svg PUBLIC "-//W3C//DTD SVG 1.1//EN" "http://www.w3.org/Graphics/SVG/1.1/DTD/svg11.dtd">
<svg version="1.1" xmlns="http://www.w3.org/2000/svg" xmlns:xlink="http://www.w3.org/1999/xlink" x="0px" y="0px" width="32px"
	 height="32px" viewBox="0 0 32 32" enable-background="new 0 0 32 32" xml:space="preserve">
<g id="Old_Versions" display="none">
	<g display="inline">
		<path fill="#DDDDDD" d="M10.852,24.194l-0.532-0.859L8,24.651V22H7v2.577l-2.166-1.273l-0.476,0.861l2.279,1.311l-2.343,1.354
			l0.461,0.861L7,26.372V29h1v-2.702l2.396,1.361L10.91,26.8l-2.285-1.326L10.852,24.194z M8,26H7v-1h1V26z"/>
		<path fill="#DDDDDD" d="M20.56,24.194l-0.534-0.859l-2.32,1.316V22h-1v2.577l-2.164-1.273l-0.477,0.861l2.279,1.311l-2.342,1.354
			l0.46,0.861l2.243-1.318V29h1v-2.702l2.397,1.361l0.516-0.859l-2.285-1.326L20.56,24.194z M17.705,26h-1v-1h1V26z"/>
		<path fill="#DDDDDD" d="M29.562,24.194l-0.534-0.859l-2.322,1.316V22h-1v2.577l-2.162-1.273l-0.476,0.861l2.28,1.311l-2.342,1.354
			l0.458,0.861l2.241-1.318V29h1v-2.702l2.4,1.361L29.62,26.8l-2.285-1.326L29.562,24.194z M26.705,26h-1v-1h1V26z"/>
	</g>
</g>
<g id="Layer_1">
	<g>
		<rect x="6" y="22" width="1" height="2"/>
		<rect x="6" y="27" width="1" height="2"/>
		<rect x="3.335" y="23.75" transform="matrix(-0.866 -0.5 0.5 -0.866 -4.0358 47.4185)" width="2" height="1"/>
		<rect x="7.665" y="26.25" transform="matrix(-0.866 -0.5 0.5 -0.866 2.7942 54.2486)" width="2" height="1"/>
		<rect x="3.835" y="25.75" transform="matrix(-0.5 -0.866 0.866 -0.5 -16.6637 43.8791)" width="1" height="2"/>
		<rect x="8.165" y="23.25" transform="matrix(-0.5 -0.866 0.866 -0.5 -8.0036 43.8791)" width="1" height="2"/>
		<rect x="15.5" y="22" width="1" height="2"/>
		<rect x="15.5" y="27" width="1" height="2"/>
		<rect x="12.835" y="23.75" transform="matrix(-0.866 -0.5 0.5 -0.866 13.6914 52.1685)" width="2" height="1"/>
		<rect x="17.165" y="26.25" transform="matrix(-0.866 -0.5 0.5 -0.866 20.5215 58.9986)" width="2" height="1"/>
		<rect x="13.335" y="25.75" transform="matrix(-0.5 -0.866 0.866 -0.5 -2.4137 52.1064)" width="1" height="2"/>
		<rect x="17.665" y="23.25" transform="matrix(-0.5 -0.866 0.866 -0.5 6.2464 52.1063)" width="1" height="2"/>
		<rect x="25" y="22" width="1" height="2"/>
		<rect x="25" y="27" width="1" height="2"/>
		<rect x="22.335" y="23.75" transform="matrix(-0.866 -0.5 0.5 -0.866 31.4187 56.9185)" width="2" height="1"/>
		<rect x="26.665" y="26.25" transform="matrix(-0.866 -0.5 0.5 -0.866 38.2487 63.7486)" width="2" height="1"/>
		<rect x="22.835" y="25.75" transform="matrix(-0.5 -0.866 0.866 -0.5 11.8363 60.3336)" width="1" height="2"/>
		<rect x="27.165" y="23.25" transform="matrix(-0.5 -0.866 0.866 -0.5 20.4964 60.3336)" width="1" height="2"/>
		<path d="M26,8c-0.502,0-0.987,0.069-1.454,0.185c-1.181-3.593-4.558-6.19-8.546-6.19s-7.365,2.597-8.546,6.19
			C6.987,8.069,6.502,8,6,8c-3.314,0-6,2.686-6,6c0,3.314,2.686,6,6,6h20c3.314,0,6-2.686,6-6C32,10.686,29.314,8,26,8z M26,18H6
			c-2.206,0-4-1.794-4-4c0-2.206,1.794-4,4-4c1.212,0,2.287,0.553,3.021,1.408C9.013,11.27,9,11.134,9,10.995c0-3.866,3.134-7,7-7
			s7,3.134,7,7c0,0.139-0.013,0.275-0.021,0.413C23.713,10.553,24.788,10,26,10c2.206,0,4,1.794,4,4C30,16.206,28.206,18,26,18z"/>
	</g>
</g>
<g id="Layer_2">
</g>
<g id="Layer_3">
</g>
</svg>
