<?xml version="1.0" encoding="utf-8"?>
<!-- Generator: Adobe Illustrator 18.1.1, SVG Export Plug-In . SVG Version: 6.00 Build 0)  -->
<!DOCTYPE svg PUBLIC "-//W3C//DTD SVG 1.1//EN" "http://www.w3.org/Graphics/SVG/1.1/DTD/svg11.dtd">
<svg version="1.1" xmlns="http://www.w3.org/2000/svg" xmlns:xlink="http://www.w3.org/1999/xlink" x="0px" y="0px" width="32px"
	 height="32px" viewBox="0 0 32 32" enable-background="new 0 0 32 32" xml:space="preserve">
<g id="Old_Versions" display="none">
</g>
<g id="Layer_1">
	<g>
		<path d="M20.992,18.068V7.012C20.992,4.244,18.76,2,15.99,2C13.223,2,11,4.156,11,6.924V18c-1.234,1.266-2.016,3.08-2.016,4.988
			C8.984,26.859,12.125,30,16,30c3.873,0,7.016-3.141,7.016-7.012C23.016,21.07,22.234,19.336,20.992,18.068z M15.992,28
			C13.23,28,11,25.75,11,22.988c0-1.631,0.783-3.076,1.992-3.988V7.012c0-1.658,1.35-3,3.008-3c1.656,0,3,1.342,3,3v12
			c1.207,0.912,2,2.346,2,3.977C21,25.75,18.754,28,15.992,28z"/>
		<path d="M16.992,20.172V6.996c0-0.55-0.446-0.996-0.996-0.996S15,6.446,15,6.996v13.176c-1.337,0.476-2.241,1.853-1.943,3.41
			c0.225,1.177,1.192,2.135,2.37,2.353C17.335,26.288,19,24.834,19,22.988C19,21.684,18.154,20.586,16.992,20.172z"/>
	</g>
</g>
<g id="Layer_2">
</g>
<g id="Layer_3">
</g>
</svg>
