<?xml version="1.0" encoding="utf-8"?>
<!-- Generator: Adobe Illustrator 18.1.1, SVG Export Plug-In . SVG Version: 6.00 Build 0)  -->
<!DOCTYPE svg PUBLIC "-//W3C//DTD SVG 1.1//EN" "http://www.w3.org/Graphics/SVG/1.1/DTD/svg11.dtd">
<svg version="1.1" xmlns="http://www.w3.org/2000/svg" xmlns:xlink="http://www.w3.org/1999/xlink" x="0px" y="0px" width="32px"
	 height="32px" viewBox="0 0 32 32" enable-background="new 0 0 32 32" xml:space="preserve">
<g id="Old_Versions" display="none">
</g>
<g id="Layer_1">
	<g>
		<path d="M17,7.012C17,4.244,14.768,2,11.998,2C9.23,2,7,4.156,7,6.924V18c-1.234,1.266-2.008,3.08-2.008,4.988
			c0,3.871,3.141,7.012,7.016,7.012c3.873,0,7.016-3.141,7.016-7.012c0-1.918-0.781-3.652-2.023-4.92V7.012z M12,28
			c-2.762,0-4.992-2.25-4.992-5.012C7.008,21.357,7.791,19.912,9,19V7.012c0-1.658,1.35-3,3.008-3c1.656,0,3,1.342,3,3v12
			c1.207,0.912,2,2.346,2,3.976C17.008,25.75,14.762,28,12,28z"/>
		<path d="M13,20.172V12h-1.992v8.172c-1.164,0.414-2,1.512-2,2.816c0,1.658,1.342,3,3,3c1.656,0,3-1.342,3-3
			C15.008,21.684,14.162,20.586,13,20.172z"/>
		<polygon points="23.008,6 19.016,9.992 22,9.992 22,12.992 24,12.992 24,9.992 27,9.992 		"/>
	</g>
</g>
<g id="Layer_2">
</g>
<g id="Layer_3">
</g>
</svg>
