<?xml version="1.0" encoding="utf-8"?>
<!-- Generator: Adobe Illustrator 18.1.1, SVG Export Plug-In . SVG Version: 6.00 Build 0)  -->
<!DOCTYPE svg PUBLIC "-//W3C//DTD SVG 1.1//EN" "http://www.w3.org/Graphics/SVG/1.1/DTD/svg11.dtd">
<svg version="1.1" xmlns="http://www.w3.org/2000/svg" xmlns:xlink="http://www.w3.org/1999/xlink" x="0px" y="0px" width="32px"
	 height="32px" viewBox="0 0 32 32" enable-background="new 0 0 32 32" xml:space="preserve">
<g id="Old_Versions" display="none">
</g>
<g id="Layer_1">
	<g>
		<path d="M21,9c0-2.209-1.791-4-4-4c-2.209,0-4,1.791-4,4h2c0-1.106,0.896-2,2-2s2,0.894,2,2c0,1.104-0.896,2-2,2H2v2h15
			C19.209,13,21,11.209,21,9z"/>
		<path d="M26,9c-2.209,0-4,1.791-4,4h2c0-1.106,0.896-2,2-2s2,0.894,2,2c0,1.104-0.896,2-2,2H2v2h24c2.209,0,4-1.791,4-4
			S28.209,9,26,9z"/>
		<path d="M17,19H2v2h15c1.104,0,2,0.895,2,2c0,1.104-0.896,2-2,2s-2-0.896-2-2h-2c0,2.209,1.791,4,4,4c2.209,0,4-1.791,4-4
			S19.209,19,17,19z"/>
	</g>
</g>
<g id="Layer_2">
</g>
<g id="Layer_3">
</g>
</svg>
