<?xml version="1.0" encoding="utf-8"?>
<!-- Generator: Adobe Illustrator 16.0.0, SVG Export Plug-In . SVG Version: 6.00 Build 0)  -->
<!DOCTYPE svg PUBLIC "-//W3C//DTD SVG 1.1//EN" "http://www.w3.org/Graphics/SVG/1.1/DTD/svg11.dtd">
<svg version="1.1" id="Layer_1" xmlns="http://www.w3.org/2000/svg" xmlns:xlink="http://www.w3.org/1999/xlink" x="0px" y="0px"
	 width="32px" height="32px" viewBox="0 0 32 32" enable-background="new 0 0 32 32" xml:space="preserve">
<g>
	<polygon points="26.75,24.129 28.871,22.008 26.75,19.887 24.629,22.008 22.508,19.887 20.387,22.008 22.508,24.129 20.387,26.25 
		22.508,28.371 24.629,26.25 26.75,28.371 28.871,26.25 	"/>
	<path d="M16.129,13.612l3.994,3.017h0.006v-10h3v10h3V6.56c0-1.655-1.373-2.931-3.025-2.931H6.106
		c-1.652,0-2.977,1.276-2.977,2.931v16.02c0,1.654,1.325,3.05,2.977,3.05h11.023v-3h-8V6.629h3v10.005L16.129,13.612z"/>
</g>
</svg>
