<?xml version="1.0" encoding="utf-8"?>
<!-- Generator: Adobe Illustrator 16.0.0, SVG Export Plug-In . SVG Version: 6.00 Build 0)  -->
<!DOCTYPE svg PUBLIC "-//W3C//DTD SVG 1.1//EN" "http://www.w3.org/Graphics/SVG/1.1/DTD/svg11.dtd">
<svg version="1.1" id="Layer_1" xmlns="http://www.w3.org/2000/svg" xmlns:xlink="http://www.w3.org/1999/xlink" x="0px" y="0px"
	 width="32px" height="32px" viewBox="0 0 32 32" enable-background="new 0 0 32 32" xml:space="preserve">
<path d="M27.782,15.128c-2.293-2.293-5.971-2.327-8.322-0.133V6.052h3v4.39c0.355-0.043,0.716-0.071,1.08-0.071
	c0.654,0,1.296,0.075,1.92,0.21V5.983c0-1.655-1.374-2.931-3.025-2.931H5.437c-1.653,0-2.977,1.276-2.977,2.931v16.02
	c0,1.654,1.324,3.05,2.977,3.05h6.059l0.348-0.349l2.652-2.652H8.46v-16h3v10.005l3.999-3.021l3.423,2.585
	c-1.576,1.958-1.742,4.666-0.495,6.783l-4.423,4.422l2.122,2.123l4.424-4.424c2.3,1.353,5.3,1.062,7.272-0.912
	C30.125,21.271,30.125,17.47,27.782,15.128z M23.54,22.37c-1.654,0-3.001-1.346-3.001-3s1.347-3.001,3-3c1.653,0,3,1.346,3,3
	S25.192,22.37,23.54,22.37z"/>
</svg>
