<?xml version="1.0" encoding="utf-8"?>
<!-- Generator: Adobe Illustrator 16.0.0, SVG Export Plug-In . SVG Version: 6.00 Build 0)  -->
<!DOCTYPE svg PUBLIC "-//W3C//DTD SVG 1.1//EN" "http://www.w3.org/Graphics/SVG/1.1/DTD/svg11.dtd">
<svg version="1.1" id="Layer_1" xmlns="http://www.w3.org/2000/svg" xmlns:xlink="http://www.w3.org/1999/xlink" x="0px" y="0px"
	 width="32px" height="32px" viewBox="0 0 32 32" enable-background="new 0 0 32 32" xml:space="preserve">
<g>
	<polygon points="26,22.5 26,19.5 23,19.5 23,22.5 20,22.5 20,25.5 23,25.5 23,28.5 26,28.5 26,25.5 29,25.5 29,22.5 	"/>
	<path d="M16,13.483l3.994,3.017H20v-10h3v10h3V6.431C26,4.776,24.627,3.5,22.975,3.5H5.977C4.325,3.5,3,4.776,3,6.431v16.02
		c0,1.654,1.325,3.05,2.977,3.05H17v-3H9V6.5h3v10.005L16,13.483z"/>
</g>
</svg>
